<svg width="159" height="180" viewBox="0 0 159 180" fill="none" xmlns="http://www.w3.org/2000/svg">
<g clip-path="url(#clip0)">
<path d="M81.7494 175.545V157.606C84.6485 157.883 87.5661 158.025 90.4775 158.025C102.365 158.045 114.139 155.732 125.125 151.218C136.11 146.704 146.09 140.077 154.491 131.719L156.244 129.971L140.647 114.47C140.752 114.359 140.845 114.242 140.95 114.131C141.316 113.737 141.669 113.337 142.022 112.931C142.375 112.524 142.777 112.081 143.143 111.644C143.508 111.207 143.818 110.819 144.146 110.413C144.475 110.007 144.859 109.526 145.206 109.077L146.141 107.803C146.476 107.341 146.804 106.879 147.126 106.411C147.448 105.944 147.715 105.549 147.999 105.112C148.284 104.675 148.619 104.158 148.916 103.672C149.214 103.186 149.455 102.792 149.715 102.348C149.975 101.905 150.285 101.357 150.564 100.865C150.843 100.372 151.06 99.9597 151.295 99.5103C151.53 99.0609 151.821 98.4884 152.075 97.9774C152.329 97.4665 152.521 97.0663 152.732 96.6046C152.943 96.1429 153.209 95.5519 153.438 95.0225C153.667 94.493 153.835 94.099 154.058 93.6312C154.281 93.1633 154.485 92.5477 154.677 92.006C154.869 91.4642 155.03 91.0764 155.191 90.6023C155.352 90.1283 155.569 89.4942 155.749 88.9279C155.904 88.46 156.058 87.9921 156.195 87.5181C156.331 87.0441 156.523 86.3731 156.678 85.8005C156.802 85.3265 156.932 84.8587 157.05 84.3846C157.198 83.769 157.322 83.2026 157.452 82.6116C157.551 82.1438 157.663 81.6759 157.756 81.2019C157.873 80.5863 157.973 79.9706 158.078 79.355C158.152 78.8995 158.239 78.4439 158.307 77.9822C158.4 77.3297 158.468 76.671 158.549 76.0184C158.598 75.5813 158.66 75.1565 158.697 74.7194C158.772 73.9869 158.815 73.2481 158.865 72.5155C158.865 72.1523 158.92 71.7891 158.939 71.4259C158.995 70.3239 159.019 69.2158 159.026 68.1077C159.023 55.7186 155.62 43.5648 149.183 32.955C142.746 22.3453 133.519 13.6815 122.495 7.89657C111.471 2.11162 99.0684 -0.575325 86.622 0.125042C74.1757 0.825409 62.1573 4.88656 51.8611 11.8712L51.4894 12.1298C50.7337 12.651 49.9862 13.1886 49.247 13.7427C48.9806 13.9397 48.7204 14.1551 48.4603 14.3583C47.8408 14.82 47.2709 15.2817 46.6887 15.7681C46.3232 16.0636 45.9763 16.3837 45.617 16.6792C45.1338 17.1039 44.6507 17.5226 44.1737 17.9535L43.8454 18.2428L28.2663 2.76008L26.507 4.50843C-8.80152 39.5985 -8.80152 96.6477 26.507 131.725C40.2436 145.399 58.0621 154.29 77.3018 157.07V175.539H0.00701904V179.996H159.007V175.539L81.7494 175.545ZM135.418 23.4448C147.037 34.9806 153.708 50.5409 154.03 66.8597C154.352 83.1785 148.301 98.987 137.147 110.967L125.049 98.9439C132.988 90.1501 137.238 78.669 136.926 66.8585C136.614 55.0479 131.763 43.8044 123.37 35.437C122.249 34.3227 121.078 33.2762 119.87 32.2912C119.672 32.1311 119.455 31.9957 119.251 31.8356C118.223 31.0292 117.176 30.2473 116.092 29.5271L115.918 29.4286C108.366 24.4949 99.5215 21.8748 90.4837 21.8934C81.445 21.8761 72.5996 24.4938 65.0429 29.4224C64.9915 29.4588 64.9377 29.4917 64.8819 29.5209C63.7792 30.2473 62.72 31.0415 61.6793 31.8603C61.4873 32.008 61.2891 32.1311 61.1032 32.285C60.5271 32.7529 59.9944 33.27 59.4431 33.7687L47.3267 21.7395C59.3944 10.6724 75.3 4.67018 91.7176 4.98798C108.135 5.30579 123.794 11.919 135.418 23.4448ZM119.839 97.3187C118.832 98.2955 117.787 99.2148 116.705 100.077C116.55 100.2 116.383 100.304 116.228 100.428C115.28 101.172 114.32 101.893 113.329 102.545L113.205 102.613C106.451 106.993 98.562 109.329 90.4972 109.338C82.4324 109.346 74.5386 107.027 67.7747 102.662L67.5888 102.551C66.6225 101.936 65.6933 101.216 64.7704 100.495C64.5907 100.354 64.3987 100.231 64.219 100.089C55.6992 93.1655 50.2916 83.1653 49.1831 72.2835C48.0747 61.4017 51.356 50.5274 58.3069 42.0475C65.2578 33.5676 75.3102 28.175 86.2577 27.0534C97.2052 25.9317 108.153 29.1727 116.699 36.0649C117.796 36.9543 118.846 37.8995 119.846 38.8967C127.627 46.6456 131.996 57.1462 131.995 68.0936C131.994 79.041 127.622 89.5407 119.839 97.2879V97.3187ZM43.8206 25.2301L55.9184 37.2838C51.709 41.931 48.4932 47.3796 46.4661 53.299C44.439 59.2184 43.6428 65.4853 44.1259 71.7196C44.609 77.954 46.3613 84.0259 49.2764 89.567C52.1915 95.1082 56.2088 100.003 61.0846 103.955C61.2891 104.127 61.5121 104.263 61.7041 104.429C62.7262 105.229 63.7607 106.005 64.8385 106.713L65.0801 106.861C72.616 111.759 81.4294 114.359 90.4341 114.341C99.4565 114.357 108.286 111.746 115.831 106.83L116.036 106.707C117.126 105.987 118.179 105.199 119.214 104.386C119.412 104.232 119.623 104.103 119.833 103.943C120.403 103.481 120.936 102.958 121.487 102.465L133.585 114.482C121.526 125.559 105.62 131.565 89.202 131.242C72.7843 130.919 57.1299 124.292 45.5213 112.75C33.9127 101.207 27.2516 85.6466 26.9345 69.3303C26.6175 53.0139 32.6691 37.2092 43.8206 25.2301ZM28.2539 9.75964L30.0255 11.5265L40.3083 21.7395C28.1982 34.6451 21.6039 51.7198 21.9158 69.3636C22.2277 87.0074 29.4215 103.841 41.9804 116.316C54.5393 128.791 71.4818 135.932 89.2355 136.233C106.989 136.534 124.167 129.971 137.147 117.93L147.442 128.167L149.22 129.928C115.739 161.324 62.7881 160.77 30.0193 128.21C-2.74952 95.6504 -3.35658 43.0337 28.2539 9.75964Z" fill="url(#paint0_linear)"/>
</g>
<defs>
<linearGradient id="paint0_linear" x1="2.22465" y1="182.206" x2="151.281" y2="32.2219" gradientUnits="userSpaceOnUse">
<stop stop-color="#F20DB2"/>
<stop offset="1" stop-color="#1192C9"/>
</linearGradient>
<clipPath id="clip0">
<rect width="159" height="180" fill="white"/>
</clipPath>
</defs>
</svg>
