<svg width="381" height="23" viewBox="0 0 381 23" fill="none" xmlns="http://www.w3.org/2000/svg">
<path d="M1.704 17.304L3.36 12.96H11.016L12.696 17.304H14.4L8.04 0.768H6.36L0 17.304H1.704ZM10.464 11.472H3.936L7.2 2.976L10.464 11.472Z" fill="white"/>
<path d="M21.5297 14.088C21.6017 16.296 23.5697 17.544 25.4417 17.544C27.7697 17.544 29.5457 16.2 29.5457 14.256C29.5457 12.72 28.8257 11.496 26.7137 10.992L25.1777 10.632C24.4097 10.44 23.2577 10.032 23.5217 8.76C23.6417 7.968 24.5297 7.392 25.6097 7.392C26.5697 7.392 27.3857 7.896 27.5777 8.76H29.1377C28.8257 6.72 27.3617 5.856 25.6097 5.856C23.7857 5.856 22.2257 6.912 21.9617 8.52C21.6497 11.136 23.4257 11.856 24.7937 12.168L26.3537 12.528C27.5297 12.816 27.9617 13.512 27.9617 14.256C27.9617 15.312 27.0257 16.032 25.5857 16.032C23.6897 16.032 23.1377 14.952 22.9457 14.088H21.5297Z" fill="white"/>
<path d="M40.4856 12.216C40.4856 14.952 38.5416 15.96 36.7656 15.96C35.0376 15.96 34.0536 14.712 34.0536 12.624V6.096H32.4456V12.624C32.4216 15.696 34.0056 17.544 36.7656 17.544C38.0616 17.544 39.7896 16.92 40.4856 15.456V17.304H42.0936V6.096H40.4856V12.216Z" fill="white"/>
<path d="M56.7724 6.096H55.1644V7.944C54.3244 6.528 52.5724 5.856 50.9404 5.856C47.7484 5.856 45.2044 8.112 45.2044 11.664C45.2044 15.216 47.7484 17.544 50.9404 17.544C52.5724 17.544 54.3244 16.8 55.1644 15.384V17.304H56.7724V6.096ZM46.8124 11.664C46.8124 9.096 48.6124 7.464 50.9404 7.464C52.9564 7.464 55.1644 8.88 55.1644 11.664C55.1644 14.448 53.2444 15.936 50.9404 15.936C48.6124 15.936 46.8124 14.16 46.8124 11.664Z" fill="white"/>
<path d="M69.3947 17.304V7.536H71.7707V6.096H69.3947V1.896H67.7867V6.096H65.7707V7.536H67.7867V17.304H69.3947Z" fill="white"/>
<path d="M81.0735 6.288C80.8575 6.096 80.0175 5.856 79.2495 5.856C77.6175 5.856 76.5855 6.72 76.0335 8.64V6.096H74.4255V17.304H76.0335V13.128C76.0335 10.152 76.9695 7.464 79.2495 7.464C79.6575 7.464 80.3295 7.584 80.8815 7.848L81.0735 6.288Z" fill="white"/>
<path d="M93.9443 6.096H92.3363V7.944C91.4963 6.528 89.7442 5.856 88.1123 5.856C84.9202 5.856 82.3763 8.112 82.3763 11.664C82.3763 15.216 84.9202 17.544 88.1123 17.544C89.7442 17.544 91.4963 16.8 92.3363 15.384V17.304H93.9443V6.096ZM83.9843 11.664C83.9843 9.096 85.7842 7.464 88.1123 7.464C90.1283 7.464 92.3363 8.88 92.3363 11.664C92.3363 14.448 90.4163 15.936 88.1123 15.936C85.7842 15.936 83.9843 14.16 83.9843 11.664Z" fill="white"/>
<path d="M99.4476 11.184C99.4476 8.448 101.392 7.44 103.168 7.44C104.896 7.44 105.88 8.688 105.88 10.776V17.304H107.488V10.776C107.512 7.704 105.928 5.856 103.168 5.856C101.872 5.856 100.144 6.48 99.4476 7.944V6.096H97.8396V17.304H99.4476V11.184Z" fill="white"/>
<path d="M110.334 14.088C110.406 16.296 112.374 17.544 114.246 17.544C116.574 17.544 118.35 16.2 118.35 14.256C118.35 12.72 117.63 11.496 115.518 10.992L113.982 10.632C113.214 10.44 112.062 10.032 112.326 8.76C112.446 7.968 113.334 7.392 114.414 7.392C115.374 7.392 116.19 7.896 116.382 8.76H117.942C117.63 6.72 116.166 5.856 114.414 5.856C112.59 5.856 111.03 6.912 110.766 8.52C110.454 11.136 112.23 11.856 113.598 12.168L115.158 12.528C116.334 12.816 116.766 13.512 116.766 14.256C116.766 15.312 115.83 16.032 114.39 16.032C112.494 16.032 111.942 14.952 111.75 14.088H110.334Z" fill="white"/>
<path d="M127.442 0.0239997H126.242C123.266 0.0239997 122.33 2.112 122.33 4.8V6.096H120.146V7.536H122.33V17.304H123.938V7.536H126.698V6.096H123.938V4.8C123.938 3.312 124.082 1.536 126.242 1.536H127.442V0.0239997Z" fill="white"/>
<path d="M134.17 17.544C137.362 17.544 140.026 15.216 140.026 11.664C140.026 8.112 137.362 5.856 134.17 5.856C130.978 5.856 128.314 8.112 128.314 11.664C128.314 15.216 130.978 17.544 134.17 17.544ZM134.17 15.96C131.842 15.96 129.898 14.256 129.898 11.664C129.898 9.072 131.842 7.44 134.17 7.44C136.498 7.44 138.442 9.072 138.442 11.664C138.442 14.256 136.498 15.96 134.17 15.96Z" fill="white"/>
<path d="M149.792 6.288C149.576 6.096 148.736 5.856 147.968 5.856C146.336 5.856 145.304 6.72 144.752 8.64V6.096H143.144V17.304H144.752V13.128C144.752 10.152 145.688 7.464 147.968 7.464C148.376 7.464 149.048 7.584 149.6 7.848L149.792 6.288Z" fill="white"/>
<path d="M161.839 11.184C161.839 8.448 163.783 7.44 165.559 7.44C167.287 7.44 168.271 8.688 168.271 10.776V17.304H169.879V10.776C169.903 7.704 168.319 5.856 165.559 5.856C164.431 5.856 162.439 6.192 161.407 8.304C160.759 6.744 159.439 5.856 157.519 5.856C156.487 5.856 154.495 6.48 153.799 7.944V6.096H152.191V17.304H153.799V11.184C153.799 8.448 155.743 7.44 157.519 7.44C159.247 7.44 160.231 8.688 160.231 10.776V17.304H161.839V11.184Z" fill="white"/>
<path d="M184.413 6.096H182.805V7.944C181.965 6.528 180.213 5.856 178.581 5.856C175.389 5.856 172.845 8.112 172.845 11.664C172.845 15.216 175.389 17.544 178.581 17.544C180.213 17.544 181.965 16.8 182.805 15.384V17.304H184.413V6.096ZM174.453 11.664C174.453 9.096 176.253 7.464 178.581 7.464C180.597 7.464 182.805 8.88 182.805 11.664C182.805 14.448 180.885 15.936 178.581 15.936C176.253 15.936 174.453 14.16 174.453 11.664Z" fill="white"/>
<path d="M193.948 17.52C195.316 17.4 196.492 16.896 197.452 16.008L196.3 14.88C195.508 15.6 194.524 15.96 193.396 15.96C191.068 15.96 189.124 14.256 189.124 11.664C189.124 9.072 191.068 7.44 193.396 7.44C194.524 7.44 195.532 7.824 196.3 8.496L197.428 7.368C196.372 6.408 194.956 5.856 193.396 5.856C190.204 5.856 187.54 8.112 187.54 11.664C187.54 14.928 189.796 17.184 192.604 17.496L193.444 19.44C193.708 19.992 193.42 20.64 192.844 20.904C192.292 21.12 191.692 20.832 191.428 20.28C191.356 20.112 191.404 19.992 191.332 19.824L190.06 19.728C190.06 20.064 190.132 20.4 190.276 20.76C190.828 21.984 192.076 22.536 193.3 22.032C194.548 21.528 195.1 20.208 194.548 18.936L193.948 17.52Z" fill="white"/>
<path d="M204.346 2.28C205.066 2.28 205.45 3.288 206.53 3.288C207.394 3.288 208.45 2.736 208.57 0.768H207.346C207.322 1.56 206.842 1.776 206.53 1.776C205.81 1.776 205.426 0.768 204.346 0.768C203.434 0.768 202.426 1.392 202.306 3.36H203.53C203.554 2.568 204.034 2.28 204.346 2.28ZM210.874 6.096H209.266V7.944C208.426 6.528 206.674 5.856 205.042 5.856C201.85 5.856 199.306 8.112 199.306 11.664C199.306 15.216 201.85 17.544 205.042 17.544C206.674 17.544 208.426 16.8 209.266 15.384V17.304H210.874V6.096ZM200.914 11.664C200.914 9.096 202.714 7.464 205.042 7.464C207.058 7.464 209.266 8.88 209.266 11.664C209.266 14.448 207.346 15.936 205.042 15.936C202.714 15.936 200.914 14.16 200.914 11.664Z" fill="white"/>
<path d="M219.857 17.544C223.049 17.544 225.713 15.216 225.713 11.664C225.713 8.112 223.049 5.856 219.857 5.856C216.665 5.856 214.001 8.112 214.001 11.664C214.001 15.216 216.665 17.544 219.857 17.544ZM219.857 15.96C217.529 15.96 215.585 14.256 215.585 11.664C215.585 9.072 217.529 7.44 219.857 7.44C222.185 7.44 224.129 9.072 224.129 11.664C224.129 14.256 222.185 15.96 219.857 15.96Z" fill="white"/>
<path d="M243.199 14.88C242.407 15.6 241.423 15.96 240.295 15.96C237.967 15.96 236.023 14.256 236.023 11.664C236.023 9.072 237.967 7.44 240.295 7.44C241.423 7.44 242.431 7.824 243.199 8.496L244.327 7.368C243.271 6.408 241.855 5.856 240.295 5.856C237.103 5.856 234.439 8.112 234.439 11.664C234.439 15.216 237.103 17.544 240.295 17.544C241.855 17.544 243.295 16.992 244.351 16.008L243.199 14.88Z" fill="white"/>
<path d="M252.037 17.544C255.229 17.544 257.893 15.216 257.893 11.664C257.893 8.112 255.229 5.856 252.037 5.856C248.845 5.856 246.181 8.112 246.181 11.664C246.181 15.216 248.845 17.544 252.037 17.544ZM252.037 15.96C249.709 15.96 247.765 14.256 247.765 11.664C247.765 9.072 249.709 7.44 252.037 7.44C254.365 7.44 256.309 9.072 256.309 11.664C256.309 14.256 254.365 15.96 252.037 15.96Z" fill="white"/>
<path d="M270.659 11.184C270.659 8.448 272.603 7.44 274.379 7.44C276.107 7.44 277.091 8.688 277.091 10.776V17.304H278.699V10.776C278.723 7.704 277.139 5.856 274.379 5.856C273.251 5.856 271.259 6.192 270.227 8.304C269.579 6.744 268.259 5.856 266.339 5.856C265.307 5.856 263.315 6.48 262.619 7.944V6.096H261.011V17.304H262.619V11.184C262.619 8.448 264.563 7.44 266.339 7.44C268.067 7.44 269.051 8.688 269.051 10.776V17.304H270.659V11.184Z" fill="white"/>
<path d="M287.329 17.544C289.609 17.544 291.505 16.392 292.441 14.376C291.937 14.256 291.313 14.136 290.833 14.016C290.137 15.24 288.865 15.96 287.329 15.96C285.265 15.96 283.561 14.592 283.297 12.408H292.801C292.825 12.192 292.825 11.928 292.825 11.664C292.825 8.112 290.521 5.856 287.329 5.856C284.137 5.856 281.665 8.112 281.665 11.664C281.665 15.216 284.137 17.544 287.329 17.544ZM283.297 10.92C283.609 8.784 285.217 7.44 287.329 7.44C289.417 7.44 290.881 8.784 291.193 10.92H283.297Z" fill="white"/>
<path d="M301.433 17.52C302.801 17.4 303.977 16.896 304.937 16.008L303.785 14.88C302.993 15.6 302.009 15.96 300.881 15.96C298.553 15.96 296.609 14.256 296.609 11.664C296.609 9.072 298.553 7.44 300.881 7.44C302.009 7.44 303.017 7.824 303.785 8.496L304.913 7.368C303.857 6.408 302.441 5.856 300.881 5.856C297.689 5.856 295.025 8.112 295.025 11.664C295.025 14.928 297.281 17.184 300.089 17.496L300.929 19.44C301.193 19.992 300.905 20.64 300.329 20.904C299.777 21.12 299.177 20.832 298.913 20.28C298.841 20.112 298.889 19.992 298.817 19.824L297.545 19.728C297.545 20.064 297.617 20.4 297.761 20.76C298.313 21.984 299.561 22.536 300.785 22.032C302.033 21.528 302.585 20.208 302.033 18.936L301.433 17.52Z" fill="white"/>
<path d="M318.358 6.096H316.75V7.944C315.91 6.528 314.158 5.856 312.526 5.856C309.334 5.856 306.79 8.112 306.79 11.664C306.79 15.216 309.334 17.544 312.526 17.544C314.158 17.544 315.91 16.8 316.75 15.384V17.304H318.358V6.096ZM308.398 11.664C308.398 9.096 310.198 7.464 312.526 7.464C314.542 7.464 316.75 8.88 316.75 11.664C316.75 14.448 314.83 15.936 312.526 15.936C310.198 15.936 308.398 14.16 308.398 11.664Z" fill="white"/>
<path d="M336.525 17.304H339.837V6.096H336.525V7.344C335.613 6.12 334.005 5.856 333.261 5.856C330.405 5.856 327.549 8.112 327.549 11.688C327.549 15.264 330.405 17.52 333.261 17.52C334.101 17.52 335.829 17.088 336.525 16.032V17.304ZM331.005 11.688C331.005 10.08 332.397 9.024 333.813 9.024C335.181 9.024 336.525 10.032 336.525 11.688C336.525 13.368 335.181 14.352 333.813 14.352C332.397 14.352 331.005 13.296 331.005 11.688Z" fill="white"/>
<path d="M350.956 7.488C350.404 6.456 349.108 5.856 347.668 5.856C344.812 5.856 342.268 8.112 342.268 11.664C342.268 15.264 344.812 17.544 347.668 17.544C349.108 17.544 350.404 16.968 350.956 15.936V22.8H354.292V6.096H350.956V7.488ZM350.884 11.736C350.884 13.416 349.636 14.4 348.292 14.4C346.876 14.4 345.724 13.368 345.724 11.736C345.724 10.08 346.876 9.024 348.292 9.024C349.708 9.024 350.884 10.104 350.884 11.736Z" fill="white"/>
<path d="M364.577 12.024C364.577 13.728 363.593 14.304 362.561 14.304C361.793 14.304 360.569 13.872 360.569 12.072V6.096H357.233V12.792C357.233 15.984 359.153 17.544 361.673 17.544C362.753 17.544 363.977 16.896 364.577 15.768V17.304H367.913V6.096H364.577V12.024Z" fill="white"/>
<path d="M374.306 6.096H370.994V17.304H374.306V6.096ZM370.562 1.944C370.562 3.024 371.522 3.912 372.65 3.912C373.802 3.912 374.69 3.024 374.69 1.944C374.69 0.816 373.778 0 372.65 0C371.522 0 370.562 0.839999 370.562 1.944Z" fill="white"/>
<path d="M377.561 16.296C377.561 17.04 378.137 17.544 378.881 17.544C379.625 17.544 380.201 17.04 380.201 16.296C380.201 15.552 379.625 15.048 378.881 15.048C378.137 15.048 377.561 15.552 377.561 16.296Z" fill="white"/>
</svg>
