<svg width="492" height="71" viewBox="0 0 492 71" fill="none" xmlns="http://www.w3.org/2000/svg">
<path d="M11.232 5.84008C13.248 5.84008 14.22 7.78408 14.22 9.33208C14.22 10.9161 13.14 12.8241 11.088 12.8241H6.444V5.84008H11.232ZM1.152 26.0001H6.444V17.4321H11.34C16.992 17.4321 19.512 13.4721 19.512 9.33208C19.512 5.26408 16.992 1.19608 11.34 1.19608H1.152V26.0001Z" fill="white"/>
<path d="M27.4463 20.1321C27.4463 15.6681 28.7423 13.4361 31.6223 13.4361C32.4503 13.4361 33.2783 13.5081 34.1783 13.9401L35.0783 9.44008C34.2503 9.04408 33.3863 8.82808 32.1983 8.82808C30.4703 8.82808 28.3103 10.1241 27.4463 13.2561V9.18808H22.4423V26.0001H27.4463V20.1321Z" fill="white"/>
<path d="M45.0877 21.3921C43.0357 21.3921 41.3078 19.8801 41.3078 17.5401C41.3078 15.2361 43.0357 13.7241 45.0877 13.7241C47.2118 13.7241 48.9038 15.2361 48.9038 17.5401C48.9038 19.8801 47.2118 21.3921 45.0877 21.3921ZM45.0877 26.2881C49.8397 26.2881 53.8358 22.8321 53.8358 17.5401C53.8358 12.2121 49.8397 8.82808 45.0877 8.82808C40.2997 8.82808 36.3758 12.2121 36.3758 17.5401C36.3758 22.8321 40.2997 26.2881 45.0877 26.2881Z" fill="white"/>
<path d="M62.4988 17.6481C62.4988 15.2001 64.2628 13.5801 66.3868 13.5801C68.5108 13.5801 70.2748 15.1641 70.2748 17.6481C70.2748 20.0961 68.5468 21.6441 66.3868 21.6441C64.3708 21.6441 62.4988 20.1681 62.4988 17.6481ZM57.4228 9.18808V34.2441H62.3908V23.9481C63.2188 25.4961 65.1988 26.3601 67.3228 26.3601C71.6428 26.3601 75.4588 22.9401 75.4588 17.5401C75.4588 12.2121 71.6428 8.82808 67.3228 8.82808C65.1988 8.82808 63.2188 9.72808 62.3908 11.2761V9.18808H57.4228Z" fill="white"/>
<path d="M91.5351 26.0001H96.5031V9.18808H91.5351V11.0601C90.1671 9.22408 87.7551 8.82808 86.6391 8.82808C82.3551 8.82808 78.0711 12.2121 78.0711 17.5761C78.0711 22.9401 82.3551 26.3241 86.6391 26.3241C87.8991 26.3241 90.4911 25.6761 91.5351 24.0921V26.0001ZM83.2551 17.5761C83.2551 15.1641 85.3431 13.5801 87.4671 13.5801C89.5191 13.5801 91.5351 15.0921 91.5351 17.5761C91.5351 20.0961 89.5191 21.5721 87.4671 21.5721C85.3431 21.5721 83.2551 19.9881 83.2551 17.5761Z" fill="white"/>
<path d="M113.434 17.5401C113.434 20.0241 111.418 21.6441 109.366 21.6441C107.206 21.6441 105.334 20.0241 105.334 17.5401C105.334 15.1641 107.206 13.5801 109.366 13.5801C111.454 13.5801 113.434 15.0561 113.434 17.5401ZM100.618 29.1681C102.058 32.3001 105.19 34.3881 108.898 34.3881C114.838 34.3881 118.402 30.8961 118.402 23.6601V9.18808H113.542V11.2761C112.678 9.76408 110.59 8.82808 108.502 8.82808C104.182 8.82808 100.114 12.2481 100.114 17.6481C100.114 22.9761 104.182 26.3601 108.502 26.3601C110.626 26.3601 112.714 25.4601 113.542 23.9121C113.722 27.2241 112.75 29.8881 108.898 29.8881C107.206 29.8881 105.226 28.7721 104.65 27.1881L100.618 29.1681Z" fill="white"/>
<path d="M135.48 26.0001H140.448V9.18808H135.48V11.0601C134.112 9.22408 131.7 8.82808 130.584 8.82808C126.3 8.82808 122.016 12.2121 122.016 17.5761C122.016 22.9401 126.3 26.3241 130.584 26.3241C131.844 26.3241 134.436 25.6761 135.48 24.0921V26.0001ZM127.2 17.5761C127.2 15.1641 129.288 13.5801 131.412 13.5801C133.464 13.5801 135.48 15.0921 135.48 17.5761C135.48 20.0961 133.464 21.5721 131.412 21.5721C129.288 21.5721 127.2 19.9881 127.2 17.5761Z" fill="white"/>
<path d="M154.355 26.2881C156.947 26.0001 159.107 24.7761 160.511 22.7601L156.443 19.8801C155.759 20.9961 154.499 21.5721 153.203 21.5721C151.079 21.5721 149.027 19.9521 149.027 17.5401C149.027 15.1281 151.079 13.6161 153.203 13.6161C154.499 13.6161 155.759 14.1921 156.443 15.3081L160.511 12.3921C158.891 10.0881 156.227 8.82808 153.203 8.82808C148.415 8.82808 144.059 12.2121 144.059 17.5401C144.059 22.2921 147.551 25.6761 151.763 26.2521L153.023 29.6361C153.275 30.2481 153.059 30.8961 152.483 31.1481C151.907 31.2921 151.331 31.0401 151.079 30.4641C150.971 30.2121 151.007 29.9961 151.007 29.8161C151.007 29.7081 151.007 29.6361 151.043 29.5281L148.271 29.3841C148.235 30.5721 148.307 30.9321 148.559 31.5081C149.243 32.9841 150.575 33.8481 151.979 33.8481C154.103 33.8481 155.831 32.1561 155.831 30.1401C155.831 29.6001 155.867 29.0601 155.471 28.3761L154.355 26.2881Z" fill="white"/>
<path d="M176.226 26.0001H181.194V9.18808H176.226V11.0601C174.858 9.22408 172.446 8.82808 171.33 8.82808C167.046 8.82808 162.762 12.2121 162.762 17.5761C162.762 22.9401 167.046 26.3241 171.33 26.3241C172.59 26.3241 175.182 25.6761 176.226 24.0921V26.0001ZM167.946 17.5761C167.946 15.1641 170.034 13.5801 172.158 13.5801C174.21 13.5801 176.226 15.0921 176.226 17.5761C176.226 20.0961 174.21 21.5721 172.158 21.5721C170.034 21.5721 167.946 19.9881 167.946 17.5761ZM170.934 4.18408C171.798 4.18408 172.626 5.66008 174.066 5.66008C175.542 5.66008 177.522 4.61608 177.702 1.05208H175.002C174.966 2.20408 174.318 2.52808 174.066 2.52808C173.166 2.52808 172.446 1.05208 170.934 1.05208C169.386 1.05208 167.478 2.16808 167.298 5.73208H169.998C170.034 4.58008 170.682 4.18408 170.934 4.18408Z" fill="white"/>
<path d="M193.517 21.3921C191.465 21.3921 189.737 19.8801 189.737 17.5401C189.737 15.2361 191.465 13.7241 193.517 13.7241C195.641 13.7241 197.333 15.2361 197.333 17.5401C197.333 19.8801 195.641 21.3921 193.517 21.3921ZM193.517 26.2881C198.269 26.2881 202.265 22.8321 202.265 17.5401C202.265 12.2121 198.269 8.82808 193.517 8.82808C188.729 8.82808 184.805 12.2121 184.805 17.5401C184.805 22.8321 188.729 26.2881 193.517 26.2881Z" fill="white"/>
<path d="M231.454 0.0800781H229.042V11.9601C227.782 9.83608 225.154 8.82808 222.706 8.82808C217.918 8.82808 214.102 12.2121 214.102 17.5401C214.102 22.8681 217.918 26.3601 222.706 26.3601C225.154 26.3601 227.782 25.2441 229.042 23.1201V26.0001H231.454V0.0800781ZM216.514 17.5401C216.514 13.6881 219.214 11.2401 222.706 11.2401C225.73 11.2401 229.042 13.3641 229.042 17.5401C229.042 21.7161 226.162 23.9481 222.706 23.9481C219.214 23.9481 216.514 21.2841 216.514 17.5401Z" fill="white"/>
<path d="M244.641 26.3601C248.061 26.3601 250.905 24.6321 252.309 21.6081C251.553 21.4281 250.617 21.2481 249.897 21.0681C248.853 22.9041 246.945 23.9841 244.641 23.9841C241.545 23.9841 238.989 21.9321 238.593 18.6561H252.849C252.885 18.3321 252.885 17.9361 252.885 17.5401C252.885 12.2121 249.429 8.82808 244.641 8.82808C239.853 8.82808 236.145 12.2121 236.145 17.5401C236.145 22.8681 239.853 26.3601 244.641 26.3601ZM238.593 16.4241C239.061 13.2201 241.473 11.2041 244.641 11.2041C247.773 11.2041 249.969 13.2201 250.437 16.4241H238.593Z" fill="white"/>
<path d="M278.886 22.3641C277.698 23.4441 276.222 23.9841 274.53 23.9841C271.038 23.9841 268.122 21.4281 268.122 17.5401C268.122 13.6521 271.038 11.2041 274.53 11.2041C276.222 11.2041 277.734 11.7801 278.886 12.7881L280.578 11.0961C278.994 9.65608 276.87 8.82808 274.53 8.82808C269.742 8.82808 265.746 12.2121 265.746 17.5401C265.746 22.8681 269.742 26.3601 274.53 26.3601C276.87 26.3601 279.03 25.5321 280.614 24.0561L278.886 22.3641Z" fill="white"/>
<path d="M292.143 26.3601C296.931 26.3601 300.927 22.8681 300.927 17.5401C300.927 12.2121 296.931 8.82808 292.143 8.82808C287.355 8.82808 283.359 12.2121 283.359 17.5401C283.359 22.8681 287.355 26.3601 292.143 26.3601ZM292.143 23.9841C288.651 23.9841 285.735 21.4281 285.735 17.5401C285.735 13.6521 288.651 11.2041 292.143 11.2041C295.635 11.2041 298.551 13.6521 298.551 17.5401C298.551 21.4281 295.635 23.9841 292.143 23.9841Z" fill="white"/>
<path d="M308.017 16.8201C308.017 12.7161 310.933 11.2041 313.597 11.2041C316.189 11.2041 317.665 13.0761 317.665 16.2081V26.0001H320.077V16.2081C320.113 11.6001 317.737 8.82808 313.597 8.82808C311.653 8.82808 309.061 9.76408 308.017 11.9601V9.18808H305.605V26.0001H308.017V16.8201Z" fill="white"/>
<path d="M328.091 16.8201C328.091 12.7161 331.007 11.2041 333.671 11.2041C336.263 11.2041 337.739 13.0761 337.739 16.2081V26.0001H340.151V16.2081C340.187 11.6001 337.811 8.82808 333.671 8.82808C331.727 8.82808 329.135 9.76408 328.091 11.9601V0.0800781H325.679V26.0001H328.091V16.8201Z" fill="white"/>
<path d="M353.098 26.3601C356.518 26.3601 359.362 24.6321 360.766 21.6081C360.01 21.4281 359.074 21.2481 358.354 21.0681C357.31 22.9041 355.402 23.9841 353.098 23.9841C350.002 23.9841 347.446 21.9321 347.05 18.6561H361.306C361.342 18.3321 361.342 17.9361 361.342 17.5401C361.342 12.2121 357.886 8.82808 353.098 8.82808C348.31 8.82808 344.602 12.2121 344.602 17.5401C344.602 22.8681 348.31 26.3601 353.098 26.3601ZM347.05 16.4241C347.518 13.2201 349.93 11.2041 353.098 11.2041C356.23 11.2041 358.426 13.2201 358.894 16.4241H347.05Z" fill="white"/>
<path d="M377.781 22.3641C376.593 23.4441 375.117 23.9841 373.425 23.9841C369.933 23.9841 367.017 21.4281 367.017 17.5401C367.017 13.6521 369.933 11.2041 373.425 11.2041C375.117 11.2041 376.629 11.7801 377.781 12.7881L379.473 11.0961C377.889 9.65608 375.765 8.82808 373.425 8.82808C368.637 8.82808 364.641 12.2121 364.641 17.5401C364.641 22.8681 368.637 26.3601 373.425 26.3601C375.765 26.3601 377.925 25.5321 379.509 24.0561L377.781 22.3641Z" fill="white"/>
<path d="M386.309 9.18808H383.933V26.0001H386.309V9.18808ZM383.321 2.92408C383.321 3.93208 384.149 4.65208 385.157 4.65208C386.165 4.65208 386.993 3.93208 386.993 2.92408C386.993 1.91608 386.165 1.19608 385.157 1.19608C384.149 1.19608 383.321 1.91608 383.321 2.92408Z" fill="white"/>
<path d="M406.597 16.8201C406.597 12.7161 409.513 11.2041 412.177 11.2041C414.769 11.2041 416.245 13.0761 416.245 16.2081V26.0001H418.657V16.2081C418.693 11.6001 416.317 8.82808 412.177 8.82808C410.485 8.82808 407.497 9.33208 405.949 12.5001C404.977 10.1601 402.997 8.82808 400.117 8.82808C398.569 8.82808 395.581 9.76408 394.537 11.9601V9.18808H392.125V26.0001H394.537V16.8201C394.537 12.7161 397.453 11.2041 400.117 11.2041C402.709 11.2041 404.185 13.0761 404.185 16.2081V26.0001H406.597V16.8201Z" fill="white"/>
<path d="M431.601 26.3601C435.021 26.3601 437.865 24.6321 439.269 21.6081C438.513 21.4281 437.577 21.2481 436.857 21.0681C435.813 22.9041 433.905 23.9841 431.601 23.9841C428.505 23.9841 425.949 21.9321 425.553 18.6561H439.809C439.845 18.3321 439.845 17.9361 439.845 17.5401C439.845 12.2121 436.389 8.82808 431.601 8.82808C426.813 8.82808 423.105 12.2121 423.105 17.5401C423.105 22.8681 426.813 26.3601 431.601 26.3601ZM425.553 16.4241C426.021 13.2201 428.433 11.2041 431.601 11.2041C434.733 11.2041 436.929 13.2201 437.397 16.4241H425.553Z" fill="white"/>
<path d="M446.709 16.8201C446.709 12.7161 449.625 11.2041 452.289 11.2041C454.881 11.2041 456.357 13.0761 456.357 16.2081V26.0001H458.769V16.2081C458.805 11.6001 456.429 8.82808 452.289 8.82808C450.345 8.82808 447.753 9.76408 446.709 11.9601V9.18808H444.297V26.0001H446.709V16.8201Z" fill="white"/>
<path d="M467.899 26.0001V11.3481H471.463V9.18808H467.899V2.88808H465.487V9.18808H462.463V11.3481H465.487V26.0001H467.899Z" fill="white"/>
<path d="M482.761 26.3601C487.549 26.3601 491.545 22.8681 491.545 17.5401C491.545 12.2121 487.549 8.82808 482.761 8.82808C477.973 8.82808 473.977 12.2121 473.977 17.5401C473.977 22.8681 477.973 26.3601 482.761 26.3601ZM482.761 23.9841C479.269 23.9841 476.353 21.4281 476.353 17.5401C476.353 13.6521 479.269 11.2041 482.761 11.2041C486.253 11.2041 489.169 13.6521 489.169 17.5401C489.169 21.4281 486.253 23.9841 482.761 23.9841Z" fill="white"/>
<path d="M8.496 62.3601C11.916 62.3601 14.76 60.6321 16.164 57.6081C15.408 57.4281 14.472 57.2481 13.752 57.0681C12.708 58.9041 10.8 59.9841 8.496 59.9841C5.4 59.9841 2.844 57.9321 2.448 54.6561H16.704C16.74 54.3321 16.74 53.9361 16.74 53.5401C16.74 48.2121 13.284 44.8281 8.496 44.8281C3.708 44.8281 0 48.2121 0 53.5401C0 58.8681 3.708 62.3601 8.496 62.3601ZM2.448 52.4241C2.916 49.2201 5.328 47.2041 8.496 47.2041C11.628 47.2041 13.824 49.2201 14.292 52.4241H2.448Z" fill="white"/>
<path d="M33.5081 62.0001V47.3481H37.0721V45.1881H33.5081V38.8881H31.0961V45.1881H28.0721V47.3481H31.0961V62.0001H33.5081Z" fill="white"/>
<path d="M51.0263 45.4761C50.7023 45.1881 49.4423 44.8281 48.2903 44.8281C45.8423 44.8281 44.2943 46.1241 43.4663 49.0041V45.1881H41.0543V62.0001H43.4663V55.7361C43.4663 51.2721 44.8703 47.2401 48.2903 47.2401C48.9023 47.2401 49.9103 47.4201 50.7383 47.8161L51.0263 45.4761Z" fill="white"/>
<path d="M61.7645 62.3601C66.5525 62.3601 70.5485 58.8681 70.5485 53.5401C70.5485 48.2121 66.5525 44.8281 61.7645 44.8281C56.9765 44.8281 52.9805 48.2121 52.9805 53.5401C52.9805 58.8681 56.9765 62.3601 61.7645 62.3601ZM61.7645 59.9841C58.2725 59.9841 55.3565 57.4281 55.3565 53.5401C55.3565 49.6521 58.2725 47.2041 61.7645 47.2041C65.2565 47.2041 68.1725 49.6521 68.1725 53.5401C68.1725 57.4281 65.2565 59.9841 61.7645 59.9841Z" fill="white"/>
<path d="M87.2142 58.3641C86.0262 59.4441 84.5502 59.9841 82.8582 59.9841C79.3662 59.9841 76.4502 57.4281 76.4502 53.5401C76.4502 49.6521 79.3662 47.2041 82.8582 47.2041C84.5502 47.2041 86.0622 47.7801 87.2142 48.7881L88.9062 47.0961C87.3222 45.6561 85.1982 44.8281 82.8582 44.8281C78.0702 44.8281 74.0742 48.2121 74.0742 53.5401C74.0742 58.8681 78.0702 62.3601 82.8582 62.3601C85.1982 62.3601 87.3582 61.5321 88.9422 60.0561L87.2142 58.3641Z" fill="white"/>
<path d="M109.039 45.1881H106.628V47.9601C105.368 45.8361 102.74 44.8281 100.292 44.8281C95.5035 44.8281 91.6875 48.2121 91.6875 53.5401C91.6875 58.8681 95.5035 62.3601 100.292 62.3601C102.74 62.3601 105.368 61.2441 106.628 59.1201V62.0001H109.039V45.1881ZM94.0995 53.5401C94.0995 49.6881 96.7995 47.2401 100.292 47.2401C103.316 47.2401 106.628 49.3641 106.628 53.5401C106.628 57.7161 103.748 59.9481 100.292 59.9481C96.7995 59.9481 94.0995 57.2841 94.0995 53.5401Z" fill="white"/>
<path d="M140.645 36.0801H138.233V47.9601C136.973 45.8361 134.345 44.8281 131.897 44.8281C127.109 44.8281 123.293 48.2121 123.293 53.5401C123.293 58.8681 127.109 62.3601 131.897 62.3601C134.345 62.3601 136.973 61.2441 138.233 59.1201V62.0001H140.645V36.0801ZM125.705 53.5401C125.705 49.6881 128.405 47.2401 131.897 47.2401C134.921 47.2401 138.233 49.3641 138.233 53.5401C138.233 57.7161 135.353 59.9481 131.897 59.9481C128.405 59.9481 125.705 57.2841 125.705 53.5401Z" fill="white"/>
<path d="M153.832 62.3601C157.252 62.3601 160.096 60.6321 161.5 57.6081C160.744 57.4281 159.808 57.2481 159.088 57.0681C158.044 58.9041 156.136 59.9841 153.832 59.9841C150.736 59.9841 148.18 57.9321 147.784 54.6561H162.04C162.076 54.3321 162.076 53.9361 162.076 53.5401C162.076 48.2121 158.62 44.8281 153.832 44.8281C149.044 44.8281 145.336 48.2121 145.336 53.5401C145.336 58.8681 149.044 62.3601 153.832 62.3601ZM147.784 52.4241C148.252 49.2201 150.664 47.2041 153.832 47.2041C156.964 47.2041 159.16 49.2201 159.628 52.4241H147.784Z" fill="white"/>
<path d="M186.512 56.4561C185.684 57.5721 184.244 58.0401 182.84 58.0401C181.04 58.0401 178.988 57.1761 178.7 55.2321H191.012C191.048 54.8001 191.084 54.1161 191.084 53.6841C191.084 48.3921 187.268 44.8281 182.48 44.8281C177.692 44.8281 173.696 48.2121 173.696 53.5401C173.696 58.8321 177.692 62.3601 182.48 62.3601C185.36 62.3601 188.42 61.4601 190.148 58.9401L186.512 56.4561ZM178.772 52.1001C179.168 49.9401 181.148 49.2201 182.516 49.2201C183.956 49.2201 185.756 50.0481 186.044 52.1001H178.772Z" fill="white"/>
<path d="M198.574 52.8921L191.95 62.0001H197.746L201.346 56.8521L204.91 62.0001H210.706L204.118 52.8921L209.662 45.1881H203.866L201.382 48.8961L198.862 45.1881H193.03L198.574 52.8921Z" fill="white"/>
<path d="M218.276 53.6481C218.276 51.2001 220.04 49.5801 222.164 49.5801C224.288 49.5801 226.052 51.1641 226.052 53.6481C226.052 56.0961 224.324 57.6441 222.164 57.6441C220.148 57.6441 218.276 56.1681 218.276 53.6481ZM213.2 45.1881V70.2441H218.168V59.9481C218.996 61.4961 220.976 62.3601 223.1 62.3601C227.42 62.3601 231.236 58.9401 231.236 53.5401C231.236 48.2121 227.42 44.8281 223.1 44.8281C220.976 44.8281 218.996 45.7281 218.168 47.2761V45.1881H213.2Z" fill="white"/>
<path d="M246.664 56.4561C245.836 57.5721 244.396 58.0401 242.992 58.0401C241.192 58.0401 239.14 57.1761 238.852 55.2321H251.164C251.2 54.8001 251.236 54.1161 251.236 53.6841C251.236 48.3921 247.42 44.8281 242.632 44.8281C237.844 44.8281 233.848 48.2121 233.848 53.5401C233.848 58.8321 237.844 62.3601 242.632 62.3601C245.512 62.3601 248.572 61.4601 250.3 58.9401L246.664 56.4561ZM238.924 52.1001C239.32 49.9401 241.3 49.2201 242.668 49.2201C244.108 49.2201 245.908 50.0481 246.196 52.1001H238.924Z" fill="white"/>
<path d="M259.653 56.1321C259.653 51.6681 260.949 49.4361 263.829 49.4361C264.657 49.4361 265.485 49.5081 266.385 49.9401L267.285 45.4401C266.457 45.0441 265.593 44.8281 264.405 44.8281C262.677 44.8281 260.517 46.1241 259.653 49.2561V45.1881H254.649V62.0001H259.653V56.1321Z" fill="white"/>
<path d="M274.84 45.1881H269.872V62.0001H274.84V45.1881ZM269.224 38.9601C269.224 40.5801 270.664 41.9121 272.356 41.9121C274.084 41.9121 275.416 40.5801 275.416 38.9601C275.416 37.2681 274.048 36.0441 272.356 36.0441C270.664 36.0441 269.224 37.3041 269.224 38.9601Z" fill="white"/>
<path d="M284.619 36.4041L280.695 42.4521H284.295L287.103 39.2481L289.947 42.4521H293.547L289.587 36.4041H284.619ZM291.243 56.4561C290.415 57.5721 288.975 58.0401 287.571 58.0401C285.771 58.0401 283.719 57.1761 283.431 55.2321H295.743C295.779 54.8001 295.815 54.1161 295.815 53.6841C295.815 48.3921 291.999 44.8281 287.211 44.8281C282.423 44.8281 278.427 48.2121 278.427 53.5401C278.427 58.8321 282.423 62.3601 287.211 62.3601C290.091 62.3601 293.151 61.4601 294.879 58.9401L291.243 56.4561ZM283.503 52.1001C283.899 49.9401 285.879 49.2201 287.247 49.2201C288.687 49.2201 290.487 50.0481 290.775 52.1001H283.503Z" fill="white"/>
<path d="M304.232 53.1081C304.232 50.5521 305.564 49.6881 307.328 49.6881C309.02 49.6881 310.243 50.7681 310.243 53.0361V62.0001H315.247V51.9561C315.247 47.1681 312.871 44.8281 309.091 44.8281C307.076 44.8281 305.132 45.9441 304.232 47.6361V45.1881H299.228V62.0001H304.232V53.1081Z" fill="white"/>
<path d="M318.68 53.5401C318.68 58.8321 323.036 62.3601 327.824 62.3601C330.848 62.3601 333.548 61.0641 335.132 58.7601L331.064 55.8801C330.38 56.9961 329.12 57.5721 327.824 57.5721C325.7 57.5721 323.648 55.9521 323.648 53.5401C323.648 51.1281 325.7 49.6161 327.824 49.6161C329.12 49.6161 330.38 50.1921 331.064 51.3081L335.132 48.3921C333.512 46.0881 330.848 44.8281 327.824 44.8281C323.036 44.8281 318.68 48.2121 318.68 53.5401Z" fill="white"/>
<path d="M343.57 45.1881H338.603V62.0001H343.57V45.1881ZM337.954 38.9601C337.954 40.5801 339.395 41.9121 341.086 41.9121C342.814 41.9121 344.147 40.5801 344.147 38.9601C344.147 37.2681 342.778 36.0441 341.086 36.0441C339.395 36.0441 337.954 37.3041 337.954 38.9601Z" fill="white"/>
<path d="M360.621 62.0001H365.589V45.1881H360.621V47.0601C359.253 45.2241 356.841 44.8281 355.725 44.8281C351.441 44.8281 347.157 48.2121 347.157 53.5761C347.157 58.9401 351.441 62.3241 355.725 62.3241C356.985 62.3241 359.577 61.6761 360.621 60.0921V62.0001ZM352.341 53.5761C352.341 51.1641 354.429 49.5801 356.553 49.5801C358.605 49.5801 360.621 51.0921 360.621 53.5761C360.621 56.0961 358.605 57.5721 356.553 57.5721C354.429 57.5721 352.341 55.9881 352.341 53.5761Z" fill="white"/>
<path d="M370.496 60.4881C370.496 61.6041 371.36 62.3601 372.476 62.3601C373.592 62.3601 374.456 61.6041 374.456 60.4881C374.456 59.3721 373.592 58.6161 372.476 58.6161C371.36 58.6161 370.496 59.3721 370.496 60.4881Z" fill="white"/>
</svg>
