<svg width="417" height="92" viewBox="0 0 417 92" fill="none" xmlns="http://www.w3.org/2000/svg">
<path d="M12.048 35.184C18.912 35.184 23.088 30.432 23.088 25.296C23.088 20.592 19.728 17.712 14.112 16.224L9.792 15.072C5.376 13.92 4.992 11.616 4.992 10.464C4.992 7.2 8.064 4.992 11.376 4.992C14.928 4.992 17.664 7.248 17.664 10.56H21.984C21.984 4.656 17.328 0.959999 11.52 0.959999C5.76 0.959999 0.624 4.8 0.624 10.512C0.624 13.2 1.728 17.328 8.736 19.008L13.008 20.064C15.792 20.784 18.72 22.224 18.72 25.44C18.72 28.368 16.32 31.152 12.048 31.152C7.632 31.152 4.848 28.176 4.704 25.248H0.384C0.432 30.384 5.088 35.184 12.048 35.184Z" fill="white"/>
<path d="M44.8538 24.528C44.8058 29.376 41.0617 31.248 37.9417 31.248C34.8218 31.248 32.5658 28.848 32.5658 25.056V12.192H28.3897V25.152C28.3417 31.44 31.7977 35.184 37.4137 35.184C39.9097 35.184 43.5098 33.936 44.8538 31.104V34.608H49.0298V12.192H44.8538V24.528Z" fill="white"/>
<path d="M73.9511 15.696C72.4631 13.056 69.2951 11.616 65.9351 11.616C59.5991 11.616 54.7511 16.752 54.7511 23.376C54.7511 30.24 59.8871 35.184 65.7431 35.184C69.3431 35.184 72.4631 33.312 73.9511 30.624V34.608H78.1271V12.192H73.9511V15.696ZM66.3671 31.248C62.2391 31.248 58.9751 27.648 58.9751 23.376C58.9751 19.152 62.2391 15.552 66.3191 15.552C70.0631 15.552 73.9511 18.768 73.9511 23.376C73.9511 27.936 70.3511 31.248 66.3671 31.248Z" fill="white"/>
<path d="M103.488 12.192V3.744H99.312V12.192H95.28V15.792H99.312V34.608H103.488V15.792H108.336V12.192H103.488Z" fill="white"/>
<path d="M123.518 11.616C120.542 11.616 118.382 13.344 117.23 17.28V12.192H113.006V34.608H117.23V26.4C117.23 20.496 119.006 15.648 123.47 15.648C124.334 15.648 125.534 15.84 126.734 16.416L127.406 12.48C126.734 12.048 125.102 11.616 123.518 11.616Z" fill="white"/>
<path d="M148.482 15.696C146.994 13.056 143.826 11.616 140.466 11.616C134.13 11.616 129.282 16.752 129.282 23.376C129.282 30.24 134.418 35.184 140.274 35.184C143.874 35.184 146.994 33.312 148.482 30.624V34.608H152.658V12.192H148.482V15.696ZM140.898 31.248C136.77 31.248 133.506 27.648 133.506 23.376C133.506 19.152 136.77 15.552 140.85 15.552C144.594 15.552 148.482 18.768 148.482 23.376C148.482 27.936 144.882 31.248 140.898 31.248Z" fill="white"/>
<path d="M171.591 11.616C169.143 11.616 165.495 12.864 164.151 15.6V12.192H159.975V34.608H164.151V22.464C164.151 17.616 167.895 15.744 171.015 15.744C174.135 15.744 176.439 18.144 176.439 21.888V34.608H180.615V21.648C180.663 15.36 177.159 11.616 171.591 11.616Z" fill="white"/>
<path d="M194.16 35.184C198.816 35.184 202.848 32.544 202.848 28.368C202.848 25.824 201.648 23.04 196.992 21.888L193.68 21.072C192.24 20.736 190.8 19.92 190.8 18.384C190.8 16.656 192.24 15.264 194.4 15.264C196.176 15.264 197.952 16.416 198 18.144H202.032C202.032 13.632 198.096 11.616 194.304 11.616C189.792 11.616 186.624 14.544 186.624 18.24C186.624 21.84 188.784 23.664 192.528 24.672L195.6 25.392C197.376 25.776 198.672 26.64 198.672 28.32C198.672 30.144 196.992 31.536 194.16 31.536C191.424 31.536 189.744 29.952 189.696 28.032H185.808C186 32.64 190.128 35.184 194.16 35.184Z" fill="white"/>
<path d="M221.115 3.936V0H218.715C212.715 0 210.267 4.032 210.267 9.888V12.192H205.947V15.792H210.267V34.608H214.443V15.792H219.675V12.192H214.443V9.312C214.395 6.384 215.451 3.936 219.435 3.936H221.115Z" fill="white"/>
<path d="M233.947 35.184C240.331 35.184 245.708 30.48 245.708 23.376C245.708 16.272 240.331 11.616 233.947 11.616C227.563 11.616 222.236 16.272 222.236 23.376C222.236 30.48 227.563 35.184 233.947 35.184ZM233.947 31.248C229.867 31.248 226.46 28.032 226.46 23.376C226.46 18.768 229.867 15.552 233.947 15.552C238.076 15.552 241.531 18.768 241.531 23.376C241.531 28.032 238.076 31.248 233.947 31.248Z" fill="white"/>
<path d="M262.034 11.616C259.057 11.616 256.897 13.344 255.745 17.28V12.192H251.521V34.608H255.745V26.4C255.745 20.496 257.522 15.648 261.986 15.648C262.85 15.648 264.049 15.84 265.25 16.416L265.922 12.48C265.25 12.048 263.617 11.616 262.034 11.616Z" fill="white"/>
<path d="M296.676 11.616C294.42 11.616 290.916 12.384 288.852 16.416C287.556 13.344 284.724 11.616 281.46 11.616C278.292 11.616 275.364 13.2 274.26 15.648V12.192H270.084V34.608H274.26V22.464C274.26 17.712 277.428 15.648 280.596 15.648C283.572 15.648 285.636 18.096 285.636 21.888V34.608H289.812V23.376C289.812 18.384 291.876 15.6 295.86 15.648C299.124 15.648 301.188 18.144 301.188 21.888V34.608H305.364V21.648C305.364 15.36 302.292 11.616 296.676 11.616Z" fill="white"/>
<path d="M329.982 15.696C328.494 13.056 325.326 11.616 321.966 11.616C315.63 11.616 310.782 16.752 310.782 23.376C310.782 30.24 315.918 35.184 321.774 35.184C325.374 35.184 328.494 33.312 329.982 30.624V34.608H334.158V12.192H329.982V15.696ZM322.398 31.248C318.27 31.248 315.006 27.648 315.006 23.376C315.006 19.152 318.27 15.552 322.35 15.552C326.094 15.552 329.982 18.768 329.982 23.376C329.982 27.936 326.382 31.248 322.398 31.248Z" fill="white"/>
<path d="M352.131 31.248C347.715 31.248 344.163 27.984 344.163 23.376C344.163 18.768 347.715 15.552 352.131 15.552C354.483 15.552 356.499 16.464 357.891 17.904L360.531 15.168C358.563 13.008 355.491 11.616 351.987 11.616C345.555 11.616 339.939 16.272 339.939 23.376C339.939 30.336 345.315 34.992 351.555 35.184L352.851 38.784C352.947 39.024 353.043 39.36 353.043 39.6C353.043 40.752 352.323 41.568 351.171 41.568C350.115 41.568 349.107 40.656 349.107 39.168H346.275C346.275 42.24 348.195 44.4 351.171 44.4C353.955 44.4 355.923 42.48 355.923 39.6C355.923 38.928 355.683 38.112 355.443 37.584L354.339 34.992C356.835 34.512 358.995 33.312 360.531 31.632L357.891 28.896C356.499 30.336 354.483 31.248 352.131 31.248Z" fill="white"/>
<path d="M373.928 6C375.224 6 376.136 8.016 378.248 8.016C380.072 8.016 382.232 6.768 382.472 2.64H379.592C379.544 4.128 378.776 4.608 378.248 4.608C377.24 4.608 376.088 2.592 373.928 2.592C372.056 2.592 369.992 3.936 369.752 8.112H372.632C372.68 6.576 373.448 6 373.928 6ZM382.904 15.696C381.416 13.056 378.248 11.616 374.888 11.616C368.552 11.616 363.704 16.752 363.704 23.376C363.704 30.24 368.84 35.184 374.696 35.184C378.296 35.184 381.416 33.312 382.904 30.624V34.608H387.08V12.192H382.904V15.696ZM375.32 31.248C371.192 31.248 367.928 27.648 367.928 23.376C367.928 19.152 371.192 15.552 375.272 15.552C379.016 15.552 382.904 18.768 382.904 23.376C382.904 27.936 379.304 31.248 375.32 31.248Z" fill="white"/>
<path d="M404.573 35.184C410.957 35.184 416.332 30.48 416.332 23.376C416.332 16.272 410.957 11.616 404.573 11.616C398.189 11.616 392.861 16.272 392.861 23.376C392.861 30.48 398.189 35.184 404.573 35.184ZM404.573 31.248C400.493 31.248 397.085 28.032 397.085 23.376C397.085 18.768 400.493 15.552 404.573 15.552C408.701 15.552 412.156 18.768 412.156 23.376C412.156 28.032 408.701 31.248 404.573 31.248Z" fill="white"/>
<path d="M12.048 81.184C15.552 81.184 18.624 79.84 20.592 77.632L17.952 74.896C16.56 76.336 14.544 77.248 12.192 77.248C7.776 77.248 4.224 73.984 4.224 69.376C4.224 64.768 7.776 61.552 12.192 61.552C14.544 61.552 16.56 62.464 17.952 63.904L20.592 61.168C18.624 59.008 15.552 57.616 12.048 57.616C5.616 57.616 0 62.272 0 69.376C0 76.48 5.616 81.184 12.048 81.184Z" fill="white"/>
<path d="M35.4788 81.184C41.8628 81.184 47.2388 76.48 47.2388 69.376C47.2388 62.272 41.8628 57.616 35.4788 57.616C29.0948 57.616 23.7668 62.272 23.7668 69.376C23.7668 76.48 29.0948 81.184 35.4788 81.184ZM35.4788 77.248C31.3988 77.248 27.9907 74.032 27.9907 69.376C27.9907 64.768 31.3988 61.552 35.4788 61.552C39.6068 61.552 43.0628 64.768 43.0628 69.376C43.0628 74.032 39.6068 77.248 35.4788 77.248Z" fill="white"/>
<path d="M79.6448 57.616C77.3887 57.616 73.8848 58.384 71.8207 62.416C70.5247 59.344 67.6927 57.616 64.4287 57.616C61.2607 57.616 58.3327 59.2 57.2287 61.648V58.192H53.0527V80.608H57.2287V68.464C57.2287 63.712 60.3968 61.648 63.5648 61.648C66.5407 61.648 68.6048 64.096 68.6048 67.888V80.608H72.7808V69.376C72.7808 64.384 74.8447 61.6 78.8288 61.648C82.0928 61.648 84.1568 64.144 84.1568 67.888V80.608H88.3328V67.648C88.3328 61.36 85.2607 57.616 79.6448 57.616Z" fill="white"/>
<path d="M116.455 69.328C116.455 62.224 111.703 57.616 105.319 57.616C98.9351 57.616 93.7991 62.224 93.7991 69.328C93.7991 76.432 98.9351 81.184 105.319 81.184C109.639 81.184 113.671 79.072 115.591 75.184L111.991 73.744C110.695 76 108.199 77.248 105.463 77.248C101.623 77.248 98.7431 75.184 98.1191 71.2H116.359C116.407 70.576 116.455 69.952 116.455 69.328ZM98.1671 67.6C98.8391 63.568 101.527 61.552 105.319 61.552C109.015 61.552 111.751 63.76 112.279 67.6H98.1671Z" fill="white"/>
<path d="M132.803 77.248C128.387 77.248 124.835 73.984 124.835 69.376C124.835 64.768 128.387 61.552 132.803 61.552C135.155 61.552 137.171 62.464 138.562 63.904L141.202 61.168C139.234 59.008 136.163 57.616 132.659 57.616C126.227 57.616 120.61 62.272 120.61 69.376C120.61 76.336 125.987 80.992 132.227 81.184L133.523 84.784C133.618 85.024 133.714 85.36 133.714 85.6C133.714 86.752 132.994 87.568 131.842 87.568C130.786 87.568 129.779 86.656 129.779 85.168H126.947C126.947 88.24 128.867 90.4 131.842 90.4C134.626 90.4 136.594 88.48 136.594 85.6C136.594 84.928 136.355 84.112 136.115 83.584L135.01 80.992C137.507 80.512 139.667 79.312 141.202 77.632L138.562 74.896C137.171 76.336 135.155 77.248 132.803 77.248Z" fill="white"/>
<path d="M163.576 61.696C162.088 59.056 158.92 57.616 155.56 57.616C149.224 57.616 144.376 62.752 144.376 69.376C144.376 76.24 149.512 81.184 155.368 81.184C158.968 81.184 162.088 79.312 163.576 76.624V80.608H167.752V58.192H163.576V61.696ZM155.992 77.248C151.864 77.248 148.6 73.648 148.6 69.376C148.6 65.152 151.864 61.552 155.944 61.552C159.688 61.552 163.576 64.768 163.576 69.376C163.576 73.936 159.976 77.248 155.992 77.248Z" fill="white"/>
<path d="M202.842 60.64C201.45 58.672 198.906 57.664 196.65 57.664C191.13 57.664 185.754 62.128 185.754 69.376C185.754 76.672 191.13 81.04 196.65 81.04C199.098 81.04 201.45 80.032 202.842 78.064V80.608H210.474V58.24H202.842V60.64ZM193.53 69.424C193.53 66.88 195.642 64.768 198.186 64.768C200.73 64.768 202.842 66.88 202.842 69.424C202.842 71.968 200.73 74.08 198.186 74.08C195.642 74.08 193.53 71.968 193.53 69.424Z" fill="white"/>
<path d="M232.046 91.648H239.678V58.24H232.478V61.456C231.23 58.816 228.253 57.664 225.854 57.664C220.333 57.664 214.958 62.032 214.958 69.328C214.958 76.576 220.333 81.04 225.854 81.04C228.542 81.04 230.557 80.128 232.046 78.544V91.648ZM222.734 69.28C222.734 66.736 224.845 64.624 227.389 64.624C229.934 64.624 232.046 66.88 232.046 69.424C232.046 71.968 229.934 73.936 227.389 73.936C224.845 73.936 222.734 71.824 222.734 69.28Z" fill="white"/>
<path d="M260.385 70C260.385 72.88 258.129 73.648 256.449 73.648C254.865 73.648 252.801 72.688 252.801 69.76V58.24H245.169V70C245.169 76.96 248.097 81.04 254.097 81.04C256.065 81.04 259.617 79.936 260.385 77.104V80.608H268.017V58.24H260.385V70Z" fill="white"/>
<path d="M273.769 80.608H281.401V58.24H273.769V80.608ZM272.953 50.8C272.953 53.248 275.065 55.168 277.561 55.168C280.105 55.168 282.121 53.248 282.121 50.8C282.121 48.352 280.105 46.48 277.561 46.48C275.065 46.48 272.953 48.352 272.953 50.8Z" fill="white"/>
</svg>
