<svg width="418" height="112" viewBox="0 0 418 112" fill="none" xmlns="http://www.w3.org/2000/svg">
<g filter="url(#filter0_d)">
<path d="M4 1.86V5.82H17.26V43.2H21.22V5.82H34.48V1.86H4Z" fill="white"/>
<path d="M51.572 15.66C51.032 15.18 48.932 14.58 47.012 14.58C42.932 14.58 40.352 16.74 38.972 21.54V15.18H34.952V43.2H38.972V32.76C38.972 25.32 41.312 18.6 47.012 18.6C48.032 18.6 49.712 18.9 51.092 19.56L51.572 15.66Z" fill="white"/>
<path d="M83.7489 15.18H79.7289V19.8C77.6289 16.26 73.2489 14.58 69.1689 14.58C61.1889 14.58 54.8289 20.22 54.8289 29.1C54.8289 37.98 61.1889 43.8 69.1689 43.8C73.2489 43.8 77.6289 41.94 79.7289 38.4V43.2H83.7489V15.18ZM58.8489 29.1C58.8489 22.68 63.3489 18.6 69.1689 18.6C74.2089 18.6 79.7289 22.14 79.7289 29.1C79.7289 36.06 74.9289 39.78 69.1689 39.78C63.3489 39.78 58.8489 35.34 58.8489 29.1Z" fill="white"/>
<path d="M97.5072 27.9C97.5072 21.06 102.367 18.54 106.807 18.54C111.127 18.54 113.587 21.66 113.587 26.88V43.2H117.607V26.88C117.667 19.2 113.707 14.58 106.807 14.58C103.567 14.58 99.2472 16.14 97.5072 19.8V15.18H93.4872V43.2H97.5072V27.9Z" fill="white"/>
<path d="M124.724 35.16C124.904 40.68 129.824 43.8 134.504 43.8C140.324 43.8 144.764 40.44 144.764 35.58C144.764 31.74 142.964 28.68 137.684 27.42L133.844 26.52C131.924 26.04 129.044 25.02 129.704 21.84C130.004 19.86 132.224 18.42 134.924 18.42C137.324 18.42 139.364 19.68 139.844 21.84H143.744C142.964 16.74 139.304 14.58 134.924 14.58C130.364 14.58 126.464 17.22 125.804 21.24C125.024 27.78 129.464 29.58 132.884 30.36L136.784 31.26C139.724 31.98 140.804 33.72 140.804 35.58C140.804 38.22 138.464 40.02 134.864 40.02C130.124 40.02 128.744 37.32 128.264 35.16H124.724Z" fill="white"/>
<path d="M167.494 0H164.494C157.054 0 154.714 5.22 154.714 11.94V15.18H149.254V18.78H154.714V43.2H158.734V18.78H165.634V15.18H158.734V11.94C158.734 8.22 159.094 3.78 164.494 3.78H167.494V0Z" fill="white"/>
<path d="M184.313 43.8C192.293 43.8 198.953 37.98 198.953 29.1C198.953 20.22 192.293 14.58 184.313 14.58C176.333 14.58 169.673 20.22 169.673 29.1C169.673 37.98 176.333 43.8 184.313 43.8ZM184.313 39.84C178.493 39.84 173.633 35.58 173.633 29.1C173.633 22.62 178.493 18.54 184.313 18.54C190.133 18.54 194.993 22.62 194.993 29.1C194.993 35.58 190.133 39.84 184.313 39.84Z" fill="white"/>
<path d="M223.369 15.66C222.829 15.18 220.729 14.58 218.809 14.58C214.729 14.58 212.149 16.74 210.769 21.54V15.18H206.749V43.2H210.769V32.76C210.769 25.32 213.109 18.6 218.809 18.6C219.829 18.6 221.509 18.9 222.889 19.56L223.369 15.66Z" fill="white"/>
<path d="M253.486 27.9C253.486 21.06 258.346 18.54 262.786 18.54C267.106 18.54 269.566 21.66 269.566 26.88V43.2H273.586V26.88C273.646 19.2 269.686 14.58 262.786 14.58C259.966 14.58 254.986 15.42 252.406 20.7C250.786 16.8 247.486 14.58 242.686 14.58C240.106 14.58 235.126 16.14 233.386 19.8V15.18H229.366V43.2H233.386V27.9C233.386 21.06 238.246 18.54 242.686 18.54C247.006 18.54 249.466 21.66 249.466 26.88V43.2H253.486V27.9Z" fill="white"/>
<path d="M309.921 15.18H305.901V19.8C303.801 16.26 299.421 14.58 295.341 14.58C287.361 14.58 281.001 20.22 281.001 29.1C281.001 37.98 287.361 43.8 295.341 43.8C299.421 43.8 303.801 41.94 305.901 38.4V43.2H309.921V15.18ZM285.021 29.1C285.021 22.68 289.521 18.6 295.341 18.6C300.381 18.6 305.901 22.14 305.901 29.1C305.901 36.06 301.101 39.78 295.341 39.78C289.521 39.78 285.021 35.34 285.021 29.1Z" fill="white"/>
<path d="M333.759 43.74C337.179 43.44 340.119 42.18 342.519 39.96L339.639 37.14C337.659 38.94 335.199 39.84 332.379 39.84C326.559 39.84 321.699 35.58 321.699 29.1C321.699 22.62 326.559 18.54 332.379 18.54C335.199 18.54 337.719 19.5 339.639 21.18L342.459 18.36C339.819 15.96 336.279 14.58 332.379 14.58C324.399 14.58 317.739 20.22 317.739 29.1C317.739 37.26 323.379 42.9 330.399 43.68L332.499 48.54C333.159 49.92 332.439 51.54 330.999 52.2C329.619 52.74 328.119 52.02 327.459 50.64C327.279 50.22 327.399 49.92 327.219 49.5L324.039 49.26C324.039 50.1 324.219 50.94 324.579 51.84C325.959 54.9 329.079 56.28 332.139 55.02C335.259 53.76 336.639 50.46 335.259 47.28L333.759 43.74Z" fill="white"/>
<path d="M359.753 5.64C361.553 5.64 362.513 8.16 365.213 8.16C367.373 8.16 370.013 6.78 370.313 1.86H367.253C367.193 3.84 365.993 4.38 365.213 4.38C363.413 4.38 362.453 1.86 359.753 1.86C357.473 1.86 354.953 3.42 354.653 8.34H357.713C357.773 6.36 358.973 5.64 359.753 5.64ZM376.073 15.18H372.053V19.8C369.953 16.26 365.573 14.58 361.493 14.58C353.513 14.58 347.153 20.22 347.153 29.1C347.153 37.98 353.513 43.8 361.493 43.8C365.573 43.8 369.953 41.94 372.053 38.4V43.2H376.073V15.18ZM351.173 29.1C351.173 22.68 355.673 18.6 361.493 18.6C366.533 18.6 372.053 22.14 372.053 29.1C372.053 36.06 367.253 39.78 361.493 39.78C355.673 39.78 351.173 35.34 351.173 29.1Z" fill="white"/>
<path d="M398.531 43.8C406.511 43.8 413.171 37.98 413.171 29.1C413.171 20.22 406.511 14.58 398.531 14.58C390.551 14.58 383.891 20.22 383.891 29.1C383.891 37.98 390.551 43.8 398.531 43.8ZM398.531 39.84C392.711 39.84 387.851 35.58 387.851 29.1C387.851 22.62 392.711 18.54 398.531 18.54C404.351 18.54 409.211 22.62 409.211 29.1C409.211 35.58 404.351 39.84 398.531 39.84Z" fill="white"/>
<path d="M43.7587 60H39.7387V79.8C37.6387 76.26 33.2587 74.58 29.1787 74.58C21.1987 74.58 14.8387 80.22 14.8387 89.1C14.8387 97.98 21.1987 103.8 29.1787 103.8C33.2587 103.8 37.6387 101.94 39.7387 98.4V103.2H43.7587V60ZM18.8587 89.1C18.8587 82.68 23.3587 78.6 29.1787 78.6C34.2187 78.6 39.7387 82.14 39.7387 89.1C39.7387 96.06 34.9387 99.78 29.1787 99.78C23.3587 99.78 18.8587 95.34 18.8587 89.1Z" fill="white"/>
<path d="M65.737 103.8C71.437 103.8 76.177 100.92 78.517 95.88C77.257 95.58 75.697 95.28 74.497 94.98C72.757 98.04 69.577 99.84 65.737 99.84C60.577 99.84 56.317 96.42 55.657 90.96H79.417C79.477 90.42 79.477 89.76 79.477 89.1C79.477 80.22 73.7169 74.58 65.737 74.58C57.757 74.58 51.577 80.22 51.577 89.1C51.577 97.98 57.757 103.8 65.737 103.8ZM55.657 87.24C56.437 81.9 60.457 78.54 65.737 78.54C70.957 78.54 74.617 81.9 75.397 87.24H55.657Z" fill="white"/>
<path d="M119.333 69.6C122.693 69.6 124.313 72.84 124.313 75.42C124.313 78.06 122.513 81.24 119.093 81.24H111.653V69.6H119.333ZM123.173 88.56C130.253 87.12 133.493 81.24 133.493 75.42C133.493 68.64 129.113 61.86 119.753 61.86H102.833V103.2H111.653V88.92H113.633L122.873 103.2H133.433L123.173 88.56Z" fill="white"/>
<path d="M158.407 93.96C157.027 95.82 154.627 96.6 152.287 96.6C149.287 96.6 145.867 95.16 145.387 91.92H165.907C165.967 91.2 166.027 90.06 166.027 89.34C166.027 80.52 159.667 74.58 151.687 74.58C143.707 74.58 137.047 80.22 137.047 89.1C137.047 97.92 143.707 103.8 151.687 103.8C156.487 103.8 161.587 102.3 164.467 98.1L158.407 93.96ZM145.507 86.7C146.167 83.1 149.467 81.9 151.747 81.9C154.147 81.9 157.147 83.28 157.627 86.7H145.507Z" fill="white"/>
<path d="M192.475 103.2H200.755V75.18H192.475V78.3C190.195 75.24 186.175 74.58 184.315 74.58C177.175 74.58 170.035 80.22 170.035 89.16C170.035 98.1 177.175 103.74 184.315 103.74C186.415 103.74 190.735 102.66 192.475 100.02V103.2ZM178.675 89.16C178.675 85.14 182.155 82.5 185.695 82.5C189.115 82.5 192.475 85.02 192.475 89.16C192.475 93.36 189.115 95.82 185.695 95.82C182.155 95.82 178.675 93.18 178.675 89.16Z" fill="white"/>
<path d="M208.454 59.94V103.2H216.794V59.94H208.454Z" fill="white"/>
<path d="M232.73 75.18H224.45V103.2H232.73V75.18ZM223.37 64.8C223.37 67.5 225.77 69.72 228.59 69.72C231.47 69.72 233.69 67.5 233.69 64.8C233.69 61.98 231.41 59.94 228.59 59.94C225.77 59.94 223.37 62.04 223.37 64.8Z" fill="white"/>
<path d="M260.367 89.1C260.367 93.18 257.427 95.88 253.887 95.88C250.347 95.88 247.407 93.24 247.407 89.1C247.407 85.02 250.287 82.44 253.887 82.44C257.247 82.44 260.367 84.96 260.367 89.1ZM268.827 103.2V59.94H260.547V78.6C259.167 76.02 255.867 74.58 252.327 74.58C245.127 74.58 238.767 80.28 238.767 89.28C238.767 98.16 245.127 103.8 252.327 103.8C255.867 103.8 259.167 102.3 260.547 99.72V103.2H268.827Z" fill="white"/>
<path d="M297.241 103.2H305.521V75.18H297.241V78.3C294.961 75.24 290.941 74.58 289.081 74.58C281.941 74.58 274.801 80.22 274.801 89.16C274.801 98.1 281.941 103.74 289.081 103.74C291.181 103.74 295.501 102.66 297.241 100.02V103.2ZM283.441 89.16C283.441 85.14 286.921 82.5 290.461 82.5C293.881 82.5 297.241 85.02 297.241 89.16C297.241 93.36 293.881 95.82 290.461 95.82C286.921 95.82 283.441 93.18 283.441 89.16Z" fill="white"/>
<path d="M333.199 89.1C333.199 93.18 330.259 95.88 326.719 95.88C323.179 95.88 320.239 93.24 320.239 89.1C320.239 85.02 323.119 82.44 326.719 82.44C330.079 82.44 333.199 84.96 333.199 89.1ZM341.659 103.2V59.94H333.379V78.6C331.999 76.02 328.699 74.58 325.159 74.58C317.959 74.58 311.599 80.28 311.599 89.28C311.599 98.16 317.959 103.8 325.159 103.8C328.699 103.8 331.999 102.3 333.379 99.72V103.2H341.659Z" fill="white"/>
<path d="M368.993 93.96C367.613 95.82 365.213 96.6 362.873 96.6C359.873 96.6 356.453 95.16 355.973 91.92H376.493C376.553 91.2 376.613 90.06 376.613 89.34C376.613 80.52 370.253 74.58 362.273 74.58C354.293 74.58 347.633 80.22 347.633 89.1C347.633 97.92 354.293 103.8 362.273 103.8C367.073 103.8 372.173 102.3 375.053 98.1L368.993 93.96ZM356.093 86.7C356.753 83.1 360.053 81.9 362.333 81.9C364.733 81.9 367.733 83.28 368.213 86.7H356.093Z" fill="white"/>
<path d="M393.221 92.64C395.321 93.18 395.981 93.84 395.981 95.04C395.981 96.48 394.421 97.32 392.561 97.38C390.221 97.38 388.481 95.76 388.421 94.14H380.621C380.621 100.38 386.681 103.8 392.321 103.8C398.201 103.8 404.441 100.98 404.441 95.04C404.441 93.18 403.601 88.8 396.821 86.88L392.081 85.62C390.401 85.2 389.681 84.42 389.621 83.52C389.561 82.26 390.701 81.42 392.561 81.42C393.941 81.42 395.681 81.78 395.741 83.88H403.601C403.601 76.98 397.601 74.58 392.081 74.58C386.201 74.58 381.161 78.42 381.161 82.56C381.161 85.14 381.101 89.46 389.561 91.68L393.221 92.64Z" fill="white"/>
</g>
<defs>
<filter id="filter0_d" x="0" y="0" width="417.171" height="111.8" filterUnits="userSpaceOnUse" color-interpolation-filters="sRGB">
<feFlood flood-opacity="0" result="BackgroundImageFix"/>
<feColorMatrix in="SourceAlpha" type="matrix" values="0 0 0 0 0 0 0 0 0 0 0 0 0 0 0 0 0 0 127 0"/>
<feOffset dy="4"/>
<feGaussianBlur stdDeviation="2"/>
<feColorMatrix type="matrix" values="0 0 0 0 0 0 0 0 0 0 0 0 0 0 0 0 0 0 0.25 0"/>
<feBlend mode="normal" in2="BackgroundImageFix" result="effect1_dropShadow"/>
<feBlend mode="normal" in="SourceGraphic" in2="effect1_dropShadow" result="shape"/>
</filter>
</defs>
</svg>
