<svg width="46" height="46" viewBox="0 0 46 46" fill="none" xmlns="http://www.w3.org/2000/svg">
<path d="M1.4375 31.5875C1.81875 31.5875 2.18438 31.7389 2.45397 32.0085C2.72355 32.2781 2.875 32.6437 2.875 33.025V40.2125C2.875 40.975 3.1779 41.7062 3.71707 42.2454C4.25624 42.7846 4.9875 43.0875 5.75 43.0875H40.25C41.0125 43.0875 41.7438 42.7846 42.2829 42.2454C42.8221 41.7062 43.125 40.975 43.125 40.2125V33.025C43.125 32.6437 43.2765 32.2781 43.546 32.0085C43.8156 31.7389 44.1813 31.5875 44.5625 31.5875C44.9437 31.5875 45.3094 31.7389 45.579 32.0085C45.8485 32.2781 46 32.6437 46 33.025V40.2125C46 41.7375 45.3942 43.2 44.3159 44.2783C43.2375 45.3567 41.775 45.9625 40.25 45.9625H5.75C4.22501 45.9625 2.76247 45.3567 1.68414 44.2783C0.605802 43.2 0 41.7375 0 40.2125V33.025C0 32.6437 0.15145 32.2781 0.421034 32.0085C0.690618 31.7389 1.05625 31.5875 1.4375 31.5875Z" fill="white"/>
<path d="M21.9824 37.2052C22.1159 37.3391 22.2745 37.4453 22.4492 37.5178C22.6238 37.5903 22.811 37.6276 23.0001 37.6276C23.1892 37.6276 23.3764 37.5903 23.5511 37.5178C23.7257 37.4453 23.8843 37.3391 24.0179 37.2052L32.6429 28.5802C32.9128 28.3103 33.0644 27.9442 33.0644 27.5625C33.0644 27.1808 32.9128 26.8147 32.6429 26.5447C32.3729 26.2748 32.0068 26.1232 31.6251 26.1232C31.2434 26.1232 30.8773 26.2748 30.6074 26.5447L24.4376 32.7174V7.4375C24.4376 7.05625 24.2862 6.69062 24.0166 6.42103C23.747 6.15145 23.3814 6 23.0001 6C22.6189 6 22.2532 6.15145 21.9836 6.42103C21.7141 6.69062 21.5626 7.05625 21.5626 7.4375V32.7174L15.3929 26.5447C15.1229 26.2748 14.7568 26.1232 14.3751 26.1232C13.9934 26.1232 13.6273 26.2748 13.3574 26.5447C13.0874 26.8147 12.9358 27.1808 12.9358 27.5625C12.9358 27.9442 13.0874 28.3103 13.3574 28.5802L21.9824 37.2052Z" fill="white"/>
</svg>
