<svg width="89" height="108" viewBox="0 0 89 108" fill="none" xmlns="http://www.w3.org/2000/svg">
<g clip-path="url(#clip0)">
<path d="M56.841 35.4801C57.796 35.4806 58.7296 35.1993 59.5239 34.6717C60.3182 34.1441 60.9375 33.394 61.3034 32.5161C61.6693 31.6383 61.7654 30.6722 61.5796 29.74C61.3938 28.8078 60.9343 27.9514 60.2594 27.279C59.5845 26.6067 58.7244 26.1486 57.7879 25.9627C56.8514 25.7768 55.8805 25.8715 54.9981 26.2347C54.1156 26.598 53.3612 27.2135 52.8302 28.0034C52.2993 28.7933 52.0156 29.7222 52.0151 30.6725C52.0165 31.9463 52.5252 33.1677 53.4298 34.0688C54.3344 34.97 55.5611 35.4775 56.841 35.4801ZM56.841 28.6599C57.2416 28.6599 57.6332 28.7781 57.9662 28.9997C58.2993 29.2212 58.5588 29.5361 58.712 29.9044C58.8652 30.2728 58.9051 30.6781 58.8268 31.0691C58.7485 31.46 58.5554 31.8191 58.2719 32.1008C57.9885 32.3825 57.6275 32.5743 57.2345 32.6517C56.8416 32.7292 56.4344 32.6889 56.0644 32.536C55.6944 32.3831 55.3784 32.1245 55.1562 31.7928C54.934 31.4611 54.8156 31.0712 54.8161 30.6725C54.8181 30.1385 55.0325 29.627 55.4124 29.2498C55.7923 28.8726 56.3069 28.6605 56.8435 28.6599H56.841Z" fill="white"/>
<path d="M27.4004 30.6626C27.3984 31.6134 27.6799 32.5434 28.2093 33.3349C28.7386 34.1264 29.492 34.7438 30.3741 35.109C31.2562 35.4743 32.2273 35.5708 33.1646 35.3865C34.1019 35.2022 34.9631 34.7454 35.6394 34.0738C36.3156 33.4022 36.7765 32.546 36.9636 31.6136C37.1507 30.6813 37.0557 29.7146 36.6905 28.836C36.3254 27.9574 35.7065 27.2064 34.9123 26.6779C34.118 26.1495 33.1841 25.8674 32.2288 25.8674C30.9505 25.8694 29.7251 26.3749 28.8203 27.2735C27.9155 28.1721 27.405 29.3906 27.4004 30.6626ZM32.2288 28.65C32.6292 28.6505 33.0206 28.7691 33.3533 28.991C33.686 29.2128 33.9452 29.5278 34.098 29.8963C34.2508 30.2647 34.2904 30.6699 34.2117 31.0607C34.1331 31.4515 33.9398 31.8103 33.6563 32.0918C33.3728 32.3733 33.0117 32.5647 32.6189 32.642C32.226 32.7193 31.8189 32.6789 31.4491 32.5259C31.0793 32.3729 30.7634 32.1143 30.5413 31.7826C30.3192 31.4509 30.2009 31.0612 30.2014 30.6626C30.2034 30.1286 30.4178 29.6171 30.7977 29.2399C31.1776 28.8627 31.6921 28.6506 32.2288 28.65Z" fill="white"/>
<path d="M44.4328 53.0296C44.6725 53.0295 44.9081 52.9682 45.1171 52.8517C45.3262 52.7351 45.5017 52.567 45.6268 52.3636L49.1567 46.6401C49.3406 46.325 49.3934 45.9508 49.3038 45.5975C49.2143 45.2442 48.9895 44.9397 48.6775 44.749C48.3654 44.5584 47.9909 44.4967 47.6338 44.5771C47.2767 44.6575 46.9653 44.8737 46.7661 45.1795L44.4328 48.9671L42.1044 45.177C42.0121 45.013 41.8875 44.8693 41.738 44.7544C41.5885 44.6396 41.4173 44.5559 41.2345 44.5085C41.0518 44.4611 40.8613 44.4509 40.6745 44.4785C40.4877 44.5061 40.3084 44.5709 40.1474 44.6691C39.9864 44.7673 39.8469 44.8969 39.7374 45.05C39.6279 45.2032 39.5506 45.3767 39.5101 45.5603C39.4697 45.7439 39.4668 45.9337 39.5019 46.1184C39.5369 46.3031 39.609 46.4788 39.7139 46.6351L43.2388 52.3562C43.363 52.561 43.5381 52.7305 43.7472 52.8484C43.9563 52.9663 44.1924 53.0287 44.4328 53.0296Z" fill="white"/>
<path d="M34.9005 83.4818C34.7164 83.4818 34.5341 83.5179 34.364 83.5881C34.1939 83.6583 34.0394 83.7612 33.9093 83.8909C33.7792 84.0206 33.6761 84.1745 33.6059 84.3439C33.5357 84.5133 33.4997 84.6948 33.5 84.878V90.7872C33.5 91.1569 33.6476 91.5114 33.9102 91.7728C34.1728 92.0342 34.5291 92.181 34.9005 92.181C35.2719 92.181 35.6282 92.0342 35.8908 91.7728C36.1534 91.5114 36.301 91.1569 36.301 90.7872V84.878C36.301 84.5081 36.1535 84.1534 35.891 83.8916C35.6284 83.6298 35.2722 83.4824 34.9005 83.4818Z" fill="white"/>
<path d="M54.1193 92.1909C54.4907 92.1909 54.847 92.044 55.1096 91.7827C55.3722 91.5213 55.5198 91.1668 55.5198 90.7971V84.8854C55.5046 84.5256 55.3502 84.1856 55.089 83.9364C54.8278 83.6871 54.4799 83.548 54.1181 83.548C53.7562 83.548 53.4083 83.6871 53.1471 83.9364C52.8859 84.1856 52.7315 84.5256 52.7163 84.8854V90.7971C52.7163 90.9804 52.7526 91.1618 52.8232 91.3311C52.8937 91.5003 52.9971 91.6541 53.1274 91.7835C53.2577 91.913 53.4124 92.0156 53.5826 92.0855C53.7528 92.1554 53.9352 92.1912 54.1193 92.1909Z" fill="white"/>
<path d="M45.823 77.1245V71.2128C45.8078 70.853 45.6534 70.5129 45.3922 70.2637C45.131 70.0145 44.7831 69.8753 44.4213 69.8753C44.0594 69.8753 43.7115 70.0145 43.4503 70.2637C43.1891 70.5129 43.0348 70.853 43.0195 71.2128V77.1245C43.0348 77.4843 43.1891 77.8243 43.4503 78.0735C43.7115 78.3228 44.0594 78.4619 44.4213 78.4619C44.7831 78.4619 45.131 78.3228 45.3922 78.0735C45.6534 77.8243 45.8078 77.4843 45.823 77.1245Z" fill="white"/>
<path d="M87.5991 105.21L57.1365 105.195C61.1509 103.328 64.6943 100.59 67.5064 97.1813C70.3186 93.7731 72.3282 89.7815 73.3877 85.4994C75.1318 85.9574 76.9272 86.1928 78.731 86.2C79.1029 86.1993 79.4593 86.052 79.7223 85.7903C79.9853 85.5286 80.1333 85.1739 80.134 84.8037V60.5752C80.1515 58.6364 79.6135 56.7327 78.5831 55.0872C77.5526 53.4418 76.0723 52.1226 74.3156 51.2843V29.6551C74.3236 24.6078 73.0285 19.6432 70.5544 15.2372L81.8703 8.90716C82.1816 8.71942 82.4075 8.41857 82.5001 8.06818C82.5927 7.71778 82.5448 7.34529 82.3666 7.02938C82.1883 6.71347 81.8937 6.47889 81.5448 6.37519C81.196 6.27149 80.8203 6.3068 80.4972 6.47366L69.0917 12.8632C68.0597 11.3694 66.8941 9.97159 65.6091 8.68683C62.5197 5.60978 58.7873 3.24746 54.6772 1.76766C50.567 0.287862 46.1798 -0.273113 41.8272 0.12458C37.4747 0.522274 33.2635 1.86888 29.4928 4.06875C25.7221 6.26862 22.4844 9.26779 20.0096 12.8532L8.56682 6.44395C8.24321 6.26241 7.8604 6.21624 7.50259 6.31559C7.14478 6.41494 6.84128 6.65168 6.65886 6.97373C6.47644 7.29577 6.43004 7.67675 6.52988 8.03284C6.62971 8.38892 6.86759 8.69096 7.1912 8.8725L18.532 15.2224C16.0443 19.629 14.7371 24.5982 14.736 29.6526V51.3387C12.987 52.191 11.5121 53.5128 10.4779 55.1549C9.44362 56.797 8.89113 58.6941 8.88274 60.6321V84.8632C8.88307 85.0473 8.9199 85.2295 8.99115 85.3994C9.06239 85.5693 9.16664 85.7235 9.29791 85.8532C9.42918 85.9829 9.58489 86.0856 9.75611 86.1553C9.92733 86.225 10.1107 86.2604 10.2957 86.2594C12.1785 86.2549 14.0526 86.0052 15.8703 85.5167C18.2783 94.4115 24.3006 101.499 32.0917 105.188L1.42005 105.173C1.23101 105.165 1.0423 105.195 0.865291 105.262C0.688279 105.328 0.526623 105.43 0.39004 105.56C0.253458 105.69 0.144774 105.847 0.0705281 106.02C-0.00371771 106.193 -0.0419922 106.38 -0.0419922 106.568C-0.0419922 106.756 -0.00371771 106.943 0.0705281 107.116C0.144774 107.289 0.253458 107.445 0.39004 107.576C0.526623 107.706 0.688279 107.808 0.865291 107.874C1.0423 107.941 1.23101 107.971 1.42005 107.963L44.4325 107.983H44.5494L87.6166 108.002C87.8056 108.01 87.9943 107.98 88.1713 107.914C88.3483 107.847 88.51 107.746 88.6466 107.615C88.7831 107.485 88.8918 107.329 88.9661 107.155C89.0403 106.982 89.0786 106.796 89.0786 106.607C89.0786 106.419 89.0403 106.233 88.9661 106.06C88.8918 105.886 88.7831 105.73 88.6466 105.6C88.51 105.469 88.3483 105.368 88.1713 105.301C87.9943 105.235 87.8056 105.205 87.6166 105.212L87.5991 105.21ZM77.3504 60.5752V83.3506C75.7543 83.2225 74.1816 82.8897 72.6713 82.3603C71.3194 81.8854 70.024 81.2645 68.8081 80.5086C68.7857 80.5086 68.7633 80.4789 68.7409 80.464C68.4474 80.2784 68.1564 80.0828 67.8703 79.8773L67.5121 79.61C67.3827 79.5134 67.2633 79.407 67.129 79.3079C66.93 79.147 66.726 78.9911 66.532 78.8128L66.3952 78.689C66.1763 78.4935 65.9574 78.2855 65.736 78.0677L65.5768 77.9117C65.3504 77.684 65.1116 77.4339 64.8529 77.1542C64.5942 76.8744 64.4076 76.6591 64.1962 76.3843L63.9996 76.1367C63.925 76.0402 63.8554 75.9436 63.7832 75.8471C63.5942 75.5995 63.4126 75.3396 63.2384 75.0772L63.0817 74.8469C63.0171 74.7454 62.9499 74.639 62.8802 74.5251C62.6539 74.1562 62.4325 73.7824 62.231 73.4012C62.1837 73.3121 62.1389 73.218 62.0942 73.1264C61.8852 72.7138 61.6912 72.2929 61.5121 71.8638V71.8465C61.4151 71.599 61.333 71.3514 61.2434 71.1038C61.1539 70.8563 61.0419 70.5567 60.9549 70.277C60.93 70.1904 60.9001 70.0864 60.8603 69.9403C60.7957 69.715 60.7409 69.4873 60.6837 69.2595C60.6414 69.0862 60.5942 68.9129 60.5544 68.7372C60.5146 68.5614 60.4872 68.4129 60.4574 68.2544C60.3927 67.9128 60.3429 67.5712 60.2982 67.2271C60.2982 67.1701 60.2807 67.1107 60.2733 67.0538L60.2111 66.5587C60.1588 65.9868 60.124 65.41 60.124 64.8257V62.4814C60.127 61.8998 60.1836 61.3197 60.2932 60.7485C60.3379 60.5009 60.4126 60.2806 60.4748 60.0454C60.5544 59.7483 60.6365 59.4512 60.7459 59.1616C60.8696 58.8382 61.0125 58.5225 61.1738 58.2159C61.2434 58.0773 61.318 57.9411 61.3952 57.805C61.6233 57.4101 61.882 57.0335 62.1688 56.6786C62.5608 56.2057 62.9785 55.7545 63.42 55.3269C64.7932 54.1331 66.4837 53.3594 68.2882 53.0989V68.2594C68.2882 68.629 68.4358 68.9835 68.6984 69.2449C68.961 69.5063 69.3173 69.6531 69.6887 69.6531C70.0601 69.6531 70.4164 69.5063 70.679 69.2449C70.9416 68.9835 71.0892 68.629 71.0892 68.2594V53.0989C71.4533 53.1732 71.8116 53.2733 72.1613 53.3984C73.2703 53.7581 74.2802 54.3691 75.1116 55.1833C75.8243 55.8902 76.3892 56.7307 76.7735 57.6562C77.1577 58.5816 77.3538 59.5738 77.3504 60.5752ZM11.6788 60.6371C11.6852 59.0123 12.2142 57.4323 13.1882 56.1284C14.1623 54.8246 15.5302 53.8652 17.0917 53.391C17.3686 53.2991 17.65 53.2214 17.935 53.1583V68.2445C17.927 68.4327 17.9574 68.6205 18.0242 68.7966C18.0911 68.9728 18.193 69.1337 18.324 69.2696C18.4549 69.4055 18.6122 69.5137 18.7862 69.5876C18.9602 69.6615 19.1475 69.6995 19.3367 69.6995C19.5259 69.6995 19.7132 69.6615 19.8872 69.5876C20.0613 69.5137 20.2185 69.4055 20.3494 69.2696C20.4804 69.1337 20.5824 68.9728 20.6492 68.7966C20.7161 68.6205 20.7464 68.4327 20.7385 68.2445V53.1558C22.5566 53.4214 24.2572 54.2095 25.6315 55.4235C26.1558 55.9295 26.6469 56.4687 27.1016 57.0375C27.2658 57.2405 27.3927 57.4658 27.5345 57.6812C28.4314 59.1509 28.9087 60.8361 28.9151 62.5556V64.9272C28.9151 65.5115 28.8778 66.0858 28.8255 66.6602L28.7584 67.1949C28.7111 67.586 28.6539 67.9747 28.5817 68.3535C28.5444 68.554 28.5021 68.7545 28.4598 68.9526C28.3753 69.3239 28.2807 69.6952 28.1738 70.0492L28.0196 70.5889C27.8554 71.084 27.6763 71.5915 27.4748 72.0743L27.2385 72.5694C27.0917 72.8863 26.9424 73.2056 26.7783 73.5175C26.6613 73.7403 26.5295 73.9582 26.3877 74.2033C26.2459 74.4484 26.1215 74.6563 25.9773 74.8766C25.833 75.097 25.6564 75.3718 25.4798 75.6069C25.3703 75.7604 25.2559 75.909 25.0967 76.1144C24.353 77.0808 23.5202 77.9759 22.6091 78.7881L22.4698 78.9143C22.1589 79.1842 21.838 79.4391 21.3006 79.8427C19.7957 80.9452 18.1329 81.8164 16.3678 82.4272C16.3405 82.4406 16.3139 82.4554 16.2882 82.4717C14.7928 82.9813 13.2378 83.2974 11.6613 83.4125L11.6788 60.6371ZM18.4947 84.6503C20.0853 83.9857 21.5889 83.1311 22.9723 82.1054H22.9872C23.4847 81.7315 23.9822 81.3379 24.4623 80.9171L24.4997 80.8874L24.5245 80.8626C24.833 80.5878 25.1489 80.3254 25.4424 80.0358C26.2392 79.2313 26.972 78.3663 27.634 77.4488C27.6837 77.3819 27.736 77.3151 27.7857 77.2458C28.4354 76.3339 29.011 75.372 29.5071 74.3691C29.5718 74.2379 29.6489 74.0721 29.7235 73.9161C30.0923 73.1353 30.4121 72.3325 30.6812 71.5123L30.6962 71.4628C30.8778 70.8959 31.0295 70.3191 31.1613 69.7299C31.1738 69.6804 31.1887 69.6309 31.2011 69.5789C31.2011 69.5789 31.2011 69.5665 31.2011 69.5591C31.2683 69.2546 31.3255 68.9451 31.3802 68.6382C31.435 68.3312 31.4847 67.9821 31.537 67.5761C31.6502 66.7058 31.7108 65.8295 31.7186 64.952V62.1645C31.7186 61.9912 31.6837 61.8229 31.6738 61.6496C31.6638 61.4763 31.6514 61.3129 31.6315 61.1545C31.5256 60.0288 31.2444 58.9264 30.7982 57.8867C30.7708 57.8223 30.7409 57.7604 30.7136 57.6961C30.5643 57.3668 30.425 57.0351 30.2434 56.7207C29.4429 55.2376 28.3417 53.9361 27.0096 52.8984C24.3031 50.5094 21.9598 50.1752 19.7758 50.2544H19.7235C19.5942 50.2544 19.4748 50.2371 19.338 50.2371C19.2733 50.2371 19.2136 50.2569 19.1489 50.2569C18.6061 50.2594 18.0645 50.3066 17.5295 50.398V29.665C17.5302 25.0896 18.7123 20.5912 20.9623 16.6013L28.2509 20.6687C25.7618 21.6455 23.7248 23.5057 22.5333 25.8898C21.3417 28.274 21.0803 31.013 21.7993 33.5778C22.5184 36.1425 24.167 38.3512 26.4267 39.777C28.6864 41.2029 31.3968 41.7448 34.0345 41.2981C36.6723 40.8514 39.0501 39.4478 40.7087 37.3584C42.3673 35.269 43.1891 32.6421 43.0153 29.9849C42.8415 27.3278 41.6844 24.829 39.7675 22.9713C37.8507 21.1135 35.3101 20.0286 32.6365 19.926L22.4748 14.2322C24.7331 11.0216 27.6708 8.34242 31.0813 6.38305C34.4918 4.42368 38.2922 3.23171 42.2153 2.89096C46.1383 2.55022 50.0888 3.06897 53.7888 4.41075C57.4888 5.75252 60.8484 7.88473 63.6315 10.6574C64.7322 11.7615 65.7359 12.9575 66.6315 14.2322L56.4325 19.926C53.7582 20.0285 51.2169 21.1136 49.2995 22.9717C47.3821 24.8299 46.2247 27.3292 46.0508 29.987C45.8768 32.6448 46.6988 35.2724 48.3578 37.3623C50.0168 39.4523 52.3952 40.8563 55.0336 41.303C57.6719 41.7498 60.3831 41.2078 62.6433 39.7815C64.9035 38.3553 66.5525 36.1461 67.2717 33.5807C67.9908 31.0152 67.7292 28.2756 66.5373 25.8909C65.3454 23.5062 63.3078 21.6457 60.8181 20.6687L68.119 16.5864C70.356 20.5758 71.5276 25.0693 71.522 29.6377V50.3064C70.9978 50.2158 70.467 50.1686 69.935 50.1653C69.8529 50.1653 69.7733 50.143 69.6862 50.143C69.5046 50.143 69.3255 50.1628 69.1464 50.1703C67.1389 50.0836 64.8056 50.4178 62.1365 52.7102C61.7134 53.031 61.3112 53.3783 60.9325 53.75C59.617 55.0594 58.616 56.6479 58.0046 58.3966L57.9897 58.4412C57.7748 59.0528 57.6084 59.6802 57.4922 60.3177C57.4797 60.392 57.4723 60.4687 57.4598 60.5455C57.3549 61.1797 57.3 61.8212 57.2957 62.464V64.8332C57.2957 65.5065 57.3355 66.17 57.3952 66.8285C57.3965 66.8342 57.3965 66.8401 57.3952 66.8458C57.4126 67.0191 57.4375 67.1899 57.4574 67.3632C57.4574 67.3979 57.4574 67.4127 57.4698 67.4499C57.5245 67.8979 57.5917 68.346 57.6738 68.7867V68.8238C57.7136 69.0243 57.7534 69.2224 57.7957 69.418C57.7957 69.4378 57.7957 69.4576 57.8081 69.4774C57.9026 69.9007 58.0121 70.3166 58.1738 70.8786V70.9107C58.2136 71.0395 58.2484 71.1707 58.2882 71.2969L58.3106 71.3712C58.4764 71.8944 58.6655 72.4085 58.8778 72.9135L58.9126 72.9977L59.0469 73.3046L59.119 73.473C59.318 73.9161 59.527 74.3568 59.7534 74.7826L59.823 74.9063L59.9449 75.1267L60.1713 75.5153C60.3404 75.805 60.5121 76.0897 60.6912 76.3669C60.7285 76.4264 60.7708 76.4808 60.8081 76.5378C60.9001 76.6764 60.9922 76.815 61.0867 76.9512C61.134 77.018 61.1738 77.0849 61.221 77.1492C61.3902 77.3968 61.5668 77.6171 61.823 77.9488C61.8827 78.0256 61.9474 78.0998 62.0071 78.1766C62.0668 78.2533 62.1812 78.3994 62.2733 78.5083C62.3056 78.5479 62.338 78.5925 62.3728 78.6321C62.4748 78.7534 62.5817 78.8673 62.828 79.1272C62.9773 79.2931 63.134 79.459 63.2982 79.6223C63.5046 79.8352 63.7161 80.0407 63.9325 80.2437C64.1812 80.4913 64.4598 80.7388 64.7882 81.0359L64.92 81.1399C65.1066 81.2958 65.3006 81.4419 65.4897 81.5904C65.5991 81.6746 65.6937 81.7563 65.8081 81.838C65.9225 81.9197 66.0569 82.0385 66.1986 82.1301C66.2633 82.1771 66.3305 82.2168 66.3927 82.2613C66.6215 82.4222 66.8504 82.5782 67.0842 82.7292L67.2683 82.853L67.5569 83.0287L67.6389 83.0783C67.7086 83.1203 67.7832 83.155 67.8554 83.1971C68.236 83.4199 68.6215 83.6353 69.0146 83.8358C69.1713 83.915 69.3305 83.9868 69.4872 84.0611C69.8827 84.2517 70.2783 84.4374 70.6862 84.6032L70.7235 84.6205C69.2953 90.5712 65.8623 95.8556 60.996 99.5941C56.1296 103.333 50.1235 105.3 43.9773 105.168C31.9773 104.962 21.6564 96.5776 18.4947 84.6453V84.6503ZM32.231 22.7011C33.8148 22.7016 35.3629 23.1695 36.6795 24.0457C37.9961 24.9218 39.0221 26.1669 39.6276 27.6233C40.2332 29.0798 40.3911 30.6823 40.0814 32.2281C39.7718 33.7738 39.0085 35.1935 37.888 36.3076C36.7675 37.4216 35.3403 38.1799 33.7867 38.4866C32.2332 38.7934 30.6231 38.6347 29.1602 38.0307C27.6972 37.4267 26.4471 36.4046 25.568 35.0935C24.6888 33.7824 24.2201 32.2413 24.221 30.6651C24.225 28.5529 25.0704 26.5283 26.5719 25.0354C28.0734 23.5426 30.1085 22.7031 32.231 22.7011ZM56.8429 22.7135C58.4269 22.7135 59.9752 23.181 61.2922 24.0569C62.6091 24.9327 63.6354 26.1776 64.2413 27.634C64.8473 29.0904 65.0055 30.693 64.6962 32.2389C64.3868 33.7849 63.6237 35.2048 62.5033 36.3191C61.3829 37.4333 59.9557 38.1919 58.4021 38.4988C56.8484 38.8058 55.2382 38.6472 53.7752 38.0433C52.3121 37.4394 51.0618 36.4173 50.1825 35.1061C49.3033 33.795 48.8345 32.2538 48.8355 30.6775C48.8272 29.6285 49.0287 28.5883 49.4284 27.6176C49.828 26.6469 50.4177 25.765 51.1632 25.0233C51.9087 24.2817 52.795 23.6951 53.7706 23.2977C54.7461 22.9002 55.7913 22.7 56.8454 22.7086L56.8429 22.7135Z" fill="white"/>
</g>
<defs>
<clipPath id="clip0">
<rect width="89" height="108" fill="white"/>
</clipPath>
</defs>
</svg>
