<svg width="64" height="55" viewBox="0 0 64 55" fill="none" xmlns="http://www.w3.org/2000/svg">
<path d="M47.0553 24.3336C39.3602 24.3336 33.1016 30.5923 33.1016 38.2873C33.1016 45.9824 39.362 52.241 47.0553 52.241C54.7485 52.241 61.009 45.9806 61.009 38.2873C61.009 30.5941 54.7485 24.3336 47.0553 24.3336ZM47.0553 50.6059C40.2618 50.6059 34.7367 45.079 34.7367 38.2855C34.7367 31.4921 40.2636 25.9669 47.0553 25.9669C53.8469 25.9669 59.3739 31.4939 59.3739 38.2855C59.3739 45.0772 53.8469 50.6059 47.0553 50.6059Z" fill="white"/>
<path d="M30.5074 49.4297C30.5074 48.978 30.1424 48.613 29.6907 48.613H4.09596C2.74268 48.613 1.64055 47.5109 1.64055 46.1576V19.3632H55.8058V20.7869C55.8058 21.2386 56.1726 21.6036 56.6225 21.6036C57.0742 21.6036 57.4391 21.2386 57.4391 20.7869V10.295C57.4391 8.04014 55.6053 6.20446 53.3486 6.20446H43.9895V2.80231C43.9895 1.25752 42.732 0 41.1872 0C39.6424 0 38.3849 1.25571 38.3849 2.80231V6.20446H31.521V2.80231C31.521 1.25752 30.2635 0 28.7187 0C27.1739 0 25.9164 1.25571 25.9164 2.80231V6.20446H19.0524V2.80231C19.0524 1.25752 17.7949 0 16.2501 0C14.7053 0 13.4478 1.25571 13.4478 2.80231V6.20446H4.08873C1.83387 6.20446 0 8.04014 0 10.295V46.1576C0 48.4125 1.83387 50.2464 4.08873 50.2464H29.6835C30.1424 50.2464 30.5074 49.8814 30.5074 49.4297ZM1.64055 17.7281V15.578H55.8058V17.7281H1.64055ZM40.0236 2.80231C40.0236 2.1591 40.5476 1.63513 41.1908 1.63513C41.834 1.63513 42.358 2.1591 42.358 2.80231V7.02112V8.24069C42.358 8.88571 41.834 9.40787 41.1908 9.40787C40.5476 9.40787 40.0236 8.88391 40.0236 8.24069V7.02112V2.80231ZM27.5551 2.80231C27.5551 2.1591 28.0791 1.63513 28.7223 1.63513C29.3655 1.63513 29.8895 2.1591 29.8895 2.80231V7.02112V8.24069C29.8895 8.88571 29.3655 9.40787 28.7223 9.40787C28.0791 9.40787 27.5551 8.88391 27.5551 8.24069V7.02112V2.80231ZM15.0884 2.80231C15.0884 2.1591 15.6123 1.63513 16.2555 1.63513C16.8988 1.63513 17.4227 2.1591 17.4227 2.80231V7.02112V8.24069C17.4227 8.88571 16.8988 9.40787 16.2555 9.40787C15.6123 9.40787 15.0884 8.88391 15.0884 8.24069V7.02112V2.80231ZM4.09596 7.83959H13.455V8.2425C13.455 9.78729 14.7126 11.0448 16.2573 11.0448C17.8021 11.0448 19.0597 9.78729 19.0597 8.2425V7.83959H25.9236V8.2425C25.9236 9.78729 27.1811 11.0448 28.7259 11.0448C30.2707 11.0448 31.5282 9.78729 31.5282 8.2425V7.83959H38.3921V8.2425C38.3921 9.78729 39.6496 11.0448 41.1944 11.0448C42.7392 11.0448 43.9967 9.78729 43.9967 8.2425V7.83959H53.3558C54.7091 7.83959 55.8112 8.94172 55.8112 10.295V13.9429H1.64055V10.295C1.64055 8.94172 2.74268 7.83959 4.09596 7.83959Z" fill="white"/>
<path d="M14.7883 24.6805C14.7883 23.3273 13.688 22.2269 12.3347 22.2269H7.12938C5.77611 22.2269 4.67578 23.3273 4.67578 24.6805V29.8967C4.67578 31.25 5.77611 32.3503 7.12938 32.3503H12.3347C13.688 32.3503 14.7883 31.25 14.7883 29.8967V24.6805ZM13.155 29.8967C13.155 30.3484 12.7882 30.7152 12.3365 30.7152H7.13119C6.67949 30.7152 6.31272 30.3466 6.31272 29.8967V24.6805C6.31272 24.2288 6.67949 23.8603 7.13119 23.8603H12.3365C12.7882 23.8603 13.155 24.2288 13.155 24.6805V29.8967Z" fill="white"/>
<path d="M27.4484 24.6805C27.4484 23.3273 26.3481 22.2269 24.9948 22.2269H19.7895C18.4363 22.2269 17.3359 23.3273 17.3359 24.6805V29.8967C17.3359 31.25 18.4363 32.3503 19.7895 32.3503H24.9948C26.3481 32.3503 27.4484 31.25 27.4484 29.8967V24.6805ZM25.8151 29.8967C25.8151 30.3484 25.4483 30.7152 24.9967 30.7152H19.7913C19.3396 30.7152 18.9729 30.3466 18.9729 29.8967V24.6805C18.9729 24.2288 19.3396 23.8603 19.7913 23.8603H24.9967C25.4483 23.8603 25.8151 24.2288 25.8151 24.6805V29.8967Z" fill="white"/>
<path d="M32.4516 22.2269C31.0984 22.2269 29.998 23.3273 29.998 24.6805V29.1089C29.998 29.5606 30.3648 29.9256 30.8147 29.9256C31.2664 29.9256 31.6314 29.5606 31.6314 29.1089V24.6805C31.6314 24.2288 31.9981 23.8603 32.4498 23.8603H35.0534C35.5051 23.8603 35.8701 23.4953 35.8701 23.0436C35.8701 22.5937 35.5051 22.2269 35.0534 22.2269H32.4516Z" fill="white"/>
<path d="M12.3347 34.5527H7.12938C5.77611 34.5527 4.67578 35.6531 4.67578 37.0063V42.2225C4.67578 43.574 5.77611 44.6761 7.12938 44.6761H12.3347C13.688 44.6761 14.7883 43.5758 14.7883 42.2225V37.0063C14.7883 35.6531 13.688 34.5527 12.3347 34.5527ZM13.155 42.2225C13.155 42.6742 12.7882 43.041 12.3365 43.041H7.13119C6.67949 43.041 6.31272 42.6742 6.31272 42.2225V37.0063C6.31272 36.5546 6.67949 36.1879 7.13119 36.1879H12.3365C12.7882 36.1879 13.155 36.5564 13.155 37.0063V42.2225Z" fill="white"/>
<path d="M24.9948 34.5527H19.7895C18.4363 34.5527 17.3359 35.6531 17.3359 37.0063V42.2225C17.3359 43.574 18.4363 44.6761 19.7895 44.6761H24.9948C26.3481 44.6761 27.4484 43.5758 27.4484 42.2225V37.0063C27.4484 35.6531 26.3481 34.5527 24.9948 34.5527ZM25.8151 42.2225C25.8151 42.6742 25.4483 43.041 24.9967 43.041H19.7913C19.3396 43.041 18.9729 42.6742 18.9729 42.2225V37.0063C18.9729 36.5546 19.3396 36.1879 19.7913 36.1879H24.9967C25.4483 36.1879 25.8151 36.5564 25.8151 37.0063V42.2225Z" fill="white"/>
<path d="M47.0554 21.5747C37.8409 21.5747 30.3428 29.0728 30.3428 38.2874C30.3428 47.5037 37.8409 55 47.0554 55C56.27 55 63.7681 47.5019 63.7681 38.2874C63.7663 29.071 56.27 21.5747 47.0554 21.5747ZM47.0554 53.3649C38.7407 53.3649 31.9779 46.6003 31.9779 38.2874C31.9779 29.9744 38.7425 23.2098 47.0554 23.2098C55.3684 23.2098 62.1329 29.9744 62.1329 38.2874C62.1329 46.6003 55.3684 53.3649 47.0554 53.3649Z" fill="white"/>
<path d="M47.0559 31.9419C47.5076 31.9419 47.8726 31.577 47.8726 31.1253V28.3284C47.8726 27.8767 47.5058 27.5117 47.0559 27.5117C46.6042 27.5117 46.2393 27.8767 46.2393 28.3284V31.1253C46.2375 31.577 46.6042 31.9419 47.0559 31.9419Z" fill="white"/>
<path d="M52.7642 33.3946C52.9737 33.3946 53.1833 33.3151 53.3423 33.1543L54.6739 31.8227C54.9937 31.5047 54.9937 30.9862 54.6739 30.6664C54.3541 30.3466 53.8374 30.3466 53.5176 30.6664L52.1842 31.998C51.8644 32.3159 51.8644 32.8345 52.1842 33.1543C52.345 33.3133 52.5546 33.3946 52.7642 33.3946Z" fill="white"/>
<path d="M57.013 37.4689H54.2161C53.7644 37.4689 53.3994 37.8357 53.3994 38.2855C53.3994 38.7372 53.7662 39.1022 54.2161 39.1022H57.013C57.4647 39.1022 57.8296 38.7372 57.8296 38.2855C57.8314 37.8357 57.4647 37.4689 57.013 37.4689Z" fill="white"/>
<path d="M53.3405 43.4186C53.0207 43.0988 52.504 43.0988 52.1842 43.4186C51.8644 43.7384 51.8644 44.2551 52.1842 44.5731L53.5176 45.9047C53.6766 46.0637 53.8862 46.145 54.0958 46.145C54.3053 46.145 54.5149 46.0655 54.6739 45.9047C54.9937 45.5849 54.9937 45.0681 54.6739 44.7502L53.3405 43.4186Z" fill="white"/>
<path d="M47.0559 44.6309C46.6042 44.6309 46.2393 44.9959 46.2393 45.4476V48.2445C46.2393 48.6962 46.606 49.0611 47.0559 49.0611C47.5076 49.0611 47.8726 48.6962 47.8726 48.2445V45.4476C47.8726 44.9959 47.5058 44.6309 47.0559 44.6309Z" fill="white"/>
<path d="M40.7677 43.4186L39.4361 44.7502C39.1163 45.07 39.1163 45.5867 39.4361 45.9047C39.5951 46.0637 39.8047 46.145 40.0143 46.145C40.2239 46.145 40.4335 46.0655 40.5925 45.9047L41.9241 44.5731C42.2439 44.2533 42.2439 43.7366 41.9241 43.4186C41.6043 43.0988 41.0857 43.0988 40.7677 43.4186Z" fill="white"/>
<path d="M40.7095 38.2855C40.7095 37.8357 40.3427 37.4689 39.8928 37.4689H37.096C36.6443 37.4689 36.2793 37.8357 36.2793 38.2855C36.2793 38.7372 36.6461 39.1022 37.096 39.1022H39.8928C40.3445 39.104 40.7095 38.739 40.7095 38.2855Z" fill="white"/>
<path d="M40.5905 30.6664C40.2707 30.3466 39.754 30.3466 39.4342 30.6664C39.1144 30.9862 39.1144 31.5029 39.4342 31.8227L40.7658 33.1543C40.9248 33.3133 41.1344 33.3946 41.3439 33.3946C41.5535 33.3946 41.7631 33.3151 41.9221 33.1543C42.2419 32.8345 42.2419 32.3178 41.9221 31.998L40.5905 30.6664Z" fill="white"/>
<path d="M50.1383 37.4689H47.8726V34.4768C47.8726 34.0252 47.5058 33.6602 47.0559 33.6602C46.6042 33.6602 46.2393 34.027 46.2393 34.4768V38.2855C46.2393 38.7372 46.606 39.1022 47.0559 39.1022H50.1383C50.59 39.1022 50.9549 38.7372 50.9549 38.2855C50.9549 37.8356 50.5882 37.4689 50.1383 37.4689Z" fill="white"/>
<path d="M35.8888 53.3649H8.53248C8.08079 53.3649 7.71582 53.7298 7.71582 54.1815C7.71582 54.6332 8.08079 54.9982 8.53248 54.9982H35.8888C36.3405 54.9982 36.7055 54.6314 36.7055 54.1815C36.7073 53.7298 36.3405 53.3649 35.8888 53.3649Z" fill="white"/>
</svg>
