<svg width="90" height="107" viewBox="0 0 90 107" fill="none" xmlns="http://www.w3.org/2000/svg">
<g clip-path="url(#clip0)">
<path d="M75.7257 104.182H63.6696C64.0773 103.414 64.2753 102.557 64.2447 101.692C64.214 100.827 63.9555 99.9852 63.4945 99.2475C63.0334 98.5098 62.3854 97.9017 61.6135 97.4822C60.8416 97.0627 59.972 96.8461 59.0895 96.8536H58.6787V92.3441H59.0895C60.372 92.2315 61.5651 91.6526 62.4341 90.7212C63.303 89.7898 63.7849 88.5733 63.7849 87.3112C63.7849 86.049 63.303 84.8326 62.4341 83.9012C61.5651 82.9697 60.372 82.3908 59.0895 82.2783H58.8019V80.4664C58.8279 78.058 59.3933 75.6846 60.458 73.5139C61.5227 71.3433 63.0607 69.4282 64.9635 67.9042C69.8183 63.9009 73.2999 58.5311 74.9361 52.5229C76.5723 46.5146 76.284 40.1585 74.1104 34.3162C71.9367 28.474 67.9828 23.4282 62.7847 19.8629C57.5866 16.2977 51.3957 14.3854 45.0514 14.3854C38.7071 14.3854 32.5162 16.2977 27.3181 19.8629C22.1199 23.4282 18.166 28.474 15.9924 34.3162C13.8187 40.1585 13.5304 46.5146 15.1666 52.5229C16.8028 58.5311 20.2844 63.9009 25.1392 67.9042C27.0409 69.4381 28.5776 71.3607 29.6419 73.5375C30.7062 75.7144 31.2724 78.0929 31.3008 80.5066V82.3186H31.0338C29.7512 82.4311 28.5581 83.01 27.6892 83.9414C26.8202 84.8728 26.3383 86.0893 26.3383 87.3515C26.3383 88.6136 26.8202 89.8301 27.6892 90.7615C28.5581 91.6929 29.7512 92.2719 31.0338 92.3844H31.424V96.8939H31.0338C30.1473 96.8734 29.2704 97.0774 28.4879 97.4862C27.7053 97.895 27.0436 98.4946 26.5666 99.2273C26.0896 99.96 25.8135 100.801 25.7649 101.669C25.7164 102.537 25.897 103.402 26.2894 104.182H12.9599C12.758 104.158 12.5534 104.176 12.3593 104.236C12.1653 104.295 11.9864 104.394 11.8343 104.526C11.6822 104.659 11.5604 104.821 11.4771 105.003C11.3937 105.184 11.3506 105.381 11.3506 105.581C11.3506 105.78 11.3937 105.977 11.4771 106.159C11.5604 106.34 11.6822 106.503 11.8343 106.635C11.9864 106.767 12.1653 106.866 12.3593 106.926C12.5534 106.985 12.758 107.004 12.9599 106.98H75.7052C76.0542 106.939 76.3759 106.774 76.6092 106.516C76.8425 106.258 76.9713 105.925 76.9713 105.581C76.9713 105.236 76.8425 104.903 76.6092 104.646C76.3759 104.388 76.0542 104.223 75.7052 104.182H75.7257ZM26.9055 65.7099C22.5053 62.0771 19.3508 57.2061 17.8696 51.757C16.3884 46.308 16.652 40.5444 18.6247 35.2471C20.5974 29.9499 24.1839 25.3751 28.8981 22.1428C33.6123 18.9105 39.2264 17.1769 44.9795 17.1769C50.7326 17.1769 56.3466 18.9105 61.0608 22.1428C65.775 25.3751 69.3615 29.9499 71.3342 35.2471C73.3069 40.5444 73.5706 46.308 72.0893 51.757C70.6081 57.2061 67.4536 62.0771 63.0534 65.7099C60.8426 67.5038 59.0604 69.7515 57.8325 72.2942C56.6046 74.837 55.961 77.613 55.9471 80.4262V82.238H50.9356L57.2204 46.4439C57.2717 46.1726 57.2407 45.8926 57.1311 45.6385C57.0216 45.3845 56.8385 45.1675 56.6043 45.0145C56.3686 44.8654 56.0941 44.7861 55.8136 44.7861C55.5331 44.7861 55.2585 44.8654 55.0228 45.0145L50.5044 47.994L45.6778 44.9944C45.4458 44.8556 45.1793 44.7822 44.9076 44.7822C44.6358 44.7822 44.3694 44.8556 44.1374 44.9944L39.3108 47.994L34.7924 45.0145C34.5598 44.8671 34.2888 44.7887 34.0119 44.7887C33.735 44.7887 33.464 44.8671 33.2314 45.0145C32.9915 45.1629 32.8026 45.3785 32.6891 45.6333C32.5755 45.8881 32.5427 46.1705 32.5947 46.4439L38.8795 82.238H33.9503V80.4262C33.9397 77.6184 33.3038 74.8468 32.087 72.3049C30.8702 69.7631 29.1018 67.5124 26.9055 65.7099ZM41.8576 82.2581L36.0658 49.2019L38.5715 50.8728C38.8062 51.0243 39.0811 51.1051 39.3621 51.1051C39.6432 51.1051 39.9182 51.0243 40.1529 50.8728L45 47.853L49.8471 50.8728C50.0777 51.0251 50.3495 51.1065 50.6276 51.1065C50.9057 51.1065 51.1774 51.0251 51.4081 50.8728L53.9343 49.2019L48.1219 82.2581H41.8576ZM28.6102 87.3112C28.6102 86.7132 28.8526 86.1397 29.284 85.7168C29.7154 85.294 30.3005 85.0564 30.9105 85.0564H59.1511C59.7612 85.0564 60.3463 85.294 60.7777 85.7168C61.209 86.1397 61.4514 86.7132 61.4514 87.3112C61.4514 87.9092 61.209 88.4827 60.7777 88.9055C60.3463 89.3284 59.7612 89.5659 59.1511 89.5659H30.9105C30.3005 89.5659 29.7154 89.3284 29.284 88.9055C28.8526 88.4827 28.6102 87.9092 28.6102 87.3112ZM34.1556 92.3643H55.8238V96.8737H34.1556V92.3643ZM30.9105 104.182C30.3353 104.128 29.801 103.867 29.4122 103.448C29.0233 103.029 28.8078 102.483 28.8078 101.917C28.8078 101.35 29.0233 100.804 29.4122 100.386C29.801 99.9667 30.3353 99.7051 30.9105 99.6519H59.1511C59.7263 99.7051 60.2606 99.9667 60.6495 100.386C61.0384 100.804 61.2538 101.35 61.2538 101.917C61.2538 102.483 61.0384 103.029 60.6495 103.448C60.2606 103.867 59.7263 104.128 59.1511 104.182H30.9105Z" fill="white"/>
<path d="M45.0002 9.34115C45.376 9.34115 45.7365 9.19475 46.0023 8.93425C46.268 8.67374 46.4173 8.32046 46.4173 7.95205V1.3891C46.3754 1.04693 46.207 0.731686 45.944 0.502994C45.6809 0.274301 45.3415 0.14801 44.9899 0.14801C44.6383 0.14801 44.2989 0.274301 44.0359 0.502994C43.7729 0.731686 43.6044 1.04693 43.5625 1.3891V7.95205C43.5625 8.13618 43.5998 8.31842 43.6723 8.48828C43.7448 8.65813 43.8511 8.81218 43.9848 8.94144C44.1186 9.07069 44.2772 9.17258 44.4515 9.24119C44.6259 9.3098 44.8123 9.34381 45.0002 9.34115Z" fill="white"/>
<path d="M60.2604 12.6629C60.4451 12.7545 60.649 12.8027 60.856 12.8037C61.1283 12.8078 61.3959 12.7337 61.6257 12.5907C61.8556 12.4476 62.0378 12.2417 62.1499 11.9985L64.9843 5.95897C65.0625 5.79241 65.1065 5.61241 65.1137 5.4292C65.1209 5.24598 65.0913 5.06318 65.0265 4.89119C64.9616 4.71921 64.8629 4.56142 64.7358 4.42685C64.6088 4.29228 64.4559 4.18355 64.286 4.10689C64.116 4.03022 63.9324 3.98711 63.7455 3.98002C63.5586 3.97292 63.372 4.00198 63.1965 4.06554C63.0211 4.1291 62.8601 4.22589 62.7228 4.35042C62.5855 4.47496 62.4746 4.6248 62.3964 4.79136L59.5621 10.7302C59.4696 10.9004 59.4141 11.0876 59.3995 11.28C59.3848 11.4723 59.4111 11.6655 59.4768 11.8473C59.5425 12.0292 59.6461 12.1955 59.781 12.336C59.916 12.4764 60.0792 12.5877 60.2604 12.6629Z" fill="white"/>
<path d="M73.7533 22.5072C74.093 22.5037 74.4204 22.3825 74.6776 22.165L79.8122 17.9575C79.9601 17.8374 80.0819 17.6894 80.1705 17.5223C80.2591 17.3553 80.3126 17.1725 80.3279 16.9849C80.3432 16.7972 80.32 16.6085 80.2596 16.4297C80.1993 16.251 80.1031 16.086 79.9766 15.9443C79.7287 15.6533 79.3731 15.4708 78.9879 15.4368C78.6027 15.4028 78.2196 15.5202 77.9227 15.7631L72.8086 19.9908C72.6592 20.1094 72.5357 20.2563 72.4453 20.4227C72.3549 20.589 72.2994 20.7714 72.2822 20.9591C72.2649 21.1468 72.2863 21.336 72.345 21.5154C72.4036 21.6949 72.4984 21.861 72.6238 22.0039C72.7636 22.163 72.937 22.2904 73.1321 22.3773C73.3271 22.4642 73.5391 22.5085 73.7533 22.5072Z" fill="white"/>
<path d="M79.8954 35.5928C79.9731 35.8926 80.1507 36.1583 80.4 36.3479C80.6492 36.5376 80.9559 36.6403 81.2714 36.6397H81.6412L88.1108 34.9486C88.2915 34.901 88.4609 34.819 88.6092 34.7073C88.7576 34.5955 88.8821 34.4562 88.9755 34.2973C89.069 34.1384 89.1296 33.963 89.1539 33.7812C89.1782 33.5993 89.1657 33.4146 89.1172 33.2374C89.0686 33.0603 88.985 32.8943 88.871 32.7488C88.757 32.6034 88.6149 32.4814 88.4527 32.3898C88.2906 32.2982 88.1117 32.2388 87.9262 32.215C87.7406 32.1911 87.5521 32.2034 87.3714 32.251L80.9018 33.942C80.5492 34.0368 80.2475 34.2615 80.06 34.5692C79.8724 34.8768 79.8135 35.2435 79.8954 35.5928Z" fill="white"/>
<path d="M88.8095 50.9131L82.2371 49.7656C82.051 49.7338 81.8603 49.7382 81.6759 49.7787C81.4916 49.8191 81.3172 49.8948 81.1627 50.0014C81.0082 50.108 80.8766 50.2433 80.7755 50.3997C80.6744 50.5562 80.6058 50.7307 80.5735 50.9131C80.541 51.0929 80.545 51.2772 80.5852 51.4555C80.6254 51.6338 80.7011 51.8025 80.8079 51.9521C80.9147 52.1017 81.0506 52.2291 81.2077 52.3272C81.3649 52.4253 81.5402 52.492 81.7236 52.5236C81.7236 52.5236 88.3166 53.6712 88.563 53.6913C88.9389 53.7233 89.3123 53.6076 89.6012 53.3698C89.8901 53.1319 90.0707 52.7914 90.1034 52.423C90.1361 52.0546 90.0181 51.6885 89.7755 51.4053C89.5328 51.1222 89.1853 50.9451 88.8095 50.9131Z" fill="white"/>
<path d="M76.5676 64.7234C76.2572 64.5125 75.8739 64.4311 75.5022 64.4972C75.1305 64.5633 74.8008 64.7714 74.5857 65.0758C74.3705 65.3801 74.2875 65.7557 74.3549 66.1201C74.4223 66.4844 74.6346 66.8075 74.9451 67.0184L80.4083 70.7831C80.6516 70.9443 80.9364 71.035 81.2299 71.0448C81.5335 71.0421 81.8284 70.9453 82.0725 70.7682C82.3165 70.5911 82.497 70.3428 82.5882 70.059C82.6795 69.7751 82.6767 69.4702 82.5802 69.188C82.4838 68.9058 82.2987 68.6608 82.0514 68.488L76.5676 64.7234Z" fill="white"/>
<path d="M27.8301 11.9985C27.9463 12.2387 28.1295 12.4417 28.3584 12.5842C28.5874 12.7267 28.8528 12.8028 29.124 12.8037C29.3316 12.8075 29.5367 12.7591 29.7196 12.6629C29.8902 12.5869 30.0437 12.4786 30.1713 12.3442C30.2989 12.2097 30.398 12.0518 30.4629 11.8796C30.5279 11.7074 30.5574 11.5242 30.5496 11.3407C30.5419 11.1573 30.4972 10.9771 30.4179 10.8107L27.5836 4.87189C27.5054 4.70534 27.3945 4.5555 27.2572 4.43096C27.1199 4.30642 26.9589 4.20957 26.7835 4.14601C26.608 4.08245 26.4215 4.0534 26.2346 4.06049C26.0477 4.06759 25.864 4.11069 25.694 4.18736C25.5241 4.26403 25.3713 4.37276 25.2443 4.50733C25.1172 4.6419 25.0184 4.79968 24.9536 4.97167C24.8887 5.14365 24.8591 5.32652 24.8663 5.50973C24.8735 5.69295 24.9175 5.87295 24.9957 6.0395L27.8301 11.9985Z" fill="white"/>
<path d="M15.3007 22.165C15.5579 22.3825 15.8853 22.5037 16.225 22.5072C16.5171 22.5043 16.8013 22.4142 17.0399 22.2489C17.2784 22.0837 17.4599 21.8512 17.5603 21.5823C17.6606 21.3134 17.6751 21.0209 17.6016 20.7438C17.5282 20.4667 17.3703 20.2181 17.1492 20.0311L12.0145 15.8034C11.7176 15.5605 11.3345 15.4431 10.9494 15.477C10.5642 15.511 10.2085 15.6936 9.96067 15.9846C9.83534 16.1275 9.74055 16.2936 9.68187 16.4731C9.6232 16.6525 9.60183 16.8417 9.61907 17.0294C9.6363 17.2171 9.6918 17.3996 9.78222 17.5659C9.87264 17.7322 9.99622 17.879 10.1456 17.9977L15.3007 22.165Z" fill="white"/>
<path d="M1.88915 34.8882L8.33829 36.5793H8.72853C9.04228 36.5732 9.34565 36.468 9.59356 36.2794C9.84147 36.0908 10.0207 35.8288 10.1046 35.5324C10.1539 35.3539 10.1663 35.1676 10.1412 34.9844C10.116 34.8011 10.0538 34.6246 9.95816 34.4652C9.86251 34.3058 9.73535 34.1668 9.58416 34.0562C9.43296 33.9456 9.26075 33.8657 9.07765 33.8212L2.62857 32.1302C2.44786 32.0826 2.25934 32.0703 2.0738 32.0942C1.88827 32.118 1.70935 32.1774 1.54724 32.269C1.38513 32.3606 1.24299 32.4826 1.12898 32.6281C1.01498 32.7735 0.93133 32.9395 0.882781 33.1167C0.834232 33.2938 0.82175 33.4785 0.846052 33.6604C0.870353 33.8422 0.930921 34.0176 1.02437 34.1765C1.11782 34.3354 1.24229 34.4747 1.39067 34.5865C1.53904 34.6982 1.70844 34.7802 1.88915 34.8278V34.8882Z" fill="white"/>
<path d="M9.40724 50.9131C9.3774 50.7314 9.31107 50.5574 9.21206 50.4011C9.11304 50.2448 8.98333 50.1093 8.83047 50.0026C8.6776 49.8958 8.50462 49.8199 8.32158 49.7792C8.13853 49.7385 7.94907 49.7339 7.76418 49.7656L1.17125 50.9131C0.835333 50.991 0.539219 51.1847 0.336997 51.4589C0.134775 51.7331 0.0399573 52.0695 0.0698606 52.4066C0.0997639 52.7436 0.252426 53.0589 0.499899 53.2948C0.747373 53.5306 1.07318 53.6714 1.41777 53.6913H1.64366L8.23652 52.5437C8.42517 52.5174 8.60631 52.4534 8.76879 52.3558C8.93128 52.2582 9.07168 52.1291 9.18134 51.9763C9.29101 51.8236 9.36764 51.6505 9.40648 51.4676C9.44533 51.2848 9.44558 51.096 9.40724 50.9131Z" fill="white"/>
<path d="M15.4035 65.0657C15.2948 64.9072 15.1543 64.772 14.9907 64.6684C14.827 64.5648 14.6435 64.4948 14.4515 64.4628C14.2594 64.4308 14.0626 64.4374 13.8732 64.4822C13.6838 64.527 13.5057 64.6091 13.3497 64.7234L7.86586 68.4881C7.70418 68.5946 7.56631 68.7323 7.46058 68.8927C7.35485 69.0532 7.28345 69.233 7.25079 69.4213C7.21814 69.6096 7.22489 69.8024 7.2706 69.988C7.31631 70.1737 7.40001 70.3483 7.51668 70.5012C7.64942 70.6852 7.82468 70.8359 8.02814 70.9409C8.23159 71.0458 8.4575 71.1021 8.68739 71.1052C8.9815 71.0989 9.2672 71.0078 9.50892 70.8435L14.9927 67.0789C15.1593 66.9771 15.3028 66.8431 15.4144 66.6849C15.5261 66.5268 15.6036 66.3479 15.642 66.1593C15.6805 65.9707 15.6792 65.7764 15.6382 65.5883C15.5972 65.4002 15.5173 65.2224 15.4035 65.0657Z" fill="white"/>
</g>
<defs>
<clipPath id="clip0">
<rect width="90" height="107" fill="white"/>
</clipPath>
</defs>
</svg>
