<svg width="71" height="55" viewBox="0 0 71 55" fill="none" xmlns="http://www.w3.org/2000/svg">
<path d="M67.9132 26.9833C67.7392 26.715 67.4391 26.5528 67.119 26.5528H62.8742C67.141 24.0955 70.0256 19.4955 70.0256 14.2246C70.0256 6.38235 63.6524 0 55.8168 0H2.90656C2.5865 0 2.28844 0.162214 2.11241 0.430565C1.93838 0.698917 1.91037 1.03936 2.04039 1.33175C5.6711 9.52447 5.6711 18.9228 2.04039 27.1155C1.91037 27.4079 1.93638 27.7463 2.11241 28.0167C2.28644 28.287 2.5865 28.4472 2.90656 28.4472H7.15139C2.88456 30.9045 0 35.5045 0 40.7754C0 48.6176 6.37324 55 14.2088 55H67.119C67.4391 55 67.7372 54.8378 67.9132 54.5694C68.0872 54.2991 68.1152 53.9606 67.9852 53.6683C64.3545 45.4755 64.3545 36.0772 67.9852 27.8825C68.1152 27.5921 68.0892 27.2537 67.9132 26.9833ZM5.53507 5.68745H55.8189C60.5218 5.68745 64.3465 9.51646 64.3465 14.2246C64.3465 18.9328 60.5218 22.7618 55.8189 22.7618H5.53507C6.99536 17.1665 6.99536 11.2828 5.53507 5.68745ZM4.32884 26.5528C4.57289 25.9299 4.76493 25.2911 4.97097 24.6583H55.8168C61.564 24.6583 66.2389 19.9782 66.2389 14.2246C66.2389 8.47309 61.564 3.79297 55.8168 3.79297H4.97097C4.76493 3.15813 4.57289 2.5213 4.32884 1.89848H55.8189C62.6102 1.89848 68.1352 7.42772 68.1352 14.2266C68.1352 21.0255 62.6102 26.5548 55.8189 26.5548H14.2088H4.32884V26.5528ZM64.4925 49.3146H14.2088C9.50585 49.3146 5.6811 45.4855 5.6811 40.7774C5.6811 36.0692 9.50585 32.2402 14.2088 32.2402H64.4925C63.0322 37.8355 63.0322 43.7192 64.4925 49.3146ZM65.0566 30.3457H14.2088C8.46164 30.3457 3.78673 35.0258 3.78673 40.7794C3.78673 46.5309 8.46164 51.213 14.2088 51.213H65.0566C65.2627 51.8459 65.4547 52.4847 65.6988 53.1075H14.2088C7.41744 53.1075 1.89437 47.5763 1.89437 40.7794C1.89437 33.9805 7.41944 28.4512 14.2088 28.4512H55.8189H65.6988C65.4527 29.0721 65.2627 29.7109 65.0566 30.3457Z" fill="white"/>
<path d="M54.6544 35.3182H34.4345C33.9124 35.3182 33.4883 35.7428 33.4883 36.2655C33.4883 36.7882 33.9124 37.2127 34.4345 37.2127H54.6544C55.1765 37.2127 55.6006 36.7882 55.6006 36.2655C55.6006 35.7428 55.1765 35.3182 54.6544 35.3182Z" fill="white"/>
<path d="M51.1301 41.3301C51.1301 40.8074 50.706 40.3828 50.1839 40.3828H20.9042C20.3821 40.3828 19.958 40.8074 19.958 41.3301C19.958 41.8548 20.3821 42.2773 20.9042 42.2773H50.1839C50.706 42.2773 51.1301 41.8548 51.1301 41.3301Z" fill="white"/>
<path d="M54.5764 45.4475H34.5145C33.9924 45.4475 33.5684 45.8721 33.5684 46.3948C33.5684 46.9174 33.9924 47.342 34.5145 47.342H54.5764C55.0985 47.342 55.5226 46.9174 55.5226 46.3948C55.5226 45.8721 55.0985 45.4475 54.5764 45.4475Z" fill="white"/>
<path d="M15.373 19.6858H35.5929C36.115 19.6858 36.539 19.2612 36.539 18.7385C36.539 18.2158 36.115 17.7913 35.5929 17.7913H15.373C14.8508 17.7913 14.4268 18.2158 14.4268 18.7385C14.4248 19.2612 14.8488 19.6858 15.373 19.6858Z" fill="white"/>
<path d="M18.8984 13.6719C18.8984 14.1966 19.3225 14.6191 19.8446 14.6191H49.1243C49.6464 14.6191 50.0705 14.1946 50.0705 13.6719C50.0705 13.1492 49.6464 12.7246 49.1243 12.7246H19.8446C19.3225 12.7226 18.8984 13.1492 18.8984 13.6719Z" fill="white"/>
<path d="M15.4511 9.55448H35.513C36.0351 9.55448 36.4592 9.12993 36.4592 8.60724C36.4592 8.08456 36.0351 7.66 35.513 7.66H15.4511C14.929 7.66 14.5049 8.08456 14.5049 8.60724C14.5049 9.12993 14.929 9.55448 15.4511 9.55448Z" fill="white"/>
</svg>
