<svg width="38" height="38" viewBox="0 0 38 38" fill="none" xmlns="http://www.w3.org/2000/svg">
<path d="M19 37C28.9411 37 37 28.9411 37 19C37 9.05887 28.9411 1 19 1C9.05887 1 1 9.05887 1 19C1 28.9411 9.05887 37 19 37Z" stroke="white"/>
<path d="M26.8107 17.443H24.8873C24.7781 17.443 24.6736 17.5096 24.6 17.6263L19.4023 26.036V7.26666C19.4023 7.12 19.3168 7 19.2123 7H17.7877C17.6832 7 17.5977 7.12 17.5977 7.26666V26.036L12.4 17.6263C12.3287 17.5096 12.2243 17.443 12.1127 17.443H10.1893C10.0279 17.443 9.94002 17.7129 10.0469 17.8829L17.9278 30.6325C17.999 30.7478 18.0871 30.8404 18.186 30.9038C18.2849 30.9672 18.3924 31 18.5012 31C18.6099 31 18.7174 30.9672 18.8164 30.9038C18.9153 30.8404 19.0034 30.7478 19.0746 30.6325L26.9531 17.8829C27.06 17.7096 26.9721 17.443 26.8107 17.443Z" fill="white"/>
</svg>
