<svg width="36" height="41" viewBox="0 0 36 41" fill="none" xmlns="http://www.w3.org/2000/svg">
<g clip-path="url(#clip0)">
<path d="M18.5086 39.9867V35.9006C19.1654 35.9643 19.8241 35.9961 20.4848 35.9961C23.1763 36.0012 25.8423 35.4746 28.3296 34.4465C30.817 33.4184 33.0766 31.909 34.9788 30.005L35.3766 29.6073L31.8453 26.0751C31.8685 26.0506 31.8902 26.0245 31.9133 25.9985C31.9972 25.9088 32.0768 25.8177 32.1564 25.7251C32.2359 25.6325 32.3285 25.5313 32.411 25.4358C32.4934 25.3404 32.5556 25.2492 32.6381 25.1552C32.7206 25.0612 32.7987 24.9527 32.8768 24.85C32.9549 24.7473 33.0215 24.6577 33.0895 24.5607C33.1575 24.4638 33.2341 24.351 33.3122 24.244C33.3904 24.1369 33.4453 24.0473 33.509 23.9547C33.5726 23.8621 33.6537 23.7377 33.7173 23.6264C33.781 23.515 33.8388 23.4253 33.8981 23.3255C33.9575 23.2257 34.0283 23.0999 34.0905 22.9871C34.1527 22.8742 34.2019 22.7817 34.2569 22.6775C34.3119 22.5734 34.3755 22.4461 34.432 22.3289C34.4884 22.2118 34.5332 22.1207 34.5766 22.0165C34.62 21.9124 34.6851 21.7764 34.7372 21.6564C34.7893 21.5363 34.8269 21.4452 34.8703 21.3396C34.9137 21.234 34.9672 21.0923 35.015 20.9679C35.0627 20.8435 35.0945 20.7567 35.1321 20.6496C35.1698 20.5426 35.2175 20.3965 35.258 20.2678C35.2927 20.1622 35.3274 20.0552 35.3593 19.9467C35.3911 19.8382 35.433 19.6863 35.4678 19.5547C35.4967 19.4477 35.5256 19.3406 35.5517 19.2322C35.5849 19.0991 35.6139 18.9631 35.6428 18.8286C35.666 18.7216 35.6905 18.616 35.7108 18.5075C35.7383 18.3629 35.7614 18.2284 35.7846 18.0881C35.8019 17.9825 35.8207 17.8798 35.8367 17.7742C35.8569 17.6295 35.8743 17.4762 35.8916 17.3272C35.9018 17.2289 35.9162 17.1305 35.9263 17.038C35.9423 16.8716 35.9524 16.7024 35.9625 16.5346C35.9625 16.4522 35.9755 16.3712 35.9799 16.2873C35.9915 16.0356 35.9987 15.7839 35.9987 15.5308C35.9984 12.7085 35.2281 9.93971 33.7706 7.5227C32.3131 5.10569 30.2237 3.13202 27.7275 1.81426C25.2313 0.496502 22.4229 -0.115408 19.6046 0.0444344C16.7863 0.204277 14.0651 1.12982 11.734 2.72137L11.65 2.78067C11.4793 2.90072 11.3086 3.02222 11.1423 3.14806C11.0815 3.19289 11.0222 3.24207 10.9629 3.2927C10.8283 3.39684 10.6938 3.50387 10.5622 3.6138C10.4797 3.68178 10.4001 3.75844 10.3206 3.82208C10.2106 3.91755 10.1007 4.01301 9.99362 4.11137L9.9184 4.1779L6.39145 0.65155L5.99362 1.04931C-1.99625 9.03785 -1.99625 22.0368 5.99362 30.0267C9.10309 33.1416 13.1372 35.1666 17.4931 35.7994V40.0084H0.00158258V41.0209H36.0001V40.0084L18.5086 39.9867ZM30.6605 5.34227C33.2917 7.97121 34.8017 11.5173 34.8732 15.2358C34.9446 18.9543 33.5721 22.5559 31.0439 25.284L28.3054 22.5358C29.2598 21.4779 29.9891 20.2371 30.449 18.8887C30.9089 17.5403 31.0899 16.1125 30.9808 14.692C30.8718 13.2716 30.475 11.8881 29.8146 10.6257C29.1542 9.36326 28.2441 8.24826 27.1394 7.34844C27.0945 7.31228 27.0453 7.28191 26.9947 7.24574C26.7618 7.0606 26.5245 6.88269 26.2714 6.71925L26.2323 6.69611C24.5219 5.57304 22.5194 4.97658 20.4732 4.98066C18.4303 4.98056 16.4321 5.57895 14.7256 6.70189C14.7141 6.71057 14.701 6.71636 14.688 6.72504C14.4392 6.88993 14.199 7.07073 13.9647 7.25731C13.9213 7.29058 13.8764 7.31951 13.8345 7.35423C13.7043 7.45981 13.5842 7.57986 13.4584 7.69124L10.7198 4.95318C13.452 2.4338 17.0524 1.06763 20.7684 1.14013C24.4845 1.21264 28.0287 2.71823 30.6605 5.34227ZM27.1321 22.1611C26.905 22.3882 26.6678 22.5951 26.4247 22.8019C26.39 22.8294 26.3509 22.854 26.3162 22.8815C26.1021 23.0507 25.8822 23.2141 25.6594 23.3631L25.632 23.3805C24.1024 24.3773 22.3164 24.9089 20.4906 24.9107C18.6648 24.9125 16.8777 24.3844 15.3462 23.3906L15.3043 23.366C15.0858 23.2214 14.8703 23.0608 14.6663 22.8974C14.6258 22.8641 14.5824 22.8366 14.5419 22.8034C14.2952 22.6032 14.059 22.3903 13.8345 22.1655C12.1157 20.4641 11.1187 18.166 11.0506 15.7487C10.9826 13.3315 11.8487 10.9809 13.4691 9.18559C15.0894 7.39026 17.3394 6.28824 19.7514 6.10853C22.1633 5.92882 24.5518 6.68525 26.4204 8.22063C26.6663 8.42216 26.904 8.63719 27.1336 8.86572C28.8938 10.6306 29.8822 13.0213 29.8819 15.5137C29.8817 18.0061 28.8928 20.3967 27.1321 22.1611ZM9.91695 5.74871L12.6569 8.48821C10.858 10.4919 9.89478 13.1082 9.965 15.7997C10.0352 18.4913 11.1336 21.0539 13.0345 22.961C13.2877 23.2141 13.5524 23.4514 13.8258 23.6755C13.8721 23.7132 13.9227 23.745 13.9705 23.7826C14.2019 23.9648 14.4363 24.1427 14.6793 24.3033C14.6981 24.3163 14.717 24.325 14.7343 24.3366C16.4405 25.4523 18.4359 26.0446 20.4746 26.0404C22.5175 26.0444 24.5168 25.4495 26.2251 24.3293C26.2396 24.3206 26.2569 24.312 26.2714 24.3018C26.5188 24.1384 26.7575 23.959 26.9947 23.7725C27.0381 23.7377 27.0858 23.7088 27.1292 23.6726C27.2594 23.5671 27.3795 23.4485 27.5054 23.3356L30.2439 26.0737C27.5112 28.5803 23.9159 29.9349 20.2083 29.8548C16.5007 29.7748 12.9673 28.2663 10.3454 25.644C7.72345 23.0218 6.21566 19.4885 6.13665 15.7815C6.05764 12.0745 7.4135 8.48022 9.92129 5.74871H9.91695ZM6.3929 2.22524L6.79362 2.6259L9.12129 4.95318C6.34036 7.88535 4.81415 11.7871 4.86766 15.8276C4.92118 19.8682 6.55019 23.7282 9.40781 26.5857C12.2654 29.4432 16.1259 31.0725 20.167 31.1265C24.2082 31.1805 28.1109 29.6551 31.0439 26.875L33.3759 29.2066L33.7781 29.6087C26.1976 36.7641 14.2092 36.634 6.78928 29.2168C-0.630606 21.7995 -0.753572 9.80734 6.39724 2.22524H6.3929Z" fill="white"/>
</g>
<defs>
<clipPath id="clip0">
<rect width="36" height="41" fill="white"/>
</clipPath>
</defs>
</svg>
