<svg width="66" height="74" viewBox="0 0 66 74" fill="none" xmlns="http://www.w3.org/2000/svg">
<path d="M33.6206 72.1426V64.7665C34.813 64.8828 36.007 64.941 37.2027 64.941C42.0869 64.9507 46.9249 64.0003 51.4388 62.1443C55.9526 60.2883 60.0532 57.5634 63.5052 54.126L64.2266 53.4084L57.8188 47.034C57.8589 46.9892 57.899 46.9393 57.9441 46.8945L58.385 46.3961C58.5403 46.2217 58.6906 46.0472 58.8409 45.8678C58.9912 45.6884 59.1214 45.5289 59.2567 45.3694L59.6876 44.8162C59.8228 44.6468 59.9481 44.4723 60.0733 44.3178C60.1986 44.1633 60.3489 43.9391 60.4792 43.7497C60.6094 43.5603 60.7196 43.3958 60.8349 43.2164L61.2156 42.6233C61.3258 42.4439 61.4361 42.2595 61.5413 42.0751C61.6465 41.8907 61.7767 41.6714 61.892 41.4671L62.1926 40.9089C62.3028 40.6996 62.408 40.4903 62.5082 40.2809C62.6034 40.0915 62.6936 39.9022 62.7837 39.7128C62.8739 39.5234 62.9791 39.2842 63.0693 39.0649C63.1595 38.8456 63.2346 38.6861 63.3148 38.4967C63.395 38.3073 63.4902 38.0482 63.5703 37.8239C63.6505 37.5996 63.7156 37.4402 63.7857 37.2508C63.8559 37.0614 63.941 36.7923 64.0112 36.563C64.0813 36.3337 64.1364 36.1743 64.1966 35.9799C64.2567 35.7855 64.3318 35.5114 64.392 35.2722C64.4521 35.033 64.4972 34.8884 64.5473 34.6891C64.5974 34.4897 64.6575 34.1907 64.7126 33.9614C64.7677 33.7322 64.7978 33.5777 64.8378 33.3833C64.8779 33.1889 64.928 32.8849 64.9681 32.6258C65.0082 32.3666 65.0332 32.247 65.0633 32.0576C65.1034 31.7885 65.1284 31.5194 65.1635 31.2502C65.1635 31.0758 65.2086 30.8964 65.2236 30.717C65.2537 30.4179 65.2737 30.1139 65.2938 29.8099C65.2938 29.6604 65.2938 29.5159 65.3238 29.3663C65.3238 28.9128 65.3589 28.4543 65.3589 28.0008C65.3601 22.9061 63.9636 17.9077 61.3201 13.5442C58.6765 9.18071 54.8861 5.61759 50.3572 3.23883C45.8283 0.860064 40.7327 -0.244147 35.6196 0.0451891C30.5064 0.334525 25.5696 2.00644 21.3411 4.88075L21.1858 4.9854C20.8752 5.19971 20.5696 5.42398 20.264 5.64826L19.9433 5.90244C19.6978 6.09182 19.4423 6.2812 19.2119 6.48056L18.776 6.85933C18.5756 7.02878 18.3752 7.20322 18.1798 7.38264L18.0445 7.49726L11.6468 1.1329L10.9003 1.82067C6.02476 6.66408 2.59918 12.7608 1.00636 19.4295C-0.586454 26.0981 -0.28375 33.076 1.88065 39.5834C4.04505 46.0908 7.98586 51.8713 13.2627 56.2789C18.5396 60.6864 24.9445 63.5475 31.7619 64.5423V72.1426H0.0436494V73.9766H65.3489V72.1426H33.6206ZM55.6646 9.61041C60.4337 14.3556 63.1702 20.7537 63.3 27.4625C63.4299 34.1713 60.9429 40.6694 56.3609 45.5937L51.391 40.6497C54.6546 37.0353 56.403 32.315 56.2773 27.4582C56.1515 22.6014 54.161 17.9769 50.7147 14.5344C50.2538 14.0759 49.7728 13.6473 49.2768 13.2436C49.1967 13.1788 49.1065 13.124 49.0213 13.0542C48.6005 12.7253 48.1696 12.4014 47.7237 12.1073L47.6536 12.0674C44.5522 10.0383 40.9198 8.96034 37.2077 8.96749C33.4944 8.962 29.8609 10.0398 26.7569 12.0674L26.6918 12.1073C26.2409 12.4063 25.805 12.7303 25.3742 13.0692C25.299 13.129 25.2138 13.1788 25.1387 13.2436C24.9032 13.433 24.6878 13.6473 24.4573 13.8517L19.4924 8.91267C24.4503 4.36712 30.9825 1.90378 37.7235 2.03752C44.4646 2.17127 50.8928 4.89176 55.6646 9.63034V9.61041ZM49.2618 39.967C48.8551 40.3746 48.4269 40.7605 47.9792 41.1232L47.7838 41.2677C47.3931 41.5718 47.0023 41.8708 46.5915 42.1349L46.5414 42.1698C43.7656 43.9673 40.5248 44.9242 37.2128 44.9242C33.9007 44.9242 30.6599 43.9673 27.8842 42.1698C27.8574 42.1578 27.8322 42.1428 27.809 42.125C27.4082 41.8658 27.0275 41.5767 26.6517 41.2827L26.4212 41.1132C25.9804 40.7544 25.5495 40.3706 25.1387 39.962C22.0815 36.8773 20.3255 32.7466 20.2302 28.4159C20.135 24.0851 21.7076 19.882 24.6262 16.6672C27.5448 13.4524 31.5884 11.4691 35.929 11.1236C40.2697 10.7781 44.5789 12.0964 47.9742 14.8085C48.4269 15.1728 48.86 15.5604 49.2718 15.9698C52.4641 19.1561 54.2559 23.4718 54.254 27.9704C54.2521 32.469 52.4568 36.7833 49.2618 39.967ZM18.0445 10.348L23.0094 15.287C19.7465 18.9043 17.9995 23.627 18.1272 28.4855C18.2548 33.3439 20.2474 37.9694 23.6958 41.4123C24.1567 41.8658 24.6377 42.2994 25.1337 42.7031C25.2188 42.7679 25.309 42.8277 25.3942 42.8974C25.815 43.2264 26.2409 43.5454 26.6818 43.8344L26.782 43.8942C29.8758 45.9088 33.495 46.9779 37.1927 46.9692C40.898 46.9767 44.5242 45.9042 47.6235 43.8843C47.6502 43.8649 47.6787 43.8482 47.7087 43.8344C48.1546 43.5354 48.5905 43.2114 49.0113 42.8775C49.0914 42.8127 49.1816 42.7629 49.2568 42.6981C49.4922 42.5037 49.7127 42.2894 49.9381 42.0851L54.908 47.0291C49.9588 51.5949 43.4234 54.0751 36.6747 53.9486C29.926 53.8221 23.4891 51.0989 18.7162 46.3509C13.9433 41.6029 11.2058 35.1997 11.0787 28.4862C10.9516 21.7727 13.4447 15.2714 18.0345 10.348H18.0445ZM11.6468 3.98366L12.3782 4.7113L16.5967 8.91267C11.6502 14.2225 8.96432 21.2324 9.10291 28.4703C9.2415 35.7083 12.1938 42.6113 17.3399 47.7299C22.4861 52.8485 29.4257 55.7845 36.7016 55.9215C43.9776 56.0584 51.0238 53.3857 56.3609 48.4644L60.5894 52.6707L61.3158 53.3984C54.6616 59.6179 45.8352 63.0167 36.7057 62.875C27.5763 62.7334 18.8607 59.0624 12.4047 52.6395C5.94876 46.2166 2.25939 37.5461 2.11791 28.4643C1.97644 19.3825 5.39398 10.6025 11.6468 3.98366Z" fill="url(#paint0_linear)"/>
<defs>
<linearGradient id="paint0_linear" x1="65.3589" y1="0" x2="-0.0453354" y2="38.1083" gradientUnits="userSpaceOnUse">
<stop offset="0.0139006" stop-color="#1192C9"/>
<stop offset="1" stop-color="#F20DB2"/>
</linearGradient>
</defs>
</svg>
