<?xml version="1.0" standalone="no"?>
<!DOCTYPE svg PUBLIC "-//W3C//DTD SVG 20010904//EN"
 "http://www.w3.org/TR/2001/REC-SVG-20010904/DTD/svg10.dtd">
<svg version="1.0" xmlns="http://www.w3.org/2000/svg"
 width="720.000000pt" height="720.000000pt" viewBox="0 0 720.000000 720.000000"
 preserveAspectRatio="xMidYMid meet">
<metadata>
Created by potrace 1.14, written by Peter Selinger 2001-2017
</metadata>
<g transform="translate(0.000000,720.000000) scale(0.100000,-0.100000)"
fill="#000000" stroke="none">
<path d="M3848 7195 c-2 -2 -32 -6 -68 -9 -98 -8 -145 -15 -259 -38 -57 -11
-115 -22 -128 -24 -69 -13 -334 -100 -418 -139 -130 -58 -274 -132 -344 -174
-46 -28 -88 -51 -93 -51 -4 0 -8 -4 -8 -9 0 -5 -9 -13 -20 -16 -11 -3 -26 -12
-32 -18 -7 -7 -38 -30 -68 -52 -30 -22 -57 -42 -60 -45 -3 -3 -32 -27 -65 -55
-33 -27 -69 -58 -80 -67 -11 -10 -24 -17 -30 -17 -5 0 -149 137 -318 305
l-308 305 -86 -88 c-47 -48 -113 -119 -146 -158 -34 -38 -67 -76 -75 -84 -8
-8 -40 -49 -71 -90 -31 -42 -59 -78 -62 -81 -9 -8 -109 -159 -166 -250 -46
-73 -200 -375 -246 -480 -41 -96 -132 -365 -162 -480 -11 -44 -35 -149 -39
-175 -3 -16 -8 -40 -10 -51 -2 -12 -7 -37 -10 -55 -3 -19 -8 -45 -11 -59 -3
-14 -8 -45 -10 -70 -3 -25 -7 -58 -10 -75 -19 -130 -27 -544 -12 -710 13 -150
17 -190 24 -215 3 -14 6 -28 5 -32 -1 -4 3 -31 8 -60 6 -29 13 -66 16 -83 2
-16 18 -88 35 -160 56 -236 140 -473 248 -699 33 -71 61 -133 61 -137 0 -5 5
-9 10 -9 6 0 10 -4 10 -9 0 -33 228 -387 334 -518 146 -181 326 -370 476 -499
25 -22 50 -43 56 -49 92 -80 456 -335 479 -335 3 0 24 -12 48 -27 60 -38 296
-155 402 -198 246 -101 583 -196 819 -230 22 -3 41 -7 43 -8 5 -6 6 -728 0
-733 -3 -3 -699 -6 -1546 -6 l-1541 0 0 -89 0 -89 3180 0 3180 0 0 89 0 90
-1512 0 c-832 0 -1528 0 -1545 0 l-33 1 0 355 c0 354 1 360 31 357 29 -4 270
-13 329 -13 111 -1 331 13 420 25 25 4 61 9 80 11 69 8 116 15 160 25 25 5 56
12 70 14 35 6 82 17 100 23 8 3 25 7 38 9 12 1 48 10 80 20 31 10 63 18 70 20
35 7 221 72 332 116 214 85 419 192 610 317 63 42 119 78 124 80 5 2 16 9 25
17 9 7 66 51 126 99 117 92 225 187 325 286 l60 61 -311 309 c-290 286 -311
310 -297 326 53 62 69 81 88 103 12 14 43 52 68 85 26 33 50 62 54 63 4 2 8 8
8 12 0 5 20 37 44 72 168 244 316 581 382 873 22 98 24 107 29 138 3 15 8 42
11 60 22 125 29 225 29 442 -1 196 -5 270 -19 355 -3 14 -10 59 -16 100 -25
152 -88 379 -152 540 -26 65 -127 274 -161 335 -285 495 -706 883 -1222 1125
-94 44 -280 118 -315 125 -8 2 -44 12 -80 23 -36 11 -78 24 -95 28 -16 4 -32
8 -35 9 -3 0 -21 4 -40 8 -19 4 -46 9 -60 12 -14 3 -36 7 -50 10 -14 3 -34 7
-45 9 -12 2 -48 7 -80 11 -33 4 -71 9 -85 12 -27 5 -466 13 -472 8z m472 -209
c14 -2 50 -7 80 -11 30 -3 71 -10 90 -15 19 -4 42 -8 50 -8 26 -1 241 -60 331
-91 765 -267 1347 -861 1592 -1626 49 -155 78 -288 104 -480 10 -77 9 -494 -1
-560 -10 -66 -14 -91 -21 -145 -24 -175 -131 -501 -227 -692 -57 -114 -138
-251 -150 -256 -4 -2 -8 -8 -8 -13 0 -10 -121 -176 -160 -219 -12 -14 -36 -42
-53 -62 -17 -21 -36 -38 -41 -38 -12 0 -476 461 -476 473 0 4 26 40 59 80 63
78 162 225 183 272 7 17 15 32 18 35 7 6 26 48 84 183 14 32 28 73 32 92 1 6
9 30 17 55 9 25 19 63 23 85 10 50 9 45 17 80 39 177 43 497 7 671 -5 27 -12
60 -14 74 -31 160 -138 430 -218 547 -15 23 -28 46 -28 52 0 6 -4 11 -10 11
-5 0 -10 5 -10 11 0 11 -7 21 -96 134 -65 81 -164 186 -224 235 -23 19 -47 40
-53 46 -44 40 -183 134 -273 184 -154 86 -363 164 -522 196 -251 50 -505 50
-774 -1 -15 -3 -40 -10 -55 -16 -16 -6 -30 -10 -33 -10 -34 3 -213 -64 -345
-129 -132 -65 -231 -127 -345 -219 l-75 -60 -211 210 c-116 116 -215 214 -220
218 -5 3 -18 16 -28 29 l-20 23 44 40 c87 81 380 289 408 289 5 0 15 7 22 15
7 8 16 13 20 10 5 -3 10 -1 12 3 11 27 413 194 523 216 11 3 47 12 80 21 33 9
69 18 80 20 129 23 213 36 275 41 41 4 77 8 79 10 5 5 429 -4 461 -10z m-2529
-416 l242 -241 -29 -31 c-16 -17 -36 -39 -44 -47 -141 -149 -342 -473 -454
-733 -21 -48 -87 -228 -91 -249 -2 -9 -12 -47 -23 -85 -11 -38 -23 -82 -26
-99 -6 -28 -11 -51 -20 -92 -29 -136 -50 -359 -49 -533 0 -99 11 -271 19 -315
2 -11 6 -39 9 -63 3 -24 9 -62 14 -85 5 -23 12 -58 15 -77 12 -79 86 -332 121
-415 45 -110 61 -146 85 -195 14 -30 35 -71 45 -90 11 -19 19 -37 20 -40 1
-11 109 -185 117 -188 4 -2 8 -8 8 -13 0 -15 123 -181 210 -284 35 -41 215
-221 270 -270 119 -106 316 -243 485 -338 87 -49 337 -160 385 -172 8 -2 39
-13 68 -24 28 -12 53 -20 55 -20 3 2 85 -21 117 -32 25 -8 42 -12 130 -29 82
-16 95 -19 135 -25 22 -3 54 -8 70 -10 17 -3 50 -8 75 -11 58 -8 482 -14 494
-7 4 3 31 7 60 9 57 3 138 12 176 19 14 3 41 8 60 11 19 3 53 10 75 16 22 5
47 11 55 13 8 2 35 8 60 15 25 7 54 14 65 17 24 5 35 8 55 15 260 93 262 93
425 175 94 47 300 166 315 183 3 3 28 21 55 39 28 19 52 38 55 41 3 3 14 13
26 21 18 12 95 75 128 104 58 51 29 70 294 -193 l241 -239 -37 -34 c-87 -79
-217 -183 -352 -281 -235 -170 -643 -369 -930 -453 -25 -7 -76 -23 -115 -34
-38 -12 -83 -24 -100 -27 -43 -8 -60 -12 -60 -14 0 -1 -15 -3 -34 -6 -19 -2
-51 -8 -70 -13 -31 -8 -68 -14 -221 -36 -131 -18 -480 -37 -480 -25 0 3 -51 5
-113 5 -61 0 -132 3 -157 6 -25 4 -74 10 -110 14 -36 3 -72 8 -80 10 -8 2 -33
7 -55 10 -22 3 -92 17 -155 30 -63 14 -126 27 -140 30 -53 12 -320 99 -412
136 -53 21 -150 63 -214 94 -64 30 -120 55 -125 55 -5 0 -9 4 -9 8 0 4 -12 13
-27 20 -16 6 -46 23 -68 36 -22 14 -56 34 -75 44 -94 53 -320 217 -433 314
-178 153 -386 373 -514 545 -32 43 -61 80 -65 81 -5 2 -8 9 -8 16 0 7 -9 21
-20 31 -11 10 -20 23 -20 30 0 7 -9 20 -20 30 -11 10 -20 22 -20 27 0 5 -13
28 -28 51 -16 23 -32 49 -35 57 -4 8 -21 38 -37 65 -102 171 -276 593 -305
738 -3 10 -7 27 -10 37 -11 34 -54 227 -60 270 -2 14 -4 27 -5 30 -4 9 -7 31
-26 175 -14 101 -18 195 -18 395 0 254 5 370 17 370 5 0 5 5 2 10 -5 8 6 106
20 181 2 9 6 34 9 55 4 22 8 46 11 54 2 8 7 29 10 45 3 17 8 41 11 55 21 108
111 392 159 505 7 17 21 50 31 75 109 260 342 640 504 820 19 21 60 68 90 104
30 36 56 65 57 65 1 1 111 -107 244 -239z m859 -863 c0 -5 -22 -34 -49 -65
-27 -31 -74 -95 -105 -142 -31 -47 -60 -89 -64 -95 -20 -27 -123 -249 -145
-315 -33 -96 -67 -220 -61 -220 3 0 2 -6 -3 -12 -8 -14 -9 -16 -28 -148 -13
-93 -14 -424 -1 -480 3 -13 8 -42 11 -65 9 -56 42 -188 68 -265 11 -36 22 -67
22 -70 18 -71 181 -379 206 -388 5 -2 9 -8 9 -14 0 -9 66 -99 115 -157 41 -48
192 -192 255 -242 192 -154 480 -297 691 -344 11 -2 28 -6 37 -9 9 -3 33 -8
52 -11 19 -3 42 -8 50 -10 46 -13 229 -29 320 -29 65 1 250 13 282 19 16 3 40
7 55 10 103 16 343 88 408 123 16 9 39 17 50 19 10 2 22 7 25 12 3 5 23 17 45
28 110 54 206 117 325 213 l61 48 239 -236 c150 -149 236 -240 232 -248 -6
-10 -88 -79 -212 -177 -50 -40 -233 -151 -335 -203 -104 -54 -328 -149 -375
-159 -8 -2 -46 -13 -85 -25 -60 -18 -102 -28 -230 -56 -11 -2 -42 -7 -70 -10
-27 -4 -53 -8 -56 -10 -42 -24 -568 -24 -709 1 -19 3 -47 8 -62 10 -78 13
-103 18 -168 34 -25 7 -56 14 -70 17 -52 10 -295 96 -368 130 -136 63 -146 68
-227 114 -104 58 -101 57 -186 115 -80 54 -209 155 -250 194 -15 14 -53 51
-85 82 -202 193 -370 422 -497 679 -40 80 -78 161 -85 180 -8 19 -18 44 -23
55 -22 49 -86 269 -105 360 -14 65 -34 190 -39 241 -3 32 -8 75 -11 94 -11 76
-4 402 11 500 2 14 7 45 10 70 5 36 29 158 40 205 15 66 56 207 64 220 3 6 7
17 8 25 9 59 199 460 233 490 3 3 11 16 18 30 29 56 161 232 246 327 l39 44
239 -238 c131 -131 238 -242 238 -246z m1575 409 c28 -3 66 -8 85 -12 19 -3
46 -8 60 -11 75 -13 212 -54 290 -86 14 -6 27 -11 30 -11 16 -3 186 -91 188
-98 2 -4 8 -8 14 -8 10 0 141 -87 187 -125 146 -118 326 -327 391 -452 13 -26
27 -50 30 -53 8 -6 45 -86 81 -173 29 -69 88 -270 94 -317 2 -14 7 -54 11 -90
16 -130 10 -358 -11 -490 -10 -59 -54 -222 -76 -280 -34 -90 -114 -251 -153
-309 -20 -29 -36 -55 -36 -58 0 -13 -126 -160 -204 -238 -166 -165 -404 -313
-620 -385 -53 -17 -104 -33 -114 -35 -9 -2 -17 -4 -17 -5 0 -4 -193 -39 -250
-45 -41 -4 -202 -6 -290 -4 -28 1 -202 28 -250 38 -70 16 -79 18 -160 46 -106
35 -283 120 -375 180 -41 27 -77 52 -80 55 -3 3 -34 29 -70 57 -123 96 -265
259 -361 413 -46 73 -114 213 -125 255 -1 6 -9 26 -17 45 -17 39 -62 205 -72
260 -16 93 -20 157 -20 295 0 192 11 280 55 440 6 22 12 47 14 55 6 24 36 101
62 158 13 29 24 55 24 58 0 2 8 16 17 31 10 14 18 33 19 41 2 8 6 18 11 21 4
3 17 22 27 41 49 90 142 206 263 328 73 72 137 132 144 132 6 0 19 8 28 18 9
10 34 29 56 42 22 13 42 26 45 29 6 8 33 22 133 74 161 84 413 160 565 171 35
2 65 6 67 8 6 5 248 1 310 -6z"/>
</g>
</svg>
