<svg width="38" height="38" viewBox="0 0 38 38" fill="none" xmlns="http://www.w3.org/2000/svg">
<path d="M37.0153 0H0V37.0722H37.0153V0Z" fill="black"/>
<path d="M4.39673 15.6431L2.38304 17.3871L1.25781 21.2402L4.82838 28.3041L10.9428 27.3513L19.2741 36.3922L25.6358 32.4384L23.928 29.5024L20.9358 23.0261L30.4971 21.3682L32.7224 23.1289L35.744 22.1153L35.4632 17.1604L32.9257 9.08073L28.6594 1.54248L25.1161 2.90659L16.022 10.8604L13.8407 10.0209L4.52874 13.6998L4.39673 15.6431Z" fill="white"/>
<path d="M27.3941 12.4281C27.0693 11.7775 26.8891 11.4271 26.5559 10.8017C25.9273 11.4313 25.24 12.0378 24.5506 12.6191C24.406 12.2896 24.3306 12.128 24.1881 11.8216C24.8167 11.2823 25.4453 10.7366 26.0739 10.17C25.83 9.73989 25.6954 9.25629 25.6821 8.76181C25.016 9.39222 24.3014 9.96903 23.5448 10.4869C23.4442 10.277 23.4945 10.1574 23.5322 9.90347C24.3226 9.31488 25.0615 8.65984 25.7408 7.94545C25.7216 7.63865 25.7216 7.33095 25.7408 7.02415C25.8246 6.45333 25.833 6.31482 25.833 6.31482C25.4411 6.87305 22.5516 9.06612 22.5662 9.76916C21.9523 11.2676 23.6475 13.851 24.033 15.213C25.2112 14.357 26.3338 13.4268 27.3941 12.4281Z" fill="black"/>
<path d="M23.4181 18.789C23.3923 18.7113 23.3481 18.641 23.2894 18.584C23.2307 18.527 23.1591 18.485 23.0808 18.4616C22.9881 18.432 22.8926 18.4123 22.7958 18.4028C22.6926 18.3955 22.5889 18.3955 22.4857 18.4028C22.3809 18.4028 22.2761 18.4196 22.184 18.428L21.9095 18.4595L21.679 18.491C21.6077 18.491 21.5532 18.5036 21.5155 18.5036C21.5033 18.5052 21.4909 18.5044 21.479 18.5011C21.4672 18.4979 21.4561 18.4923 21.4464 18.4847C21.4409 18.4793 21.4367 18.4727 21.4342 18.4654C21.4316 18.4581 21.4308 18.4504 21.4317 18.4427C21.4357 18.4165 21.4491 18.3926 21.4694 18.3756C21.4902 18.3575 21.5135 18.3427 21.5386 18.3315C21.5675 18.3175 21.5976 18.3062 21.6287 18.2979L21.7167 18.2748C21.8544 18.2391 21.9944 18.2131 22.1358 18.1972C22.2762 18.1825 22.4396 18.1678 22.6282 18.1594C22.7157 17.9548 22.8144 17.7551 22.9236 17.5613C23.0265 17.3823 23.1413 17.2105 23.2673 17.0471C23.0464 17.0722 22.8304 17.1294 22.6261 17.2171C22.5444 17.2507 22.4606 17.2864 22.3767 17.3262C21.8257 17.5721 21.3383 17.9411 20.9519 18.4049C20.9296 18.429 20.9086 18.4542 20.889 18.4805C20.8205 18.5695 20.7622 18.666 20.7151 18.768C20.6511 18.8911 20.6133 19.0262 20.604 19.1646C20.6023 19.2062 20.6137 19.2473 20.6367 19.2819C20.6596 19.3166 20.6929 19.3431 20.7318 19.3577C20.7779 19.3732 20.8258 19.3824 20.8743 19.385C20.9385 19.3902 21.003 19.3902 21.0671 19.385L21.2934 19.3577C21.373 19.3577 21.4589 19.3367 21.547 19.3241L21.7565 19.2989C21.8262 19.2935 21.8963 19.2935 21.966 19.2989C21.9918 19.297 22.0178 19.297 22.0436 19.2989C22.0866 19.3033 22.1288 19.3131 22.1693 19.3283C22.1885 19.335 22.2047 19.3485 22.2147 19.3663C22.2247 19.3841 22.228 19.4049 22.2238 19.4249C22.2176 19.4874 22.1928 19.5466 22.1525 19.5948C22.112 19.6424 22.0638 19.6828 22.01 19.7145C21.9541 19.7472 21.8943 19.7726 21.8319 19.79C21.8034 19.8033 21.774 19.8145 21.7439 19.8236L21.658 19.8488C21.4819 19.9077 21.2999 19.9471 21.1153 19.9663C20.9764 19.9872 20.8351 19.9872 20.6962 19.9663H20.6522H20.5852C20.5516 20.0314 20.5076 20.1174 20.4615 20.2244C20.4154 20.3315 20.3693 20.4448 20.3295 20.5623C20.2908 20.678 20.2614 20.7966 20.2415 20.917C20.232 20.9704 20.2257 21.0244 20.2227 21.0786C20.2247 21.0879 20.229 21.0966 20.2352 21.1038C20.2379 21.1089 20.2418 21.1133 20.2465 21.1166C20.2513 21.1199 20.2567 21.122 20.2625 21.1227H20.2897C20.4627 21.1261 20.6355 21.1106 20.8052 21.0765C21.0471 21.0306 21.2858 20.9689 21.5197 20.8918C21.7293 20.8225 21.9618 20.7365 22.2007 20.6358C22.4379 20.5364 22.6623 20.4089 22.8692 20.2559C23.0585 20.0998 23.2146 19.9071 23.328 19.6893C23.4453 19.4862 23.4952 19.251 23.4705 19.0177C23.4618 18.9397 23.4442 18.863 23.4181 18.789Z" fill="black"/>
<path d="M27.8567 18.8309C27.0186 17.7816 26.1637 16.6127 25.7928 15.2864C25.4617 15.5424 25.2857 15.6683 24.9211 15.916C24.0494 17.1562 24.0431 18.7764 23.624 20.1867C24.2128 20.0524 24.5146 19.9768 25.0908 19.8446C25.1306 19.5928 25.1516 19.4647 25.1767 19.215C25.5769 19.1026 25.9702 18.9667 26.3543 18.8079L26.413 18.8729C26.6152 19.1124 26.8008 19.3655 26.9683 19.6305C26.9683 19.6305 28.2696 19.6095 28.4938 19.6305L27.8651 18.8372L27.8567 18.8309ZM25.116 18.2014C25.0531 17.9243 25.1642 17.5193 25.2333 17.1122C25.359 17.3934 25.4428 17.5508 25.6168 17.8845C25.4596 18.003 25.292 18.107 25.116 18.1951V18.2014Z" fill="black"/>
<path d="M29.8551 17.4584C29.8548 17.1506 29.8373 16.843 29.8027 16.5371C29.8027 16.5371 29.7901 16.5224 29.4946 16.0103C29.086 15.0009 28.4469 13.6242 28.4469 12.4427C28.5203 12.6525 29.436 15.2401 31.0264 14.2328L31.0683 14.2055C31.0683 14.2055 31.7284 13.8404 31.7158 13.257C31.7158 13.257 30.7309 10.4448 30.5256 10.1363V10.1405V10.1195C30.1107 10.5982 29.6192 11.0046 29.0714 11.322C28.8834 11.4184 28.7076 11.5367 28.5475 11.6746V11.6872C28.4409 11.7998 28.3487 11.9253 28.273 12.0607C27.9273 12.6903 28.2353 13.5759 28.2353 13.5759C28.2646 13.7396 28.3066 13.9243 28.3568 14.1405C27.9839 13.5696 27.8644 13.3871 27.7408 13.2213C27.5596 13.508 27.3564 13.7803 27.1331 14.0355C26.8712 15.238 27.2777 16.5896 27.7408 17.7732C27.8037 17.9537 28.3128 19.3912 28.7738 19.6347H29.8215C29.8215 19.6347 29.2055 18.6294 28.8157 17.897C28.452 17.0263 28.1509 16.1307 27.9147 15.2171C28.3338 15.7417 28.7529 16.2664 29.1552 16.8057C29.2642 16.9799 29.6141 17.4584 29.8551 17.4584ZM30.5989 11.1898C30.645 11.3997 30.6702 11.5088 30.7225 11.7396C30.7414 11.8215 30.7561 11.9033 30.7708 11.981L30.7938 12.1678C30.8041 12.2802 30.8041 12.3932 30.7938 12.5056C30.7872 12.5996 30.763 12.6914 30.7225 12.7764C30.6891 12.843 30.6313 12.8941 30.5612 12.9191C30.4921 12.9399 30.4178 12.9355 30.3517 12.9065C30.2676 12.8727 30.1913 12.8219 30.1275 12.7575C30.053 12.6824 29.9888 12.5977 29.9368 12.5056C29.8783 12.4039 29.8346 12.2944 29.8069 12.1804C29.7587 11.9873 29.7356 11.8949 29.6916 11.7333C30.161 11.4668 30.3915 11.3178 30.5989 11.1898Z" fill="black"/>
<path d="M19.0498 12.1868C20.3071 13.4334 20.8686 15.5782 21.03 17.2738C21.4491 17.001 21.6586 16.8541 22.0777 16.5687C22.3606 14.5037 21.3715 12.256 22.0924 10.3757C22.2306 10.0609 22.3752 9.80694 22.3752 9.80694L22.3501 9.66003L20.8435 10.8374L20.7408 11.2319C20.5166 11.9307 20.9378 12.9717 21.0467 13.5635C20.701 13.0157 20.3155 12.2728 19.7623 11.8447C19.7316 11.812 19.7122 11.7703 19.7069 11.7257C19.7016 11.6811 19.7107 11.6361 19.7329 11.5971C19.5548 11.6873 18.9199 12.0965 18.9199 12.0965C18.9616 12.123 19.0003 12.1539 19.0352 12.1889L19.0498 12.1868Z" fill="black"/>
<path d="M26.1938 6.28332C26.0325 8.48267 26.8623 10.0147 27.8701 11.9265C28.1893 11.5863 28.4821 11.2221 28.746 10.8373C28.4038 10.2161 28.0608 9.59495 27.7172 8.97375C27.8921 8.76196 28.051 8.53749 28.1928 8.30219C28.4845 8.63738 28.7959 8.95483 29.1253 9.25287L29.3788 9.49631L29.4585 9.57396L29.8021 9.89295L30.238 9.56766C30.1814 9.43964 29.8629 8.48477 29.7602 8.40712C29.2447 7.81111 28.7691 7.19412 28.2934 6.56873C28.2934 6.56873 28.2934 6.55824 28.2934 6.55404C28.9577 4.88774 27.6187 3.65164 27.208 3.8615C26.5375 4.09025 26.8727 5.12068 26.8727 5.12068L26.1582 5.94334C26.1763 6.05592 26.1882 6.16942 26.1938 6.28332ZM27.3337 5.80903C27.3861 5.72718 27.4343 5.6999 27.4867 5.72718C27.5391 5.75447 27.5831 5.83211 27.6187 5.96223C27.6573 6.10863 27.6736 6.26006 27.6669 6.41134C27.6686 6.54748 27.6377 6.68205 27.5768 6.80378C27.4511 7.01364 27.3819 7.12067 27.229 7.33892C27.1393 6.99341 27.0694 6.64307 27.0194 6.28961C27.1556 6.09024 27.2185 5.99371 27.3337 5.80903Z" fill="black"/>
<path d="M32.035 14.1279C31.5217 14.1879 31.0382 14.4015 30.6479 14.7407C30.5954 14.7916 30.5483 14.8479 30.5075 14.9086C30.3674 15.1232 30.2693 15.3625 30.2183 15.6137C30.1556 15.9287 30.1289 16.2497 30.1387 16.5707C30.1464 16.9347 30.1878 17.2972 30.2623 17.6536C30.3282 17.999 30.4336 18.3356 30.5766 18.6568C30.7006 18.94 30.8721 19.1997 31.0837 19.4248C31.2659 19.616 31.4866 19.7663 31.7312 19.8656C31.9407 20.0125 33.0031 20.7344 33.5731 20.5728C34.7276 20.705 31.9386 13.8089 32.035 14.1279ZM32.4541 18.0859C32.4354 18.194 32.3876 18.2948 32.3158 18.3776C32.2463 18.451 32.1566 18.5022 32.0581 18.5245C31.9511 18.5516 31.8385 18.545 31.7354 18.5056C31.6134 18.4609 31.5031 18.3892 31.4127 18.2958C31.3031 18.1918 31.211 18.0706 31.1403 17.9369C31.0593 17.7854 30.9987 17.6238 30.9601 17.4563C30.9178 17.2889 30.896 17.117 30.8951 16.9443C30.8934 16.7963 30.9118 16.6487 30.9496 16.5057C30.9789 16.3906 31.0301 16.2822 31.1005 16.1867C31.1529 16.1093 31.232 16.054 31.3226 16.0314C31.4115 16.0136 31.5038 16.0309 31.5803 16.0796C31.687 16.153 31.7799 16.2447 31.8548 16.3504C31.9529 16.4761 32.0418 16.6086 32.1209 16.747C32.2024 16.8968 32.2724 17.0525 32.3305 17.2129C32.3875 17.3641 32.4282 17.521 32.452 17.6809C32.4781 17.8122 32.4816 17.9471 32.4625 18.0796L32.4541 18.0859Z" fill="black"/>
<path d="M17.6455 29.7816C18.4522 29.3618 19.4412 29.2317 19.9902 28.5098C20.0917 28.364 20.1774 28.2078 20.2458 28.0439L19.3721 26.5623C19.0681 26.682 18.7452 26.7459 18.4187 26.7511C17.79 26.7071 17.174 26.5833 16.5642 26.4867C17.746 25.4374 18.4291 24.0313 18.7644 23.1856C20.0866 20.4951 20.5078 18.6148 20.5183 18.3587C20.553 18.0596 20.553 17.7575 20.5183 17.4584C20.4386 16.7929 20.2983 16.1361 20.0992 15.4962C19.9249 14.8836 19.715 14.2816 19.4706 13.6935C19.261 13.1898 19.0515 12.8709 18.8126 12.7009C18.5737 12.5309 18.2783 12.5078 17.8864 12.5645C17.3792 12.6516 16.877 12.7658 16.3819 12.9065C15.6904 13.0891 14.9885 13.2906 14.3117 13.5088C13.5894 13.7295 12.8943 14.0308 12.2393 14.407C11.6856 14.7227 11.2083 15.157 10.8417 15.6788C10.5195 16.1609 10.3508 16.7294 10.3576 17.3094C10.3659 17.9403 10.5559 18.5553 10.9045 19.0807C11.2811 19.6628 11.7987 20.1401 12.409 20.4679C13.0737 20.8116 13.7976 21.0253 14.5422 21.0975C15.332 21.1622 16.1268 21.1269 16.9079 20.9925C16.9691 21.2807 16.9595 21.5795 16.8799 21.8632C16.8003 22.1469 16.6532 22.4069 16.4511 22.621C16.0426 22.9747 15.5931 23.2778 15.1121 23.5235C14.2257 23.9075 13.5594 24.4783 12.8449 25.0429C13.2032 25.4773 13.2137 25.5759 13.683 26.109C14.077 26.0523 14.3347 25.9621 15.0849 25.3765C14.9789 25.977 14.9704 26.5907 15.0597 27.194C15.0597 27.3472 15.1205 27.8403 15.9901 27.8403C16.4741 27.8991 16.9833 27.8613 17.4569 27.9683C17.2067 28.1208 16.979 28.3072 16.78 28.5224C16.2499 28.9232 15.8371 28.7889 15.8371 28.7889C16.6564 30.6567 20.2375 33.7941 20.2375 33.7941C21.8446 33.3366 21.5953 30.1572 21.5953 30.1572C19.6759 31.1624 18.3956 30.5287 17.6455 29.7816ZM16.7109 18.6589C16.3284 18.7123 15.9398 18.7024 15.5605 18.6295C15.1947 18.5587 14.8447 18.4222 14.5275 18.2265C14.2281 18.0455 13.9737 17.7987 13.7836 17.5046C13.6054 17.2321 13.5027 16.917 13.4861 16.5917C13.4733 16.279 13.5366 15.9679 13.6705 15.6851C13.8215 15.3783 14.0299 15.1033 14.2844 14.875C14.5734 14.6153 14.898 14.3984 15.2483 14.2308C15.5847 14.0618 15.9409 13.9356 16.3086 13.8551C16.6077 13.7848 16.9164 13.7643 17.2222 13.7942C17.484 13.8204 17.735 13.9129 17.9514 14.0629C18.1803 14.2271 18.3676 14.4427 18.4983 14.6925C18.6526 14.9786 18.7608 15.2874 18.8189 15.6075C18.8851 15.939 18.9007 16.2786 18.865 16.6148C18.8275 16.943 18.7219 17.2597 18.5548 17.5445C18.3713 17.8488 18.1131 18.1009 17.8047 18.2769C17.4702 18.4785 17.0979 18.6092 16.7109 18.6609V18.6589Z" fill="black"/>
<path d="M12.6662 21.7921C12.7081 21.6452 12.7291 21.5445 12.7291 21.5445C12.0564 19.7271 9.7955 20.2433 9.7955 20.2433C9.7955 20.831 9.71379 21.5403 9.71379 21.5424C9.66596 21.8536 9.54691 22.1495 9.36595 22.407C9.17661 22.6196 8.94917 22.7947 8.69542 22.9233C6.28361 23.8614 5.70109 21.9201 5.70109 21.9201C5.47269 21.0807 5.57117 20.4784 5.83519 20.0524C5.94071 19.9131 6.05405 19.78 6.17465 19.6536C6.52851 19.3709 6.93969 19.169 7.37951 19.0618C8.70171 18.7932 10.7573 18.4049 8.95316 16.5896C8.3413 16.4826 5.16885 16.7806 3.93885 18.491C3.93885 18.491 2.14728 20.9527 3.61197 23.3976C3.61197 23.3976 4.88388 25.599 7.061 25.6368H7.10082C7.21833 25.6381 7.33584 25.6332 7.45284 25.6221C7.97669 25.5906 8.91963 25.4962 9.54825 25.2213C9.66756 25.1706 9.78073 25.1065 9.8856 25.0303C10.0892 24.9233 10.2847 24.8012 10.4702 24.6651C10.9574 24.321 11.3989 23.9162 11.784 23.4605C11.993 23.2064 12.1743 22.9306 12.3247 22.6379C12.4713 22.3807 12.584 22.1056 12.6599 21.8194L12.6662 21.7921Z" fill="black"/>
</svg>
