<svg width="125" height="35" viewBox="0 0 125 35" fill="none" xmlns="http://www.w3.org/2000/svg">
<path fill-rule="evenodd" clip-rule="evenodd" d="M59.3581 0.562103C58.7422 1.09598 58.5873 1.35372 58.7721 1.53804C58.9568 1.72236 59.2519 1.65838 59.8887 1.29557C60.7928 0.780554 60.9497 0.452992 60.4765 0.0666158C60.273 -0.0995193 59.9636 0.0376546 59.3581 0.562103ZM0 11.2554C0 18.2131 0.0580574 19.9887 0.281286 19.8515C0.436106 19.7565 4.46119 16.5389 9.22618 12.7014C13.9912 8.86392 18.0149 5.64719 18.1677 5.55335C18.3324 5.45209 23.9611 7.81458 32.007 11.362C39.4658 14.6506 45.695 17.3941 45.8496 17.4587C46.0715 17.5514 46.1309 15.9803 46.1309 10.0314V2.48635H23.0654H0V11.2554ZM50.4064 6.27895C50.4064 9.58773 50.4535 10.0895 50.7757 10.213C51.6331 10.5412 51.9816 10.1528 51.9816 8.86976V7.65001H52.893C53.9421 7.65001 55.0148 7.1653 55.3503 6.53983C55.4779 6.3023 55.5821 5.58837 55.5821 4.95346C55.5821 3.97663 55.4808 3.69779 54.9243 3.14259C54.2996 2.51936 54.1696 2.48635 52.3365 2.48635H50.4064V6.27895ZM57.9885 2.65473C57.9359 2.74746 57.3616 4.42318 56.7124 6.37886C55.4903 10.059 55.4693 10.4552 56.5049 10.3071C56.9023 10.25 57.0779 10.0275 57.2284 9.38994L57.4271 8.54804H58.8209C60.1902 8.54804 60.2183 8.56039 60.4299 9.25861C60.6965 10.1387 61.2346 10.5069 61.8323 10.2186C62.2524 10.0159 62.2207 9.854 61.0573 6.24685L59.8444 2.48635H58.9643C58.48 2.48635 58.041 2.56201 57.9885 2.65473ZM61.8829 3.15988C61.8829 3.8078 61.9211 3.8334 62.8894 3.8334H63.8958L63.9583 7.03262L64.0207 10.2318H64.5832H65.1458L65.2081 7.04519L65.2705 3.85854L66.2208 3.78984C67.07 3.72855 67.1787 3.65536 67.2422 3.10375L67.3135 2.48635H64.5981H61.8829V3.15988ZM68.4596 6.3591L68.5212 10.2318H69.0838C69.6137 10.2318 69.6504 10.1537 69.715 8.8848C69.7938 7.3384 69.9544 7.08852 70.7434 7.28609C71.1874 7.39744 71.4173 7.71984 71.8003 8.76761C72.3161 10.1786 72.7871 10.5453 73.5567 10.1344C73.9912 9.90227 73.9915 9.88992 73.5619 8.9434C73.3231 8.41715 72.9917 7.72567 72.8254 7.40643C72.5515 6.88086 72.5729 6.77803 73.0535 6.31644C73.8614 5.54077 73.8004 4.01435 72.9266 3.14259C72.3015 2.51891 72.1726 2.48635 70.3334 2.48635H68.3981L68.4596 6.3591ZM75.1596 6.27895C75.1596 9.58773 75.2066 10.0895 75.5288 10.213C75.7318 10.2907 76.0862 10.2947 76.3164 10.2217C76.7026 10.0996 76.7348 9.79608 76.7348 6.28793V2.48635H75.9472H75.1596V6.27895ZM79.1235 6.22327C77.8239 10.1048 77.8025 10.4292 78.8536 10.2893C79.1217 10.2536 79.3843 9.93437 79.5479 9.44607C79.8055 8.67646 79.8388 8.65895 81.1604 8.59451L82.5097 8.52851L82.867 9.43642C83.153 10.1627 83.3378 10.3441 83.7919 10.3441C84.1038 10.3441 84.4121 10.2588 84.4767 10.1544C84.5415 10.05 84.0635 8.30715 83.4148 6.28164L82.2352 2.59861L81.3087 2.53081L80.3823 2.46278L79.1235 6.22327ZM88.6203 6.30342L87.3498 10.1207L87.896 10.2574C88.5837 10.4296 89.0186 10.0769 89.1933 9.20562C89.3292 8.52783 89.3323 8.52649 90.7259 8.59339C92.0916 8.65872 92.1265 8.67624 92.3104 9.38702C92.4429 9.90025 92.6668 10.1562 93.0716 10.2574C94.202 10.5405 94.1871 10.118 92.9278 6.20464L91.7314 2.48635H90.8112H89.8909L88.6203 6.30342ZM95.5602 3.44051C95.4898 3.96518 95.3712 5.40494 95.2965 6.63973C95.222 7.87452 95.1111 9.14972 95.0499 9.47368C94.9284 10.1187 95.389 10.453 96.0922 10.2303C96.4246 10.125 96.5103 9.67417 96.6577 7.25039L96.8314 4.39466L97.2306 5.7417C97.4502 6.48258 97.7441 7.52384 97.8834 8.0557C98.1289 8.99302 98.162 9.02063 98.9584 8.95373L99.7802 8.8848L100.344 6.75962C100.999 4.29566 101.203 4.5022 101.24 7.66326C101.266 9.84142 101.551 10.4968 102.363 10.2399C102.843 10.0877 102.859 10.0044 102.72 8.36013C102.64 7.41383 102.507 5.73048 102.425 4.61917L102.276 2.59861L101.237 2.53148L100.198 2.46413L99.8187 3.99077C99.6103 4.8302 99.3306 5.92131 99.1976 6.41523L98.9557 7.31325L98.554 5.85396C98.3333 5.05135 98.0385 3.96518 97.8987 3.44051C97.6496 2.50319 97.628 2.48635 96.6667 2.48635H95.6883L95.5602 3.44051ZM106.209 2.52968C106.206 2.56762 105.652 4.26153 104.978 6.29377C103.714 10.1021 103.694 10.4274 104.732 10.2893C105 10.2536 105.263 9.93437 105.426 9.44607C105.684 8.67556 105.716 8.65895 107.05 8.59406C108.372 8.52985 108.414 8.54535 108.568 9.15421C108.768 9.95256 109.097 10.345 109.56 10.3407C110.505 10.3317 110.485 10.0596 109.271 6.29713L108.077 2.59861L107.146 2.52968C106.633 2.49152 106.211 2.49152 106.209 2.52968ZM111.614 6.27109V10.0556L112.908 10.1854C113.62 10.2568 114.635 10.2336 115.165 10.134C117.01 9.78709 117.549 8.79432 117.432 5.95813C117.354 4.05004 117.341 4.01278 116.512 3.25484C115.685 2.4987 115.639 2.48635 113.643 2.48635H111.614V6.27109ZM120.547 2.65473C120.174 3.31097 118.136 9.93078 118.249 10.114C118.447 10.4332 119.162 10.4022 119.445 10.0621C119.573 9.9072 119.749 9.50309 119.834 9.16409C119.982 8.57543 120.051 8.54804 121.381 8.54804C122.748 8.54804 122.776 8.56062 122.988 9.25861C123.254 10.1364 123.793 10.5078 124.382 10.2186C124.792 10.0172 124.756 9.83042 123.604 6.24685L122.394 2.48635H121.518C121.036 2.48635 120.599 2.56201 120.547 2.65473ZM53.5717 3.84125C54.2184 4.18655 54.1761 5.71027 53.5066 6.17792C53.2317 6.3701 52.776 6.52748 52.494 6.52748C52.0134 6.52748 51.9816 6.437 51.9816 5.06818C51.9816 3.65132 51.9985 3.60889 52.5591 3.60889C52.8766 3.60889 53.3322 3.71351 53.5717 3.84125ZM71.7391 3.8783C71.8877 4.02647 72.0092 4.47751 72.0092 4.88072C72.0092 5.72285 71.4466 6.14762 70.4792 6.03626C69.9153 5.97115 69.8665 5.88135 69.8034 4.78755L69.7353 3.60889H70.6023C71.0789 3.60889 71.5906 3.73013 71.7391 3.8783ZM115.337 4.16005C115.817 4.6387 115.89 4.91462 115.89 6.26256C115.89 8.32062 115.412 8.99706 113.961 8.99706H112.964V6.45272C112.964 5.05314 113.032 3.8408 113.114 3.75863C113.484 3.39044 114.805 3.62909 115.337 4.16005ZM59.6294 6.92037C59.6315 7.09683 59.3106 7.201 58.764 7.201H57.8952L58.3661 5.6052L58.8371 4.00963L59.2318 5.32457C59.449 6.04793 59.6279 6.76613 59.6294 6.92037ZM81.6769 5.71139L82.1037 7.201H81.1933C80.3564 7.201 80.2945 7.16014 80.4268 6.69586C80.5063 6.41792 80.6872 5.71117 80.8292 5.12521C80.9709 4.53925 81.1237 4.09629 81.1685 4.14097C81.2133 4.18542 81.4419 4.89217 81.6769 5.71139ZM107.539 5.7096L107.953 7.201H107.057C106.235 7.201 106.173 7.15924 106.305 6.69586C106.385 6.41792 106.565 5.71117 106.707 5.12521C106.849 4.53925 107.001 4.09539 107.045 4.13895C107.089 4.1825 107.311 4.88925 107.539 5.7096ZM122.187 6.92037C122.189 7.09683 121.869 7.201 121.322 7.201H120.453L120.924 5.6052L121.395 4.00963L121.79 5.32457C122.007 6.04793 122.186 6.76613 122.187 6.92037ZM91.5835 7.03262C91.5853 7.12534 91.187 7.201 90.6987 7.201H89.8107L90.1481 6.02234C90.6976 4.10123 90.7199 4.09023 91.1627 5.5172C91.3925 6.25807 91.5819 6.9399 91.5835 7.03262ZM97.4059 12.6725C95.0901 13.1736 93.6135 14.7584 93.6135 16.7425C93.6135 18.872 94.6259 19.8136 98.5468 21.3317C101.103 22.3215 101.838 22.8489 102.059 23.8518C102.351 25.1784 100.937 26.2841 98.9483 26.2841C97.8454 26.2841 95.9367 25.7704 94.695 25.1396L93.8653 24.7179L93.4011 25.3068C92.6382 26.2744 92.7928 26.692 94.1421 27.3085C95.7938 28.0629 97.6746 28.3763 99.7289 28.2398C102.935 28.0263 104.851 26.4325 104.86 23.9717C104.868 21.6552 103.783 20.6642 99.2903 18.885C96.8847 17.9324 96.3123 17.4818 96.3123 16.5409C96.3123 14.5637 98.9699 13.9241 102.356 15.0864C103.033 15.3187 103.604 15.4835 103.625 15.4523C103.646 15.4211 103.831 15.1456 104.038 14.8403C104.728 13.8204 104.547 13.5388 102.894 13.0606C100.866 12.474 98.9492 12.3384 97.4059 12.6725ZM51.4753 12.74L50.4064 12.8384V20.4593V28.0801H54.0784C58.3076 28.0801 59.6285 27.8038 60.8381 26.6658C61.7425 25.8146 62.2069 24.3901 61.9925 23.1242C61.8028 22.0034 60.7766 20.602 59.8718 20.2282L59.1585 19.9335L59.9269 19.3015C60.9261 18.4796 61.2904 17.5656 61.1594 16.2073C61.0253 14.8145 60.3588 13.8852 59.036 13.2463C58.156 12.8213 57.5659 12.7344 55.2684 12.6922C53.7701 12.6646 52.0633 12.6862 51.4753 12.74ZM65.2021 12.74L64.1332 12.8384V20.4593V28.0801H65.3645H66.5959L66.6584 24.9932L66.721 21.9062L68.2408 21.9242C70.2056 21.9473 70.5643 22.2775 71.8017 25.2029C72.3213 26.4314 72.8915 27.5813 73.0688 27.7582C73.4739 28.1623 75.1384 28.167 75.6684 27.7658C76.0075 27.509 76.0185 27.4275 75.7442 27.2003C75.5678 27.0544 74.9973 25.955 74.4764 24.7574C73.9552 23.5597 73.263 22.2885 72.9379 21.9327C72.4916 21.4444 72.4235 21.2585 72.66 21.1739C73.3411 20.9303 74.6987 19.4759 74.9478 18.7231C75.3254 17.5817 75.1134 15.7374 74.489 14.7292C73.6163 13.3206 72.0652 12.758 68.8775 12.694C67.4438 12.6653 65.7901 12.6859 65.2021 12.74ZM83.1305 12.7609C82.894 12.9217 77.4099 27.4055 77.4099 27.8693C77.4099 28.011 77.909 28.0761 78.6822 28.0352C79.9471 27.9683 79.9561 27.9627 80.2567 27.0699C80.423 26.5759 80.7196 25.7424 80.9158 25.2177L81.2725 24.2635H84.3743H87.4758L87.979 25.6667C88.781 27.9023 88.9466 28.0801 90.2284 28.0801C90.8371 28.0801 91.3868 27.9966 91.4501 27.8945C91.5997 27.6529 86.1851 12.9773 85.8664 12.7609C85.7328 12.6702 85.1171 12.5961 84.4983 12.5961C83.8794 12.5961 83.264 12.6702 83.1305 12.7609ZM108.164 12.7389C108.081 12.8211 108.014 16.3066 108.014 20.4844V28.0801H109.364H110.714V20.4709C110.714 12.0182 110.827 12.5892 109.158 12.5892C108.694 12.5892 108.246 12.6565 108.164 12.7389ZM114.99 19.9851C114.99 27.3734 114.99 27.3815 115.49 27.7306C115.895 28.0139 116.721 28.0801 119.853 28.0801C124.097 28.0801 124.487 27.9697 124.793 26.677L124.94 26.0596H121.315H117.69V19.7734C117.69 13.7865 117.669 13.4659 117.24 13.0382C116.94 12.7389 116.49 12.5892 115.89 12.5892H114.99V19.9851ZM56.7534 14.6187C58.2167 15.0242 58.8902 16.4446 58.2664 17.8105C57.8697 18.6791 57.1676 18.9535 55.0758 19.0572L53.1068 19.1549V16.7699V14.3852L54.5132 14.3866C55.2868 14.3872 56.2947 14.4916 56.7534 14.6187ZM71.7232 15.3445C72.2504 15.8708 72.3467 16.1541 72.3467 17.1785C72.3467 19.2256 71.1959 19.9941 68.1274 19.9965L66.6085 19.9979V17.2827V14.5677L68.8541 14.6448C70.9592 14.717 71.1388 14.7608 71.7232 15.3445ZM17.7773 15.6088C14.168 16.3811 11.7454 17.6985 9.08441 20.3364C7.2682 22.137 6.89915 22.6453 5.90093 24.7215C4.9234 26.7547 4.11285 29.1165 4.32168 29.323C4.35813 29.3589 5.29943 28.8356 6.41332 28.1598C12.8838 24.2339 21.242 20.867 28.5321 19.2498C29.8057 18.9672 30.8602 18.6412 30.8748 18.5251C30.9158 18.2023 26.8401 16.2242 25.3157 15.8268C23.4223 15.3333 19.5838 15.2224 17.7773 15.6088ZM85.638 18.898C86.2647 20.7424 86.729 22.3 86.6693 22.3595C86.5258 22.5025 82.2426 22.4993 82.0988 22.3559C81.9543 22.212 84.2368 15.3169 84.3858 15.4467C84.4476 15.5006 85.0111 17.0537 85.638 18.898ZM57.5893 21.2518C58.6618 21.6799 59.2347 22.4791 59.2638 23.5887C59.3128 25.4536 58.0072 26.2841 55.0267 26.2841H53.1068V23.59V20.8959H54.9025C56.0164 20.8959 57.0364 21.0311 57.5893 21.2518ZM32.6429 23.6091C21.1459 24.7139 9.95954 28.3547 2.25029 33.5006L0.112514 34.9276L22.8404 34.9855C35.3408 35.0172 45.695 34.9952 45.8496 34.9364C46.0645 34.8546 46.1309 33.4764 46.1309 29.0974V23.3655L40.3364 23.396C37.1495 23.4129 33.6872 23.5087 32.6429 23.6091ZM51.1839 31.5499C50.7793 31.9533 50.6315 32.3442 50.6315 33.0092C50.6315 34.2974 51.2123 34.8154 52.6567 34.8154H53.7819V33.8051C53.7819 32.8002 53.7776 32.7948 52.9943 32.7948C52.1961 32.7948 51.926 33.1504 52.5442 33.387C52.7298 33.4582 52.8817 33.6571 52.8817 33.8291C52.8817 34.2981 52.0316 34.2056 51.7645 33.7076C51.1823 32.6224 51.7771 31.5977 52.8631 31.8144C53.5706 31.9556 54.0397 31.5241 53.5294 31.2017C52.9101 30.8101 51.753 30.9819 51.1839 31.5499ZM56.7662 31.342C56.1577 31.7672 55.9192 32.9183 56.2563 33.8028C56.5702 34.6263 56.8431 34.8075 57.7761 34.812C58.7854 34.8167 59.4076 34.1448 59.4076 33.0496C59.4076 31.3746 58.0113 30.472 56.7662 31.342ZM61.4328 31.1139C61.4328 31.3575 62.3098 34.3719 62.4434 34.5877C62.5211 34.713 62.8273 34.8154 63.1244 34.8154C63.5967 34.8154 63.7214 34.6236 64.1237 33.2757C64.6921 31.3712 64.7056 30.9424 64.1942 31.0405C63.9277 31.0917 63.7214 31.4915 63.5395 32.309C63.3935 32.9654 63.2308 33.5455 63.1779 33.5981C63.1253 33.6506 62.9131 33.0873 62.7065 32.3462C62.4079 31.2744 62.2391 30.9987 61.882 30.9987C61.6349 30.9987 61.4328 31.0506 61.4328 31.1139ZM67.1058 32.8509L67.1711 34.7031L68.3525 34.7709C69.2994 34.8255 69.5339 34.7698 69.5339 34.4903C69.5339 34.2417 69.3082 34.1418 68.7463 34.1418C68.1088 34.1418 67.9587 34.0563 67.9587 33.6928C67.9587 33.3635 68.1088 33.2438 68.5212 33.2438C68.8714 33.2438 69.0838 33.1165 69.0838 32.907C69.0838 32.6976 68.8714 32.5703 68.5212 32.5703C67.6625 32.5703 67.8097 31.9396 68.6882 31.8548C69.1686 31.8085 69.4432 31.6505 69.4922 31.3916C69.5561 31.0553 69.3851 30.9987 68.3036 30.9987H67.0403L67.1058 32.8509ZM72.0092 32.907C72.0092 34.6656 72.0445 34.8154 72.4592 34.8154C72.8094 34.8154 72.9093 34.6656 72.9093 34.1418C72.9093 33.7714 73.0079 33.4683 73.1285 33.4683C73.2491 33.4683 73.5049 33.7714 73.6969 34.1418C73.9059 34.545 74.2241 34.8154 74.4903 34.8154C75.0268 34.8154 75.0322 34.757 74.5779 33.8803C74.3213 33.3857 74.2898 33.1237 74.4654 32.9486C74.8211 32.5936 74.764 31.7587 74.356 31.3514C74.1409 31.137 73.6116 30.9987 73.0058 30.9987H72.0092V32.907ZM77.4099 32.907C77.4099 34.4537 77.4738 34.8154 77.7474 34.8154C78.0021 34.8154 78.0895 34.5264 78.1036 33.6367L78.1225 32.458L78.681 33.6367C79.1298 34.583 79.3478 34.8154 79.7875 34.8154C80.3251 34.8154 80.3352 34.7801 80.3352 32.8907C80.3352 31.1788 80.2916 30.974 79.9414 31.0403C79.6485 31.0957 79.5188 31.4017 79.4351 32.2355L79.3226 33.3561L78.8287 32.1774C78.4601 31.2976 78.2177 30.9987 77.8723 30.9987C77.442 30.9987 77.4099 31.1312 77.4099 32.907ZM83.3031 31.4565C82.7055 32.0119 82.6285 33.5581 83.1609 34.3163C83.6117 34.9584 85.0392 35.0104 85.5885 34.4047C86.1347 33.8026 86.0881 32.0236 85.5109 31.4477C84.9317 30.8699 83.9301 30.8737 83.3031 31.4565ZM91.5867 32.907C91.5867 34.645 91.6256 34.8154 92.0226 34.8154C92.3497 34.8154 92.4758 34.6335 92.5289 34.0857C92.5881 33.4735 92.701 33.3444 93.2314 33.2838C94.0168 33.194 93.9135 32.709 93.0883 32.6116C92.2307 32.5101 92.327 31.9405 93.2163 31.8548C93.6968 31.8085 93.9713 31.6505 94.0204 31.3916C94.0843 31.0555 93.9137 30.9987 92.8408 30.9987H91.5867V32.907ZM96.5373 32.9187V34.8389L97.7009 34.7709C99.0948 34.6896 99.4438 34.2038 98.1827 34.1001C97.1532 34.0154 96.9716 33.3967 97.9437 33.2851C98.809 33.1857 98.7606 32.5703 97.8875 32.5703C97.4374 32.5703 97.2124 32.458 97.2124 32.2335C97.2124 31.9982 97.45 31.8968 98 31.8968C98.6375 31.8968 98.7876 31.8112 98.7876 31.4477C98.7876 31.0587 98.6375 30.9987 97.6624 30.9987H96.5373V32.9187ZM101.488 32.907V34.8154H102.578C104.008 34.8154 104.413 34.3807 104.413 32.846C104.413 31.4592 103.924 30.9987 102.45 30.9987H101.488V32.907ZM107.114 32.9187V34.8389L108.277 34.7709C109.671 34.6896 110.02 34.2038 108.759 34.1001C107.73 34.0154 107.548 33.3967 108.52 33.2851C109.385 33.1857 109.337 32.5703 108.464 32.5703C108.014 32.5703 107.789 32.458 107.789 32.2335C107.789 31.9982 108.026 31.8968 108.576 31.8968C109.214 31.8968 109.364 31.8112 109.364 31.4477C109.364 31.0587 109.214 30.9987 108.239 30.9987H107.114V32.9187ZM112.064 32.907C112.064 34.6656 112.1 34.8154 112.514 34.8154C112.864 34.8154 112.964 34.6656 112.964 34.1418C112.964 33.7714 113.071 33.4683 113.201 33.4683C113.331 33.4683 113.544 33.7714 113.673 34.1418C113.824 34.5718 114.063 34.8154 114.337 34.8154C114.826 34.8154 114.858 34.642 114.531 33.7831C114.37 33.3601 114.37 33.0985 114.531 32.9378C114.928 32.542 114.789 31.7149 114.264 31.3483C113.989 31.1561 113.382 30.9987 112.914 30.9987H112.064V32.907ZM118.065 31.1671C117.943 31.3696 117.015 34.466 117.015 34.6712C117.015 34.7505 117.217 34.8154 117.465 34.8154C117.715 34.8154 117.915 34.6656 117.915 34.4786C117.915 34.2568 118.137 34.1418 118.566 34.1418C118.937 34.1418 119.273 34.2866 119.347 34.4786C119.418 34.6638 119.693 34.8154 119.957 34.8154C120.249 34.8154 120.396 34.7049 120.332 34.5347C120.273 34.3805 119.989 33.5217 119.701 32.6264C119.256 31.2448 119.1 30.9987 118.672 30.9987C118.394 30.9987 118.121 31.0744 118.065 31.1671ZM122.687 32.8327L122.753 34.7031L123.794 34.7704C124.57 34.8205 124.868 34.7493 124.968 34.4898C125.073 34.2173 124.935 34.1418 124.331 34.1418H123.561L123.495 32.6287C123.44 31.3835 123.357 31.102 123.025 31.0389C122.66 30.9693 122.628 31.1368 122.687 32.8327ZM58.3157 32.2169C58.777 33.227 58.002 34.6254 57.3447 33.9696C57.0074 33.6331 57.0596 32.0966 57.4161 31.8712C57.8909 31.571 58.0484 31.6316 58.3157 32.2169ZM73.6969 32.2335C73.6969 32.4771 73.5196 32.7104 73.3031 32.7521C73.0081 32.8087 72.9093 32.6785 72.9093 32.2335C72.9093 31.7885 73.0081 31.6583 73.3031 31.7149C73.5196 31.7567 73.6969 31.9899 73.6969 32.2335ZM84.8228 31.9933C85.2456 32.5016 85.0332 34.0098 84.5253 34.1059C84.2926 34.1499 84.0156 34.0498 83.9098 33.8832C83.6265 33.4371 83.6697 32.2519 83.9807 31.9417C84.3313 31.5919 84.4971 31.602 84.8228 31.9933ZM103.275 31.9933C103.422 32.17 103.51 32.7003 103.472 33.172C103.414 33.8641 103.303 34.0435 102.894 34.1014C102.421 34.1683 102.388 34.0909 102.388 32.9228C102.388 31.6271 102.699 31.3011 103.275 31.9933ZM113.752 32.2335C113.752 32.4771 113.575 32.7104 113.358 32.7521C113.063 32.8087 112.964 32.6785 112.964 32.2335C112.964 31.7885 113.063 31.6583 113.358 31.7149C113.575 31.7567 113.752 31.9899 113.752 32.2335ZM118.815 32.7948C118.815 33.0417 118.714 33.2438 118.59 33.2438C118.466 33.2438 118.365 33.0417 118.365 32.7948C118.365 32.5478 118.466 32.3458 118.59 32.3458C118.714 32.3458 118.815 32.5478 118.815 32.7948Z" fill="white"/>
</svg>
