<svg width="121" height="36" viewBox="0 0 121 36" fill="none" xmlns="http://www.w3.org/2000/svg">
<path fill-rule="evenodd" clip-rule="evenodd" d="M19.6942 0.00763701C17.6899 0.123707 16.2834 0.411527 14.7088 1.02791C13.4196 1.53251 12.2407 2.19812 10.9951 3.12461C8.56135 4.93489 6.80332 7.49482 5.73148 10.7892C5.35387 11.9498 5.10554 13.1213 4.94611 14.4942L4.87298 15.1242L4.57107 15.8741C4.22229 16.7406 3.30065 18.9081 2.40887 20.9591C1.55736 22.9176 0.0886244 26.2673 0.0399703 26.3618L0 26.4394L1.29176 26.4593C2.00223 26.4701 3.02261 26.4791 3.55932 26.4791L4.53513 26.4791V31.2041V35.9291H15.1285C24.0945 35.9291 25.7194 35.9228 25.706 35.888C25.6972 35.8653 25.4701 35.0654 25.2014 34.1105C24.9326 33.1555 24.6859 32.283 24.653 32.1716L24.5933 31.9691H16.5662H8.53905L8.51896 30.1192C8.50791 29.1017 8.49887 27.0767 8.49887 25.6192V22.9691H7.19455C6.16329 22.9691 5.89339 22.9613 5.90522 22.9316C6.41445 21.6555 7.31779 19.4606 8.51348 16.5941L9.18922 14.9742L9.23933 14.4642C9.50995 11.7102 9.90842 10.502 11.1774 8.58787C11.9451 7.43005 13.0628 6.37183 14.3473 5.58685C15.7292 4.74229 17.188 4.24264 18.9226 4.01969C19.4593 3.95069 20.7628 3.94985 21.3129 4.01812C24.8589 4.45819 27.7898 6.20113 29.6721 8.98915C30.5688 10.3173 31.2 11.9923 31.4243 13.6392C31.467 13.9521 31.4794 14.2384 31.4792 14.8992C31.4789 15.7642 31.4584 16.0379 31.3401 16.7591C30.9827 18.938 29.9674 21.111 28.6903 22.4302C28.5352 22.5904 28.4083 22.7364 28.4083 22.7546C28.4083 22.7777 32.0245 35.2055 32.209 35.8166C32.2239 35.8659 32.3439 35.8691 34.1744 35.8691C35.2982 35.8691 36.124 35.8578 36.124 35.8424C36.124 35.821 32.8908 23.8826 32.8408 23.7191C32.8332 23.6944 32.9134 23.5542 33.0192 23.4076C33.8491 22.2563 34.6009 20.5639 35.0028 18.942C35.5985 16.538 35.6149 14.0739 35.0518 11.6015C34.8 10.496 34.2854 9.05548 33.7968 8.08819C33.1585 6.82471 31.8401 5.16238 30.5264 3.9647C28.9738 2.5493 27.4429 1.58981 25.8818 1.05371C24.1326 0.452987 23.0727 0.188177 21.9162 0.062837C21.5113 0.018947 20.103 -0.016033 19.6942 0.00763701ZM19.5126 5.10754C17.9579 5.2846 16.9278 5.5714 15.7607 6.15214C15.1188 6.47152 14.7233 6.72838 14.0542 7.26019C12.8544 8.21404 12.01 9.21463 11.4052 10.3992C10.8179 11.5495 10.5407 12.5474 10.3175 14.3142L10.2303 15.0042L9.78521 16.1591C8.77433 18.7821 7.65166 21.8239 7.65166 21.9398C7.65166 21.9714 7.84727 21.9791 8.65016 21.9791H9.64866V26.4491V30.9191H16.971C20.9983 30.9191 24.2933 30.9134 24.2933 30.9065C24.2933 30.8995 24.0624 30.083 23.7802 29.0919C23.498 28.1009 23.2524 27.2359 23.2344 27.1696L23.2017 27.0491H18.407H13.6124V23.045V19.0408L13.2068 19.0325L12.8011 19.0241L13.0127 18.4541C13.1291 18.1406 13.4597 17.2356 13.7475 16.443C14.215 15.155 14.2729 14.9748 14.2916 14.748C14.3269 14.3213 14.3954 13.9104 14.4892 13.5617C15.0559 11.4565 16.6972 9.8161 18.7456 9.30775C19.3857 9.1489 19.8428 9.09406 20.5111 9.09595C21.0669 9.09751 21.1723 9.10624 21.5248 9.17977C22.2909 9.33964 23.1269 9.66694 23.6644 10.0175C24.593 10.6231 25.4899 11.795 25.9412 12.9925C26.2039 13.6894 26.3192 14.3202 26.32 15.0649C26.3212 16.0419 26.1455 16.8315 25.7429 17.6591C25.2085 18.7577 24.3517 19.6481 23.1671 20.3358C22.9887 20.4394 22.8423 20.5367 22.8419 20.5521C22.8402 20.6029 23.7382 23.7685 24.8423 27.6041C25.9024 31.2869 26.5441 33.554 26.9884 35.1866L27.2068 35.9891H29.1878H31.1688L31.1554 35.9216C31.1481 35.8845 30.2464 32.8227 29.1518 29.1177L27.1616 22.3812L27.5206 22.0227C28.7986 20.7461 29.7076 19.0791 30.0714 17.3448C30.4368 15.6023 30.4165 14.316 29.9938 12.4542C29.731 11.2965 29.0597 9.9763 28.1784 8.88415C27.8352 8.45875 27.0636 7.6942 26.6383 7.35811C25.2096 6.229 23.6197 5.52538 21.7375 5.18926C21.3622 5.12224 21.2147 5.1124 20.4657 5.10448C19.9998 5.09953 19.5709 5.10091 19.5126 5.10754ZM50.2392 7.70182C47.5211 7.91089 45.3699 8.64154 43.8246 9.88048C43.2946 10.3054 42.3787 11.2639 41.8063 11.9927C40.8866 13.1636 40.1337 14.5517 39.7115 15.8552C39.197 17.4434 38.9366 19.2141 38.9367 21.1246C38.9367 22.974 39.1265 23.9139 39.7544 25.1741C40.0329 25.7332 40.3377 26.2144 40.6992 26.6658C41.6647 27.8714 43.3363 28.489 46.0485 28.6422C46.8158 28.6855 48.5389 28.6595 49.1953 28.5947C51.3096 28.3859 52.7834 27.8691 54.5055 26.7327C56.0833 25.6916 57.1071 24.497 57.7109 22.9924C57.9252 22.4584 58.0071 22.1103 57.9931 21.7922C57.9858 21.6254 57.9933 21.5261 58.0137 21.5187C58.0596 21.5021 52.2851 21.529 52.1732 21.5459C52.0838 21.5594 52.0778 21.5696 52.029 21.7921C51.9059 22.3536 51.6186 22.8416 51.1208 23.3351C50.4714 23.9786 49.6852 24.4135 48.9532 24.5338C48.5936 24.5929 47.4846 24.5837 47.1568 24.5189C46.2947 24.3485 45.8285 24.0043 45.4608 23.2667C44.9399 22.2219 44.8262 21.0445 45.0655 19.1742C45.2076 18.0642 45.3897 17.2418 45.7169 16.233C46.1354 14.9427 46.6156 13.9757 47.1966 13.2534C47.8467 12.4452 48.5995 11.8299 49.2501 11.575C49.5591 11.454 49.9987 11.3619 50.3753 11.3394C50.723 11.3185 51.5275 11.394 51.8731 11.4798C52.4191 11.6154 53.1041 12.0541 53.3572 12.4304C53.5968 12.7864 53.7006 13.2956 53.6391 13.8127C53.6208 13.9664 53.6108 14.0968 53.6169 14.1025C53.623 14.1081 54.9956 14.1176 56.667 14.1235L59.7058 14.1342L59.7454 13.9842C59.7671 13.9017 59.8069 13.6722 59.8337 13.4742C59.901 12.9778 59.8779 11.9157 59.7914 11.5242C59.6347 10.815 59.3479 10.2689 58.88 9.78907C58.5991 9.50098 58.337 9.3055 57.9317 9.08194C56.5632 8.3269 55.0947 7.8949 53.3255 7.7269C52.8795 7.68457 50.6945 7.66681 50.2392 7.70182ZM63.4325 8.30665C63.4257 8.32729 62.5604 12.4954 61.5096 17.5691C60.4587 22.6429 59.532 27.1025 59.4501 27.4793C59.3683 27.8561 59.3013 28.1768 59.3013 28.192C59.3013 28.2085 60.3419 28.2164 61.9094 28.2118L64.5174 28.2041L66.0471 20.6391C66.8884 16.4783 67.5852 13.0899 67.5955 13.1091C67.6058 13.1284 68.4432 16.536 69.4564 20.6816L71.2985 28.2189L75.2404 28.2191C78.3665 28.2191 79.1853 28.2114 79.1963 28.1816C79.204 28.161 80.122 23.9659 81.2363 18.8591C82.3506 13.7524 83.3243 9.29374 83.4 8.95099C83.4757 8.60827 83.5376 8.31463 83.5376 8.29849C83.5376 8.27959 82.6069 8.26915 80.9224 8.26915C78.4576 8.26915 78.3063 8.27218 78.292 8.32165C78.2837 8.35051 77.554 11.5399 76.6705 15.4091C75.787 19.2784 75.0539 22.4687 75.0415 22.4987C75.027 22.5337 74.4757 20.3345 73.511 16.3937C72.6816 13.006 71.8943 9.79201 71.7614 9.25165L71.5198 8.26915H67.4822C64.2789 8.26915 63.4422 8.27689 63.4325 8.30665ZM86.866 8.28481C86.866 8.29342 86.0344 12.2658 85.0181 17.1123C83.2573 25.5091 82.7207 28.0943 82.7207 28.1807C82.7207 28.2122 83.2537 28.218 85.5553 28.2118L88.39 28.2041L89.1485 24.7541L89.9069 21.3041L92.388 21.3031C94.9 21.302 95.1461 21.2936 95.9433 21.1817C97.6087 20.948 99.12 20.3967 100.417 19.5499C101.219 19.0261 101.763 18.5033 102.24 17.7986C102.925 16.7873 103.327 15.5188 103.447 13.9873C103.569 12.432 103.361 11.2968 102.802 10.4742C102.62 10.2051 102.253 9.84385 101.98 9.66454C101.3 9.2179 100.141 8.76775 99.1319 8.55847C98.4505 8.41714 98.0668 8.37637 96.6922 8.29927C96.1464 8.26864 86.866 8.25499 86.866 8.28481ZM19.9816 11.1982C18.6939 11.3351 17.6426 11.9772 16.9668 13.0393C16.2442 14.1751 16.1724 15.6229 16.7788 16.8308C17.0767 17.4242 17.5593 17.9681 18.1075 18.3279C18.7932 18.7781 19.4748 18.9812 20.2993 18.9812C20.9907 18.9812 21.5121 18.8592 22.1096 18.5575C23.2067 18.0035 23.9319 17.0536 24.1923 15.8291C24.266 15.4826 24.266 14.745 24.1923 14.3892C24.0913 13.9017 23.9211 13.4608 23.6885 13.0842C23.1077 12.1438 22.1669 11.4866 21.0931 11.271C20.8001 11.2121 20.2125 11.1736 19.9816 11.1982ZM95.4973 12.4569C96.2941 12.5657 96.7735 12.8405 97.1019 13.3767C97.2794 13.6665 97.3202 13.8348 97.3185 14.2692C97.3171 14.6114 97.3082 14.6704 97.2165 14.9442C97.0266 15.5114 96.772 15.9107 96.3077 16.3694C95.8766 16.7953 95.5029 17.0365 95.0237 17.1981C94.5661 17.3525 94.4641 17.3591 92.5662 17.3591C91.4266 17.3591 90.7995 17.3486 90.7995 17.3296C90.7995 17.3034 91.8331 12.6249 91.8785 12.4454L91.8966 12.3739L93.5341 12.3931C94.7198 12.4071 95.2615 12.4247 95.4973 12.4569ZM111.163 13.7307C109.466 13.8551 108.159 14.278 107.109 15.0426C106.272 15.652 105.201 17.0574 104.588 18.3491C103.969 19.655 103.663 20.8639 103.521 22.573C103.449 23.4433 103.498 24.2957 103.675 25.2159C103.864 26.1998 104.508 27.3389 105.172 27.8618C105.836 28.3847 106.938 28.6694 108.298 28.6691C109.587 28.6687 110.622 28.3901 111.466 27.8159C111.833 27.566 112.364 27.0883 112.752 26.6579C112.931 26.4597 113.081 26.3013 113.085 26.3059C113.089 26.3104 112.754 27.9476 112.34 29.9441C111.926 31.9406 111.588 33.5843 111.587 33.5968C111.587 33.6093 112.766 33.616 114.209 33.6118L116.831 33.6041L118.822 24.3941C119.916 19.3286 120.852 14.9985 120.901 14.7717L120.989 14.3592H118.365H115.741L115.52 15.2142C115.398 15.6844 115.291 16.0689 115.281 16.0685C115.271 16.0682 115.215 15.9909 115.157 15.8968C114.906 15.4913 114.28 14.8599 113.72 14.4463C112.921 13.8572 112.198 13.6548 111.163 13.7307ZM112.961 17.0428C113.262 17.0999 113.54 17.2344 113.75 17.4247C113.887 17.5486 113.952 17.6436 114.084 17.9114C114.443 18.6378 114.534 19.475 114.383 20.6645C114.32 21.1586 113.922 22.5305 113.655 23.1734C113.382 23.8318 113.068 24.3454 112.761 24.6383C112.209 25.1632 111.515 25.434 110.709 25.4387C109.933 25.4433 109.508 25.2152 109.23 24.6445C108.999 24.1722 108.905 23.6448 108.934 22.9817C108.952 22.5639 109.047 21.8383 109.107 21.6641C109.124 21.6146 109.172 21.3963 109.212 21.1789C109.453 19.8954 109.846 18.9292 110.492 18.0376C110.899 17.4761 111.368 17.1519 111.965 17.0195C112.109 16.9876 112.749 17.0025 112.961 17.0428Z" fill="white"/>
</svg>
