<svg width="91" height="71" viewBox="0 0 91 71" fill="none" xmlns="http://www.w3.org/2000/svg">
<path d="M47.0762 12.8823C46.2943 12.4374 45.5084 12.0213 44.7265 11.6339C44.4692 11.7912 44.2139 11.9522 43.9565 12.1152C44.892 12.5256 45.8236 12.9897 46.7371 13.5094C55.6832 18.593 59.9279 25.0612 58.0748 30.3501C58.0728 30.3597 58.0629 30.3673 58.0569 30.3769C57.4445 31.9781 56.3933 33.9034 54.9053 35.8575C54.5941 36.2679 54.261 36.6783 53.9119 37.0886C52.025 39.2939 49.5815 41.4551 46.5815 43.1426C45.1135 43.9691 43.6035 44.6326 42.1015 45.1523C42.5224 45.277 42.9472 45.3997 43.3761 45.5167C44.5629 44.9778 45.7597 44.3718 46.9565 43.6987C51.4725 41.156 55.1746 38.1127 57.624 35.1518C58.1805 34.4787 58.6732 33.8114 59.0941 33.1536C59.6287 32.3214 60.0515 31.5045 60.3527 30.7221C60.3587 30.7125 60.3687 30.7029 60.3727 30.6914C62.4092 24.8656 56.9279 18.4799 47.0762 12.8823Z" fill="white"/>
<path d="M30.9452 7.84472C29.9798 7.85239 29.0882 7.94444 28.2923 8.1247C27.3528 8.37974 26.0403 8.82655 25.0111 9.97138C21.9174 13.1834 19.7651 20.1636 19.7472 28.2656C19.7312 36.3312 21.8356 43.2941 24.8934 46.5388C25.9067 47.442 26.4233 47.9425 28.6314 48.4756C31.3601 48.9665 35.0622 48.5139 39.1233 47.1812C38.1858 46.9741 37.2643 46.7535 36.3647 46.5196C33.6021 46.8935 31.1108 46.8322 29.2577 46.4985C27.2511 46.0133 26.7843 45.5588 25.8628 44.7381C23.0882 41.7926 20.2498 35.4433 20.2638 28.118C20.2797 20.7619 23.162 14.4491 25.9685 11.5323C26.904 10.493 28.0948 10.0864 28.9485 9.8544C29.3595 9.76044 29.8082 9.68565 30.285 9.63196C30.656 9.58977 31.0449 9.55909 31.4519 9.54183C34.0349 9.42869 37.2843 9.82756 40.6532 10.8765C40.9345 10.6406 41.2157 10.4086 41.497 10.1823C38.1679 8.84956 34.9904 8.071 32.2856 7.88499C31.8268 7.85623 31.378 7.84281 30.9452 7.84472Z" fill="white"/>
<path d="M36.7538 38.5057C34.7811 37.9036 34.3443 37.4223 33.4766 36.5478C32.3815 35.2342 31.3144 33.3128 30.4826 30.979C30.2592 30.3519 30.0537 29.6961 29.8682 29.0154C29.1103 26.231 28.7034 23.0132 28.9208 19.6247C29.1362 16.288 29.9281 13.2026 31.0092 10.5696C30.6561 10.5907 30.3111 10.6176 29.97 10.6502C29.1641 13.3579 28.6096 16.4434 28.3982 19.7378C28.1269 23.9432 28.454 27.8801 29.2339 31.1708C29.4932 32.2696 29.8044 33.2955 30.1595 34.2352C30.7778 35.8709 31.5338 37.2458 32.3975 38.2833C33.3529 39.2459 33.8356 39.7771 36.0098 40.4406C39.9732 41.4014 46.1707 40.4483 52.6254 37.6639C52.9505 37.2765 53.2657 36.8911 53.5709 36.5037C47.2757 39.3456 40.5796 39.4339 36.7538 38.5057Z" fill="white"/>
<path d="M56.6306 6.01139C49.743 1.52795 42.6221 -0.592965 38.1779 0.143409C37.2225 0.342844 35.8861 0.711031 34.787 1.79258C33.4905 2.98535 32.3017 4.77451 31.3083 6.99897C31.789 7.00664 32.2797 7.0239 32.7764 7.04883C33.6939 5.53389 34.6853 4.2951 35.6467 3.41107C36.646 2.42924 37.8588 2.09557 38.7265 1.91531C42.7617 1.24605 50.0003 2.54621 56.2536 6.61736C64.6871 12.1076 68.5388 18.6544 66.6518 23.7783C66.6119 23.8876 66.57 23.995 66.5261 24.1024C66.5222 24.1139 66.5122 24.1197 66.5062 24.1293C66.4244 24.3095 66.3367 24.4917 66.2429 24.6777C65.1797 26.7967 63.3407 29.3663 60.7715 31.7269C60.1751 32.634 59.4969 33.5545 58.7449 34.4788C62.4451 32.1853 65.3972 29.5945 67.2602 27.1035C67.4736 26.8197 67.6711 26.5359 67.8546 26.2559C68.2196 25.6979 68.5268 25.1475 68.7721 24.6087C68.7801 24.5991 68.7901 24.5914 68.7941 24.5799C71.1897 18.8864 66.1152 12.1862 56.6306 6.01139Z" fill="white"/>
<path d="M68.1916 27.0383C67.9902 27.3393 67.7748 27.6404 67.5533 27.9415C69.5321 33.8555 68.9197 38.7589 65.7462 41.48C65.7362 41.4877 65.7262 41.4896 65.7163 41.4954C62.5687 44.042 56.4411 46.9587 49.2722 46.9587C46.7729 46.9587 44.3773 46.6059 42.1832 46.0383C41.6686 45.9059 41.1679 45.7602 40.6772 45.6068C37.1945 44.508 34.3322 42.9029 32.545 41.4167C31.053 40.0169 30.8774 39.3955 30.4964 38.2354C30.3768 37.7157 30.285 37.1462 30.2272 36.5306C29.7544 35.2285 29.3276 33.8401 28.9506 32.377C28.3841 35.0578 28.3063 37.4511 28.7411 39.3227C29.16 40.6017 29.3535 41.2863 30.9971 42.8281C32.6627 44.2107 35.15 45.3824 38.1799 46.2204C38.884 46.416 39.6181 46.5925 40.378 46.7497C43.0828 47.3097 46.1107 47.6241 49.3141 47.6241C57.209 47.6241 64.0647 45.7161 67.5274 42.9125C67.5394 42.9068 67.5514 42.9048 67.5613 42.8972C71.2614 39.7235 71.1457 34.0031 68.1916 27.0383Z" fill="white"/>
<path d="M34.0928 21.0936C36.5582 16.9113 39.8654 13.7222 42.9551 11.6972C43.2324 11.515 43.5096 11.3424 43.7829 11.1794C45.1014 10.3932 46.36 9.82751 47.475 9.4996C48.8134 9.05471 50.0541 9.2829 50.9118 9.4996C54.8313 10.6578 60.7256 14.9764 64.4815 21.3468C64.9782 22.1924 65.431 23.0266 65.8419 23.8473C65.9576 23.6134 66.0673 23.3814 66.171 23.1532C66.183 23.1378 66.1989 23.1263 66.2049 23.1091C66.2189 23.0765 66.2309 23.0419 66.2448 23.0074C65.8838 22.3343 65.4988 21.6555 65.0959 20.9671C60.961 13.9504 55.5414 8.94924 51.229 7.67401C50.2835 7.43622 48.9192 7.1831 47.4431 7.67401C45.8494 8.14383 44.104 9.12566 42.3288 10.5275C42.0675 10.7326 41.8062 10.9493 41.5449 11.1718C38.7663 13.5496 35.9578 16.9228 33.5742 20.9671C32.1739 23.343 31.0529 25.7266 30.2192 28.0105C30.3847 28.5666 30.5583 29.1132 30.7398 29.6482C31.3362 26.8983 32.4153 23.9413 34.0928 21.0936Z" fill="white"/>
<path d="M2.77658 57.7982C2.77658 57.407 3.08575 57.0849 3.43481 57.0849H10.0172V54.2794H2.79652C1.25465 54.2794 0 55.6831 0 57.3821V70.3721H2.77658V63.3593H8.10433V60.5769H2.77658V57.7982V57.7982Z" fill="white"/>
<path d="M17.4493 54.0972C16.6255 54.0972 15.8237 54.6494 15.5365 55.522L10.5578 70.374H13.3144L14.569 66.625H20.206L21.4407 70.374H24.3808L19.3423 55.522C19.0531 54.6705 18.313 54.0972 17.4493 54.0972ZM15.4547 63.8905L17.3875 57.8672L19.3203 63.8905H15.4547Z" fill="white"/>
<path d="M35.5309 54.8777C34.3581 54.2563 33.247 54.3254 32.0343 54.2794H30.1214C28.5795 54.2794 27.3249 55.6831 27.3249 57.407V70.374H30.1015V64.5579H32.0562C33.3727 64.5579 34.7291 64.3507 35.8202 63.5914C37.1965 62.6479 37.733 61.039 37.733 59.3381C37.731 57.5451 37.0309 55.6831 35.5309 54.8777ZM32.1978 61.7984H30.0995V57.7752C30.0995 57.384 30.0995 57.0177 30.4505 57.0177H32.0961C33.8654 57.0177 34.8926 57.315 34.8926 59.4071C34.8926 61.2001 33.5562 61.7984 32.1978 61.7984Z" fill="white"/>
<path d="M75.3585 54.2813H72.5798V70.374H75.3585V54.2813Z" fill="white"/>
<path d="M85.0426 60.7533V63.39L87.6137 63.4034V67.4228C87.1409 67.58 86.5864 67.6471 86.0519 67.6471C82.9242 67.6471 81.3205 65.5972 81.3205 62.2624C81.3205 61.0927 81.5878 59.6276 82.2041 58.6573C83.006 57.4185 84.3025 56.8547 85.6589 56.8547C86.8118 56.8547 88.2719 57.1251 89.3191 57.7119H89.6702V54.9179C88.3138 54.4001 86.9953 54.1068 85.5352 54.1068C83.1895 54.1298 81.1529 55.0521 79.8584 57.127C78.871 58.6573 78.4601 60.4618 78.4601 62.2413C78.4601 64.3124 78.9947 66.3873 80.2294 67.9405C81.6277 69.699 83.5406 70.374 85.6589 70.374C87.2626 70.351 88.8085 70.0825 90.3903 69.6089V60.7533H85.0426V60.7533Z" fill="white"/>
<path d="M44.4053 57.0849H50.9457V54.2794H43.747C42.2051 54.2794 40.9705 55.6831 40.9705 57.3821V64.6979V67.1563V67.2694C40.9705 68.9703 42.2051 70.3721 43.747 70.3721H43.8128H50.9457V67.5666H44.4033C44.0542 67.5666 43.747 67.2445 43.747 66.8552V64.6979V63.2443H49.0748V60.5539H43.747V57.7963C43.747 57.407 44.0562 57.0849 44.4053 57.0849Z" fill="white"/>
<path d="M66.5062 54.0972C65.5388 54.0742 65.0661 54.6725 64.362 55.5623L61.4597 60.5941L58.5575 55.5623C57.8514 54.6725 57.3766 54.0742 56.4112 54.0972C55.4019 54.1202 54.622 55.0637 54.6 56.1663V70.374H56.9198L56.9458 57.967L61.4896 64.951L65.9737 57.967L65.9996 70.374H68.3194V56.1663C68.2975 55.0637 67.5136 54.1202 66.5062 54.0972Z" fill="white"/>
</svg>
