<svg width="143" height="35" viewBox="0 0 143 35" fill="none" xmlns="http://www.w3.org/2000/svg">
<g clip-path="url(#clip0)">
<path fill-rule="evenodd" clip-rule="evenodd" d="M4.36391 8.32679C5.22702 8.32679 6.07073 8.08261 6.78838 7.62513C7.50602 7.16765 8.06535 6.51741 8.39565 5.75665C8.72594 4.99589 8.81236 4.15877 8.64398 3.35116C8.4756 2.54354 8.05997 1.80169 7.44967 1.21943C6.83936 0.637169 6.06179 0.240642 5.21527 0.0799967C4.36876 -0.0806487 3.49132 0.0018069 2.69392 0.316924C1.89652 0.632041 1.21497 1.16567 0.735452 1.85034C0.255939 2.535 0 3.33995 0 4.16339C0.00219837 5.26695 0.462672 6.32471 1.28059 7.10504C2.09851 7.88538 3.20721 8.32469 4.36391 8.32679Z" fill="white"/>
<path d="M17.2006 0.417936H10.444C10.1424 0.417936 9.89783 0.651234 9.89783 0.939021V7.38514C9.89783 7.67292 10.1424 7.90622 10.444 7.90622H17.2006C17.5022 7.90622 17.7468 7.67292 17.7468 7.38514V0.939021C17.7468 0.651234 17.5022 0.417936 17.2006 0.417936Z" fill="white"/>
<path d="M7.70193 9.38746H0.945352C0.643704 9.38746 0.39917 9.62076 0.39917 9.90854V16.3547C0.39917 16.6424 0.643704 16.8757 0.945352 16.8757H7.70193C8.00358 16.8757 8.24812 16.6424 8.24812 16.3547V9.90854C8.24812 9.62076 8.00358 9.38746 7.70193 9.38746Z" fill="white"/>
<path d="M7.66312 18.4496H0.906534C0.604886 18.4496 0.360352 18.6829 0.360352 18.9707V25.4168C0.360352 25.7046 0.604886 25.9379 0.906534 25.9379H7.66312C7.96476 25.9379 8.2093 25.7046 8.2093 25.4168V18.9707C8.2093 18.6829 7.96476 18.4496 7.66312 18.4496Z" fill="white"/>
<path d="M7.62149 27.5117H0.864908C0.56326 27.5117 0.318726 27.745 0.318726 28.0328V34.4789C0.318726 34.7667 0.56326 35 0.864908 35H7.62149C7.92314 35 8.16767 34.7667 8.16767 34.4789V28.0328C8.16767 27.745 7.92314 27.5117 7.62149 27.5117Z" fill="white"/>
<path d="M26.7658 0.417936H20.0092C19.7075 0.417936 19.463 0.651234 19.463 0.939021V7.38514C19.463 7.67292 19.7075 7.90622 20.0092 7.90622H26.7658C27.0674 7.90622 27.312 7.67292 27.312 7.38514V0.939021C27.312 0.651234 27.0674 0.417936 26.7658 0.417936Z" fill="white"/>
<path d="M17.2671 9.38746H10.5105C10.2089 9.38746 9.96436 9.62076 9.96436 9.90854V16.3547C9.96436 16.6424 10.2089 16.8757 10.5105 16.8757H17.2671C17.5688 16.8757 17.8133 16.6424 17.8133 16.3547V9.90854C17.8133 9.62076 17.5688 9.38746 17.2671 9.38746Z" fill="white"/>
<path d="M17.2283 18.4496H10.4717C10.1701 18.4496 9.92554 18.6829 9.92554 18.9707V25.4168C9.92554 25.7046 10.1701 25.9379 10.4717 25.9379H17.2283C17.53 25.9379 17.7745 25.7046 17.7745 25.4168V18.9707C17.7745 18.6829 17.53 18.4496 17.2283 18.4496Z" fill="white"/>
<path d="M17.1868 27.5117H10.4302C10.1286 27.5117 9.88403 27.745 9.88403 28.0328V34.4789C9.88403 34.7667 10.1286 35 10.4302 35H17.1868C17.4884 35 17.733 34.7667 17.733 34.4789V28.0328C17.733 27.745 17.4884 27.5117 17.1868 27.5117Z" fill="white"/>
<path d="M26.6548 18.4496H19.8982C19.5966 18.4496 19.3521 18.6829 19.3521 18.9707V25.4168C19.3521 25.7046 19.5966 25.9379 19.8982 25.9379H26.6548C26.9565 25.9379 27.201 25.7046 27.201 25.4168V18.9707C27.201 18.6829 26.9565 18.4496 26.6548 18.4496Z" fill="white"/>
<path d="M36.4917 33.4474C36.5027 33.6664 36.458 33.8847 36.3614 34.0836C36.2649 34.2826 36.1193 34.4563 35.9372 34.59C35.4962 34.8852 34.964 35.0305 34.4261 35.0027C33.8818 35.0262 33.3387 34.9359 32.8347 34.7382V34.1166C33.0861 34.2163 33.347 34.2925 33.6138 34.344C33.8873 34.3992 34.166 34.4276 34.4455 34.4287C34.8045 34.4529 35.162 34.3666 35.4658 34.1827C35.5768 34.1042 35.6659 34.0009 35.7253 33.8819C35.7848 33.763 35.8128 33.6319 35.8068 33.5003C35.8149 33.3353 35.7725 33.1718 35.6849 33.0294C35.5806 32.8863 35.4418 32.7693 35.2801 32.6882C35.0029 32.5474 34.7134 32.4297 34.415 32.3364C33.9768 32.2116 33.5777 31.9854 33.2534 31.6778C33.0134 31.4004 32.8899 31.0478 32.9068 30.6885C32.8996 30.4923 32.9416 30.2973 33.0294 30.1197C33.1172 29.9421 33.2481 29.787 33.4114 29.6675C33.7982 29.3987 34.2698 29.2643 34.7477 29.2866C35.2965 29.2802 35.8406 29.3839 36.3447 29.5908L36.134 30.1515C35.6962 29.9697 35.2252 29.8717 34.7477 29.8632C34.4525 29.8484 34.1603 29.9265 33.916 30.0854C33.817 30.1559 33.7377 30.2484 33.685 30.355C33.6323 30.4615 33.6079 30.5788 33.6138 30.6964C33.6065 30.86 33.6447 31.0224 33.7247 31.1673C33.8185 31.3086 33.9482 31.425 34.1018 31.5058C34.3594 31.6443 34.6305 31.7586 34.9113 31.8471C35.3786 31.9749 35.8092 32.2029 36.17 32.5136C36.399 32.7739 36.5141 33.1083 36.4917 33.4474Z" fill="white"/>
<path d="M38.2715 30.7652V33.4632C38.2499 33.7365 38.337 34.0076 38.5155 34.2223C38.6167 34.3126 38.7365 34.3816 38.8674 34.4249C38.9983 34.4682 39.1372 34.4848 39.2752 34.4736C39.4594 34.4891 39.6448 34.4651 39.818 34.4033C39.9912 34.3415 40.1477 34.2435 40.2761 34.1165C40.5184 33.7738 40.63 33.3619 40.5921 32.95V30.7652H41.252V34.9259H40.6975L40.6004 34.3678H40.5644C40.4313 34.5727 40.2387 34.7363 40.0099 34.8386C39.7493 34.9529 39.4649 35.0089 39.1781 35.0026C38.7465 35.0345 38.3188 34.9045 37.986 34.6403C37.8413 34.4838 37.7315 34.3008 37.6634 34.1026C37.5952 33.9043 37.5701 33.6948 37.5895 33.487V30.7652H38.2715Z" fill="white"/>
<path d="M43.3869 34.9259H42.7271V29.0168H43.3869V34.9259Z" fill="white"/>
<path d="M50.0908 34.3678H50.0547C49.9028 34.5769 49.697 34.7452 49.4571 34.8564C49.2172 34.9676 48.9513 35.018 48.6851 35.0026C48.4331 35.0148 48.1815 34.9707 47.9505 34.8738C47.7195 34.7769 47.5153 34.6299 47.3543 34.4445C47.0089 33.9835 46.8405 33.423 46.8774 32.8575C46.841 32.2874 47.0103 31.7227 47.3571 31.2572C47.5164 31.0685 47.7203 30.9186 47.9521 30.8197C48.184 30.7209 48.4371 30.6759 48.6907 30.6885C48.9534 30.6752 49.2154 30.7246 49.4531 30.8322C49.6908 30.9398 49.8966 31.1022 50.052 31.3048H50.1046L50.0769 31.0059L50.0603 30.7149V29.0194H50.7201V34.9286H50.1823L50.0908 34.3678ZM48.7683 34.4736C48.9491 34.4898 49.1315 34.4666 49.3015 34.4056C49.4716 34.3447 49.6248 34.2476 49.7498 34.1218C49.9827 33.7882 50.0902 33.3891 50.0547 32.9897V32.8575C50.0547 32.2676 49.9522 31.847 49.747 31.5931C49.6248 31.4611 49.4718 31.3584 49.3004 31.2931C49.1289 31.2279 48.9438 31.202 48.76 31.2175C48.5859 31.21 48.4128 31.2455 48.2574 31.3206C48.102 31.3957 47.9695 31.5078 47.8728 31.646C47.643 32.0124 47.5347 32.4366 47.5623 32.8627C47.5319 33.2846 47.6394 33.7051 47.87 34.0663C47.9716 34.2009 48.1072 34.3089 48.2643 34.3801C48.4213 34.4513 48.5947 34.4835 48.7683 34.4736Z" fill="white"/>
<path d="M54.0305 35.0026C53.749 35.0169 53.4676 34.9741 53.2047 34.877C52.9419 34.7799 52.7036 34.6307 52.5056 34.4392C52.1128 34.0089 51.9136 33.4482 51.9511 32.8786C51.9212 32.3077 52.1049 31.7452 52.4696 31.2916C52.6382 31.0987 52.8507 30.9451 53.0909 30.8424C53.3311 30.7397 53.5928 30.6907 53.8559 30.6991C54.0983 30.6891 54.34 30.7299 54.5642 30.8186C54.7883 30.9072 54.9894 31.0416 55.1534 31.2122C55.4854 31.5923 55.6556 32.0776 55.6303 32.5718V32.9686H52.6304C52.6122 33.3726 52.7503 33.769 53.0186 34.0822C53.1529 34.2124 53.315 34.3136 53.4939 34.3789C53.6728 34.4441 53.8643 34.4719 54.0555 34.4604C54.5327 34.4579 55.0045 34.3625 55.4417 34.18V34.7434C55.2284 34.8325 55.0064 34.9016 54.7791 34.9497C54.5321 34.9917 54.2813 35.0094 54.0305 35.0026ZM53.8503 31.2175C53.6953 31.2116 53.5408 31.2377 53.3973 31.2938C53.2538 31.3499 53.1246 31.4349 53.0186 31.5429C52.795 31.7977 52.6655 32.1155 52.6498 32.4475H54.9316C54.9552 32.1208 54.857 31.7966 54.6543 31.5323C54.5549 31.4241 54.4306 31.3394 54.2911 31.2848C54.1516 31.2302 54.0007 31.2071 53.8503 31.2175Z" fill="white"/>
<path d="M61.7685 34.9259L59.7945 30.006H59.7612C59.8 30.394 59.8195 30.8569 59.8195 31.3947V34.9259H59.1929V29.3712H60.2131L62.0541 33.9499H62.0874L63.9449 29.3712H64.9569V34.9259H64.2804V31.3497C64.2804 30.9397 64.297 30.4927 64.3358 30.0113H64.3026L62.3147 34.9259H61.7685Z" fill="white"/>
<path d="M66.4681 29.6357C66.4633 29.5788 66.4707 29.5216 66.4898 29.4675C66.5089 29.4134 66.5392 29.3636 66.579 29.3209C66.6546 29.2548 66.7535 29.2181 66.8562 29.2181C66.9588 29.2181 67.0578 29.2548 67.1334 29.3209C67.2088 29.4106 67.2499 29.5221 67.2499 29.637C67.2499 29.752 67.2088 29.8635 67.1334 29.9531C67.0587 30.021 66.9594 30.0589 66.8562 30.0589C66.753 30.0589 66.6537 30.021 66.579 29.9531C66.5394 29.9099 66.5092 29.8595 66.4901 29.805C66.4711 29.7505 66.4636 29.693 66.4681 29.6357ZM67.1861 34.9259H66.5235V30.7652H67.1861V34.9259Z" fill="white"/>
<path d="M71.6414 34.9259V32.2332C71.6638 31.9602 71.5777 31.6892 71.4001 31.4741C71.299 31.3838 71.1791 31.3148 71.0483 31.2715C70.9174 31.2282 70.7785 31.2116 70.6405 31.2228C70.4562 31.2077 70.2706 31.2316 70.0971 31.2929C69.9236 31.3542 69.7664 31.4513 69.6368 31.5772C69.4233 31.8126 69.318 32.2015 69.318 32.7411V34.9259H68.6526V30.7652H69.2071L69.3124 31.3339H69.3457C69.4836 31.1266 69.6809 30.9614 69.9141 30.8578C70.1685 30.7422 70.4475 30.6843 70.7292 30.6885C71.159 30.658 71.5844 30.788 71.9158 31.0508C72.0616 31.2078 72.1722 31.3916 72.2408 31.5908C72.3095 31.79 72.3347 32.0005 72.3151 32.2094V34.9259H71.6414Z" fill="white"/>
<path d="M76.4156 34.9259L76.2825 34.3334H76.252C76.0807 34.5555 75.8577 34.7366 75.6005 34.8624C75.3439 34.9629 75.0681 35.0107 74.7909 35.0026C74.4216 35.0222 74.0582 34.9078 73.7734 34.6826C73.6471 34.5656 73.5488 34.424 73.4852 34.2674C73.4215 34.1108 73.3941 33.9429 73.4047 33.7753C73.4047 32.9342 74.1098 32.4933 75.5201 32.4527L76.2603 32.4316V32.1671C76.2816 31.9086 76.2027 31.6516 76.0385 31.445C75.9448 31.3604 75.8333 31.2959 75.7114 31.2558C75.5895 31.2156 75.46 31.2008 75.3316 31.2122C74.9007 31.229 74.4791 31.3374 74.0978 31.5296L73.8954 31.0482C74.3504 30.8168 74.8575 30.6943 75.3731 30.6911C75.7883 30.6594 76.2009 30.7773 76.5293 31.0218C76.6656 31.1634 76.7693 31.3308 76.8338 31.513C76.8982 31.6952 76.922 31.8883 76.9036 32.0798V34.9206L76.4156 34.9259ZM74.9212 34.4815C75.2767 34.5005 75.6255 34.3845 75.8916 34.1588C76.0132 34.0399 76.1074 33.8979 76.168 33.7421C76.2287 33.5863 76.2545 33.4201 76.2437 33.2542V32.8786L75.5839 32.9051C75.1908 32.8934 74.8006 32.9733 74.4471 33.1378C74.3333 33.2053 74.2407 33.301 74.1792 33.4146C74.1177 33.5282 74.0896 33.6556 74.0978 33.7832C74.0891 33.8816 74.1044 33.9805 74.1423 34.0722C74.1803 34.164 74.2401 34.2461 74.3168 34.3123C74.4902 34.4367 74.7049 34.4968 74.9212 34.4815Z" fill="white"/>
<path d="M81.151 33.7912C81.1595 33.9646 81.1223 34.1372 81.0429 34.2934C80.9635 34.4496 80.8444 34.5843 80.6964 34.6852C80.3182 34.9172 79.8725 35.0284 79.4238 35.0026C78.9566 35.0248 78.4912 34.9338 78.0708 34.7381V34.1536C78.285 34.258 78.5111 34.3388 78.7445 34.3943C78.9718 34.4508 79.2055 34.4802 79.4404 34.4816C79.7157 34.4964 79.9901 34.4416 80.2361 34.3229C80.3156 34.2777 80.3824 34.2147 80.4306 34.1394C80.4788 34.064 80.507 33.9786 80.5127 33.8905C80.5185 33.8024 80.5016 33.7143 80.4635 33.6338C80.4255 33.5534 80.3674 33.483 80.2943 33.4288C80.0278 33.2553 79.7377 33.1174 79.4321 33.0188C79.1303 32.923 78.8402 32.7961 78.5671 32.6406C78.4108 32.5498 78.2796 32.4246 78.1845 32.2755C78.0979 32.126 78.0548 31.957 78.0597 31.7862C78.0567 31.63 78.0947 31.4756 78.1702 31.337C78.2458 31.1984 78.3565 31.08 78.4922 30.9927C78.8471 30.7794 79.2628 30.6768 79.6816 30.6991C80.1578 30.6957 80.6296 30.7858 81.0679 30.9636L80.8322 31.4767C80.4575 31.3156 80.0535 31.2258 79.6428 31.2122C79.3982 31.1966 79.1537 31.2451 78.9358 31.3524C78.8623 31.3894 78.8008 31.445 78.7583 31.5131C78.7157 31.5813 78.6937 31.6593 78.6946 31.7386C78.6918 31.8408 78.7239 31.941 78.7861 32.0243C78.8609 32.1163 78.9554 32.1921 79.0633 32.2464C79.3101 32.3654 79.5648 32.4687 79.8258 32.5559C80.2125 32.6632 80.5708 32.8481 80.8766 33.0982C80.968 33.1907 81.0394 33.2995 81.0865 33.4185C81.1336 33.5374 81.1555 33.6641 81.151 33.7912Z" fill="white"/>
<path d="M87.2283 32.0163H89.2051V34.709C88.8987 34.8016 88.5855 34.8723 88.268 34.9206C87.9009 34.9725 87.5301 34.9973 87.159 34.9947C86.7795 35.0156 86.3996 34.9595 86.0445 34.83C85.6894 34.7005 85.3672 34.5006 85.0991 34.2435C84.6074 33.7444 84.3625 33.0444 84.3643 32.1433C84.3521 31.6163 84.4769 31.0947 84.7275 30.625C84.9636 30.2001 85.3289 29.8533 85.7756 29.6304C86.2734 29.3931 86.8244 29.2751 87.3808 29.2866C87.9768 29.2815 88.5675 29.3932 89.1164 29.6145L88.853 30.1832C88.3753 29.9802 87.8594 29.8713 87.3365 29.8632C87.03 29.8455 86.7231 29.8904 86.4362 29.9949C86.1494 30.0993 85.8892 30.2609 85.673 30.4689C85.2512 30.9307 85.0362 31.5319 85.0741 32.1433C85.0741 32.8927 85.2663 33.4605 85.6508 33.8467C85.8742 34.0506 86.1398 34.2077 86.4305 34.3079C86.7213 34.4081 87.0308 34.4493 87.3392 34.4286C87.7372 34.4293 88.1338 34.384 88.5203 34.2937V32.5929H87.2283V32.0163Z" fill="white"/>
<path d="M92.4074 35.0026C92.1256 35.0166 91.8438 34.9737 91.5805 34.8766C91.3173 34.7795 91.0785 34.6305 90.8798 34.4392C90.488 34.0083 90.2889 33.448 90.3253 32.8786C90.2953 32.3077 90.4791 31.7452 90.8437 31.2916C91.0123 31.0987 91.2248 30.9451 91.4651 30.8424C91.7053 30.7397 91.9669 30.6907 92.23 30.6991C92.4724 30.6891 92.7142 30.7299 92.9383 30.8186C93.1625 30.9072 93.3636 31.0416 93.5275 31.2122C93.8595 31.5923 94.0297 32.0776 94.0044 32.5718V32.9686H91.0073C90.9878 33.3728 91.1261 33.7696 91.3955 34.0822C91.5298 34.2124 91.6919 34.3136 91.8708 34.3789C92.0497 34.4441 92.2412 34.4719 92.4324 34.4604C92.9097 34.4579 93.3814 34.3625 93.8186 34.18V34.7434C93.6053 34.8325 93.3834 34.9016 93.156 34.9497C92.909 34.9917 92.6582 35.0094 92.4074 35.0026ZM92.2189 31.2175C92.0639 31.2116 91.9094 31.2377 91.7659 31.2938C91.6224 31.3499 91.4932 31.4349 91.3871 31.5429C91.1636 31.7977 91.0341 32.1155 91.0184 32.4475H93.3002C93.3238 32.1208 93.2256 31.7966 93.0229 31.5323C92.9235 31.4241 92.7992 31.3394 92.6597 31.2848C92.5202 31.2302 92.3693 31.2071 92.2189 31.2175Z" fill="white"/>
<path d="M97.2094 30.6885C97.3843 30.6872 97.5589 30.7023 97.7307 30.7335L97.6392 31.318C97.4827 31.2836 97.3229 31.265 97.1623 31.2625C96.989 31.2617 96.8178 31.2981 96.6614 31.3691C96.5049 31.44 96.3672 31.5437 96.2585 31.6725C96.0028 31.9555 95.8681 32.32 95.8814 32.6935V34.9259H95.2216V30.7652H95.7761L95.8232 31.5349H95.8537C95.9958 31.286 96.196 31.0715 96.4387 30.908C96.6656 30.7604 96.9349 30.6837 97.2094 30.6885Z" fill="white"/>
<path d="M101.29 34.926L101.16 34.3334H101.127C100.956 34.5554 100.734 34.7365 100.478 34.8625C100.221 34.9629 99.9438 35.0107 99.6657 35.0027C99.2972 35.0226 98.9344 34.9082 98.651 34.6826C98.5242 34.5659 98.4256 34.4244 98.3619 34.2677C98.2983 34.111 98.2711 33.943 98.2822 33.7753C98.2822 32.9342 98.9864 32.4933 100.395 32.4528L101.135 32.4316V32.1671C101.156 31.9086 101.078 31.6516 100.913 31.445C100.82 31.3607 100.709 31.2963 100.588 31.2561C100.466 31.216 100.337 31.201 100.209 31.2122C99.7782 31.2288 99.3566 31.3372 98.9754 31.5296L98.7702 31.0482C98.9939 30.9334 99.2313 30.8446 99.4772 30.7837C99.7288 30.7208 99.9878 30.6887 100.248 30.6885C100.663 30.6567 101.076 30.7747 101.404 31.0191C101.541 31.1606 101.645 31.3278 101.71 31.5101C101.775 31.6923 101.799 31.8855 101.781 32.0772V34.918L101.29 34.926ZM99.7988 34.4816C99.9744 34.491 100.15 34.4674 100.316 34.412C100.482 34.3567 100.635 34.2707 100.766 34.1589C100.888 34.0399 100.982 33.8979 101.043 33.7421C101.103 33.5863 101.129 33.4201 101.119 33.2542V32.8786L100.459 32.9051C100.066 32.8937 99.6755 32.9736 99.3219 33.1379C99.2088 33.2059 99.117 33.3017 99.056 33.4153C98.995 33.5288 98.9672 33.6559 98.9754 33.7833C98.9669 33.8813 98.9821 33.9799 99.0195 34.0716C99.057 34.1632 99.1158 34.2456 99.1916 34.3123C99.3658 34.4371 99.5816 34.4973 99.7988 34.4816Z" fill="white"/>
<path d="M103.156 29.6357C103.151 29.5786 103.159 29.5211 103.178 29.4669C103.198 29.4127 103.229 29.363 103.27 29.321C103.307 29.2867 103.35 29.2599 103.398 29.2422C103.445 29.2245 103.496 29.2162 103.547 29.2178C103.65 29.216 103.75 29.2531 103.825 29.321C103.9 29.4106 103.941 29.5221 103.941 29.6371C103.941 29.752 103.9 29.8635 103.825 29.9531C103.788 29.9877 103.745 30.0149 103.697 30.0331C103.65 30.0513 103.599 30.0601 103.547 30.059C103.496 30.0607 103.445 30.0522 103.397 30.034C103.349 30.0158 103.306 29.9882 103.27 29.9531C103.229 29.9104 103.198 29.8602 103.179 29.8056C103.159 29.7511 103.152 29.6932 103.156 29.6357ZM103.874 34.9259H103.212V30.7652H103.863L103.874 34.9259Z" fill="white"/>
<path d="M108.161 33.7912C108.169 33.9646 108.132 34.1372 108.053 34.2934C107.973 34.4496 107.854 34.5843 107.706 34.6852C107.328 34.9172 106.882 35.0284 106.434 35.0026C105.966 35.0248 105.501 34.9338 105.081 34.7381V34.1536C105.295 34.258 105.521 34.3388 105.754 34.3943C105.982 34.4508 106.215 34.4802 106.45 34.4816C106.725 34.4964 107 34.4416 107.246 34.3229C107.325 34.2777 107.392 34.2147 107.44 34.1394C107.489 34.064 107.517 33.9786 107.522 33.8905C107.528 33.8024 107.511 33.7143 107.473 33.6338C107.435 33.5534 107.377 33.483 107.304 33.4288C107.038 33.2553 106.748 33.1174 106.442 33.0188C106.14 32.923 105.85 32.7961 105.577 32.6406C105.421 32.5498 105.289 32.4246 105.194 32.2755C105.108 32.126 105.065 31.957 105.069 31.7862C105.066 31.63 105.104 31.4756 105.18 31.337C105.256 31.1984 105.366 31.08 105.502 30.9927C105.857 30.7794 106.273 30.6768 106.691 30.6991C107.168 30.6957 107.639 30.7858 108.078 30.9636L107.842 31.4767C107.467 31.3156 107.063 31.2258 106.653 31.2122C106.407 31.1969 106.162 31.2453 105.943 31.3524C105.87 31.39 105.809 31.4458 105.767 31.5138C105.725 31.5819 105.704 31.6596 105.704 31.7386C105.702 31.8408 105.734 31.941 105.796 32.0243C105.871 32.1163 105.965 32.1921 106.073 32.2464C106.32 32.3654 106.575 32.4687 106.836 32.5559C107.222 32.6632 107.581 32.8481 107.886 33.0982C107.978 33.1907 108.049 33.2995 108.096 33.4185C108.143 33.5374 108.165 33.6641 108.161 33.7912Z" fill="white"/>
<path d="M33.2173 25.4856V18.1004H34.8586V25.4856H33.2173Z" fill="white"/>
<path d="M43.8443 25.4856H41.7594L38.3908 19.8965H38.3436C38.4102 20.884 38.4435 21.5893 38.4435 22.0125V25.4882H36.9768V18.1004H39.0479L42.4109 23.6313H42.447C42.3943 22.6738 42.3666 21.994 42.3666 21.5973V18.1004H43.8443V25.4856Z" fill="white"/>
<path d="M50.5315 23.4356C50.5466 23.7382 50.4861 24.0399 50.3549 24.3159C50.2238 24.5918 50.0259 24.8341 49.7774 25.0227C49.2756 25.4062 48.5742 25.5967 47.6786 25.5967C46.9216 25.611 46.1712 25.459 45.4856 25.1523V23.6975C45.9146 23.8876 46.3586 24.0451 46.8136 24.1683C47.137 24.2542 47.4705 24.3004 47.8062 24.3059C48.0983 24.3238 48.389 24.2545 48.6379 24.1075C48.7314 24.0397 48.8057 23.9507 48.8541 23.8487C48.9025 23.7466 48.9235 23.6347 48.9152 23.5229C48.9164 23.3838 48.8718 23.2477 48.7876 23.1341C48.6831 23.0054 48.5566 22.8946 48.4133 22.8061C48.0889 22.6217 47.7538 22.4548 47.4097 22.3062C47.0291 22.148 46.672 21.9425 46.3478 21.6951C46.1142 21.5046 45.9212 21.2729 45.7795 21.0127C45.6331 20.7311 45.5608 20.4197 45.5688 20.1054C45.554 19.8148 45.609 19.5248 45.7296 19.2575C45.8502 18.9903 46.0332 18.7528 46.2647 18.5633C46.8152 18.1632 47.4978 17.9642 48.1888 18.0026C48.577 18.0004 48.9638 18.0466 49.3394 18.1401C49.7317 18.2397 50.1154 18.368 50.4872 18.5237L49.9576 19.7404C49.6245 19.6045 49.2817 19.4914 48.9318 19.4018C48.6716 19.3395 48.4044 19.3075 48.1361 19.3066C47.8793 19.2902 47.625 19.3635 47.4208 19.5129C47.3395 19.5799 47.2749 19.6633 47.2317 19.7571C47.1886 19.8509 47.1679 19.9528 47.1713 20.0552C47.1678 20.1821 47.2035 20.3072 47.2739 20.4149C47.357 20.5348 47.4656 20.6366 47.5927 20.7138C47.9287 20.9084 48.2758 21.085 48.6324 21.2428C49.2 21.4633 49.7087 21.8022 50.1212 22.2348C50.3952 22.5798 50.5397 23.0028 50.5315 23.4356Z" fill="white"/>
<path d="M55.0896 25.4856H53.451V19.4018H51.3467V18.0978H57.1939V19.4018H55.0896V25.4856Z" fill="white"/>
<path d="M58.5552 25.4856V18.1004H60.1965V25.4856H58.5552Z" fill="white"/>
<path d="M65.3007 25.4856H63.6621V19.4018H61.5605V18.0978H67.405V19.4018H65.3034L65.3007 25.4856Z" fill="white"/>
<path d="M75.0627 18.1004V22.8801C75.0743 23.3823 74.9421 23.878 74.6801 24.3138C74.4196 24.7287 74.0327 25.0581 73.5711 25.2581C73.0328 25.4882 72.4473 25.6003 71.8577 25.5861C70.8614 25.5861 70.0879 25.3427 69.5371 24.856C69.2567 24.5993 69.0374 24.2882 68.8939 23.9437C68.7504 23.5992 68.6861 23.2292 68.7054 22.859V18.0978H70.3411V22.6209C70.3064 23.063 70.4349 23.5029 70.7043 23.8641C70.9455 24.1286 71.342 24.2635 71.8965 24.2635C72.1101 24.2823 72.3254 24.2561 72.5271 24.1866C72.7288 24.1171 72.912 24.0061 73.0637 23.8615C73.3365 23.4957 73.4652 23.0498 73.4269 22.6024V18.1004H75.0627Z" fill="white"/>
<path d="M80.1142 25.4856H78.4729V19.4018H76.3713V18.0978H82.2158V19.4018H80.1142V25.4856Z" fill="white"/>
<path d="M90.6026 21.7851C90.6026 23.0071 90.2847 23.9461 89.6488 24.6021C89.013 25.2581 88.1027 25.5861 86.9179 25.5861C85.7313 25.5861 84.821 25.2581 84.187 24.6021C83.553 23.9461 83.2351 23.0036 83.2333 21.7745C83.2333 20.5401 83.5521 19.6011 84.1898 18.9574C84.8275 18.3138 85.7405 17.9902 86.929 17.9867C88.1175 17.9867 89.0269 18.3129 89.6572 18.9654C90.2874 19.6178 90.6026 20.5577 90.6026 21.7851ZM84.955 21.7851C84.955 22.6086 85.1186 23.2258 85.4457 23.6366C85.619 23.8476 85.8437 24.015 86.1003 24.1243C86.3569 24.2336 86.6376 24.2814 86.9179 24.2635C88.2266 24.2635 88.8809 23.4338 88.8809 21.7745C88.8809 20.1151 88.2339 19.2828 86.9401 19.2775C86.6587 19.2598 86.377 19.3079 86.1195 19.4176C85.862 19.5273 85.6364 19.6953 85.4624 19.907C85.1186 20.3355 84.955 20.9545 84.955 21.7851Z" fill="white"/>
<path d="M97.1484 25.4856H95.5459V18.1004H99.9819V19.3833H97.1484V21.2878H99.774V22.5654H97.1484V25.4856Z" fill="white"/>
<path d="M106.112 25.4856H101.645V18.1004H106.103V19.3833H103.309V21.0048H105.929V22.2771H103.309V24.1815H106.126L106.112 25.4856Z" fill="white"/>
<path d="M114.319 21.7242C114.319 22.9374 113.956 23.8685 113.232 24.5175C112.507 25.1664 111.459 25.4891 110.088 25.4856H107.897V18.1004H110.326C111.59 18.1004 112.572 18.4187 113.271 19.0553C113.969 19.6919 114.319 20.5815 114.319 21.7242ZM112.613 21.7639C112.613 20.1768 111.88 19.3833 110.412 19.3833H109.539V24.1921H110.24C111.822 24.1921 112.613 23.3827 112.613 21.7639Z" fill="white"/>
<path d="M120.551 25.4856H116.093V18.1004H120.551V19.3833H117.726V21.0048H120.346V22.2771H117.726V24.1815H120.543L120.551 25.4856Z" fill="white"/>
<path d="M123.975 22.6527V25.4856H122.337V18.1004H124.591C125.642 18.1004 126.42 18.2838 126.925 18.6506C127.43 19.0156 127.682 19.5685 127.682 20.3144C127.688 20.7285 127.557 21.134 127.308 21.4729C127.035 21.8251 126.667 22.0994 126.243 22.2665C127.407 23.9241 128.166 24.9962 128.519 25.4829H126.698L124.851 22.65L123.975 22.6527ZM123.975 21.3804H124.505C124.906 21.4091 125.306 21.3225 125.655 21.1317C125.781 21.0425 125.88 20.9244 125.945 20.7884C126.009 20.6523 126.037 20.5029 126.024 20.3541C126.038 20.2085 126.01 20.0621 125.943 19.9303C125.877 19.7986 125.775 19.6863 125.647 19.6055C125.283 19.434 124.879 19.3574 124.474 19.3833H123.975V21.3804Z" fill="white"/>
<path d="M134.402 25.4856L133.848 23.7292H131.017L130.463 25.4856H128.694L131.428 18.0793H133.432L136.174 25.4856H134.402ZM133.449 22.4146C132.929 20.8275 132.637 19.9273 132.573 19.714C132.506 19.505 132.459 19.3383 132.431 19.2167C132.315 19.6469 131.981 20.7129 131.43 22.4146H133.449Z" fill="white"/>
<path d="M137.314 25.4856V18.1004H138.955V24.1842H142.093V25.4776L137.314 25.4856Z" fill="white"/>
</g>
<defs>
<clipPath id="clip0">
<rect width="142.093" height="35" fill="white"/>
</clipPath>
</defs>
</svg>
