<svg width="331" height="74" viewBox="0 0 331 74" fill="none" xmlns="http://www.w3.org/2000/svg">
<g clip-path="url(#clip0)">
<path d="M87.745 19.4818H87.9103V29.3249H85.9414V22.1183L83.6919 22.9805V21.1564L87.745 19.4818Z" fill="white"/>
<path d="M96.2269 26.5091C96.2269 28.2584 94.7239 29.4994 92.6197 29.4994C91.9823 29.5222 91.3501 29.3765 90.7877 29.077C90.2253 28.7776 89.7528 28.3352 89.4183 27.7949L90.776 26.7383C90.9653 27.0344 91.2245 27.28 91.531 27.4538C91.8375 27.6275 92.182 27.7241 92.5345 27.7351C93.5365 27.7351 94.2329 27.157 94.2329 26.3695C94.2329 25.5821 93.5466 24.989 92.5345 24.989H91.6077V23.4938H92.1588C93.2159 23.4938 93.8271 22.9307 93.782 22.2479C93.752 21.6548 93.246 21.286 92.5345 21.286C92.2177 21.2893 91.9053 21.3609 91.619 21.496C91.3327 21.6311 91.0793 21.8264 90.8762 22.0685L89.8041 20.8524C90.1642 20.4226 90.6157 20.0777 91.1259 19.8424C91.6362 19.6072 92.1926 19.4874 92.755 19.4918C94.4684 19.4918 95.8111 20.5284 95.761 22.1731C95.7573 22.579 95.6395 22.9757 95.4207 23.3184C95.202 23.661 94.8912 23.9359 94.5235 24.1118C95.023 24.2852 95.4557 24.6094 95.7611 25.0391C96.0665 25.4689 96.2293 25.9828 96.2269 26.5091Z" fill="white"/>
<path d="M102.189 18.6296H103.752V24.1616H102.189V23.449C101.968 23.7138 101.689 23.925 101.374 24.0666C101.059 24.2083 100.716 24.2765 100.37 24.2663C99.6303 24.223 98.935 23.9001 98.4265 23.3637C97.9181 22.8273 97.6349 22.1179 97.6349 21.3807C97.6349 20.6434 97.9181 19.934 98.4265 19.3976C98.935 18.8612 99.6303 18.5383 100.37 18.495C100.716 18.4833 101.06 18.5509 101.375 18.6926C101.691 18.8344 101.969 19.0464 102.189 19.3124V18.6296ZM98.0755 26.205V25.1086H103.587V26.205H98.0755ZM102.144 21.3906C102.146 21.1048 102.062 20.8248 101.904 20.586C101.746 20.3472 101.521 20.1604 101.256 20.0492C100.991 19.938 100.699 19.9074 100.417 19.9612C100.135 20.0151 99.8751 20.1509 99.6705 20.3517C99.466 20.5524 99.3258 20.809 99.2678 21.0889C99.2098 21.3689 99.2366 21.6597 99.3447 21.9246C99.4528 22.1894 99.6375 22.4164 99.8753 22.5768C100.113 22.7373 100.393 22.824 100.681 22.826C101.065 22.8286 101.435 22.6796 101.709 22.4115C101.983 22.1434 102.14 21.7781 102.144 21.3956V21.3906Z" fill="white"/>
<path d="M107.048 32.5844L107.229 30.7054C107.641 30.8118 108.065 30.8654 108.491 30.8649C109.403 30.8649 109.759 30.1821 109.759 29.3698V19.128H111.833V29.3897C111.833 31.2586 110.921 32.8286 108.491 32.8286C108.002 32.8043 107.518 32.7223 107.048 32.5844Z" fill="white"/>
<path d="M113.597 25.8711C113.579 25.1312 113.783 24.4028 114.183 23.7789C114.583 23.155 115.161 22.6639 115.843 22.3683C116.525 22.0727 117.28 21.9861 118.012 22.1194C118.744 22.2528 119.419 22.6001 119.952 23.117C120.484 23.6339 120.85 24.297 121.002 25.0215C121.153 25.746 121.085 26.4991 120.804 27.1846C120.524 27.8701 120.045 28.4569 119.427 28.8701C118.81 29.2833 118.083 29.5041 117.339 29.5043C116.851 29.5177 116.366 29.4335 115.912 29.2568C115.458 29.08 115.044 28.8144 114.695 28.4755C114.346 28.1367 114.069 27.7315 113.88 27.2842C113.691 26.8368 113.595 26.3563 113.597 25.8711ZM119.108 25.8711C119.093 25.5287 118.977 25.1981 118.775 24.9204C118.573 24.6428 118.294 24.4302 117.972 24.3092C117.649 24.1882 117.298 24.1641 116.962 24.2398C116.626 24.3155 116.32 24.4877 116.081 24.7351C115.843 24.9824 115.683 25.294 115.621 25.6312C115.559 25.9683 115.598 26.3161 115.733 26.6314C115.868 26.9468 116.093 27.2157 116.38 27.4048C116.668 27.5939 117.004 27.6949 117.349 27.6952C117.585 27.6927 117.818 27.6432 118.035 27.5496C118.252 27.4559 118.447 27.3201 118.61 27.1501C118.773 26.9801 118.9 26.7793 118.984 26.5597C119.068 26.34 119.106 26.1059 119.098 25.8711H119.108Z" fill="white"/>
<path d="M127.685 22.4472L127.239 24.3012C126.933 24.1307 126.587 24.0431 126.237 24.047C125.235 24.047 124.553 24.979 124.553 26.9526V29.3249H122.599V22.4024H124.538V23.8975C124.924 22.7413 125.716 22.2379 126.577 22.2379C126.958 22.2208 127.337 22.2925 127.685 22.4472Z" fill="white"/>
<path d="M135.55 25.5272V29.3249H133.601V25.6319C133.601 24.5504 132.95 24.062 132.279 24.062C132.064 24.0518 131.85 24.0876 131.65 24.1669C131.45 24.2462 131.27 24.3672 131.122 24.5216C130.973 24.6761 130.859 24.8605 130.788 25.0623C130.718 25.2642 130.691 25.4788 130.711 25.6917V29.3249H128.762V22.4024H130.711V23.5736C131.011 22.6366 132.113 22.223 132.8 22.223C134.603 22.223 135.565 23.454 135.55 25.5272Z" fill="white"/>
<path d="M142.649 22.4023H144.623V29.3249H142.674V28.3281C142.416 28.6951 142.072 28.9937 141.671 29.1978C141.27 29.402 140.825 29.5055 140.375 29.4993C138.456 29.4993 137.023 28.0041 137.023 25.8661C137.023 23.728 138.426 22.2179 140.42 22.2179C140.857 22.2047 141.291 22.2976 141.684 22.4886C142.076 22.6797 142.417 22.9631 142.674 23.3144L142.649 22.4023ZM142.589 25.891C142.591 25.6515 142.546 25.4139 142.455 25.1918C142.365 24.9697 142.232 24.7676 142.063 24.5968C141.894 24.426 141.693 24.29 141.471 24.1965C141.25 24.103 141.011 24.0539 140.771 24.052C140.299 24.0765 139.855 24.2801 139.53 24.6209C139.204 24.9617 139.023 25.4136 139.023 25.8835C139.023 26.3534 139.204 26.8053 139.53 27.1461C139.855 27.4869 140.299 27.6906 140.771 27.7151C141.257 27.7098 141.722 27.5127 142.063 27.1671C142.404 26.8214 142.593 26.3553 142.589 25.8711V25.891Z" fill="white"/>
<path d="M151.788 18.6296H153.737V29.3199H151.788V28.4627C151.519 28.794 151.177 29.0597 150.789 29.2394C150.401 29.419 149.976 29.508 149.548 29.4993C147.76 29.4993 146.136 28.0739 146.136 25.8512C146.111 25.3874 146.18 24.9233 146.339 24.4866C146.498 24.05 146.744 23.65 147.063 23.3106C147.382 22.9712 147.766 22.6994 148.193 22.5116C148.62 22.3239 149.081 22.224 149.548 22.2179C149.976 22.2033 150.401 22.288 150.789 22.4654C151.178 22.6427 151.52 22.9078 151.788 23.2396V18.6296ZM151.728 25.8512C151.726 25.3729 151.537 24.9142 151.2 24.5732C150.863 24.2322 150.405 24.0362 149.924 24.0271C149.685 24.0284 149.448 24.0767 149.228 24.1692C149.008 24.2617 148.808 24.3965 148.641 24.5661C148.473 24.7356 148.341 24.9364 148.252 25.1569C148.162 25.3775 148.118 25.6134 148.12 25.8512C148.12 26.327 148.31 26.7834 148.649 27.1198C148.987 27.4563 149.446 27.6453 149.924 27.6453C150.402 27.6453 150.861 27.4563 151.199 27.1198C151.537 26.7834 151.728 26.327 151.728 25.8512Z" fill="white"/>
<path d="M160.941 22.4023H162.895V29.3249H160.941V28.3281C160.684 28.695 160.34 28.9936 159.94 29.1978C159.54 29.402 159.096 29.5055 158.646 29.4993C156.723 29.4993 155.29 28.0041 155.29 25.8661C155.29 23.728 156.692 22.2179 158.691 22.2179C159.128 22.2046 159.561 22.2976 159.953 22.4886C160.345 22.6797 160.684 22.9632 160.941 23.3144V22.4023ZM160.881 25.891C160.883 25.6515 160.837 25.4139 160.747 25.1918C160.657 24.9698 160.523 24.7676 160.354 24.5968C160.186 24.426 159.984 24.29 159.763 24.1965C159.541 24.103 159.303 24.0539 159.062 24.052C158.591 24.0765 158.146 24.2801 157.821 24.6209C157.496 24.9617 157.315 25.4137 157.315 25.8835C157.315 26.3534 157.496 26.8054 157.821 27.1462C158.146 27.487 158.591 27.6906 159.062 27.7151C159.549 27.7098 160.014 27.5127 160.355 27.1671C160.696 26.8214 160.885 26.3553 160.881 25.8711V25.891Z" fill="white"/>
<path d="M168.055 24.2115C168.046 22.8244 168.589 21.4901 169.567 20.5009C170.544 19.5117 171.876 18.9481 173.271 18.9336C174.088 18.9264 174.896 19.1151 175.625 19.4838C176.354 19.8524 176.983 20.3902 177.459 21.0517L175.881 22.193C175.602 21.7807 175.224 21.4439 174.781 21.2133C174.339 20.9827 173.845 20.8655 173.346 20.8723C172.486 20.919 171.677 21.2917 171.085 21.9138C170.493 22.5358 170.163 23.3599 170.163 24.2165C170.163 25.0731 170.493 25.8972 171.085 26.5192C171.677 27.1412 172.486 27.5139 173.346 27.5606C173.848 27.5699 174.344 27.4539 174.79 27.2232C175.235 26.9925 175.615 26.6544 175.896 26.2399L177.474 27.3812C176.998 28.0433 176.369 28.5819 175.64 28.9514C174.911 29.3209 174.104 29.5106 173.286 29.5043C172.592 29.4998 171.907 29.3591 171.268 29.0904C170.63 28.8217 170.051 28.4302 169.565 27.9385C169.079 27.4467 168.696 26.8644 168.437 26.2248C168.178 25.5852 168.048 24.901 168.055 24.2115Z" fill="white"/>
<path d="M178.471 20.0151C178.459 19.7694 178.521 19.5258 178.65 19.3156C178.778 19.1055 178.967 18.9384 179.192 18.836C179.416 18.7336 179.667 18.7005 179.911 18.7411C180.155 18.7816 180.381 18.8939 180.56 19.0634C180.739 19.2329 180.863 19.452 180.916 19.6922C180.969 19.9325 180.948 20.183 180.856 20.4115C180.765 20.6399 180.606 20.8358 180.402 20.9739C180.197 21.112 179.956 21.186 179.708 21.1863C179.388 21.193 179.079 21.0736 178.847 20.8542C178.615 20.6349 178.48 20.3332 178.471 20.0151ZM178.741 29.3249V22.4023H180.695V29.3249H178.741Z" fill="white"/>
<path d="M189.443 26.4941H184.202C184.298 26.8851 184.531 27.2295 184.859 27.4658C185.186 27.7022 185.587 27.8153 185.991 27.7849C186.337 27.7819 186.678 27.7078 186.994 27.5671C187.309 27.4264 187.592 27.2223 187.824 26.9675L188.962 28.0989C188.588 28.5486 188.117 28.908 187.583 29.1498C187.049 29.3915 186.467 29.5093 185.881 29.4943C185.389 29.5124 184.898 29.4317 184.438 29.2569C183.978 29.0821 183.558 28.8168 183.204 28.477C182.849 28.1371 182.567 27.7296 182.375 27.2789C182.182 26.8281 182.083 26.3434 182.083 25.8536C182.083 25.3639 182.182 24.8791 182.375 24.4284C182.567 23.9776 182.849 23.5702 183.204 23.2303C183.558 22.8905 183.978 22.6252 184.438 22.4504C184.898 22.2756 185.389 22.1948 185.881 22.2129C186.354 22.1974 186.826 22.2775 187.268 22.4484C187.709 22.6193 188.111 22.8774 188.45 23.2071C188.788 23.5369 189.056 23.9315 189.237 24.3671C189.418 24.8027 189.508 25.2702 189.503 25.7415C189.483 25.9458 189.473 26.1801 189.443 26.4941ZM187.519 25.2331C187.478 24.8452 187.287 24.4883 186.985 24.2388C186.684 23.9893 186.297 23.8668 185.906 23.8975C185.507 23.8732 185.113 23.9961 184.8 24.2425C184.487 24.4889 184.276 24.8416 184.207 25.2331H187.519Z" fill="white"/>
<path d="M197.769 25.5272V29.3249H195.815V25.6319C195.815 24.5504 195.159 24.062 194.488 24.062C194.274 24.0526 194.06 24.0889 193.861 24.1685C193.662 24.2481 193.482 24.3692 193.334 24.5236C193.186 24.6779 193.073 24.8621 193.002 25.0636C192.932 25.265 192.905 25.4792 192.925 25.6917V29.3249H190.971V22.4024H192.925V23.5736C193.225 22.6366 194.328 22.223 195.014 22.223C196.828 22.223 197.784 23.454 197.769 25.5272Z" fill="white"/>
<path d="M203.576 22.4024V23.8975H202.103V29.31H200.149V23.9125H198.882V22.4173H200.149V19.8955H202.103V22.4173L203.576 22.4024Z" fill="white"/>
<path d="M204.743 21.1564L206.161 18.6944H208.14L206.191 21.1564H204.743ZM204.743 29.3249V22.4024H206.697V29.3249H204.743Z" fill="white"/>
<path d="M215.996 22.4023V29.3249H214.042V23.9124H211.211V29.3249H209.252V23.9124H207.95V22.4173H209.252V21.9189C209.252 19.8406 210.329 18.6545 212.308 18.6545H212.759V20.4636H212.479C211.507 20.4636 211.196 20.962 211.196 21.7096V22.4223L215.996 22.4023ZM213.761 20.0151C213.772 19.6987 213.908 19.3993 214.14 19.1826C214.372 18.9658 214.681 18.8494 214.999 18.8588C215.156 18.8521 215.314 18.877 215.462 18.9318C215.61 18.9867 215.745 19.0705 215.86 19.1783C215.975 19.286 216.067 19.4156 216.131 19.5593C216.194 19.7031 216.229 19.858 216.231 20.0151C216.229 20.173 216.196 20.3289 216.132 20.4738C216.069 20.6186 215.977 20.7494 215.862 20.8585C215.748 20.9676 215.612 21.0528 215.464 21.1091C215.315 21.1653 215.157 21.1916 214.999 21.1863C214.679 21.193 214.369 21.0736 214.137 20.8543C213.906 20.6349 213.77 20.3332 213.761 20.0151Z" fill="white"/>
<path d="M217.519 25.8412C217.519 23.6483 219.307 22.2229 221.331 22.2229C221.906 22.2136 222.475 22.345 222.987 22.6058C223.499 22.8665 223.939 23.2485 224.267 23.7181L222.779 24.7298C222.606 24.5125 222.386 24.3369 222.136 24.2161C221.885 24.0952 221.61 24.0323 221.331 24.0321C221.089 24.0224 220.847 24.0625 220.62 24.1496C220.394 24.2368 220.188 24.3693 220.015 24.5389C219.842 24.7085 219.706 24.9116 219.616 25.1356C219.525 25.3596 219.481 25.5998 219.488 25.8412C219.479 26.0852 219.521 26.3283 219.611 26.5556C219.7 26.783 219.835 26.9897 220.008 27.1633C220.181 27.3368 220.387 27.4735 220.614 27.565C220.842 27.6565 221.086 27.7008 221.331 27.6952C221.61 27.6949 221.885 27.632 222.136 27.5112C222.386 27.3904 222.606 27.2148 222.779 26.9975L224.252 27.9942C223.924 28.4638 223.484 28.8458 222.972 29.1066C222.46 29.3673 221.891 29.4988 221.316 29.4894C220.825 29.5033 220.335 29.4195 219.877 29.2427C219.418 29.0659 219 28.7998 218.646 28.46C218.292 28.1201 218.01 27.7134 217.817 27.2637C217.623 26.814 217.522 26.3304 217.519 25.8412Z" fill="white"/>
<path d="M230.75 22.4023H232.699V29.3249H230.75V28.3281C230.493 28.695 230.149 28.9936 229.749 29.1978C229.349 29.402 228.905 29.5055 228.456 29.4993C226.532 29.4993 225.099 28.0041 225.099 25.8661C225.099 23.728 226.502 22.2179 228.501 22.2179C228.937 22.2046 229.37 22.2976 229.762 22.4886C230.154 22.6797 230.493 22.9632 230.75 23.3144V22.4023ZM230.69 25.891C230.692 25.6515 230.647 25.4139 230.556 25.1918C230.466 24.9698 230.332 24.7676 230.164 24.5968C229.995 24.426 229.794 24.29 229.572 24.1965C229.35 24.103 229.112 24.0539 228.871 24.052C228.4 24.0765 227.955 24.2801 227.63 24.6209C227.305 24.9617 227.124 25.4137 227.124 25.8835C227.124 26.3534 227.305 26.8054 227.63 27.1462C227.955 27.487 228.4 27.6906 228.871 27.7151C229.358 27.7098 229.823 27.5127 230.164 27.1671C230.505 26.8214 230.694 26.3553 230.69 25.8711V25.891Z" fill="white"/>
<path d="M245.079 26.4941H239.848C239.944 26.8856 240.176 27.2306 240.504 27.4671C240.831 27.7037 241.233 27.8164 241.637 27.7849C241.983 27.782 242.324 27.7078 242.64 27.5671C242.955 27.4265 243.238 27.2223 243.47 26.9676L244.603 28.1089C244.228 28.5585 243.755 28.9176 243.221 29.1593C242.686 29.4011 242.104 29.519 241.517 29.5043C241.025 29.5225 240.534 29.4417 240.074 29.2669C239.614 29.0921 239.194 28.8268 238.84 28.487C238.485 28.1471 238.203 27.7396 238.011 27.2889C237.818 26.8382 237.719 26.3534 237.719 25.8637C237.719 25.3739 237.818 24.8891 238.011 24.4384C238.203 23.9877 238.485 23.5802 238.84 23.2403C239.194 22.9005 239.614 22.6352 240.074 22.4604C240.534 22.2856 241.025 22.2048 241.517 22.223C241.99 22.2074 242.462 22.2875 242.903 22.4584C243.345 22.6293 243.747 22.8874 244.086 23.2171C244.424 23.5469 244.692 23.9415 244.873 24.3771C245.054 24.8127 245.144 25.2802 245.139 25.7515C245.124 25.9459 245.109 26.1801 245.079 26.4941ZM243.155 25.2332C243.114 24.8461 242.924 24.4901 242.623 24.2407C242.323 23.9913 241.937 23.8682 241.547 23.8975C241.148 23.8722 240.753 23.9946 240.44 24.2412C240.126 24.4878 239.916 24.8412 239.848 25.2332H243.155Z" fill="white"/>
<path d="M257.233 19.128V20.9521H254.397V29.3449H252.338V20.9321H249.507V19.128H257.233Z" fill="white"/>
<path d="M264.362 26.4941H259.152C259.248 26.8851 259.48 27.2295 259.808 27.4659C260.136 27.7023 260.537 27.8153 260.94 27.7849C261.286 27.782 261.628 27.7078 261.943 27.5671C262.259 27.4265 262.542 27.2223 262.774 26.9676L263.906 28.1089C263.531 28.5585 263.059 28.9176 262.524 29.1593C261.99 29.4011 261.407 29.519 260.82 29.5043C260.328 29.5225 259.837 29.4417 259.378 29.2669C258.918 29.0921 258.498 28.8268 258.143 28.487C257.789 28.1471 257.507 27.7396 257.314 27.2889C257.122 26.8382 257.022 26.3534 257.022 25.8637C257.022 25.3739 257.122 24.8891 257.314 24.4384C257.507 23.9877 257.789 23.5802 258.143 23.2403C258.498 22.9005 258.918 22.6352 259.378 22.4604C259.837 22.2856 260.328 22.2048 260.82 22.223C261.294 22.2074 261.765 22.2875 262.207 22.4584C262.649 22.6293 263.051 22.8874 263.389 23.2171C263.728 23.5469 263.996 23.9415 264.177 24.3771C264.358 24.8127 264.448 25.2802 264.442 25.7515C264.427 25.9459 264.412 26.1801 264.362 26.4941ZM262.443 25.2332C262.403 24.8452 262.211 24.4884 261.91 24.2388C261.608 23.9893 261.221 23.8668 260.83 23.8975C260.431 23.8733 260.038 23.9961 259.724 24.2426C259.411 24.489 259.2 24.8417 259.132 25.2332H262.443Z" fill="white"/>
<path d="M265.519 25.8412C265.519 23.6483 267.308 22.2229 269.337 22.2229C269.912 22.2136 270.481 22.345 270.993 22.6058C271.505 22.8665 271.944 23.2485 272.273 23.7181L270.795 24.7448C270.623 24.5273 270.404 24.3515 270.154 24.2306C269.904 24.1097 269.63 24.0469 269.352 24.047C269.109 24.0374 268.867 24.0774 268.64 24.1646C268.414 24.2517 268.207 24.3841 268.034 24.5536C267.861 24.7231 267.724 24.9262 267.633 25.1502C267.542 25.3742 267.498 25.6145 267.503 25.8562C267.496 26.1004 267.538 26.3436 267.628 26.5709C267.718 26.7983 267.854 27.005 268.027 27.1785C268.2 27.352 268.407 27.4886 268.635 27.58C268.862 27.6714 269.106 27.7157 269.352 27.7101C269.63 27.7102 269.904 27.6475 270.154 27.5266C270.404 27.4057 270.623 27.2299 270.795 27.0124L272.273 28.0092C271.944 28.4788 271.505 28.8608 270.993 29.1215C270.481 29.3822 269.912 29.5137 269.337 29.5043C268.843 29.521 268.35 29.4387 267.888 29.2622C267.426 29.0857 267.004 28.8187 266.648 28.477C266.292 28.1353 266.009 27.7259 265.815 27.2731C265.621 26.8203 265.52 26.3334 265.519 25.8412Z" fill="white"/>
<path d="M280.394 25.5272V29.3249H278.44V25.6319C278.44 24.5504 277.789 24.062 277.118 24.062C276.903 24.0518 276.689 24.0876 276.489 24.1669C276.289 24.2462 276.109 24.3672 275.96 24.5216C275.812 24.6761 275.698 24.8605 275.627 25.0623C275.556 25.2642 275.53 25.4788 275.549 25.6917V29.3249H273.601V22.4024H275.549V23.5736C275.85 22.6366 276.952 22.223 277.639 22.223C279.452 22.223 280.394 23.454 280.394 25.5272Z" fill="white"/>
<path d="M281.802 25.8711C281.784 25.131 281.988 24.4024 282.389 23.7784C282.789 23.1543 283.367 22.6632 284.05 22.3678C284.732 22.0723 285.487 21.986 286.219 22.1197C286.951 22.2535 287.627 22.6013 288.159 23.1187C288.691 23.6361 289.056 24.2997 289.207 25.0245C289.359 25.7494 289.289 26.5026 289.008 27.1881C288.727 27.8735 288.247 28.46 287.629 28.8726C287.011 29.2851 286.283 29.5051 285.539 29.5043C285.052 29.517 284.568 29.4323 284.114 29.2553C283.66 29.0782 283.247 28.8125 282.898 28.4737C282.55 28.1349 282.273 27.73 282.085 27.283C281.897 26.8359 281.8 26.3558 281.802 25.8711ZM287.313 25.8711C287.298 25.5287 287.183 25.1981 286.981 24.9204C286.779 24.6428 286.499 24.4302 286.177 24.3092C285.854 24.1882 285.504 24.164 285.168 24.2397C284.831 24.3155 284.525 24.4877 284.287 24.735C284.048 24.9824 283.888 25.294 283.826 25.6311C283.764 25.9683 283.803 26.3161 283.938 26.6314C284.073 26.9467 284.298 27.2157 284.586 27.4048C284.873 27.5939 285.21 27.6949 285.554 27.6952C285.79 27.6927 286.023 27.6432 286.24 27.5495C286.456 27.4558 286.651 27.3199 286.814 27.1498C286.976 26.9797 287.103 26.7789 287.186 26.5593C287.269 26.3396 287.307 26.1056 287.298 25.8711H287.313Z" fill="white"/>
<path d="M290.805 29.3249V18.6296H292.754V29.3199L290.805 29.3249Z" fill="white"/>
<path d="M294.257 25.8711C294.239 25.1313 294.443 24.4028 294.843 23.7789C295.243 23.155 295.821 22.6639 296.503 22.3683C297.185 22.0727 297.941 21.9861 298.672 22.1194C299.404 22.2528 300.079 22.6001 300.612 23.117C301.144 23.6339 301.51 24.297 301.662 25.0215C301.814 25.746 301.745 26.4991 301.465 27.1846C301.184 27.8701 300.705 28.457 300.087 28.8702C299.47 29.2833 298.743 29.5041 297.999 29.5044C297.512 29.5177 297.026 29.4335 296.572 29.2568C296.118 29.0801 295.704 28.8144 295.355 28.4756C295.006 28.1367 294.729 27.7316 294.54 27.2842C294.352 26.8368 294.255 26.3563 294.257 25.8711ZM299.768 25.8711C299.753 25.5287 299.637 25.1981 299.436 24.9205C299.234 24.6428 298.954 24.4303 298.632 24.3092C298.309 24.1882 297.958 24.1641 297.622 24.2398C297.286 24.3155 296.98 24.4877 296.742 24.7351C296.503 24.9824 296.343 25.294 296.281 25.6312C296.219 25.9683 296.258 26.3161 296.393 26.6315C296.528 26.9468 296.753 27.2157 297.04 27.4048C297.328 27.5939 297.665 27.6949 298.009 27.6952C298.245 27.6927 298.479 27.6432 298.695 27.5496C298.912 27.456 299.107 27.3201 299.27 27.1501C299.433 26.9801 299.56 26.7793 299.644 26.5597C299.728 26.34 299.766 26.1059 299.758 25.8711H299.768ZM297.338 21.2611L298.741 18.7991H300.72L298.786 21.2611H297.338Z" fill="white"/>
<path d="M308.5 22.4024H310.454V28.4677C310.454 31.4879 308.921 32.8983 306.446 32.8983C305.737 32.9059 305.041 32.7101 304.442 32.3345C303.842 31.9588 303.364 31.4192 303.064 30.7802L304.688 30.0824C304.851 30.4072 305.102 30.6803 305.413 30.8713C305.723 31.0623 306.081 31.1636 306.446 31.1639C307.699 31.1639 308.485 30.4662 308.485 28.672V28.4776C308.212 28.8023 307.87 29.0628 307.484 29.2403C307.097 29.4178 306.676 29.508 306.251 29.5043C304.462 29.5043 302.839 28.0789 302.839 25.8561C302.813 25.3924 302.882 24.9282 303.041 24.4916C303.201 24.055 303.447 23.655 303.766 23.3156C304.084 22.9762 304.469 22.7044 304.896 22.5166C305.323 22.3288 305.784 22.2289 306.251 22.2229C306.674 22.2128 307.095 22.297 307.481 22.4695C307.868 22.642 308.211 22.8983 308.485 23.2197L308.5 22.4024ZM308.45 25.8561C308.449 25.3779 308.259 24.9191 307.922 24.5782C307.585 24.2372 307.127 24.0412 306.646 24.0321C306.407 24.0334 306.171 24.0817 305.951 24.1741C305.731 24.2666 305.531 24.4015 305.363 24.571C305.196 24.7406 305.063 24.9414 304.974 25.1619C304.885 25.3825 304.84 25.6184 304.843 25.8561C304.843 26.332 305.033 26.7884 305.371 27.1248C305.709 27.4613 306.168 27.6503 306.646 27.6503C307.125 27.6503 307.584 27.4613 307.922 27.1248C308.26 26.7884 308.45 26.332 308.45 25.8561Z" fill="white"/>
<path d="M312.127 20.0151C312.115 19.7694 312.178 19.5258 312.306 19.3156C312.435 19.1055 312.623 18.9384 312.848 18.836C313.073 18.7336 313.323 18.7005 313.567 18.7411C313.811 18.7816 314.037 18.8939 314.216 19.0634C314.396 19.2329 314.52 19.452 314.572 19.6922C314.625 19.9325 314.604 20.183 314.513 20.4115C314.421 20.6399 314.263 20.8358 314.058 20.9739C313.854 21.112 313.612 21.186 313.365 21.1863C313.045 21.193 312.735 21.0736 312.504 20.8542C312.272 20.6349 312.137 20.3332 312.127 20.0151ZM312.398 29.3249V22.4023H314.352V29.3249H312.398Z" fill="white"/>
<path d="M315.815 25.8412C315.815 23.6483 317.603 22.2229 319.632 22.2229C320.207 22.2136 320.776 22.345 321.288 22.6058C321.8 22.8665 322.24 23.2485 322.568 23.7181L321.095 24.7448C320.922 24.5274 320.702 24.3518 320.452 24.231C320.201 24.1102 319.926 24.0473 319.647 24.047C319.405 24.0374 319.162 24.0774 318.936 24.1646C318.709 24.2517 318.503 24.3841 318.329 24.5536C318.156 24.7231 318.02 24.9262 317.928 25.1502C317.837 25.3742 317.793 25.6145 317.799 25.8562C317.791 26.1004 317.834 26.3436 317.924 26.5709C318.014 26.7983 318.149 27.005 318.322 27.1785C318.495 27.352 318.702 27.4886 318.93 27.58C319.158 27.6714 319.402 27.7157 319.647 27.7101C319.926 27.7099 320.201 27.647 320.452 27.5262C320.702 27.4054 320.922 27.2297 321.095 27.0124L322.568 28.0092C322.24 28.4788 321.8 28.8608 321.288 29.1215C320.776 29.3822 320.207 29.5137 319.632 29.5043C319.138 29.521 318.645 29.4387 318.183 29.2622C317.721 29.0857 317.3 28.8187 316.944 28.477C316.588 28.1353 316.304 27.7259 316.11 27.2731C315.916 26.8203 315.816 26.3334 315.815 25.8412Z" fill="white"/>
<path d="M329.046 22.4024H330.995V29.3249H329.041V28.3281C328.784 28.6954 328.441 28.9942 328.041 29.1984C327.64 29.4027 327.196 29.506 326.746 29.4993C324.828 29.4993 323.395 28.0042 323.395 25.8661C323.395 23.7281 324.798 22.218 326.792 22.218C327.228 22.2038 327.661 22.2964 328.054 22.4875C328.446 22.6787 328.785 22.9626 329.041 23.3144L329.046 22.4024ZM328.986 25.8911C328.989 25.6517 328.944 25.4143 328.854 25.1922C328.764 24.9702 328.631 24.768 328.463 24.5971C328.294 24.4263 328.094 24.2902 327.872 24.1967C327.651 24.1031 327.413 24.054 327.172 24.052C326.701 24.0765 326.256 24.2801 325.931 24.6209C325.606 24.9617 325.425 25.4137 325.425 25.8836C325.425 26.3534 325.606 26.8054 325.931 27.1462C326.256 27.487 326.701 27.6907 327.172 27.7151C327.414 27.7132 327.652 27.6639 327.874 27.5701C328.096 27.4763 328.297 27.3399 328.466 27.1686C328.635 26.9973 328.769 26.7945 328.859 26.5718C328.949 26.3492 328.994 26.1111 328.991 25.8711L328.986 25.8911Z" fill="white"/>
<path d="M87.745 41.7297H87.9103V51.5777H85.9414V44.3711L83.6919 45.2283V43.4092L87.745 41.7297Z" fill="white"/>
<path d="M89.9794 46.7434C89.9794 43.9425 90.786 41.7297 93.6317 41.7297C96.4773 41.7297 97.2389 43.9425 97.2389 46.7434C97.2389 49.5443 96.4473 51.7272 93.6317 51.7272C90.816 51.7272 89.9794 49.4995 89.9794 46.7434ZM95.2399 46.7434C95.2399 44.9492 94.8842 43.5388 93.6317 43.5388C92.3792 43.5388 91.9633 44.9492 91.9633 46.7434C91.9633 48.5376 92.3491 49.943 93.6317 49.943C94.9142 49.943 95.2399 48.5326 95.2399 46.7434Z" fill="white"/>
<path d="M98.8822 43.7182C98.8622 43.1229 99.0214 42.5353 99.3393 42.0306C99.6573 41.5259 100.119 41.1272 100.667 40.8855C101.214 40.6438 101.821 40.5702 102.411 40.6741C103 40.7779 103.545 41.0546 103.976 41.4686C104.406 41.8825 104.703 42.4149 104.827 42.9975C104.951 43.5801 104.898 44.1864 104.674 44.7387C104.449 45.2909 104.064 45.7639 103.568 46.0971C103.072 46.4303 102.487 46.6085 101.888 46.6088C101.498 46.6251 101.108 46.5621 100.742 46.4239C100.377 46.2856 100.043 46.075 99.7622 45.8046C99.481 45.5343 99.2581 45.21 99.1068 44.8513C98.9555 44.4927 98.8791 44.1072 98.8822 43.7182ZM99.1377 47.4561H104.649V48.5326H99.1377V47.4561ZM103.296 43.7182C103.288 43.4411 103.198 43.1724 103.038 42.9458C102.877 42.7191 102.653 42.5446 102.394 42.4439C102.134 42.3433 101.85 42.321 101.578 42.3798C101.305 42.4386 101.057 42.576 100.862 42.7748C100.668 42.9735 100.537 43.2248 100.485 43.4973C100.434 43.7697 100.464 44.0512 100.573 44.3066C100.681 44.562 100.863 44.78 101.095 44.9333C101.327 45.0866 101.599 45.1684 101.878 45.1685C102.069 45.1714 102.258 45.1356 102.434 45.0632C102.61 44.9908 102.769 44.8834 102.902 44.7476C103.034 44.6118 103.138 44.4504 103.206 44.2734C103.273 44.0964 103.304 43.9075 103.296 43.7182Z" fill="white"/>
<path d="M109.934 48.6124H112.003C112.003 49.34 112.735 49.943 113.687 49.943C114.639 49.943 115.225 49.4447 115.225 48.717C115.225 48.1489 114.804 47.7502 113.927 47.481L112.675 47.1272C110.425 46.5341 110.024 45.1885 110.024 44.2665C110.024 42.4424 111.603 41.1815 113.571 41.1815C115.54 41.1815 116.998 42.3527 116.998 44.2964H114.924C114.929 44.117 114.895 43.9388 114.825 43.7735C114.755 43.6082 114.65 43.4595 114.518 43.3375C114.386 43.2154 114.229 43.1227 114.058 43.0655C113.887 43.0083 113.706 42.9878 113.526 43.0055C113.353 42.9906 113.178 43.0104 113.012 43.0638C112.846 43.1171 112.692 43.203 112.56 43.3163C112.428 43.4296 112.32 43.5681 112.242 43.7236C112.165 43.8791 112.119 44.0484 112.109 44.2216C112.109 44.4758 112.184 44.9941 113.256 45.3031L114.403 45.632C115.951 46.0905 117.309 46.878 117.309 48.6223C117.309 50.6507 115.565 51.7621 113.627 51.7621C111.437 51.7522 109.934 50.4065 109.934 48.6124Z" fill="white"/>
<path d="M118.682 42.263C118.671 42.0174 118.734 41.7743 118.863 41.5647C118.992 41.3552 119.181 41.189 119.406 41.0873C119.631 40.9857 119.881 40.9533 120.125 40.9945C120.369 41.0356 120.594 41.1483 120.773 41.3181C120.951 41.4879 121.075 41.7069 121.127 41.9471C121.18 42.1872 121.159 42.4375 121.067 42.6657C120.975 42.8938 120.817 43.0894 120.612 43.2272C120.407 43.3651 120.166 43.4389 119.919 43.4391C119.599 43.4445 119.289 43.3241 119.058 43.1039C118.826 42.8837 118.691 42.5815 118.682 42.263ZM118.952 51.5777V44.6502H120.901V51.5777H118.952Z" fill="white"/>
<path d="M133.952 47.78V51.5777H131.988V47.8398C131.988 46.7583 131.422 46.2998 130.736 46.2998C129.899 46.2998 129.363 46.878 129.363 48.1638V51.5777H127.409V47.8697C127.409 46.7733 126.843 46.2998 126.187 46.2998C125.53 46.2998 124.774 46.6836 124.774 47.9295V51.5777H122.82V44.6502H124.774V46.0008C124.87 45.558 125.119 45.1628 125.478 44.8841C125.837 44.6054 126.283 44.4609 126.738 44.4757C127.205 44.4552 127.667 44.5737 128.066 44.8161C128.465 45.0584 128.782 45.4137 128.977 45.8363C129.205 45.4216 129.541 45.076 129.95 44.8363C130.36 44.5967 130.827 44.4721 131.302 44.4757C133.045 44.4757 133.952 45.7067 133.952 47.78Z" fill="white"/>
<path d="M143.436 48.104C143.436 50.3467 141.808 51.7522 140.019 51.7522C139.591 51.7635 139.167 51.6757 138.779 51.4958C138.391 51.3159 138.051 51.0488 137.785 50.7155V54.9717H135.836V44.6502H137.785V45.4974C138.054 45.1687 138.395 44.9057 138.783 44.7285C139.17 44.5514 139.593 44.465 140.019 44.4758C140.486 44.4825 140.946 44.5827 141.372 44.7704C141.799 44.958 142.183 45.2293 142.502 45.5679C142.821 45.9066 143.068 46.3057 143.229 46.7414C143.389 47.1771 143.46 47.6406 143.436 48.104ZM141.432 48.104C141.445 47.8614 141.408 47.6188 141.324 47.3909C141.239 47.1629 141.109 46.9545 140.941 46.7783C140.773 46.602 140.57 46.4617 140.346 46.3658C140.122 46.2699 139.88 46.2204 139.636 46.2204C139.392 46.2204 139.15 46.2699 138.926 46.3658C138.701 46.4617 138.499 46.602 138.331 46.7783C138.163 46.9545 138.033 47.1629 137.948 47.3909C137.864 47.6188 137.827 47.8614 137.84 48.104C137.842 48.5819 138.032 49.0399 138.369 49.3806C138.706 49.7212 139.163 49.9177 139.643 49.9281C139.881 49.9268 140.115 49.8789 140.334 49.7872C140.553 49.6955 140.751 49.5618 140.918 49.3938C141.084 49.2257 141.216 49.0266 141.305 48.8078C141.394 48.5891 141.439 48.355 141.437 48.1189L141.432 48.104Z" fill="white"/>
<path d="M144.558 48.1189C144.54 47.3791 144.744 46.6506 145.145 46.0267C145.545 45.4028 146.123 44.9117 146.805 44.6161C147.487 44.3205 148.242 44.2339 148.974 44.3672C149.706 44.5006 150.381 44.8479 150.913 45.3648C151.446 45.8817 151.811 46.5448 151.963 47.2693C152.115 47.9938 152.046 48.7469 151.766 49.4324C151.486 50.1179 151.006 50.7048 150.389 51.118C149.772 51.5311 149.045 51.7519 148.301 51.7521C147.813 51.7662 147.327 51.6825 146.873 51.506C146.418 51.3295 146.004 51.0639 145.655 50.7249C145.306 50.3859 145.029 49.9805 144.84 49.5328C144.652 49.0851 144.556 48.6043 144.558 48.1189ZM150.069 48.1189C150.054 47.7763 149.939 47.4455 149.737 47.1678C149.534 46.89 149.255 46.6774 148.932 46.5566C148.609 46.4357 148.258 46.4119 147.922 46.488C147.586 46.5641 147.28 46.7368 147.041 46.9847C146.803 47.2325 146.643 47.5446 146.582 47.882C146.521 48.2195 146.56 48.5675 146.696 48.8827C146.832 49.1979 147.058 49.4665 147.346 49.655C147.634 49.8435 147.971 49.9437 148.316 49.943C148.551 49.9405 148.784 49.891 149 49.7972C149.216 49.7035 149.411 49.5675 149.573 49.3974C149.736 49.2272 149.862 49.0263 149.944 48.8067C150.027 48.5871 150.064 48.3532 150.054 48.1189H150.069ZM147.629 43.5089L149.027 41.0469H151.031L149.092 43.5089H147.629Z" fill="white"/>
<path d="M153.11 49.3948H154.944C154.953 49.5157 154.986 49.6336 155.041 49.7415C155.097 49.8494 155.174 49.945 155.267 50.0227C155.361 50.1004 155.469 50.1585 155.586 50.1936C155.702 50.2288 155.825 50.2402 155.946 50.2271C156.512 50.2271 156.948 49.943 156.948 49.5443C156.948 49.2503 156.713 49.1008 156.191 48.9662L155.265 48.7419C153.476 48.2685 153.261 47.2767 153.261 46.549C153.261 45.4825 154.378 44.4758 155.986 44.4758C157.254 44.4758 158.742 45.0838 158.732 46.7285H156.868C156.865 46.6233 156.84 46.5198 156.795 46.4247C156.75 46.3296 156.685 46.245 156.604 46.1765C156.524 46.1079 156.43 46.0568 156.329 46.0266C156.228 45.9963 156.121 45.9876 156.016 46.0008C155.57 46.0008 155.21 46.255 155.21 46.6089C155.21 46.9627 155.51 47.1072 155.896 47.2019L157.043 47.501C158.712 47.9445 158.922 48.9961 158.922 49.5443C158.922 50.9996 157.419 51.7522 156.001 51.7522C154.583 51.7522 153.14 50.9249 153.11 49.3948Z" fill="white"/>
<path d="M160.154 42.263C160.143 42.0174 160.206 41.7743 160.336 41.5647C160.465 41.3552 160.654 41.189 160.879 41.0873C161.104 40.9857 161.354 40.9533 161.598 40.9945C161.841 41.0356 162.067 41.1483 162.245 41.3181C162.424 41.4879 162.547 41.7069 162.6 41.9471C162.652 42.1872 162.631 42.4375 162.539 42.6657C162.448 42.8938 162.289 43.0894 162.085 43.2272C161.88 43.3651 161.639 43.4389 161.392 43.4391C161.071 43.4445 160.762 43.3241 160.53 43.1039C160.299 42.8837 160.163 42.5815 160.154 42.263ZM160.425 51.5777V44.6502H162.379V51.5777H160.425Z" fill="white"/>
<path d="M163.862 48.119C163.844 47.3791 164.048 46.6507 164.448 46.0268C164.848 45.4028 165.426 44.9117 166.108 44.6161C166.79 44.3206 167.546 44.2339 168.277 44.3673C169.009 44.5006 169.684 44.8479 170.217 45.3648C170.749 45.8818 171.115 46.5448 171.267 47.2693C171.419 47.9939 171.35 48.747 171.07 49.4325C170.789 50.118 170.31 50.7048 169.692 51.118C169.075 51.5312 168.348 51.752 167.604 51.7522C167.117 51.7655 166.631 51.6814 166.177 51.5046C165.723 51.3279 165.309 51.0622 164.96 50.7234C164.611 50.3845 164.334 49.9794 164.145 49.532C163.957 49.0846 163.86 48.6041 163.862 48.119ZM169.373 48.119C169.358 47.7766 169.242 47.446 169.04 47.1683C168.839 46.8906 168.559 46.6781 168.237 46.5571C167.914 46.4361 167.563 46.4119 167.227 46.4876C166.891 46.5633 166.585 46.7355 166.347 46.9829C166.108 47.2303 165.948 47.5419 165.886 47.879C165.824 48.2162 165.863 48.564 165.998 48.8793C166.133 49.1946 166.358 49.4635 166.645 49.6526C166.933 49.8418 167.27 49.9427 167.614 49.9431C167.851 49.9419 168.085 49.8933 168.302 49.8002C168.519 49.707 168.715 49.5713 168.878 49.401C169.042 49.2307 169.169 49.0293 169.252 48.8091C169.335 48.5888 169.373 48.3541 169.363 48.119H169.373Z" fill="white"/>
<path d="M181.667 40.8874H183.616V51.5777H181.667V50.7155C181.399 51.048 181.058 51.3145 180.669 51.4943C180.281 51.674 179.856 51.7623 179.428 51.7521C177.639 51.7521 176.016 50.3318 176.016 48.104C175.99 47.6405 176.059 47.1765 176.218 46.7402C176.378 46.3039 176.624 45.9042 176.943 45.5652C177.262 45.2261 177.646 44.9548 178.073 44.7676C178.5 44.5804 178.961 44.4811 179.428 44.4757C179.855 44.4595 180.281 44.5436 180.67 44.721C181.059 44.8985 181.401 45.1645 181.667 45.4974V40.8874ZM181.607 48.104C181.606 47.6262 181.416 47.168 181.079 46.8278C180.742 46.4877 180.284 46.2927 179.804 46.2849C179.565 46.2862 179.329 46.3343 179.109 46.4265C178.889 46.5187 178.69 46.6531 178.522 46.8221C178.355 46.9911 178.222 47.1913 178.133 47.4113C178.043 47.6312 177.998 47.8666 178 48.104C178 48.5798 178.19 49.0362 178.528 49.3727C178.866 49.7091 179.325 49.8982 179.804 49.8982C180.282 49.8982 180.741 49.7091 181.079 49.3727C181.417 49.0362 181.607 48.5798 181.607 48.104Z" fill="white"/>
<path d="M192.429 48.7419H187.208C187.304 49.1335 187.536 49.4784 187.864 49.715C188.191 49.9515 188.593 50.0642 188.997 50.0328C189.342 50.0304 189.684 49.9571 189.999 49.8173C190.315 49.6775 190.598 49.4743 190.831 49.2204L191.963 50.3617C191.588 50.81 191.116 51.168 190.583 51.4089C190.049 51.6497 189.467 51.7671 188.882 51.7522C187.912 51.7522 186.981 51.3689 186.296 50.6866C185.61 50.0043 185.224 49.0789 185.224 48.114C185.224 47.1491 185.61 46.2237 186.296 45.5414C186.981 44.8591 187.912 44.4758 188.882 44.4758C189.355 44.4602 189.827 44.5404 190.269 44.7112C190.71 44.8821 191.112 45.1402 191.451 45.47C191.789 45.7997 192.057 46.1943 192.238 46.6299C192.419 47.0655 192.51 47.533 192.504 48.0043C192.474 48.1937 192.454 48.4329 192.429 48.7419ZM190.505 47.481C190.463 47.0949 190.272 46.7401 189.972 46.4917C189.671 46.2433 189.286 46.1209 188.897 46.1503C188.498 46.1235 188.103 46.2447 187.788 46.4904C187.474 46.7361 187.262 47.089 187.193 47.481H190.505Z" fill="white"/>
<path d="M201.988 41.3608C204.312 41.3608 205.339 43.0205 205.339 44.695C205.339 46.3696 204.312 48.0043 201.988 48.0043H199.869V51.5777H197.799V41.3608H201.988ZM201.883 46.1952C202.075 46.1984 202.266 46.1609 202.443 46.0851C202.62 46.0093 202.778 45.897 202.908 45.7556C203.038 45.6142 203.136 45.447 203.196 45.265C203.256 45.083 203.276 44.8904 203.255 44.7C203.255 43.9574 202.88 43.2049 201.913 43.2049H199.869V46.1952H201.883Z" fill="white"/>
<path d="M206.076 48.1189C206.058 47.3788 206.262 46.6502 206.663 46.0262C207.063 45.4022 207.641 44.911 208.324 44.6156C209.006 44.3202 209.762 44.2338 210.494 44.3676C211.225 44.5013 211.901 44.8491 212.433 45.3666C212.965 45.884 213.33 46.5475 213.482 47.2723C213.633 47.9972 213.564 48.7505 213.282 49.4359C213.001 50.1213 212.521 50.7078 211.903 51.1204C211.285 51.533 210.558 51.7529 209.813 51.7521C209.326 51.7655 208.841 51.6813 208.387 51.5045C207.933 51.3277 207.52 51.062 207.171 50.7231C206.822 50.3841 206.546 49.979 206.358 49.5316C206.17 49.0843 206.074 48.6039 206.076 48.1189ZM211.587 48.1189C211.572 47.7765 211.457 47.4459 211.255 47.1683C211.053 46.8906 210.773 46.678 210.451 46.557C210.129 46.436 209.778 46.4119 209.442 46.4876C209.106 46.5633 208.799 46.7355 208.561 46.9829C208.322 47.2302 208.162 47.5418 208.1 47.879C208.038 48.2161 208.077 48.5639 208.212 48.8793C208.347 49.1946 208.572 49.4635 208.86 49.6526C209.147 49.8417 209.484 49.9427 209.828 49.943C210.065 49.9412 210.298 49.8921 210.515 49.7987C210.731 49.7053 210.927 49.5694 211.089 49.3991C211.252 49.2289 211.379 49.0278 211.462 48.8079C211.544 48.5879 211.582 48.3536 211.572 48.1189H211.587ZM209.157 43.5089L210.56 41.0469H212.564L210.625 43.5089H209.157Z" fill="white"/>
<path d="M214.628 49.3948H216.462C216.47 49.5181 216.504 49.6383 216.561 49.748C216.618 49.8578 216.697 49.9546 216.794 50.0327C216.89 50.1107 217.001 50.1682 217.121 50.2017C217.24 50.2351 217.366 50.2438 217.489 50.2271C218.055 50.2271 218.491 49.943 218.491 49.5443C218.491 49.2503 218.255 49.1008 217.734 48.9662L216.807 48.7419C215.019 48.2685 214.803 47.2767 214.803 46.549C214.803 45.4825 215.921 44.4758 217.529 44.4758C218.796 44.4758 220.284 45.0838 220.269 46.7285H218.405C218.403 46.6237 218.378 46.5207 218.333 46.426C218.288 46.3313 218.223 46.247 218.144 46.1785C218.064 46.11 217.971 46.0588 217.87 46.0282C217.769 45.9976 217.663 45.9883 217.559 46.0008C217.113 46.0008 216.752 46.255 216.752 46.6089C216.752 46.9627 217.053 47.1072 217.439 47.2019L218.586 47.501C220.254 47.9445 220.465 48.9961 220.465 49.5443C220.465 50.9996 218.962 51.7522 217.544 51.7522C216.126 51.7522 214.643 50.9249 214.628 49.3948Z" fill="white"/>
<path d="M221.927 48.8914V47.172H227.173V48.8914H221.927Z" fill="white"/>
<path d="M229.022 46.4743C229.014 45.7833 229.143 45.0976 229.403 44.4568C229.663 43.8159 230.048 43.2326 230.536 42.7406C231.023 42.2485 231.604 41.8573 232.245 41.5897C232.885 41.3222 233.573 41.1834 234.267 41.1815C234.981 41.1723 235.689 41.3131 236.344 41.5948C236.999 41.8765 237.587 42.2927 238.07 42.8161L236.567 44.102C236.274 43.7875 235.919 43.5366 235.524 43.3651C235.129 43.1936 234.703 43.1051 234.272 43.1052C233.405 43.1696 232.594 43.5598 232.005 44.1966C231.416 44.8335 231.093 45.6693 231.1 46.5347C231.108 47.4 231.446 48.2301 232.046 48.8566C232.647 49.483 233.464 49.859 234.332 49.9082C235.675 49.9082 236.998 49.1107 236.998 47.9146H234.092V46.24H239.262C239.262 50.0178 237.158 51.7522 234.372 51.7522C233.67 51.7655 232.972 51.6385 232.319 51.3786C231.667 51.1186 231.074 50.7311 230.575 50.2389C230.076 49.7467 229.681 49.1599 229.415 48.5133C229.148 47.8666 229.014 47.1733 229.022 46.4743Z" fill="white"/>
<path d="M245.895 44.6951L245.444 46.5491C245.138 46.3803 244.793 46.2944 244.442 46.2999C243.44 46.2999 242.759 47.2319 242.759 49.2055V51.5778H240.815V44.6502H242.754V46.1454C243.14 44.9891 243.931 44.4858 244.798 44.4858C245.175 44.4711 245.551 44.5427 245.895 44.6951Z" fill="white"/>
<path d="M252.083 44.6502H254.037V51.5777H252.083V50.5809C251.826 50.9479 251.482 51.2465 251.082 51.4507C250.682 51.6548 250.238 51.7584 249.788 51.7521C247.864 51.7521 246.436 50.257 246.436 48.1189C246.436 45.9809 247.834 44.4757 249.833 44.4757C250.27 44.4611 250.703 44.5535 251.095 44.7447C251.488 44.9359 251.827 45.2201 252.083 45.5722V44.6502ZM252.023 48.1389C252.025 47.8996 251.979 47.6622 251.889 47.4404C251.798 47.2186 251.665 47.0168 251.496 46.8464C251.327 46.676 251.126 46.5405 250.904 46.4476C250.682 46.3546 250.444 46.3061 250.204 46.3048C249.966 46.3074 249.731 46.3571 249.512 46.451C249.293 46.545 249.096 46.6813 248.931 46.852C248.766 47.0227 248.636 47.2244 248.55 47.4454C248.465 47.6663 248.424 47.9021 248.43 48.1389C248.425 48.6165 248.61 49.0768 248.946 49.4187C249.281 49.7607 249.739 49.9564 250.219 49.9629C250.704 49.9551 251.165 49.7567 251.503 49.4111C251.841 49.0656 252.028 48.601 252.023 48.1189V48.1389Z" fill="white"/>
<path d="M261.221 40.8874H263.17V51.5777H261.221V50.7155C260.953 51.048 260.611 51.3145 260.223 51.4943C259.835 51.674 259.41 51.7623 258.981 51.7521C257.193 51.7521 255.57 50.3318 255.57 48.104C255.544 47.6405 255.613 47.1765 255.772 46.7402C255.931 46.3039 256.178 45.9042 256.497 45.5652C256.815 45.2261 257.2 44.9548 257.627 44.7676C258.054 44.5804 258.515 44.4811 258.981 44.4757C259.409 44.4595 259.835 44.5436 260.224 44.721C260.613 44.8985 260.954 45.1645 261.221 45.4974V40.8874ZM261.161 48.104C261.159 47.6262 260.97 47.168 260.633 46.8278C260.295 46.4877 259.837 46.2927 259.357 46.2849C259.119 46.2862 258.883 46.3343 258.663 46.4265C258.443 46.5187 258.243 46.6531 258.076 46.8221C257.908 46.9911 257.776 47.1913 257.686 47.4113C257.597 47.6312 257.552 47.8666 257.554 48.104C257.554 48.5798 257.744 49.0362 258.082 49.3727C258.42 49.7091 258.879 49.8982 259.357 49.8982C259.835 49.8982 260.294 49.7091 260.632 49.3727C260.971 49.0362 261.161 48.5798 261.161 48.104Z" fill="white"/>
<path d="M269.873 44.6502H271.827V51.5777H269.873V50.4514C269.578 51.3535 268.475 51.7522 267.789 51.7522C265.97 51.7522 265.018 50.5361 265.034 48.4628V44.6502H266.982V48.3582C266.982 49.4397 267.639 49.943 268.31 49.943C268.524 49.9525 268.738 49.9162 268.937 49.8365C269.136 49.7569 269.316 49.6359 269.464 49.4815C269.612 49.3271 269.725 49.143 269.796 48.9415C269.866 48.74 269.893 48.5258 269.873 48.3133V44.6502Z" fill="white"/>
<path d="M279.021 44.6502H280.97V51.5777H279.021V50.5809C278.764 50.9479 278.421 51.2465 278.021 51.4507C277.621 51.6548 277.176 51.7584 276.727 51.7521C274.803 51.7521 273.37 50.257 273.37 48.1189C273.37 45.9809 274.773 44.4757 276.772 44.4757C277.208 44.4611 277.642 44.5535 278.034 44.7447C278.426 44.9359 278.765 45.2201 279.021 45.5722V44.6502ZM278.961 48.1389C278.963 47.8996 278.918 47.6622 278.827 47.4404C278.737 47.2186 278.604 47.0168 278.435 46.8464C278.266 46.676 278.065 46.5405 277.843 46.4476C277.621 46.3546 277.383 46.3061 277.143 46.3048C276.905 46.3074 276.669 46.3571 276.451 46.451C276.232 46.545 276.034 46.6813 275.869 46.852C275.704 47.0227 275.575 47.2244 275.489 47.4454C275.403 47.6663 275.362 47.9021 275.369 48.1389C275.364 48.6165 275.549 49.0768 275.884 49.4187C276.22 49.7607 276.678 49.9564 277.158 49.9629C277.642 49.9551 278.104 49.7567 278.442 49.4111C278.78 49.0656 278.967 48.601 278.961 48.1189V48.1389Z" fill="white"/>
<path d="M287.794 49.2503L289.252 50.272C288.99 50.6452 288.657 50.9629 288.27 51.2068C287.884 51.4506 287.453 51.6157 287.002 51.6923L287.403 52.4798C287.506 52.6981 287.557 52.9366 287.553 53.1775C287.557 53.3764 287.521 53.574 287.448 53.7589C287.374 53.9438 287.264 54.1121 287.124 54.2542C286.984 54.3962 286.817 54.509 286.633 54.586C286.448 54.663 286.25 54.7026 286.05 54.7026C285.823 54.7114 285.597 54.6718 285.387 54.5865C285.176 54.5011 284.986 54.372 284.83 54.2077C284.674 54.0434 284.555 53.8479 284.481 53.6341C284.408 53.4203 284.381 53.1932 284.402 52.9682H285.449C285.449 53.4168 285.61 53.7258 286.015 53.7258C286.087 53.7264 286.158 53.7117 286.223 53.6827C286.289 53.6537 286.347 53.6111 286.395 53.5577C286.442 53.5043 286.478 53.4414 286.499 53.3733C286.52 53.3051 286.526 53.2333 286.516 53.1626C286.517 53.055 286.496 52.9484 286.456 52.8486L285.955 51.7372C285.016 51.6911 284.131 51.2868 283.483 50.6084C282.836 49.93 282.476 49.0295 282.478 48.094C282.478 45.8961 284.267 44.4757 286.296 44.4757C286.871 44.4664 287.44 44.5978 287.952 44.8586C288.463 45.1193 288.903 45.5013 289.232 45.9709L287.774 46.9926C287.599 46.7745 287.376 46.5988 287.123 46.4788C286.869 46.3588 286.592 46.2976 286.311 46.2998C286.068 46.2902 285.826 46.3302 285.599 46.4174C285.373 46.5045 285.166 46.6369 284.993 46.8064C284.82 46.976 284.683 47.179 284.592 47.403C284.501 47.627 284.457 47.8673 284.462 48.109C284.455 48.353 284.497 48.596 284.587 48.8231C284.677 49.0501 284.813 49.2565 284.986 49.4296C285.159 49.6027 285.366 49.7388 285.594 49.8297C285.822 49.9205 286.066 49.9642 286.311 49.958C286.596 49.9615 286.878 49.8995 287.136 49.7767C287.393 49.654 287.618 49.4738 287.794 49.2503Z" fill="white"/>
<path d="M295.73 44.6502H297.684V51.5777H295.73V50.5809C295.473 50.9482 295.129 51.247 294.729 51.4512C294.329 51.6555 293.885 51.7588 293.435 51.7521C291.516 51.7521 290.083 50.257 290.083 48.1189C290.083 45.9809 291.486 44.4757 293.48 44.4757C293.917 44.4607 294.351 44.5529 294.743 44.7441C295.135 44.9353 295.474 45.2197 295.73 45.5722V44.6502ZM293.004 43.2597H292.002C292.077 41.8493 292.819 41.4057 293.43 41.4057C294.041 41.4057 294.402 42.0137 294.728 42.0137C294.863 42.0137 295.113 41.8792 295.129 41.4057H296.176C296.1 42.8012 295.324 43.2148 294.728 43.2148C294.132 43.2148 293.791 42.6068 293.43 42.6068C293.29 42.6068 293.019 42.7713 293.004 43.2597ZM295.67 48.1189C295.672 47.8799 295.627 47.6426 295.538 47.4209C295.448 47.1991 295.315 46.9972 295.146 46.8268C294.978 46.6563 294.777 46.5207 294.555 46.4277C294.334 46.3347 294.096 46.2862 293.856 46.2849C293.618 46.2867 293.382 46.336 293.163 46.4297C292.944 46.5234 292.746 46.6597 292.581 46.8306C292.416 47.0014 292.287 47.2034 292.201 47.4247C292.115 47.6459 292.075 47.882 292.082 48.1189C292.079 48.3556 292.123 48.5906 292.211 48.8105C292.299 49.0304 292.43 49.2308 292.596 49.4002C292.762 49.5697 292.96 49.7048 293.179 49.798C293.398 49.8911 293.633 49.9404 293.871 49.943C294.352 49.9351 294.81 49.7393 295.146 49.398C295.483 49.0566 295.671 48.5971 295.67 48.1189Z" fill="white"/>
<path d="M299.212 48.119C299.194 47.3791 299.398 46.6507 299.798 46.0268C300.198 45.4028 300.776 44.9117 301.458 44.6161C302.14 44.3206 302.895 44.2339 303.627 44.3673C304.359 44.5006 305.034 44.8479 305.567 45.3648C306.099 45.8818 306.465 46.5448 306.617 47.2693C306.768 47.9938 306.7 48.7469 306.419 49.4325C306.139 50.118 305.659 50.7048 305.042 51.118C304.425 51.5312 303.698 51.752 302.954 51.7522C302.466 51.7662 301.981 51.6825 301.526 51.5061C301.072 51.3296 300.658 51.0639 300.308 50.725C299.959 50.386 299.682 49.9805 299.494 49.5329C299.305 49.0852 299.209 48.6043 299.212 48.119ZM304.723 48.119C304.708 47.7766 304.592 47.446 304.39 47.1683C304.188 46.8906 303.909 46.6781 303.587 46.5571C303.264 46.4361 302.913 46.4119 302.577 46.4876C302.241 46.5633 301.935 46.7355 301.696 46.9829C301.458 47.2303 301.298 47.5419 301.236 47.879C301.174 48.2162 301.213 48.564 301.348 48.8793C301.483 49.1946 301.708 49.4635 301.995 49.6526C302.283 49.8418 302.619 49.9427 302.964 49.943C303.2 49.9412 303.434 49.8922 303.651 49.7988C303.868 49.7054 304.064 49.5696 304.227 49.3994C304.39 49.2293 304.517 49.0283 304.6 48.8083C304.684 48.5883 304.722 48.3539 304.712 48.119H304.723Z" fill="white"/>
<path d="M84.5536 73.8256V63.6137H86.6277V73.8256H84.5536Z" fill="white"/>
<path d="M95.4503 65.4378H91.1718V67.8948H94.5736V69.704H91.1718V73.8256H89.1027V63.6137H95.4503V65.4378Z" fill="white"/>
<path d="M96.5275 70.8602H98.5966C98.5966 71.5878 99.328 72.1959 100.28 72.1959C101.232 72.1959 101.818 71.6975 101.818 70.9649C101.818 70.4017 101.397 70.003 100.52 69.7338L99.2679 69.38C97.0184 68.7869 96.6176 67.4363 96.6176 66.5193C96.6176 64.6952 98.1958 63.4343 100.165 63.4343C102.134 63.4343 103.592 64.6055 103.592 66.5492H101.537C101.542 66.3698 101.508 66.1916 101.438 66.0263C101.368 65.861 101.263 65.7124 101.131 65.5903C100.999 65.4682 100.842 65.3755 100.671 65.3183C100.5 65.2611 100.319 65.2406 100.14 65.2584C99.9659 65.2434 99.7908 65.2632 99.6248 65.3166C99.4588 65.3699 99.3052 65.4558 99.1731 65.5691C99.041 65.6824 98.933 65.8209 98.8555 65.9764C98.778 66.1319 98.7326 66.3012 98.7218 66.4744C98.7218 66.7236 98.797 67.2419 99.8691 67.5559L101.016 67.8799C102.57 68.3434 103.922 69.1258 103.922 70.8702C103.922 72.9036 102.179 74.015 100.245 74.015C98.0305 74.005 96.5275 72.6544 96.5275 70.8602Z" fill="white"/>
<path d="M105.681 70.2223V63.6137H107.755V70.0927C107.755 71.4832 108.647 72.0463 109.604 72.0463C110.561 72.0463 111.467 71.4832 111.467 70.0927V63.6137H113.561V70.2223C113.561 72.5647 111.728 74.005 109.629 74.005C107.529 74.005 105.681 72.5647 105.681 70.2223Z" fill="white"/>
<path d="M118.025 72.0015H121.913V73.8256H115.951V63.6137H118.025V72.0015Z" fill="white"/>
<path d="M127.329 63.6137C130.28 63.6137 131.993 65.8365 131.993 68.7421C131.993 71.6476 130.28 73.8256 127.329 73.8256H123.321V63.6137H127.329ZM127.329 72.0015C129.042 72.0015 129.924 70.5063 129.924 68.7421C129.924 66.9778 129.042 65.4378 127.329 65.4378H125.375V72.0015H127.329Z" fill="white"/>
<path d="M136.006 72.0015H140.515V73.8256H133.937V63.6137H140.375V65.4378H136.006V67.8649H139.839V69.7189H136.006V72.0015Z" fill="white"/>
<path d="M154.388 73.8256H152.269L151.527 67.4961L149.022 72.6693H147.399L144.864 67.4961L144.122 73.8256H142.008L143.276 63.6137H145.034L148.206 70.312L151.352 63.6137H153.14L154.388 73.8256Z" fill="white"/>
<path d="M156.382 73.8256V63.6137H158.451V73.8256H156.382Z" fill="white"/>
<path d="M166.517 63.6137H168.591V73.8256H166.727L163 67.4214V73.8256H160.931V63.6137H162.85L166.517 69.9631V63.6137Z" fill="white"/>
<path d="M177.514 73.8256L176.687 71.3785H172.84L172.018 73.8256H169.814L173.646 63.6137H175.881L179.693 73.8256H177.514ZM173.446 69.5893H176.071L174.758 65.7169L173.446 69.5893Z" fill="white"/>
<path d="M180.219 70.8602H182.288C182.288 71.5878 183.02 72.1959 183.977 72.1959C184.934 72.1959 185.51 71.6975 185.51 70.9649C185.51 70.4017 185.094 70.003 184.212 69.7338L182.96 69.38C180.71 68.7869 180.31 67.4363 180.31 66.5193C180.31 64.6952 181.888 63.4343 183.857 63.4343C185.826 63.4343 187.283 64.6055 187.283 66.5492H185.204C185.209 66.3698 185.175 66.1916 185.105 66.0263C185.035 65.861 184.93 65.7124 184.798 65.5903C184.666 65.4682 184.509 65.3755 184.338 65.3183C184.167 65.2611 183.986 65.2406 183.807 65.2584C183.633 65.2434 183.458 65.2632 183.292 65.3166C183.126 65.3699 182.972 65.4558 182.84 65.5691C182.708 65.6824 182.6 65.8209 182.522 65.9764C182.445 66.1319 182.399 66.3012 182.389 66.4744C182.389 66.7236 182.464 67.2419 183.536 67.5559L184.683 67.8799C186.236 68.3434 187.589 69.1258 187.589 70.8702C187.589 72.9036 185.846 74.015 183.907 74.015C181.722 74.005 180.219 72.6544 180.219 70.8602Z" fill="white"/>
<path d="M195.575 72.0015H199.032V73.8256H192.459V72.774L196.276 68.2237C196.624 67.8576 196.858 67.3987 196.948 66.903C196.942 66.7432 196.903 66.5863 196.833 66.4422C196.764 66.2981 196.665 66.1698 196.543 66.0655C196.421 65.9612 196.279 65.883 196.125 65.8359C195.972 65.7887 195.81 65.7737 195.65 65.7916C195.458 65.7843 195.267 65.815 195.087 65.8819C194.907 65.9488 194.743 66.0506 194.603 66.1814C194.463 66.3122 194.351 66.4693 194.273 66.6437C194.194 66.8181 194.152 67.0062 194.147 67.1971L192.379 66.903C192.614 65.1686 193.746 63.9825 195.7 63.9825C197.654 63.9825 198.917 65.1537 198.917 66.918C198.878 67.8425 198.496 68.7198 197.845 69.38L195.575 72.0015Z" fill="white"/>
<path d="M200.57 68.9912C200.57 66.1903 201.376 63.9825 204.222 63.9825C207.068 63.9825 207.829 66.1903 207.829 68.9912C207.829 71.7921 207.038 74.005 204.222 74.005C201.406 74.005 200.57 71.7523 200.57 68.9912ZM205.835 68.9912C205.835 67.1971 205.475 65.7916 204.222 65.7916C202.97 65.7916 202.554 67.1971 202.554 68.9912C202.554 70.7854 202.94 72.1959 204.222 72.1959C205.505 72.1959 205.835 70.7555 205.835 68.9912Z" fill="white"/>
<path d="M212.313 72.0015H215.765V73.8256H209.197V72.774L213.015 68.2237C213.363 67.8576 213.596 67.3987 213.686 66.903C213.68 66.7432 213.641 66.5863 213.571 66.4422C213.502 66.2981 213.403 66.1698 213.281 66.0655C213.159 65.9612 213.017 65.883 212.864 65.8359C212.71 65.7887 212.548 65.7737 212.388 65.7916C212.197 65.7843 212.005 65.815 211.826 65.8819C211.646 65.9488 211.481 66.0506 211.341 66.1814C211.201 66.3122 211.089 66.4693 211.011 66.6437C210.933 66.8181 210.89 67.0062 210.885 67.1971L209.112 66.903C209.352 65.1686 210.485 63.9825 212.439 63.9825C214.392 63.9825 215.655 65.1537 215.655 66.918C215.617 67.8425 215.235 68.7198 214.583 69.38L212.313 72.0015Z" fill="white"/>
<path d="M220.976 63.9825H221.141V73.8256H219.172V66.6189L216.922 67.4712V65.6471L220.976 63.9825Z" fill="white"/>
<path d="M33.577 72.1709V64.7948C34.7694 64.9111 35.9634 64.9693 37.1592 64.9693C42.0434 64.979 46.8814 64.0286 51.3952 62.1726C55.909 60.3166 60.0097 57.5917 63.4616 54.1544L64.183 53.4367L57.7753 47.0623C57.8153 47.0175 57.8554 46.9677 57.9005 46.9228L58.3414 46.4244C58.4967 46.25 58.647 46.0756 58.7973 45.8961C58.9476 45.7167 59.0779 45.5572 59.2131 45.3978L59.644 44.8446C59.7793 44.6751 59.9045 44.5007 60.0298 44.3462C60.155 44.1917 60.3053 43.9674 60.4356 43.778C60.5658 43.5886 60.676 43.4242 60.7913 43.2447L61.172 42.6517C61.2823 42.4722 61.3925 42.2878 61.4977 42.1034C61.6029 41.919 61.7332 41.6997 61.8484 41.4954L62.149 40.9372C62.2592 40.7279 62.3644 40.5186 62.4646 40.3093C62.5598 40.1199 62.65 39.9305 62.7402 39.7411C62.8303 39.5517 62.9356 39.3125 63.0257 39.0932C63.1159 38.8739 63.1911 38.7144 63.2712 38.5251C63.3514 38.3357 63.4466 38.0765 63.5267 37.8522C63.6069 37.628 63.672 37.4685 63.7422 37.2791C63.8123 37.0897 63.8975 36.8206 63.9676 36.5913C64.0378 36.3621 64.0929 36.2026 64.153 36.0082C64.2131 35.8138 64.2883 35.5397 64.3484 35.3005C64.4085 35.0613 64.4536 34.9167 64.5037 34.7174C64.5538 34.518 64.6139 34.219 64.669 33.9898C64.7241 33.7605 64.7542 33.606 64.7943 33.4116C64.8343 33.2173 64.8844 32.9132 64.9245 32.6541C64.9646 32.3949 64.9896 32.2753 65.0197 32.0859C65.0598 31.8168 65.0848 31.5477 65.1199 31.2785C65.1199 31.1041 65.165 30.9247 65.18 30.7453C65.2101 30.4462 65.2301 30.1422 65.2502 29.8382C65.2502 29.6887 65.2502 29.5442 65.2802 29.3947C65.2802 28.9411 65.3153 28.4826 65.3153 28.0291C65.3165 22.9344 63.9201 17.936 61.2765 13.5725C58.6329 9.20903 54.8425 5.64591 50.3136 3.26715C45.7847 0.888384 40.6891 -0.215826 35.576 0.0735095C30.4629 0.362845 25.526 2.03476 21.2975 4.90907L21.1422 5.01373C20.8316 5.22803 20.526 5.4523 20.2204 5.67658L19.8997 5.93076C19.6543 6.12014 19.3987 6.30952 19.1683 6.50888L18.7324 6.88765C18.532 7.0571 18.3316 7.23154 18.1362 7.41096L18.001 7.52558L11.6032 1.16122L10.8567 1.84899C5.98118 6.6924 2.5556 12.7891 0.962782 19.4578C-0.630033 26.1264 -0.327329 33.1044 1.83707 39.6118C4.00147 46.1191 7.94228 51.8996 13.2191 56.3072C18.496 60.7148 24.901 63.5758 31.7183 64.5706V72.1709H7.03186e-05V74.005H65.3053V72.1709H33.577ZM55.621 9.63873C60.3901 14.3839 63.1266 20.782 63.2565 27.4908C63.3863 34.1996 60.8994 40.6978 56.3174 45.622L51.3475 40.6781C54.611 37.0636 56.3595 32.3433 56.2337 27.4865C56.1079 22.6297 54.1174 18.0052 50.6711 14.5628C50.2102 14.1042 49.7292 13.6756 49.2332 13.2719C49.1531 13.2072 49.0629 13.1523 48.9777 13.0826C48.5569 12.7536 48.126 12.4297 47.6801 12.1356L47.61 12.0958C44.5086 10.0666 40.8762 8.98866 37.1642 8.99581C33.4508 8.99032 29.8173 10.0681 26.7133 12.0958L26.6482 12.1356C26.1973 12.4347 25.7614 12.7586 25.3306 13.0975C25.2554 13.1573 25.1703 13.2072 25.0951 13.2719C24.8596 13.4613 24.6442 13.6756 24.4137 13.88L19.4488 8.94099C24.4067 4.39544 30.9389 1.9321 37.6799 2.06584C44.421 2.19959 50.8492 4.92008 55.621 9.65866V9.63873ZM49.2182 39.9953C48.8115 40.4029 48.3834 40.7889 47.9356 41.1515L47.7403 41.2961C47.3495 41.6001 46.9587 41.8991 46.5479 42.1632L46.4978 42.1981C43.722 43.9956 40.4813 44.9525 37.1692 44.9525C33.8571 44.9525 30.6163 43.9956 27.8406 42.1981C27.8139 42.1861 27.7886 42.1711 27.7654 42.1533C27.3646 41.8941 26.9839 41.6051 26.6081 41.311L26.3777 41.1416C25.9368 40.7827 25.5059 40.399 25.0951 39.9903C22.038 36.9056 20.2819 32.7749 20.1867 28.4442C20.0914 24.1134 21.6641 19.9103 24.5826 16.6955C27.5012 13.4807 31.5448 11.4975 35.8854 11.1519C40.2261 10.8064 44.5353 12.1247 47.9306 14.8369C48.3833 15.2011 48.8164 15.5887 49.2282 15.9981C52.4206 19.1844 54.2123 23.5001 54.2104 27.9988C54.2085 32.4974 52.4132 36.8116 49.2182 39.9953ZM18.001 10.3763L22.9659 15.3153C19.7029 18.9326 17.956 23.6553 18.0836 28.5138C18.2112 33.3723 20.2038 37.9978 23.6522 41.4406C24.1131 41.8941 24.5941 42.3277 25.0901 42.7314C25.1753 42.7962 25.2654 42.856 25.3506 42.9258C25.7715 43.2547 26.1973 43.5737 26.6382 43.8627L26.7384 43.9225C29.8322 45.9372 33.4514 47.0062 37.1491 46.9976C40.8544 47.0051 44.4807 45.9326 47.5799 43.9126C47.6066 43.8932 47.6351 43.8765 47.6651 43.8627C48.111 43.5637 48.5469 43.2397 48.9677 42.9058C49.0479 42.841 49.138 42.7912 49.2132 42.7264C49.4487 42.5321 49.6691 42.3177 49.8946 42.1134L54.8645 47.0574C49.9152 51.6232 43.3798 54.1034 36.6311 53.9769C29.8824 53.8505 23.4455 51.1272 18.6726 46.3792C13.8997 41.6312 11.1622 35.228 11.0351 28.5145C10.908 21.801 13.4012 15.2998 17.9909 10.3763H18.001ZM11.6032 4.01198L12.3347 4.73962L16.5531 8.94099C11.6066 14.2508 8.92074 21.2607 9.05933 28.4986C9.19793 35.7366 12.1502 42.6396 17.2964 47.7582C22.4425 52.8768 29.3821 55.8128 36.658 55.9498C43.934 56.0868 50.9803 53.414 56.3174 48.4927L60.5458 52.6991L61.2722 53.4267C54.6181 59.6462 45.7916 63.045 36.6622 62.9034C27.5327 62.7617 18.8171 59.0907 12.3611 52.6678C5.90518 46.2449 2.21581 37.5745 2.07434 28.4926C1.93286 19.4108 5.3504 10.6308 11.6032 4.01198Z" fill="white"/>
</g>
<defs>
<clipPath id="clip0">
<rect width="331" height="74" fill="white"/>
</clipPath>
</defs>
</svg>
