<svg width="986" height="271" viewBox="0 0 986 271" fill="none" xmlns="http://www.w3.org/2000/svg">
<path d="M2.168 269.728V270.28H11.744V268.696H4.976L9.992 262.768C11.024 261.616 11.72 260.224 11.72 258.688C11.72 256 9.536 254.128 6.824 254.128C4.376 254.128 2.384 255.568 2 257.896L3.464 258.28C3.68 256.648 5.12 255.712 6.824 255.712C8.648 255.712 10.136 256.864 10.136 258.688C10.136 259.744 9.632 260.704 8.84 261.64L2.168 269.728Z" fill="white"/>
<path d="M14.4654 267.16C15.4254 269.128 17.6094 270.52 19.8174 270.52C23.2494 270.52 25.4814 268.456 25.4814 265.264C25.4814 262.024 23.0094 260.224 20.2254 260.224C19.1694 260.224 18.1614 260.632 17.0094 261.208L17.9694 255.928H24.4254V254.32H16.6014L15.2094 262.264L15.8334 263.104C17.7054 262.144 18.6174 261.856 20.2254 261.856C21.9294 261.856 23.8254 263.032 23.8254 265.264C23.8254 267.28 22.3854 268.864 19.8174 268.864C18.1854 268.864 16.4094 267.712 15.8334 266.176L14.4654 267.16Z" fill="white"/>
<path d="M45.8855 259.072H44.2775V260.92C43.4375 259.504 41.6855 258.832 40.0535 258.832C36.8615 258.832 34.3175 261.088 34.3175 264.64C34.3175 268.192 36.8615 270.52 40.0535 270.52C41.6855 270.52 43.4375 269.776 44.2775 268.36V270.28H45.8855V259.072ZM35.9255 264.64C35.9255 262.072 37.7255 260.44 40.0535 260.44C42.0695 260.44 44.2775 261.856 44.2775 264.64C44.2775 267.424 42.3575 268.912 40.0535 268.912C37.7255 268.912 35.9255 267.136 35.9255 264.64Z" fill="white"/>
<path d="M55.6758 269.728V270.28H65.2518V268.696H58.4838L63.4998 262.768C64.5318 261.616 65.2278 260.224 65.2278 258.688C65.2278 256 63.0438 254.128 60.3318 254.128C57.8838 254.128 55.8918 255.568 55.5078 257.896L56.9718 258.28C57.1878 256.648 58.6278 255.712 60.3318 255.712C62.1558 255.712 63.6438 256.864 63.6438 258.688C63.6438 259.744 63.1398 260.704 62.3478 261.64L55.6758 269.728Z" fill="white"/>
<path d="M68.5252 267.856C69.4132 269.944 71.1172 270.472 72.8212 270.544C75.6772 270.664 77.7412 268.576 78.1972 265.768C78.5092 263.8 78.5812 261.976 78.4612 259.528C78.1972 256.264 76.2292 254.272 73.4932 254.152C70.6132 254.032 68.3812 256.24 68.2612 259.096C68.1412 261.904 70.2292 264.328 73.0852 264.448C74.4772 264.52 76.3252 263.896 76.8772 262.48C76.9492 265.816 76.0372 269.08 72.8932 268.96C71.7412 268.888 70.5652 268.528 69.9172 267.256L68.5252 267.856ZM76.8532 259.456C76.7812 261.472 75.1012 262.912 73.1332 262.84C71.1412 262.768 69.7732 261.16 69.8452 259.168C69.9172 257.176 71.4532 255.688 73.4212 255.76C75.3412 255.832 76.8532 257.368 76.8532 259.456Z" fill="white"/>
<path d="M99.323 253H97.715V260.92C96.875 259.504 95.123 258.832 93.491 258.832C90.299 258.832 87.755 261.088 87.755 264.64C87.755 268.192 90.299 270.52 93.491 270.52C95.123 270.52 96.875 269.776 97.715 268.36V270.28H99.323V253ZM89.363 264.64C89.363 262.072 91.163 260.44 93.491 260.44C95.507 260.44 97.715 261.856 97.715 264.64C97.715 267.424 95.795 268.912 93.491 268.912C91.163 268.912 89.363 267.136 89.363 264.64Z" fill="white"/>
<path d="M108.114 270.52C110.394 270.52 112.29 269.368 113.226 267.352C112.722 267.232 112.098 267.112 111.618 266.992C110.922 268.216 109.65 268.936 108.114 268.936C106.05 268.936 104.346 267.568 104.082 265.384H113.586C113.61 265.168 113.61 264.904 113.61 264.64C113.61 261.088 111.306 258.832 108.114 258.832C104.922 258.832 102.45 261.088 102.45 264.64C102.45 268.192 104.922 270.52 108.114 270.52ZM104.082 263.896C104.394 261.76 106.002 260.416 108.114 260.416C110.202 260.416 111.666 261.76 111.978 263.896H104.082Z" fill="white"/>
<path d="M122.305 262.048C122.305 266.752 125.905 270.52 130.609 270.52C135.313 270.52 138.937 266.752 138.937 262.048C138.937 257.368 135.313 253.552 130.609 253.552C125.905 253.552 122.305 257.368 122.305 262.048ZM123.889 262.048C123.889 258.208 126.793 255.136 130.609 255.136C134.425 255.136 137.353 258.208 137.353 262.048C137.353 265.864 134.425 268.936 130.609 268.936C126.793 268.936 123.889 265.864 123.889 262.048Z" fill="white"/>
<path d="M150.067 265.192C150.067 267.928 148.123 268.936 146.347 268.936C144.619 268.936 143.635 267.688 143.635 265.6V259.072H142.027V265.6C142.003 268.672 143.587 270.52 146.347 270.52C147.643 270.52 149.371 269.896 150.067 268.432V270.28H151.675V259.072H150.067V265.192Z" fill="white"/>
<path d="M157.906 270.28V260.512H160.282V259.072H157.906V254.872H156.298V259.072H154.282V260.512H156.298V270.28H157.906Z" fill="white"/>
<path d="M170.833 265.192C170.833 267.928 168.889 268.936 167.113 268.936C165.385 268.936 164.401 267.688 164.401 265.6V259.072H162.793V265.6C162.769 268.672 164.353 270.52 167.113 270.52C168.409 270.52 170.137 269.896 170.833 268.432V270.28H172.441V259.072H170.833V265.192Z" fill="white"/>
<path d="M176.32 270.28H177.928V268.36C178.768 269.776 180.52 270.52 182.152 270.52C185.344 270.52 187.888 268.192 187.888 264.64C187.888 261.088 185.344 258.832 182.152 258.832C180.52 258.832 178.768 259.504 177.928 260.92V253H176.32V270.28ZM186.28 264.64C186.28 267.136 184.48 268.912 182.152 268.912C179.848 268.912 177.928 267.424 177.928 264.64C177.928 261.856 180.136 260.44 182.152 260.44C184.48 260.44 186.28 262.072 186.28 264.64Z" fill="white"/>
<path d="M197.663 259.264C197.447 259.072 196.607 258.832 195.839 258.832C194.207 258.832 193.175 259.696 192.623 261.616V259.072H191.015V270.28H192.623V266.104C192.623 263.128 193.559 260.44 195.839 260.44C196.247 260.44 196.919 260.56 197.471 260.824L197.663 259.264Z" fill="white"/>
<path d="M204.822 270.52C208.014 270.52 210.678 268.192 210.678 264.64C210.678 261.088 208.014 258.832 204.822 258.832C201.63 258.832 198.966 261.088 198.966 264.64C198.966 268.192 201.63 270.52 204.822 270.52ZM204.822 268.936C202.494 268.936 200.55 267.232 200.55 264.64C200.55 262.048 202.494 260.416 204.822 260.416C207.15 260.416 209.094 262.048 209.094 264.64C209.094 267.232 207.15 268.936 204.822 268.936Z" fill="white"/>
<path d="M219.955 263.92V265.432H228.139V263.92H219.955Z" fill="white"/>
<path d="M238.651 253.744V270.28H248.347V268.696H240.235V262.96H247.099V261.376H240.235V255.328H248.083V253.744H238.651Z" fill="white"/>
<path d="M249.694 259.072L254.326 270.28H256.054H256.03L260.686 259.072H258.982L255.19 268.408L251.374 259.072H249.694Z" fill="white"/>
<path d="M267.794 270.52C270.074 270.52 271.97 269.368 272.906 267.352C272.402 267.232 271.778 267.112 271.298 266.992C270.602 268.216 269.33 268.936 267.794 268.936C265.73 268.936 264.026 267.568 263.762 265.384H273.266C273.29 265.168 273.29 264.904 273.29 264.64C273.29 261.088 270.986 258.832 267.794 258.832C264.602 258.832 262.13 261.088 262.13 264.64C262.13 268.192 264.602 270.52 267.794 270.52ZM263.762 263.896C264.074 261.76 265.682 260.416 267.794 260.416C269.882 260.416 271.346 261.76 271.658 263.896H263.762Z" fill="white"/>
<path d="M277.865 264.16C277.865 261.424 279.809 260.416 281.585 260.416C283.313 260.416 284.297 261.664 284.297 263.752V270.28H285.905V263.752C285.929 260.68 284.345 258.832 281.585 258.832C280.289 258.832 278.561 259.456 277.865 260.92V259.072H276.257V270.28H277.865V264.16Z" fill="white"/>
<path d="M291.992 270.28V260.512H294.368V259.072H291.992V254.872H290.384V259.072H288.368V260.512H290.384V270.28H291.992Z" fill="white"/>
<path d="M301.9 270.52C305.092 270.52 307.756 268.192 307.756 264.64C307.756 261.088 305.092 258.832 301.9 258.832C298.708 258.832 296.044 261.088 296.044 264.64C296.044 268.192 298.708 270.52 301.9 270.52ZM301.9 268.936C299.572 268.936 297.628 267.232 297.628 264.64C297.628 262.048 299.572 260.416 301.9 260.416C304.228 260.416 306.172 262.048 306.172 264.64C306.172 267.232 304.228 268.936 301.9 268.936Z" fill="white"/>
<path d="M316.602 262.048C316.602 266.752 320.202 270.52 324.906 270.52C329.61 270.52 333.234 266.752 333.234 262.048C333.234 257.368 329.61 253.552 324.906 253.552C320.202 253.552 316.602 257.368 316.602 262.048ZM318.186 262.048C318.186 258.208 321.09 255.136 324.906 255.136C328.722 255.136 331.65 258.208 331.65 262.048C331.65 265.864 328.722 268.936 324.906 268.936C321.09 268.936 318.186 265.864 318.186 262.048Z" fill="white"/>
<path d="M337.936 264.16C337.936 261.424 339.88 260.416 341.656 260.416C343.384 260.416 344.368 261.664 344.368 263.752V270.28H345.976V263.752C346 260.68 344.416 258.832 341.656 258.832C340.36 258.832 338.632 259.456 337.936 260.92V259.072H336.328V270.28H337.936V264.16Z" fill="white"/>
<path d="M351.294 253H349.711V270.28H351.294V253Z" fill="white"/>
<path d="M356.755 259.072H355.171V270.28H356.755V259.072ZM354.763 254.896C354.763 255.568 355.315 256.048 355.987 256.048C356.659 256.048 357.211 255.568 357.211 254.896C357.211 254.224 356.659 253.744 355.987 253.744C355.315 253.744 354.763 254.224 354.763 254.896Z" fill="white"/>
<path d="M362.24 264.16C362.24 261.424 364.184 260.416 365.96 260.416C367.688 260.416 368.672 261.664 368.672 263.752V270.28H370.28V263.752C370.304 260.68 368.72 258.832 365.96 258.832C364.664 258.832 362.936 259.456 362.24 260.92V259.072H360.632V270.28H362.24V264.16Z" fill="white"/>
<path d="M378.911 270.52C381.191 270.52 383.087 269.368 384.023 267.352C383.519 267.232 382.895 267.112 382.415 266.992C381.719 268.216 380.447 268.936 378.911 268.936C376.847 268.936 375.143 267.568 374.879 265.384H384.383C384.407 265.168 384.407 264.904 384.407 264.64C384.407 261.088 382.103 258.832 378.911 258.832C375.719 258.832 373.247 261.088 373.247 264.64C373.247 268.192 375.719 270.52 378.911 270.52ZM374.879 263.896C375.191 261.76 376.799 260.416 378.911 260.416C380.999 260.416 382.463 261.76 382.775 263.896H374.879Z" fill="white"/>
<path d="M398.646 270.52C400.926 270.52 402.822 269.368 403.758 267.352C403.254 267.232 402.63 267.112 402.15 266.992C401.454 268.216 400.182 268.936 398.646 268.936C396.582 268.936 394.878 267.568 394.614 265.384H404.118C404.142 265.168 404.142 264.904 404.142 264.64C404.142 261.088 401.838 258.832 398.646 258.832C395.454 258.832 392.982 261.088 392.982 264.64C392.982 268.192 395.454 270.52 398.646 270.52ZM394.614 263.896C394.926 261.76 396.534 260.416 398.646 260.416C400.734 260.416 402.198 261.76 402.51 263.896H394.614Z" fill="white"/>
<path d="M422.22 262.168V263.656H427.044C426.852 266.944 424.716 268.936 421.14 268.936C417.324 268.936 414.42 265.864 414.42 262.048C414.42 258.208 417.324 255.136 421.14 255.136C422.748 255.136 424.164 255.664 425.292 256.6L426.42 255.472C424.98 254.248 423.156 253.552 421.14 253.552C416.436 253.552 412.836 257.368 412.836 262.048C412.836 266.752 416.436 270.52 421.14 270.52C425.844 270.52 428.82 267.784 428.82 262.168H422.22Z" fill="white"/>
<path d="M438.273 259.264C438.057 259.072 437.217 258.832 436.449 258.832C434.817 258.832 433.785 259.696 433.233 261.616V259.072H431.625V270.28H433.233V266.104C433.233 263.128 434.169 260.44 436.449 260.44C436.857 260.44 437.529 260.56 438.081 260.824L438.273 259.264Z" fill="white"/>
<path d="M451.143 259.072H449.535V260.92C448.695 259.504 446.943 258.832 445.311 258.832C442.119 258.832 439.575 261.088 439.575 264.64C439.575 268.192 442.119 270.52 445.311 270.52C446.943 270.52 448.695 269.776 449.535 268.36V270.28H451.143V259.072ZM441.183 264.64C441.183 262.072 442.983 260.44 445.311 260.44C447.327 260.44 449.535 261.856 449.535 264.64C449.535 267.424 447.615 268.912 445.311 268.912C442.983 268.912 441.183 267.136 441.183 264.64Z" fill="white"/>
<path d="M457.391 270.28V260.512H459.767V259.072H457.391V254.872H455.783V259.072H453.767V260.512H455.783V270.28H457.391Z" fill="white"/>
<path d="M470.317 265.192C470.317 267.928 468.373 268.936 466.597 268.936C464.869 268.936 463.885 267.688 463.885 265.6V259.072H462.277V265.6C462.253 268.672 463.837 270.52 466.597 270.52C467.893 270.52 469.621 269.896 470.317 268.432V270.28H471.925V259.072H470.317V265.192Z" fill="white"/>
<path d="M477.388 259.072H475.804V270.28H477.388V259.072ZM475.396 254.896C475.396 255.568 475.948 256.048 476.62 256.048C477.292 256.048 477.844 255.568 477.844 254.896C477.844 254.224 477.292 253.744 476.62 253.744C475.948 253.744 475.396 254.224 475.396 254.896Z" fill="white"/>
<path d="M483.617 270.28V260.512H485.993V259.072H483.617V254.872H482.009V259.072H479.993V260.512H482.009V270.28H483.617Z" fill="white"/>
<path d="M493.525 270.52C496.717 270.52 499.381 268.192 499.381 264.64C499.381 261.088 496.717 258.832 493.525 258.832C490.333 258.832 487.669 261.088 487.669 264.64C487.669 268.192 490.333 270.52 493.525 270.52ZM493.525 268.936C491.197 268.936 489.253 267.232 489.253 264.64C489.253 262.048 491.197 260.416 493.525 260.416C495.853 260.416 497.797 262.048 497.797 264.64C497.797 267.232 495.853 268.936 493.525 268.936Z" fill="white"/>
<g clip-path="url(#clip0)">
<path d="M205.976 3.17484H206.506V35.1008H200.195V11.7342L193 14.528V8.6101L205.976 3.17484Z" fill="white"/>
<path d="M233.19 25.9574C233.19 31.6467 228.419 35.685 221.628 35.685C219.581 35.7603 217.552 35.2873 215.746 34.3145C213.941 33.3416 212.425 31.9039 211.353 30.1482L215.695 26.7447C216.315 27.6919 217.153 28.475 218.137 29.0276C219.121 29.5802 220.224 29.8862 221.35 29.9196C224.582 29.9196 226.778 28.0401 226.778 25.4748C226.778 22.9096 224.582 21.0046 221.35 21.0046H218.371V16.1535H220.139C223.547 16.1535 225.491 14.3248 225.364 12.1151C225.238 9.90544 223.622 8.99107 221.35 8.99107C220.336 9.00244 219.337 9.23552 218.422 9.67409C217.506 10.1127 216.697 10.7462 216.049 11.5309L212.59 7.59417C213.745 6.19858 215.193 5.07825 216.83 4.31401C218.467 3.54977 220.252 3.1607 222.057 3.17484C227.561 3.17484 231.852 6.55284 231.751 11.8865C231.72 13.2123 231.318 14.5023 230.59 15.6077C229.862 16.7132 228.838 17.5892 227.636 18.1346C229.264 18.6816 230.679 19.733 231.676 21.1383C232.674 22.5435 233.204 24.2305 233.19 25.9574Z" fill="white"/>
<path d="M252.301 0.431786H257.35V18.3632H252.301V16.0519C251.583 16.8918 250.685 17.5568 249.675 17.9968C248.665 18.4368 247.569 18.6402 246.469 18.5918C244.123 18.4177 241.93 17.3574 240.329 15.6237C238.729 13.8901 237.839 11.6114 237.839 9.24511C237.839 6.87883 238.729 4.60013 240.329 2.86647C241.93 1.1328 244.123 0.072526 246.469 -0.101563C247.57 -0.155685 248.668 0.0451411 249.679 0.4855C250.69 0.92586 251.587 1.59399 252.301 2.4383V0.431786ZM239.123 25.0176V21.5635H256.794V25.1447L239.123 25.0176ZM252.124 9.37215C252.129 8.44176 251.859 7.53081 251.349 6.75478C250.839 5.97874 250.111 5.3725 249.258 5.01296C248.406 4.65343 247.466 4.55674 246.558 4.73516C245.65 4.91359 244.816 5.35914 244.16 6.01525C243.505 6.67136 243.057 7.50848 242.875 8.42063C242.693 9.33278 242.784 10.2789 243.136 11.1389C243.489 11.999 244.088 12.7343 244.856 13.2518C245.625 13.7692 246.529 14.0455 247.454 14.0455C248.067 14.0522 248.675 13.9361 249.243 13.704C249.811 13.4718 250.327 13.1283 250.762 12.6933C251.197 12.2583 251.541 11.7407 251.775 11.1705C252.009 10.6003 252.127 9.98896 252.124 9.37215Z" fill="white"/>
<path d="M267.801 45.6921L268.382 39.571C269.708 39.927 271.074 40.1063 272.447 40.1044C275.35 40.1044 276.511 37.8948 276.511 35.2533V1.98111H283.15V35.2533C283.15 41.2982 280.222 46.4033 272.447 46.4033C270.877 46.3384 269.319 46.0999 267.801 45.6921Z" fill="white"/>
<path d="M288.881 23.9002C288.821 21.4959 289.475 19.1282 290.759 17.0998C292.043 15.0714 293.9 13.4744 296.091 12.5132C298.282 11.552 300.709 11.2701 303.06 11.7037C305.411 12.1372 307.581 13.2665 309.291 14.9471C311.001 16.6277 312.174 18.7832 312.66 21.138C313.146 23.4928 312.922 25.9399 312.019 28.1664C311.115 30.3929 309.571 32.2976 307.586 33.6369C305.6 34.9763 303.263 35.6894 300.872 35.6851C299.31 35.7258 297.755 35.4509 296.3 34.8766C294.846 34.3023 293.52 33.4403 292.402 32.3416C291.284 31.2428 290.396 29.9296 289.791 28.4797C289.187 27.0298 288.877 25.4726 288.881 23.9002ZM306.553 23.9002C306.508 22.7857 306.139 21.709 305.491 20.804C304.843 19.899 303.945 19.2054 302.909 18.8097C301.873 18.4139 300.743 18.3333 299.662 18.578C298.58 18.8226 297.594 19.3818 296.826 20.1858C296.057 20.9898 295.541 22.0032 295.341 23.1002C295.14 24.1971 295.265 25.3291 295.698 26.3555C296.132 27.3818 296.857 28.2571 297.781 28.8728C298.705 29.4884 299.789 29.8171 300.898 29.818C301.658 29.8152 302.409 29.6583 303.108 29.3567C303.806 29.055 304.437 28.6149 304.962 28.0625C305.488 27.5101 305.897 26.8568 306.166 26.1417C306.435 25.4265 306.558 24.6642 306.527 23.9002H306.553Z" fill="white"/>
<path d="M334.07 12.8008L332.631 18.795C331.648 18.2553 330.545 17.9757 329.425 17.9822C326.219 17.9822 324.022 21.0046 324.022 27.4051V35.0246H317.761V12.5723H323.972V17.3726C324.314 15.8682 325.146 14.5217 326.335 13.5463C327.523 12.571 329.002 12.0227 330.536 11.9882C331.76 11.9807 332.97 12.2589 334.07 12.8008Z" fill="white"/>
<path d="M359.29 22.7826V35.1009H353.105V23.1381C353.105 19.6077 350.984 18.0584 348.838 18.0584C348.144 18.0051 347.447 18.1068 346.796 18.3564C346.146 18.606 345.558 18.9973 345.076 19.5022C344.593 20.0071 344.228 20.6132 344.005 21.2769C343.783 21.9406 343.709 22.6456 343.789 23.3414V35.1263H337.528V12.6739H343.789V16.4837C344.345 15.1662 345.278 14.0448 346.469 13.2624C347.661 12.4799 349.057 12.0717 350.479 12.0897C356.26 12.0643 359.34 16.052 359.29 22.7826Z" fill="white"/>
<path d="M382.036 12.6485H388.296V35.1009H382.036V31.8753C381.212 33.0647 380.113 34.0335 378.832 34.6976C377.552 35.3616 376.13 35.7006 374.689 35.6851C368.504 35.6851 363.935 30.8594 363.935 23.9001C363.935 16.9409 368.428 12.0644 374.815 12.0644C376.216 12.0213 377.605 12.3227 378.863 12.9423C380.122 13.562 381.21 14.4812 382.036 15.6202V12.6485ZM381.834 23.9001C381.844 23.1242 381.701 22.3538 381.414 21.6334C381.128 20.913 380.702 20.2567 380.163 19.7021C379.623 19.1475 378.98 18.7057 378.271 18.4018C377.561 18.0979 376.798 17.9381 376.027 17.9315C374.46 17.9315 372.958 18.5576 371.85 19.6722C370.742 20.7868 370.12 22.2985 370.12 23.8747C370.12 25.451 370.742 26.9627 371.85 28.0773C372.958 29.1918 374.46 29.818 376.027 29.818C377.574 29.7979 379.051 29.1656 380.138 28.058C381.224 26.9503 381.834 25.4565 381.834 23.9001Z" fill="white"/>
<path d="M411.345 0.431763H417.606V35.1009H411.345V32.3071C410.487 33.3849 409.394 34.25 408.151 34.8357C406.908 35.4214 405.548 35.712 404.176 35.6851C401.195 35.4883 398.401 34.1585 396.359 31.9653C394.318 29.772 393.182 26.8796 393.182 23.8747C393.182 20.8698 394.318 17.9774 396.359 15.7842C398.401 13.5909 401.195 12.2611 404.176 12.0644C405.546 12.0177 406.908 12.2942 408.153 12.872C409.398 13.4497 410.491 14.3126 411.345 15.3916V0.431763ZM411.168 23.8493C411.169 22.2972 410.563 20.8072 409.481 19.7002C408.4 18.5933 406.93 17.9581 405.387 17.9315C404.621 17.9347 403.862 18.0908 403.155 18.3906C402.449 18.6904 401.808 19.1281 401.271 19.6783C400.733 20.2285 400.31 20.8804 400.024 21.5963C399.738 22.3122 399.596 23.0779 399.606 23.8493C399.606 25.3919 400.215 26.8713 401.299 27.9621C402.384 29.0528 403.854 29.6656 405.387 29.6656C406.921 29.6656 408.391 29.0528 409.475 27.9621C410.559 26.8713 411.168 25.3919 411.168 23.8493Z" fill="white"/>
<path d="M440.705 12.6485H446.966V35.1009H440.705V31.8753C439.877 33.0651 438.772 34.0338 437.488 34.6977C436.203 35.3615 434.777 35.7004 433.334 35.6851C431.841 35.6758 430.367 35.3571 429.003 34.7489C427.638 34.1407 426.413 33.256 425.404 32.15C424.395 31.0441 423.623 29.7407 423.137 28.3213C422.651 26.9018 422.461 25.3968 422.579 23.9001C422.579 16.9409 427.073 12.0644 433.485 12.0644C434.885 12.0257 436.273 12.3289 437.53 12.9482C438.788 13.5675 439.877 14.4844 440.705 15.6202V12.6485ZM440.503 23.9001C440.51 23.123 440.364 22.3521 440.075 21.6316C439.785 20.911 439.358 20.2549 438.816 19.7006C438.275 19.1464 437.63 18.7049 436.919 18.4013C436.208 18.0978 435.444 17.9381 434.672 17.9315C433.907 17.9412 433.152 18.1041 432.451 18.4107C431.749 18.7173 431.116 19.1614 430.587 19.7171C430.058 20.2727 429.645 20.9288 429.371 21.647C429.097 22.3652 428.968 23.1312 428.991 23.9001C428.981 24.6673 429.122 25.4289 429.404 26.1415C429.687 26.8541 430.106 27.5037 430.638 28.0532C431.17 28.6028 431.805 29.0415 432.506 29.3443C433.206 29.6471 433.96 29.808 434.722 29.818C436.264 29.7913 437.735 29.1561 438.816 28.0492C439.898 26.9423 440.503 25.4522 440.503 23.9001Z" fill="white"/>
<path d="M463.527 18.5156C463.493 14.0178 465.233 9.6901 468.366 6.48115C471.499 3.27221 475.769 1.44387 480.239 1.39693C482.862 1.3768 485.452 1.99159 487.789 3.18952C490.127 4.38744 492.143 6.13334 493.67 8.27994L488.621 11.9882C487.733 10.6498 486.526 9.5559 485.111 8.80623C483.695 8.05657 482.116 7.67489 480.517 7.69582C477.658 7.69582 474.916 8.8384 472.894 10.8723C470.873 12.9061 469.737 15.6647 469.737 18.541C469.737 21.4173 470.873 24.1759 472.894 26.2097C474.916 28.2436 477.658 29.3862 480.517 29.3862C482.123 29.4064 483.709 29.0248 485.133 28.2756C486.556 27.5264 487.772 26.433 488.671 25.0939L493.72 28.8021C492.194 30.9487 490.177 32.6946 487.84 33.8925C485.502 35.0904 482.913 35.7052 480.29 35.6851C478.066 35.6718 475.868 35.2164 473.82 34.3451C471.773 33.4738 469.916 32.2038 468.359 30.6081C466.801 29.0124 465.572 27.1226 464.743 25.0473C463.913 22.972 463.5 20.7521 463.527 18.5156Z" fill="white"/>
<path d="M497.002 4.90191C496.961 4.10081 497.161 3.30587 497.574 2.61977C497.987 1.93366 498.595 1.38786 499.319 1.05274C500.043 0.71762 500.851 0.608627 501.637 0.739754C502.424 0.870881 503.153 1.23612 503.732 1.78839C504.31 2.34067 504.71 3.05461 504.881 3.83808C505.052 4.62155 504.986 5.43859 504.691 6.18378C504.396 6.92896 503.886 7.56808 503.226 8.01868C502.567 8.46928 501.788 8.71067 500.99 8.7117C500.48 8.72522 499.972 8.63738 499.495 8.45321C499.018 8.26903 498.582 7.99214 498.211 7.63834C497.841 7.28453 497.543 6.86072 497.336 6.3912C497.128 5.92167 497.015 5.41561 497.002 4.90191ZM497.885 35.1008V12.6485H504.121V35.1008H497.885Z" fill="white"/>
<path d="M532.093 25.9066H515.305C515.607 27.1773 516.351 28.2976 517.401 29.0659C518.452 29.8341 519.74 30.1999 521.035 30.0974C522.137 30.1087 523.23 29.8887 524.242 29.4514C525.255 29.0141 526.166 28.369 526.917 27.5575L530.553 31.2658C529.35 32.7233 527.835 33.8874 526.121 34.6705C524.407 35.4536 522.538 35.8352 520.656 35.7867C517.543 35.7867 514.557 34.5424 512.356 32.3275C510.154 30.1126 508.917 27.1087 508.917 23.9764C508.917 20.8441 510.154 17.84 512.356 15.6252C514.557 13.4103 517.543 12.1659 520.656 12.1659C522.179 12.1032 523.698 12.3548 525.12 12.9052C526.542 13.4557 527.837 14.2934 528.925 15.3666C530.013 16.4398 530.871 17.7259 531.446 19.1454C532.022 20.565 532.302 22.0881 532.269 23.6207C532.345 24.1033 532.168 24.9161 532.093 25.9066ZM525.908 21.8175C525.798 20.5749 525.207 19.4254 524.263 18.6175C523.318 17.8096 522.095 17.4081 520.858 17.4997C519.581 17.4178 518.318 17.8131 517.312 18.6098C516.305 19.4065 515.627 20.5486 515.406 21.8175H525.908Z" fill="white"/>
<path d="M558.777 22.7825V35.1008H552.541V23.1381C552.541 19.6077 550.446 18.0584 548.3 18.0584C547.607 18.0096 546.912 18.1145 546.263 18.3657C545.615 18.6169 545.029 19.0083 544.548 19.5122C544.066 20.016 543.701 20.6201 543.476 21.2817C543.252 21.9434 543.175 22.6465 543.251 23.3413V35.1262H536.99V12.6739H543.251V16.4837C543.81 15.1681 544.743 14.0486 545.934 13.2666C547.125 12.4846 548.519 12.075 549.941 12.0897C555.773 12.0643 558.827 16.0519 558.777 22.7825Z" fill="white"/>
<path d="M577.408 12.6485V17.5505H572.737V35.1008H566.426V17.5505H562.361V12.6485H566.426V4.47012H572.737V12.6485H577.408Z" fill="white"/>
<path d="M581.144 8.6101L585.688 0.634979H592.05L585.789 8.6101H581.144ZM581.144 35.1008V12.6485H587.405V35.1008H581.144Z" fill="white"/>
<path d="M617.244 12.6485V35.1009H610.984V17.5505H601.895V35.1009H595.634V17.5505H591.418V12.6485H595.634V11.023C595.634 4.29239 599.068 0.431763 605.43 0.431763H606.919V6.32426H606.01C602.905 6.32426 601.895 8.00056 601.895 10.3626V12.6739L617.244 12.6485ZM610.1 4.90194C610.116 4.39266 610.233 3.89162 610.442 3.42777C610.652 2.96393 610.951 2.54647 611.321 2.19939C611.692 1.8523 612.128 1.58248 612.603 1.40553C613.078 1.22857 613.583 1.14797 614.089 1.16834C614.594 1.14449 615.1 1.22288 615.575 1.39886C616.05 1.57484 616.485 1.8448 616.854 2.19288C617.224 2.54095 617.52 2.96007 617.726 3.42537C617.932 3.89067 618.043 4.39276 618.052 4.90194C618.046 5.4155 617.938 5.92261 617.734 6.39355C617.53 6.8645 617.235 7.28978 616.866 7.64457C616.497 7.99937 616.061 8.27651 615.584 8.45975C615.107 8.64299 614.599 8.72867 614.089 8.71174C613.578 8.72525 613.07 8.63741 612.593 8.45324C612.116 8.26906 611.68 7.99218 611.31 7.63837C610.939 7.28457 610.642 6.86075 610.434 6.39123C610.227 5.9217 610.113 5.41565 610.1 4.90194Z" fill="white"/>
<path d="M622.117 23.7985C622.122 22.2115 622.446 20.6419 623.069 19.1839C623.692 17.7259 624.601 16.4094 625.742 15.3136C626.883 14.2178 628.233 13.3652 629.709 12.8069C631.186 12.2485 632.759 11.996 634.335 12.0644C636.177 12.0344 637.998 12.4586 639.64 13.2998C641.281 14.1409 642.693 15.3736 643.752 16.8901L639.031 20.1919C638.477 19.4861 637.771 18.916 636.967 18.5244C636.162 18.1329 635.28 17.9302 634.386 17.9315C633.608 17.8998 632.832 18.0294 632.106 18.312C631.38 18.5947 630.72 19.0245 630.166 19.5746C629.612 20.1248 629.176 20.7836 628.886 21.5102C628.596 22.2368 628.457 23.0157 628.478 23.7985C628.451 24.5901 628.584 25.3789 628.87 26.1168C629.156 26.8547 629.589 27.5261 630.142 28.0897C630.695 28.6533 631.357 29.0973 632.087 29.3945C632.816 29.6917 633.599 29.8358 634.386 29.818C635.28 29.8193 636.162 29.6165 636.967 29.225C637.771 28.8334 638.477 28.2633 639.031 27.5575L643.752 30.8594C642.693 32.3759 641.281 33.6085 639.64 34.4497C637.998 35.2909 636.177 35.715 634.335 35.6851C632.751 35.7361 631.173 35.4665 629.694 34.8924C628.215 34.3182 626.866 33.4511 625.726 32.3426C624.587 31.2341 623.68 29.9066 623.06 28.4389C622.44 26.9713 622.119 25.3933 622.117 23.7985Z" fill="white"/>
<path d="M664.529 12.6484H670.789V35.1008H664.529V31.8752C663.709 33.0678 662.61 34.0391 661.329 34.7035C660.047 35.3679 658.624 35.705 657.182 35.685C655.69 35.6757 654.216 35.3571 652.851 34.7488C651.487 34.1406 650.262 33.2559 649.253 32.15C648.244 31.0441 647.472 29.7407 646.986 28.3212C646.5 26.9018 646.31 25.3967 646.428 23.9001C646.428 16.9409 650.921 12.0643 657.334 12.0643C658.73 12.0232 660.115 12.3257 661.369 12.9453C662.623 13.565 663.707 14.4831 664.529 15.6201V12.6484ZM664.352 23.9001C664.359 23.1229 664.213 22.3521 663.924 21.6315C663.634 20.911 663.206 20.2548 662.665 19.7006C662.123 19.1463 661.479 18.7048 660.767 18.4013C660.056 18.0977 659.293 17.938 658.52 17.9314C657.756 17.9412 657.001 18.1041 656.299 18.4107C655.598 18.7172 654.965 19.1613 654.436 19.717C653.907 20.2727 653.493 20.9287 653.219 21.6469C652.946 22.3652 652.817 23.1312 652.84 23.9001C652.83 24.6673 652.97 25.4289 653.253 26.1415C653.536 26.8541 653.955 27.5036 654.487 28.0532C655.019 28.6027 655.654 29.0415 656.354 29.3443C657.055 29.6471 657.808 29.808 658.571 29.8179C660.113 29.7913 661.584 29.1561 662.665 28.0492C663.746 26.9422 664.352 25.4522 664.352 23.9001Z" fill="white"/>
<path d="M710.475 25.9066H693.712C694.01 27.1799 694.752 28.3033 695.804 29.0724C696.856 29.8415 698.147 30.2052 699.443 30.0974C700.545 30.1087 701.637 29.8887 702.65 29.4514C703.663 29.0141 704.574 28.369 705.325 27.5575L708.96 31.2658C707.758 32.7233 706.242 33.8874 704.528 34.6705C702.814 35.4536 700.946 35.8352 699.064 35.7867C695.951 35.7867 692.965 34.5424 690.763 32.3275C688.562 30.1126 687.325 27.1087 687.325 23.9764C687.325 20.8441 688.562 17.84 690.763 15.6252C692.965 13.4103 695.951 12.1659 699.064 12.1659C700.586 12.1032 702.105 12.3548 703.528 12.9052C704.95 13.4557 706.245 14.2934 707.333 15.3666C708.421 16.4398 709.279 17.7259 709.854 19.1454C710.429 20.565 710.709 22.0881 710.677 23.6207C710.626 24.1033 710.576 24.9161 710.475 25.9066ZM704.315 21.8175C704.205 20.5749 703.615 19.4254 702.67 18.6175C701.725 17.8096 700.502 17.4081 699.266 17.4997C697.987 17.412 696.721 17.8052 695.714 18.6029C694.706 19.4006 694.029 20.5461 693.813 21.8175H704.315Z" fill="white"/>
<path d="M749.453 1.98111V7.89895H740.365V35.1008H733.725V7.89895H724.662V1.98111H749.453Z" fill="white"/>
<path d="M772.401 25.9066H755.613C755.916 27.1773 756.659 28.2976 757.71 29.0659C758.76 29.8341 760.049 30.1999 761.344 30.0974C762.446 30.1087 763.538 29.8887 764.551 29.4514C765.564 29.0141 766.475 28.369 767.226 27.5575L770.861 31.2658C769.659 32.7233 768.143 33.8874 766.429 34.6705C764.715 35.4536 762.847 35.8352 760.965 35.7867C757.852 35.7867 754.866 34.5424 752.664 32.3275C750.463 30.1126 749.226 27.1087 749.226 23.9764C749.226 20.8441 750.463 17.84 752.664 15.6252C754.866 13.4103 757.852 12.1659 760.965 12.1659C762.487 12.1032 764.006 12.3548 765.428 12.9052C766.851 13.4557 768.146 14.2934 769.234 15.3666C770.322 16.4398 771.18 17.7259 771.755 19.1454C772.33 20.565 772.61 22.0881 772.578 23.6207C772.527 24.1033 772.477 24.9161 772.401 25.9066ZM766.216 21.8175C766.106 20.5749 765.516 19.4254 764.571 18.6175C763.626 17.8096 762.403 17.4081 761.167 17.4997C759.889 17.4178 758.626 17.8131 757.62 18.6098C756.614 19.4065 755.935 20.5486 755.714 21.8175H766.216Z" fill="white"/>
<path d="M776.036 23.7985C776.042 22.2092 776.366 20.6374 776.991 19.1776C777.615 17.7179 778.527 16.4003 779.671 15.3041C780.815 14.208 782.167 13.3558 783.646 12.7991C785.126 12.2423 786.702 11.9924 788.28 12.0644C790.122 12.0366 791.942 12.4617 793.583 13.3027C795.224 14.1437 796.636 15.3752 797.697 16.8901L792.951 20.1919C792.402 19.4866 791.701 18.9165 790.9 18.5249C790.1 18.1332 789.221 17.9302 788.331 17.9314C787.552 17.9 786.775 18.0295 786.048 18.3119C785.32 18.5943 784.658 19.0236 784.103 19.5733C783.547 20.1231 783.109 20.7817 782.815 21.5084C782.522 22.2351 782.38 23.0145 782.398 23.7985C782.374 24.5913 782.511 25.3807 782.799 26.1186C783.088 26.8566 783.524 27.5277 784.079 28.0909C784.634 28.6541 785.297 29.0977 786.028 29.3946C786.759 29.6915 787.543 29.8356 788.331 29.818C789.221 29.8192 790.1 29.6162 790.9 29.2245C791.701 28.8329 792.402 28.2627 792.951 27.5575L797.697 30.8593C796.636 32.3742 795.224 33.6057 793.583 34.4467C791.942 35.2877 790.122 35.7128 788.28 35.685C786.694 35.7395 785.113 35.4725 783.631 34.8999C782.149 34.3273 780.797 33.4608 779.655 32.3519C778.513 31.243 777.604 29.9144 776.982 28.445C776.361 26.9756 776.039 25.3955 776.036 23.7985Z" fill="white"/>
<path d="M823.724 22.7825V35.1008H817.464V23.1381C817.464 19.6077 815.343 18.0584 813.197 18.0584C812.504 18.0096 811.809 18.1145 811.161 18.3657C810.512 18.6169 809.927 19.0083 809.445 19.5122C808.963 20.016 808.598 20.6201 808.374 21.2817C808.15 21.9434 808.073 22.6465 808.148 23.3413V35.1262H801.913V12.6739H808.148V16.4837C808.707 15.1681 809.641 14.0486 810.831 13.2666C812.022 12.4846 813.416 12.075 814.838 12.0897C820.695 12.0643 823.775 16.0519 823.724 22.7825Z" fill="white"/>
<path d="M828.243 23.9002C828.188 21.5029 828.844 19.1435 830.128 17.1231C831.411 15.1027 833.264 13.5131 835.45 12.557C837.636 11.6009 840.055 11.3216 842.399 11.7551C844.743 12.1886 846.906 13.3151 848.611 14.9906C850.316 16.6662 851.485 18.8149 851.971 21.1624C852.457 23.51 852.236 25.9499 851.337 28.1707C850.438 30.3915 848.902 32.2924 846.925 33.6308C844.947 34.9692 842.618 35.6844 840.234 35.6851C838.672 35.7258 837.117 35.4509 835.663 34.8766C834.208 34.3023 832.882 33.4403 831.764 32.3416C830.646 31.2428 829.758 29.9296 829.154 28.4797C828.549 27.0298 828.239 25.4726 828.243 23.9002ZM845.915 23.9002C845.865 22.7921 845.493 21.723 844.846 20.8256C844.198 19.9282 843.302 19.2419 842.27 18.8519C841.238 18.4619 840.115 18.3853 839.04 18.6317C837.965 18.8781 836.986 19.4366 836.224 20.2379C835.461 21.0392 834.95 22.048 834.752 23.1392C834.555 24.2304 834.68 25.356 835.112 26.3762C835.545 27.3965 836.266 28.2664 837.185 28.8783C838.105 29.4901 839.183 29.8169 840.285 29.818C841.041 29.8084 841.787 29.6466 842.479 29.3419C843.172 29.0373 843.797 28.5961 844.317 28.0444C844.837 27.4927 845.242 26.8417 845.508 26.1299C845.773 25.4181 845.895 24.6599 845.864 23.9002H845.915Z" fill="white"/>
<path d="M857.098 35.1009V0.431763H863.359V35.1009H857.098Z" fill="white"/>
<path d="M868.105 23.9001C868.05 21.5029 868.706 19.1435 869.99 17.1231C871.274 15.1027 873.127 13.5131 875.312 12.557C877.498 11.6008 879.917 11.3216 882.261 11.7551C884.605 12.1886 886.768 13.3151 888.473 14.9906C890.178 16.6662 891.348 18.8148 891.834 21.1624C892.319 23.5099 892.099 25.9499 891.2 28.1707C890.301 30.3914 888.764 32.2924 886.787 33.6308C884.809 34.9692 882.48 35.6844 880.097 35.6851C878.534 35.7258 876.98 35.4509 875.525 34.8766C874.07 34.3023 872.744 33.4403 871.626 32.3416C870.508 31.2428 869.621 29.9296 869.016 28.4797C868.411 27.0298 868.101 25.4725 868.105 23.9001ZM885.777 23.9001C885.732 22.7857 885.363 21.709 884.716 20.804C884.068 19.8989 883.17 19.2054 882.133 18.8096C881.097 18.4139 879.968 18.3333 878.886 18.578C877.805 18.8226 876.818 19.3817 876.05 20.1858C875.282 20.9898 874.765 22.0032 874.565 23.1002C874.365 24.1971 874.489 25.3291 874.923 26.3554C875.357 27.3818 876.081 28.2571 877.005 28.8727C877.93 29.4884 879.014 29.8171 880.122 29.818C880.883 29.8151 881.636 29.6583 882.336 29.357C883.035 29.0556 883.668 28.6159 884.195 28.0638C884.723 27.5118 885.135 26.8588 885.406 26.1435C885.678 25.4282 885.804 24.6654 885.777 23.9001ZM878.027 8.86412L882.52 0.888916H888.882L882.672 8.86412H878.027Z" fill="white"/>
<path d="M913.85 12.6485H920.11V32.3071C920.11 42.111 915.061 46.6827 907.311 46.6827C905.038 46.7085 902.806 46.0756 900.881 44.8596C898.956 43.6436 897.42 41.8958 896.456 39.8251L901.681 37.5645C902.207 38.6142 903.011 39.497 904.005 40.1156C904.998 40.7341 906.143 41.0643 907.311 41.0696C911.325 41.0696 913.85 38.8091 913.85 32.9928V32.3579C912.977 33.4089 911.884 34.2524 910.648 34.8277C909.413 35.403 908.066 35.6958 906.705 35.6851C903.725 35.4883 900.93 34.1585 898.889 31.9653C896.847 29.772 895.711 26.8796 895.711 23.8747C895.711 20.8698 896.847 17.9774 898.889 15.7842C900.93 13.591 903.725 12.2611 906.705 12.0644C908.064 12.0384 909.411 12.3193 910.647 12.8863C911.884 13.4533 912.978 14.292 913.85 15.3408V12.6485ZM913.673 23.8493C913.667 22.2992 913.059 20.8129 911.979 19.7074C910.899 18.6018 909.432 17.9646 907.892 17.9315C907.125 17.9348 906.366 18.0908 905.66 18.3906C904.953 18.6905 904.313 19.1281 903.775 19.6783C903.238 20.2285 902.814 20.8804 902.528 21.5963C902.242 22.3122 902.1 23.0779 902.11 23.8493C902.11 24.6131 902.26 25.3694 902.551 26.0751C902.841 26.7808 903.267 27.422 903.804 27.9621C904.341 28.5022 904.978 28.9306 905.679 29.2229C906.381 29.5152 907.132 29.6656 907.892 29.6656C908.651 29.6656 909.403 29.5152 910.104 29.2229C910.805 28.9306 911.443 28.5022 911.98 27.9621C912.516 27.422 912.942 26.7808 913.233 26.0751C913.523 25.3694 913.673 24.6131 913.673 23.8493Z" fill="white"/>
<path d="M925.487 4.90195C925.452 4.10667 925.654 3.31899 926.068 2.64028C926.481 1.96156 927.087 1.42289 927.808 1.09363C928.528 0.764383 929.33 0.659625 930.11 0.792817C930.89 0.926009 931.613 1.29106 932.185 1.84099C932.757 2.39092 933.152 3.10054 933.32 3.87851C933.488 4.65647 933.421 5.46717 933.126 6.20622C932.832 6.94527 932.325 7.57886 931.67 8.02539C931.015 8.47192 930.242 8.71095 929.451 8.71175C928.424 8.73222 927.431 8.34306 926.688 7.62923C925.946 6.91541 925.514 5.93493 925.487 4.90195ZM926.346 35.1009V12.6485H932.606V35.1009H926.346Z" fill="white"/>
<path d="M937.302 23.7985C937.311 22.2103 937.638 20.6401 938.264 19.182C938.889 17.7239 939.801 16.4078 940.944 15.3123C942.087 14.2168 943.438 13.3645 944.916 12.8065C946.394 12.2484 947.969 11.996 949.546 12.0644C951.388 12.0344 953.209 12.4585 954.851 13.2997C956.492 14.1409 957.904 15.3736 958.963 16.8901L954.242 20.1919C953.688 19.4861 952.982 18.916 952.177 18.5244C951.373 18.1329 950.49 17.9301 949.597 17.9315C948.818 17.9 948.041 18.0295 947.313 18.3119C946.586 18.5943 945.924 19.0236 945.368 19.5734C944.812 20.1231 944.374 20.7817 944.081 21.5084C943.788 22.2351 943.646 23.0145 943.664 23.7985C943.64 24.5913 943.776 25.3807 944.065 26.1186C944.354 26.8566 944.789 27.5277 945.345 28.0909C945.9 28.6541 946.563 29.0977 947.294 29.3946C948.025 29.6916 948.808 29.8356 949.597 29.818C950.49 29.8193 951.373 29.6165 952.177 29.225C952.982 28.8334 953.688 28.2633 954.242 27.5575L958.963 30.8593C957.904 32.3759 956.492 33.6085 954.851 34.4497C953.209 35.2909 951.388 35.715 949.546 35.6851C947.961 35.736 946.381 35.4666 944.901 34.8928C943.421 34.3189 942.07 33.4522 940.928 32.344C939.787 31.2358 938.878 29.9086 938.255 28.4408C937.632 26.973 937.308 25.3945 937.302 23.7985Z" fill="white"/>
<path d="M979.739 12.6485H986V35.1009H979.739V31.8753C978.914 33.0682 977.81 34.0394 976.525 34.7036C975.24 35.3678 973.812 35.7048 972.367 35.685C966.208 35.685 961.638 30.8594 961.638 23.9001C961.638 16.9409 966.107 12.0644 972.519 12.0644C973.919 12.0213 975.309 12.3227 976.567 12.9423C977.825 13.562 978.914 14.4812 979.739 15.6202V12.6485ZM979.537 23.9001C979.547 23.1242 979.405 22.3538 979.118 21.6334C978.831 20.913 978.406 20.2567 977.867 19.7021C977.327 19.1475 976.684 18.7056 975.974 18.4018C975.264 18.0979 974.502 17.9381 973.731 17.9314C972.164 17.9314 970.661 18.5576 969.554 19.6722C968.446 20.7868 967.823 22.2985 967.823 23.8747C967.823 25.451 968.446 26.9627 969.554 28.0772C970.661 29.1918 972.164 29.818 973.731 29.818C975.278 29.7979 976.754 29.1656 977.841 28.0579C978.928 26.9503 979.537 25.4565 979.537 23.9001Z" fill="white"/>
<path d="M205.976 75.3323H206.506V107.258H200.195V83.8917L193 86.6855V80.7676L205.976 75.3323Z" fill="white"/>
<path d="M213.146 91.5874C213.146 82.4947 215.67 75.3323 224.859 75.3323C234.049 75.3323 236.422 82.4947 236.422 91.5874C236.422 100.68 233.897 107.843 224.859 107.843C215.822 107.843 213.146 100.528 213.146 91.5874ZM230.035 91.5874C230.035 85.7712 228.873 81.1994 224.859 81.1994C220.845 81.1994 219.507 85.7712 219.507 91.5874C219.507 97.4037 220.744 101.975 224.859 101.975C228.974 101.975 230.035 97.3021 230.035 91.5874Z" fill="white"/>
<path d="M241.698 81.7835C241.638 79.8578 242.15 77.9578 243.17 76.3269C244.189 74.6959 245.669 73.4084 247.421 72.629C249.172 71.8496 251.115 71.6139 253 71.9522C254.885 72.2904 256.627 73.1872 258.003 74.5276C259.379 75.868 260.325 77.591 260.722 79.476C261.118 81.3609 260.946 83.3221 260.228 85.1081C259.51 86.8941 258.278 88.4238 256.69 89.5012C255.102 90.5786 253.231 91.1547 251.316 91.1556C250.065 91.2073 248.816 91.0026 247.646 90.5538C246.476 90.1051 245.409 89.4216 244.509 88.5451C243.61 87.6685 242.896 86.6171 242.413 85.4548C241.93 84.2925 241.687 83.0434 241.698 81.7835ZM242.531 93.8987H260.203V97.4545H242.531V93.8987ZM255.86 81.7835C255.836 80.8851 255.548 80.0141 255.034 79.2792C254.52 78.5442 253.802 77.9781 252.97 77.6514C252.137 77.3248 251.228 77.2521 250.355 77.4426C249.482 77.6331 248.684 78.0783 248.061 78.7224C247.438 79.3665 247.018 80.1811 246.852 81.0643C246.687 81.9475 246.784 82.8601 247.132 83.6881C247.479 84.5161 248.061 85.2228 248.805 85.7197C249.55 86.2167 250.423 86.4819 251.316 86.4823C251.926 86.4897 252.53 86.3722 253.093 86.1371C253.656 85.9019 254.166 85.5539 254.591 85.1144C255.016 84.6748 255.348 84.1528 255.566 83.5802C255.784 83.0076 255.884 82.3963 255.86 81.7835Z" fill="white"/>
<path d="M277.142 97.7593H283.781C283.969 99.0342 284.632 100.19 285.635 100.991C286.638 101.793 287.907 102.181 289.184 102.077C292.138 102.077 294.107 100.452 294.107 98.0894C294.107 96.2607 292.769 94.9654 289.941 94.1018L285.927 92.9335C278.707 91.0032 277.42 86.6347 277.42 83.6631C277.42 77.7452 282.469 73.656 288.805 73.656C295.142 73.656 299.787 77.4658 299.787 83.8154H293.147C293.161 83.2328 293.051 82.6539 292.826 82.117C292.6 81.5802 292.264 81.0977 291.839 80.7015C291.414 80.3053 290.911 80.0043 290.361 79.8187C289.812 79.6331 289.23 79.5669 288.654 79.6246C288.097 79.5761 287.536 79.6401 287.005 79.8128C286.473 79.9855 285.981 80.2634 285.558 80.6302C285.134 80.997 284.788 81.4453 284.539 81.9487C284.291 82.4521 284.145 83.0004 284.11 83.5614C284.11 84.3742 284.362 86.1013 287.795 87.0665L291.481 88.1332C296.53 89.6317 300.797 92.1715 300.797 97.81C300.797 104.388 295.192 107.969 288.982 107.969C281.964 107.919 277.142 103.474 277.142 97.7593Z" fill="white"/>
<path d="M305.139 77.0594C305.104 76.2641 305.306 75.4764 305.719 74.7977C306.133 74.119 306.739 73.5804 307.459 73.2511C308.18 72.9219 308.981 72.817 309.761 72.9502C310.542 73.0834 311.264 73.4485 311.836 73.9985C312.408 74.5484 312.804 75.258 312.972 76.036C313.139 76.8139 313.072 77.6246 312.778 78.3637C312.484 79.1027 311.977 79.7363 311.322 80.1829C310.666 80.6294 309.894 80.8684 309.102 80.8692C308.075 80.8897 307.082 80.5005 306.34 79.7867C305.597 79.0729 305.165 78.0924 305.139 77.0594ZM305.997 107.258V84.806H312.258V107.258H305.997Z" fill="white"/>
<path d="M354.165 94.9401V107.258H347.854V95.2194C347.854 91.7144 346.036 90.1397 343.84 90.1397C341.164 90.1397 339.447 92.0192 339.447 96.21V107.258H333.186V95.2194C333.186 91.6636 331.369 90.1397 329.273 90.1397C327.178 90.1397 324.729 91.3842 324.729 95.4226V107.258H318.468V84.806H324.729V89.1745C325.041 87.7375 325.843 86.4556 326.995 85.551C328.148 84.6464 329.579 84.1762 331.04 84.2219C332.536 84.1635 334.015 84.552 335.291 85.3386C336.567 86.1251 337.583 87.2743 338.21 88.6412C338.949 87.2776 340.046 86.1444 341.382 85.3651C342.717 84.5858 344.24 84.1903 345.783 84.2219C351.236 84.2219 354.165 88.2348 354.165 94.9401Z" fill="white"/>
<path d="M384.56 96.0068C384.649 97.5141 384.433 99.0239 383.926 100.445C383.419 101.866 382.631 103.169 381.609 104.275C380.587 105.381 379.354 106.268 377.982 106.881C376.61 107.494 375.13 107.821 373.629 107.843C372.255 107.879 370.892 107.593 369.647 107.007C368.402 106.42 367.311 105.55 366.459 104.465V118.281H360.198V84.806H366.459V87.5999C367.321 86.5299 368.416 85.6733 369.659 85.0964C370.902 84.5196 372.26 84.2377 373.629 84.2727C375.12 84.2982 376.59 84.6246 377.953 85.2326C379.316 85.8407 380.543 86.7179 381.563 87.8123C382.582 88.9067 383.373 90.196 383.888 91.6036C384.403 93.0112 384.631 94.5086 384.56 96.0068ZM378.148 96.0068C378.148 94.471 377.541 92.998 376.462 91.912C375.382 90.826 373.918 90.2159 372.392 90.2159C370.865 90.2159 369.401 90.826 368.322 91.912C367.242 92.998 366.636 94.471 366.636 96.0068C366.649 97.555 367.259 99.0376 368.337 100.142C369.416 101.246 370.879 101.885 372.417 101.925C373.176 101.918 373.927 101.761 374.626 101.463C375.325 101.164 375.958 100.73 376.49 100.185C377.022 99.6405 377.443 98.9956 377.727 98.2873C378.012 97.5791 378.154 96.8214 378.148 96.0576V96.0068Z" fill="white"/>
<path d="M388.17 96.0575C388.115 93.6603 388.771 91.3009 390.055 89.2806C391.338 87.2602 393.191 85.6705 395.377 84.7143C397.563 83.7582 399.982 83.4791 402.326 83.9126C404.67 84.3461 406.833 85.4725 408.538 87.1481C410.243 88.8237 411.413 90.9723 411.898 93.3199C412.384 95.6674 412.163 98.1073 411.264 100.328C410.365 102.549 408.829 104.45 406.852 105.788C404.874 107.127 402.545 107.842 400.162 107.843C398.599 107.883 397.044 107.608 395.59 107.034C394.135 106.46 392.809 105.598 391.691 104.499C390.573 103.4 389.685 102.087 389.081 100.637C388.476 99.1872 388.166 97.6299 388.17 96.0575ZM405.842 96.0575C405.792 94.9495 405.421 93.8805 404.773 92.9831C404.125 92.0857 403.229 91.3994 402.197 91.0094C401.165 90.6194 400.042 90.5428 398.967 90.7891C397.892 91.0355 396.913 91.594 396.151 92.3953C395.388 93.1966 394.877 94.2055 394.679 95.2967C394.482 96.3879 394.607 97.5135 395.039 98.5337C395.472 99.5539 396.193 100.424 397.112 101.036C398.032 101.648 399.11 101.974 400.212 101.975C400.968 101.966 401.714 101.804 402.406 101.499C403.099 101.195 403.724 100.754 404.244 100.202C404.764 99.6502 405.169 98.9992 405.435 98.2873C405.7 97.5755 405.822 96.8173 405.791 96.0575H405.842ZM398.066 81.0978L402.56 73.1226H408.896L402.686 81.0978H398.066Z" fill="white"/>
<path d="M415.586 100.299H421.468C421.468 101.595 422.554 102.991 424.776 102.991C426.568 102.991 427.956 102.077 427.956 100.782C427.956 99.4864 427.199 99.3341 425.432 98.9023L422.453 98.1657C416.722 96.6418 415.965 93.4161 415.965 91.054C415.965 87.5998 419.55 84.3234 424.7 84.3234C428.764 84.3234 433.561 86.3045 433.51 91.6382H427.527C427.505 91.3021 427.416 90.9738 427.267 90.6725C427.117 90.3711 426.909 90.1026 426.656 89.8828C426.402 89.663 426.107 89.4961 425.789 89.392C425.47 89.2878 425.134 89.2485 424.801 89.2762C423.362 89.2762 422.276 90.0889 422.276 91.2573C422.276 92.4256 423.236 92.832 424.473 93.1876L428.158 94.1527C433.51 95.575 434.167 98.9531 434.167 100.782C434.167 105.481 429.395 107.944 424.801 107.944C420.206 107.944 415.637 105.15 415.586 100.299Z" fill="white"/>
<path d="M438.256 77.0594C438.221 76.2641 438.423 75.4764 438.837 74.7977C439.25 74.119 439.856 73.5804 440.577 73.2511C441.297 72.9219 442.099 72.817 442.879 72.9502C443.659 73.0834 444.382 73.4485 444.954 73.9985C445.526 74.5484 445.922 75.258 446.089 76.036C446.257 76.8139 446.19 77.6246 445.896 78.3637C445.602 79.1027 445.094 79.7363 444.439 80.1829C443.784 80.6294 443.011 80.8684 442.22 80.8692C441.193 80.8897 440.2 80.5005 439.457 79.7867C438.715 79.0729 438.283 78.0924 438.256 77.0594ZM439.115 107.258V84.806H445.376V107.258H439.115Z" fill="white"/>
<path d="M450.071 96.0576C450.016 93.6604 450.672 91.301 451.956 89.2806C453.239 87.2602 455.092 85.6705 457.278 84.7144C459.464 83.7583 461.883 83.4792 464.227 83.9126C466.571 84.3461 468.734 85.4726 470.439 87.1482C472.144 88.8237 473.314 90.9724 473.799 93.3199C474.285 95.6675 474.064 98.1074 473.165 100.328C472.267 102.549 470.73 104.45 468.753 105.788C466.775 107.127 464.446 107.842 462.063 107.843C460.5 107.883 458.946 107.608 457.491 107.034C456.036 106.46 454.71 105.598 453.592 104.499C452.474 103.4 451.586 102.087 450.982 100.637C450.377 99.1873 450.067 97.63 450.071 96.0576ZM467.743 96.0576C467.698 94.9432 467.329 93.8666 466.681 92.9615C466.034 92.0565 465.136 91.3629 464.099 90.9672C463.063 90.5714 461.934 90.4908 460.852 90.7355C459.77 90.9802 458.784 91.5393 458.016 92.3433C457.248 93.1473 456.731 94.1608 456.531 95.2577C456.33 96.3546 456.455 97.4866 456.889 98.513C457.323 99.5393 458.047 100.415 458.971 101.03C459.895 101.646 460.979 101.975 462.088 101.976C462.847 101.969 463.597 101.81 464.294 101.507C464.99 101.204 465.62 100.764 466.145 100.212C466.669 99.6606 467.079 99.0088 467.349 98.2952C467.619 97.5816 467.745 96.8207 467.718 96.0576H467.743Z" fill="white"/>
<path d="M507.1 72.5892H513.361V107.258H507.1V104.465C506.244 105.545 505.152 106.413 503.908 106.999C502.665 107.584 501.303 107.873 499.93 107.843C496.95 107.646 494.156 106.316 492.114 104.123C490.072 101.929 488.936 99.0371 488.936 96.0322C488.936 93.0273 490.072 90.1349 492.114 87.9417C494.156 85.7484 496.95 84.4186 499.93 84.2218C501.305 84.1791 502.67 84.4626 503.916 85.0495C505.162 85.6364 506.252 86.51 507.1 87.5998V72.5892ZM506.898 96.0068C506.868 94.8634 506.504 93.7542 505.851 92.818C505.198 91.8818 504.285 91.1601 503.226 90.7431C502.168 90.3262 501.01 90.2325 499.899 90.4738C498.788 90.7152 497.772 91.2808 496.978 92.0999C496.185 92.9191 495.649 93.9555 495.438 95.0794C495.227 96.2032 495.35 97.3648 495.792 98.4187C496.233 99.4727 496.974 100.372 497.921 101.005C498.868 101.637 499.98 101.975 501.117 101.975C501.889 101.969 502.653 101.809 503.364 101.506C504.075 101.202 504.72 100.761 505.261 100.206C505.803 99.652 506.231 98.9959 506.52 98.2753C506.81 97.5548 506.955 96.7839 506.948 96.0068H506.898Z" fill="white"/>
<path d="M541.661 98.0641H524.772C525.079 99.3368 525.828 100.458 526.883 101.226C527.937 101.994 529.23 102.358 530.527 102.255C531.629 102.261 532.72 102.039 533.732 101.602C534.744 101.165 535.656 100.523 536.409 99.715L540.02 103.423C538.819 104.882 537.304 106.047 535.589 106.83C533.875 107.614 532.006 107.995 530.123 107.944C527.01 107.944 524.024 106.7 521.823 104.485C519.621 102.27 518.385 99.266 518.385 96.1337C518.385 93.0014 519.621 89.9975 521.823 87.7826C524.024 85.5677 527.01 84.3234 530.123 84.3234C531.647 84.2608 533.167 84.5123 534.591 85.0625C536.014 85.6127 537.311 86.45 538.401 87.5228C539.491 88.5956 540.351 89.8814 540.929 91.301C541.507 92.7207 541.79 94.2443 541.762 95.7782C541.812 96.2862 541.761 97.0735 541.661 98.0641ZM535.501 94.0003C535.385 92.7345 534.776 91.5665 533.806 90.7523C532.835 89.9381 531.584 89.5442 530.325 89.6571C529.044 89.5761 527.778 89.9748 526.771 90.7767C525.764 91.5785 525.088 92.7268 524.873 94.0003H535.501Z" fill="white"/>
<path d="M572.308 74.1385C575.147 74.1385 577.87 75.2731 579.877 77.2927C581.884 79.3123 583.012 82.0514 583.012 84.9075C583.012 87.7637 581.884 90.5028 579.877 92.5224C577.87 94.542 575.147 95.6765 572.308 95.6765H565.517V107.258H558.878V74.2401L572.308 74.1385ZM571.98 89.8095C573.18 89.6861 574.292 89.1191 575.101 88.2182C575.909 87.3174 576.357 86.1468 576.357 84.933C576.357 83.7192 575.909 82.5485 575.101 81.6477C574.292 80.7468 573.18 80.1798 571.98 80.0564H565.416V89.8095H571.98Z" fill="white"/>
<path d="M585.36 96.0575C585.3 93.6543 585.953 91.2877 587.236 89.2599C588.519 87.232 590.374 85.6351 592.564 84.6732C594.754 83.7112 597.179 83.4279 599.53 83.8594C601.88 84.2909 604.05 85.4176 605.761 87.0956C607.472 88.7736 608.647 90.9267 609.135 93.2799C609.624 95.633 609.404 98.0793 608.504 100.306C607.605 102.533 606.065 104.439 604.083 105.782C602.101 107.124 599.766 107.842 597.377 107.843C595.812 107.887 594.255 107.614 592.797 107.042C591.339 106.469 590.01 105.607 588.889 104.508C587.769 103.409 586.879 102.095 586.273 100.643C585.666 99.1915 585.356 97.6321 585.36 96.0575ZM603.031 96.0575C602.987 94.942 602.617 93.8644 601.968 92.9589C601.319 92.0533 600.42 91.3598 599.382 90.9649C598.344 90.5699 597.214 90.4909 596.131 90.7376C595.049 90.9843 594.063 91.5459 593.296 92.3524C592.529 93.159 592.014 94.1747 591.817 95.2733C591.619 96.3718 591.747 97.5046 592.185 98.5304C592.623 99.5563 593.351 100.43 594.278 101.042C595.206 101.655 596.292 101.98 597.402 101.975C598.162 101.973 598.913 101.816 599.612 101.514C600.31 101.212 600.941 100.772 601.466 100.22C601.992 99.6676 602.401 99.0143 602.67 98.2991C602.939 97.584 603.062 96.8215 603.031 96.0575ZM595.231 81.0978L599.724 73.1226H606.086L599.876 81.0978H595.231Z" fill="white"/>
<path d="M612.852 100.299H618.734C618.761 100.697 618.87 101.086 619.052 101.44C619.235 101.795 619.488 102.108 619.795 102.36C620.103 102.612 620.459 102.799 620.841 102.907C621.223 103.016 621.622 103.044 622.016 102.991C623.833 102.991 625.222 102.077 625.222 100.782C625.222 99.4864 624.465 99.3341 622.697 98.9023L619.744 98.1657C614.013 96.6418 613.256 93.4161 613.256 91.054C613.256 87.5998 616.841 84.3234 621.991 84.3234C626.055 84.3234 630.826 86.3045 630.776 91.6382H624.818C624.796 91.3021 624.707 90.9738 624.558 90.6725C624.408 90.3711 624.2 90.1026 623.946 89.8828C623.693 89.663 623.398 89.4961 623.08 89.392C622.761 89.2878 622.425 89.2485 622.092 89.2762C620.653 89.2762 619.567 90.0889 619.567 91.2573C619.567 92.4256 620.526 92.832 621.763 93.1876L625.449 94.1527C630.776 95.575 631.458 98.9531 631.458 100.782C631.458 105.481 626.686 107.944 622.092 107.944C617.497 107.944 612.902 105.15 612.852 100.299Z" fill="white"/>
<path d="M636.254 98.5466V92.9843H653.067V98.5466H636.254Z" fill="white"/>
<path d="M659 90.7239C658.977 88.484 659.394 86.2615 660.227 84.1844C661.061 82.1073 662.294 80.2165 663.857 78.6208C665.419 77.0252 667.28 75.756 669.332 74.8865C671.384 74.0171 673.587 73.5643 675.813 73.5544C678.101 73.5191 680.37 73.9716 682.472 74.8821C684.574 75.7927 686.46 77.1406 688.006 78.8373L683.185 83.0281C682.245 82.0021 681.106 81.1817 679.838 80.618C678.57 80.0543 677.199 79.7594 675.813 79.7516C672.994 79.9114 670.345 81.157 668.415 83.23C666.486 85.303 665.423 88.0441 665.449 90.8842C665.475 93.7243 666.588 96.4453 668.555 98.4823C670.522 100.519 673.194 101.716 676.015 101.823C680.307 101.823 684.573 99.2832 684.573 95.3972H675.258V89.9619H691.844C691.844 102.204 685.103 107.741 676.167 107.741C673.921 107.785 671.69 107.377 669.604 106.54C667.518 105.704 665.62 104.456 664.02 102.871C662.42 101.285 661.152 99.3936 660.29 97.3075C659.428 95.2215 658.989 92.983 659 90.7239Z" fill="white"/>
<path d="M713.1 85.06L711.661 91.054C710.679 90.5123 709.575 90.2325 708.455 90.2413C705.274 90.2413 703.078 93.2637 703.078 99.6642V107.284H696.817V84.806H703.027V89.6063C703.365 88.1039 704.191 86.758 705.376 85.7824C706.561 84.8068 708.035 84.2576 709.566 84.2218C710.792 84.2223 712.002 84.5092 713.1 85.06Z" fill="white"/>
<path d="M732.943 84.806H739.204V107.258H732.943V104.033C732.123 105.225 731.024 106.197 729.743 106.861C728.462 107.525 727.038 107.863 725.596 107.843C719.411 107.843 714.842 103.017 714.842 96.0576C714.842 89.0983 719.336 84.2219 725.723 84.2219C727.123 84.1766 728.513 84.477 729.772 85.0968C731.031 85.7166 732.119 86.637 732.943 87.7777V84.806ZM732.766 96.0576C732.773 95.2804 732.627 94.5095 732.338 93.789C732.048 93.0684 731.621 92.4123 731.079 91.858C730.537 91.3038 729.893 90.8623 729.182 90.5587C728.47 90.2552 727.707 90.0956 726.934 90.0889C726.168 90.0953 725.41 90.2557 724.706 90.5608C724.002 90.8659 723.365 91.3095 722.833 91.8656C722.302 92.4216 721.886 93.0788 721.611 93.7987C721.335 94.5185 721.205 95.2865 721.229 96.0576C721.177 96.852 721.287 97.6488 721.553 98.3985C721.82 99.1483 722.236 99.8351 722.777 100.416C723.318 100.998 723.971 101.461 724.697 101.778C725.423 102.095 726.206 102.258 726.998 102.258C727.789 102.258 728.572 102.095 729.298 101.778C730.024 101.461 730.677 100.998 731.218 100.416C731.759 99.8351 732.175 99.1483 732.442 98.3985C732.708 97.6488 732.818 96.852 732.766 96.0576Z" fill="white"/>
<path d="M762.252 72.5892H768.513V107.258H762.252V104.465C761.394 105.542 760.302 106.407 759.058 106.993C757.815 107.579 756.455 107.869 755.083 107.843C752.103 107.646 749.308 106.316 747.267 104.123C745.225 101.929 744.089 99.0371 744.089 96.0322C744.089 93.0273 745.225 90.1349 747.267 87.9416C749.308 85.7484 752.103 84.4186 755.083 84.2218C756.453 84.1751 757.815 84.4517 759.06 85.0294C760.305 85.6072 761.398 86.4701 762.252 87.5491V72.5892ZM762.05 96.0068C762.031 94.4655 761.417 92.9921 760.339 91.8974C759.26 90.8027 757.801 90.1725 756.269 90.1397C755.504 90.1463 754.746 90.3047 754.041 90.6057C753.336 90.9067 752.697 91.3445 752.16 91.894C751.624 92.4435 751.2 93.094 750.913 93.8084C750.626 94.5228 750.482 95.2871 750.488 96.0575C750.488 96.8213 750.638 97.5777 750.928 98.2834C751.219 98.9891 751.645 99.6302 752.181 100.17C752.718 100.71 753.356 101.139 754.057 101.431C754.758 101.723 755.51 101.874 756.269 101.874C757.029 101.874 757.78 101.723 758.482 101.431C759.183 101.139 759.82 100.71 760.357 100.17C760.894 99.6302 761.32 98.9891 761.61 98.2834C761.901 97.5777 762.05 96.8213 762.05 96.0575V96.0068Z" fill="white"/>
<path d="M789.971 84.806H796.232V107.258H789.971V103.601C789.399 104.9 788.459 106.002 787.27 106.769C786.081 107.537 784.694 107.936 783.282 107.919C777.45 107.919 774.395 103.982 774.446 97.2513V84.806H780.707V96.8196C780.707 100.35 782.802 101.899 784.948 101.899C785.64 101.944 786.333 101.836 786.979 101.583C787.626 101.33 788.209 100.939 788.69 100.436C789.171 99.9329 789.536 99.3307 789.762 98.6711C789.988 98.0114 790.068 97.3103 789.997 96.6163L789.971 84.806Z" fill="white"/>
<path d="M819.332 84.806H825.592V107.258H819.332V104.033C818.503 105.223 817.399 106.191 816.114 106.855C814.83 107.519 813.404 107.858 811.96 107.843C810.468 107.833 808.993 107.515 807.629 106.906C806.265 106.298 805.04 105.413 804.031 104.308C803.021 103.202 802.25 101.898 801.764 100.479C801.277 99.0593 801.087 97.5542 801.206 96.0576C801.206 89.0984 805.699 84.2219 812.111 84.2219C813.511 84.1832 814.899 84.4864 816.157 85.1057C817.414 85.725 818.504 86.6419 819.332 87.7777V84.806ZM819.13 96.0576C819.136 95.2804 818.991 94.5096 818.701 93.789C818.412 93.0685 817.984 92.4123 817.443 91.8581C816.901 91.3038 816.256 90.8623 815.545 90.5588C814.834 90.2552 814.07 90.0956 813.298 90.089C812.533 90.0987 811.778 90.2616 811.077 90.5682C810.376 90.8748 809.742 91.3189 809.213 91.8746C808.685 92.4302 808.271 93.0863 807.997 93.8045C807.723 94.5227 807.594 95.2887 807.618 96.0576C807.604 97.605 808.199 99.0951 809.272 100.203C810.346 101.312 811.811 101.949 813.348 101.976C814.891 101.949 816.361 101.314 817.443 100.207C818.524 99.0997 819.13 97.6097 819.13 96.0576Z" fill="white"/>
<path d="M847.455 99.715L852.125 103.017C851.289 104.233 850.22 105.269 848.98 106.063C847.74 106.857 846.354 107.393 844.905 107.639L846.218 110.179C846.544 110.878 846.708 111.642 846.697 112.414C846.729 113.077 846.624 113.739 846.391 114.359C846.158 114.98 845.801 115.545 845.342 116.021C844.883 116.497 844.332 116.874 843.723 117.127C843.113 117.38 842.459 117.505 841.8 117.494C841.073 117.527 840.348 117.402 839.673 117.127C838.999 116.853 838.391 116.434 837.893 115.901C837.394 115.368 837.016 114.733 836.784 114.039C836.552 113.345 836.472 112.609 836.549 111.881H839.906C839.906 113.329 840.437 114.421 841.724 114.421C841.955 114.418 842.183 114.368 842.394 114.273C842.605 114.178 842.794 114.04 842.95 113.869C843.107 113.698 843.226 113.496 843.302 113.276C843.377 113.057 843.408 112.824 843.39 112.592C843.393 112.243 843.324 111.897 843.188 111.576L841.623 107.97C838.617 107.688 835.835 106.252 833.853 103.961C831.872 101.669 830.845 98.6974 830.984 95.6634C831.124 92.6293 832.42 89.7661 834.604 87.6685C836.787 85.5709 839.69 84.4001 842.709 84.3996C844.551 84.3697 846.372 84.7938 848.013 85.635C849.654 86.4762 851.066 87.7089 852.125 89.2254L847.455 92.5272C846.918 91.8062 846.225 91.2168 845.43 90.8033C844.634 90.3898 843.755 90.163 842.86 90.1397C842.083 90.1118 841.309 90.2439 840.585 90.5279C839.861 90.8119 839.202 91.2418 838.648 91.7912C838.095 92.3406 837.66 92.998 837.368 93.7229C837.076 94.4478 836.935 95.225 836.953 96.0068C836.925 96.7983 837.058 97.5873 837.344 98.3251C837.631 99.063 838.063 99.7343 838.616 100.298C839.17 100.862 839.831 101.306 840.561 101.603C841.291 101.9 842.073 102.044 842.86 102.026C843.749 102.012 844.624 101.797 845.419 101.397C846.214 100.997 846.91 100.422 847.455 99.715Z" fill="white"/>
<path d="M872.902 84.806H879.162V107.258H872.902V104.033C872.093 105.236 871.001 106.22 869.725 106.898C868.448 107.575 867.024 107.926 865.581 107.919C864.088 107.909 862.614 107.591 861.25 106.983C859.886 106.374 858.66 105.49 857.651 104.384C856.642 103.278 855.87 101.974 855.384 100.555C854.898 99.1355 854.708 97.6304 854.826 96.1337C854.826 89.1745 859.32 84.298 865.732 84.298C867.128 84.257 868.514 84.5594 869.767 85.179C871.021 85.7987 872.106 86.7168 872.927 87.8538L872.902 84.806ZM864.167 80.285H860.86C861.112 75.7133 863.384 74.2656 865.454 74.2656C867.525 74.2656 868.56 76.2467 869.62 76.2467C870.049 76.2467 870.857 75.8149 870.907 74.2656H874.24C874.012 78.8119 871.513 80.1326 869.62 80.1326C867.726 80.1326 866.59 78.177 865.454 78.177C865.076 78.177 864.217 78.7103 864.167 80.285ZM872.725 96.0575C872.732 95.2804 872.586 94.5095 872.297 93.789C872.007 93.0684 871.579 92.4123 871.038 91.858C870.496 91.3038 869.852 90.8623 869.141 90.5587C868.429 90.2552 867.666 90.0956 866.893 90.0889C866.127 90.0953 865.369 90.2557 864.665 90.5608C863.96 90.8659 863.324 91.3095 862.793 91.8655C862.261 92.4215 861.845 93.0788 861.57 93.7986C861.294 94.5185 861.164 95.2865 861.188 96.0575C861.136 96.852 861.246 97.6488 861.512 98.3985C861.779 99.1483 862.195 99.8351 862.736 100.416C863.277 100.998 863.93 101.461 864.656 101.778C865.382 102.095 866.165 102.258 866.957 102.258C867.748 102.258 868.531 102.095 869.257 101.778C869.983 101.461 870.636 100.998 871.177 100.416C871.718 99.8351 872.134 99.1483 872.401 98.3985C872.667 97.6488 872.777 96.852 872.725 96.0575Z" fill="white"/>
<path d="M884.06 96.0575C884 93.6544 884.653 91.2877 885.936 89.2599C887.22 87.232 889.075 85.6351 891.264 84.6732C893.454 83.7112 895.879 83.4279 898.23 83.8594C900.58 84.2909 902.75 85.4176 904.461 87.0956C906.172 88.7736 907.347 90.9268 907.835 93.2799C908.324 95.633 908.105 98.0793 907.205 100.306C906.305 102.533 904.765 104.44 902.783 105.782C900.801 107.124 898.466 107.842 896.077 107.843C894.512 107.887 892.955 107.614 891.497 107.042C890.039 106.469 888.71 105.607 887.59 104.508C886.469 103.409 885.579 102.095 884.973 100.643C884.366 99.1916 884.056 97.6321 884.06 96.0575ZM901.732 96.0575C901.687 94.9421 901.317 93.8645 900.668 92.9589C900.019 92.0533 899.12 91.3599 898.082 90.9649C897.044 90.5699 895.914 90.4909 894.832 90.7376C893.749 90.9843 892.763 91.5459 891.996 92.3525C891.229 93.159 890.714 94.1747 890.517 95.2733C890.319 96.3718 890.447 97.5046 890.885 98.5304C891.323 99.5563 892.051 100.43 892.978 101.042C893.906 101.655 894.992 101.98 896.102 101.975C896.86 101.969 897.609 101.81 898.304 101.507C899 101.204 899.627 100.763 900.15 100.211C900.673 99.6588 901.08 99.0067 901.347 98.2932C901.615 97.5798 901.737 96.8194 901.706 96.0575H901.732Z" fill="white"/>
<path d="M195.752 179.416V146.398H202.391V179.416H195.752Z" fill="white"/>
<path d="M230.691 152.214H216.983V160.189H227.889V166.056H216.983V179.416H210.343V146.398H230.691V152.214Z" fill="white"/>
<path d="M234.175 169.815H240.814C241.002 171.09 241.665 172.246 242.668 173.047C243.671 173.849 244.94 174.237 246.217 174.133C249.196 174.133 251.266 172.507 251.266 170.145C251.266 168.317 249.928 167.021 247.126 166.158L243.112 164.989C235.891 163.059 234.604 158.691 234.604 155.719C234.604 149.801 239.653 145.712 245.964 145.712C252.276 145.712 256.971 149.522 256.971 155.871H250.306C250.32 155.289 250.21 154.71 249.985 154.173C249.759 153.636 249.423 153.154 248.998 152.757C248.573 152.361 248.07 152.06 247.52 151.875C246.971 151.689 246.389 151.623 245.813 151.681C245.257 151.632 244.698 151.696 244.168 151.869C243.638 152.042 243.147 152.32 242.726 152.688C242.305 153.055 241.961 153.503 241.715 154.006C241.469 154.51 241.326 155.057 241.294 155.617C241.294 156.43 241.521 158.157 244.954 159.122L248.64 160.189C253.689 161.688 257.956 164.228 257.956 169.866C257.956 176.444 252.377 180.025 246.166 180.025C238.997 180 234.175 175.631 234.175 169.815Z" fill="white"/>
<path d="M263.51 167.732V146.296H270.149V167.301C270.096 168.119 270.211 168.939 270.485 169.711C270.76 170.483 271.189 171.191 271.747 171.789C272.304 172.387 272.977 172.864 273.725 173.19C274.473 173.516 275.279 173.685 276.094 173.685C276.909 173.685 277.716 173.516 278.464 173.19C279.212 172.864 279.885 172.387 280.442 171.789C280.999 171.191 281.429 170.483 281.703 169.711C281.978 168.939 282.093 168.119 282.04 167.301V146.296H288.704V167.732C288.704 171.101 287.374 174.331 285.007 176.712C282.64 179.094 279.43 180.432 276.082 180.432C272.734 180.432 269.523 179.094 267.156 176.712C264.789 174.331 263.459 171.101 263.459 167.732H263.51Z" fill="white"/>
<path d="M303.094 173.498H315.565V179.416H296.454V146.398H303.094V173.498Z" fill="white"/>
<path d="M332.909 146.296C342.375 146.296 347.879 153.509 347.879 162.932C347.879 172.355 342.375 179.416 332.909 179.416H320.008V146.398L332.909 146.296ZM332.909 173.498C338.412 173.498 341.239 168.596 341.239 162.932C341.239 157.268 338.412 152.214 332.909 152.214H326.648V173.498H332.909Z" fill="white"/>
<path d="M360.678 173.498H375.118V179.416H354.114V146.398H374.74V152.316H360.678V160.189H372.947V166.209H360.678V173.498Z" fill="white"/>
<path d="M419.676 179.416H412.885L410.512 158.894L402.484 175.657H397.258L389.129 158.894L386.756 179.416H379.965L384.03 146.398H389.66L399.758 168.114L409.856 146.398H415.586L419.676 179.416Z" fill="white"/>
<path d="M426.088 179.416V146.398H432.728V179.416H426.088Z" fill="white"/>
<path d="M458.579 146.296H465.218V179.314H459.26L447.294 158.716V179.492H440.655V146.474H446.815L458.579 166.996V146.296Z" fill="white"/>
<path d="M493.846 179.416L491.17 171.415H478.851L476.2 179.34H469.232L481.527 146.321H488.696L500.915 179.34L493.846 179.416ZM480.795 165.675H489.201L485.01 153.128L480.795 165.675Z" fill="white"/>
<path d="M502.505 169.815H509.145C509.333 171.09 509.995 172.246 510.998 173.047C512.002 173.849 513.27 174.237 514.547 174.133C517.526 174.133 519.47 172.507 519.47 170.145C519.47 168.317 518.132 167.021 515.33 166.158L511.291 164.989C504.096 163.059 502.808 158.691 502.808 155.719C502.808 149.801 507.857 145.712 514.168 145.712C520.48 145.712 525.175 149.522 525.175 155.871H518.511C518.524 155.289 518.415 154.71 518.189 154.173C517.963 153.636 517.627 153.154 517.202 152.757C516.777 152.361 516.274 152.06 515.725 151.875C515.176 151.689 514.593 151.623 514.017 151.681C513.462 151.632 512.902 151.696 512.372 151.869C511.842 152.042 511.351 152.32 510.93 152.688C510.509 153.055 510.165 153.503 509.919 154.006C509.673 154.51 509.53 155.057 509.498 155.617C509.498 156.43 509.725 158.157 513.159 159.122L516.844 160.189C521.893 161.688 526.16 164.228 526.16 169.866C526.16 176.444 520.581 180.025 514.37 180.025C507.327 180 502.505 175.631 502.505 169.815Z" fill="white"/>
<path d="M551.759 173.498H562.841V179.416H541.761V176.012L554.005 161.256C555.124 160.068 555.87 158.575 556.151 156.963C556.134 156.444 556.009 155.934 555.786 155.466C555.563 154.997 555.246 154.58 554.854 154.242C554.463 153.903 554.006 153.649 553.512 153.497C553.018 153.344 552.499 153.297 551.986 153.357C550.758 153.336 549.572 153.806 548.688 154.663C547.803 155.519 547.291 156.694 547.265 157.929L541.585 156.963C541.76 154.29 542.978 151.795 544.973 150.02C546.969 148.246 549.58 147.337 552.238 147.49C558.499 147.49 562.563 151.3 562.563 157.014C562.439 160.013 561.206 162.858 559.105 164.989L551.759 173.498Z" fill="white"/>
<path d="M567.688 163.796C567.688 154.703 570.213 147.541 579.402 147.541C588.591 147.541 590.964 154.703 590.964 163.796C590.964 172.888 588.44 180.051 579.402 180.051C570.364 180.051 567.688 172.685 567.688 163.796ZM584.577 163.796C584.577 157.979 583.416 153.408 579.402 153.408C575.388 153.408 574.05 157.979 574.05 163.796C574.05 169.612 575.287 174.184 579.402 174.184C583.517 174.184 584.653 169.46 584.653 163.796H584.577Z" fill="white"/>
<path d="M605.556 173.498H616.639V179.416H595.458V176.012L607.702 161.256C608.821 160.068 609.567 158.575 609.848 156.963C609.83 156.444 609.706 155.934 609.483 155.466C609.259 154.997 608.942 154.58 608.551 154.242C608.159 153.903 607.702 153.649 607.209 153.497C606.715 153.344 606.195 153.297 605.682 153.357C604.454 153.336 603.269 153.806 602.384 154.663C601.499 155.519 600.988 156.694 600.961 157.929L595.281 156.963C595.457 154.29 596.674 151.795 598.67 150.02C600.665 148.246 603.276 147.337 605.935 147.49C612.195 147.49 616.26 151.3 616.26 157.014C616.136 160.013 614.902 162.858 612.801 164.989L605.556 173.498Z" fill="white"/>
<path d="M633.326 147.49H633.856V179.416H627.544V156.176L620.324 158.97V153.052L633.326 147.49Z" fill="white"/>
</g>
<g clip-path="url(#clip1)">
<path d="M82.0201 178.001L81.8897 160.175C84.757 160.432 87.6316 160.549 90.5137 160.528C102.256 160.465 113.869 158.082 124.688 153.518C135.506 148.953 145.315 142.296 153.553 133.93L155.276 132.182L139.758 116.886C139.858 116.778 139.952 116.663 140.052 116.549C140.415 116.155 140.759 115.755 141.103 115.349C141.448 114.942 141.848 114.498 142.205 114.078C142.562 113.659 142.83 113.26 143.187 112.847C143.544 112.434 143.881 111.959 144.218 111.508C144.556 111.058 144.843 110.664 145.137 110.239C145.43 109.814 145.761 109.32 146.099 108.85C146.436 108.381 146.673 107.988 146.948 107.582C147.222 107.176 147.572 106.631 147.846 106.143C148.12 105.655 148.37 105.262 148.625 104.825C148.881 104.387 149.186 103.836 149.454 103.342C149.722 102.848 149.933 102.443 150.17 101.986C150.406 101.53 150.68 100.973 150.922 100.46C151.165 99.9472 151.357 99.5483 151.543 99.0926C151.729 98.6369 152.009 98.0416 152.232 97.5163C152.456 96.9909 152.617 96.5921 152.803 96.1301C152.989 95.6681 153.218 95.048 153.422 94.5038C153.626 93.9596 153.763 93.58 153.923 93.1119C154.084 92.6437 154.287 92.0049 154.46 91.442C154.608 90.9803 154.756 90.5123 154.892 90.038C155.027 89.5637 155.205 88.8998 155.352 88.3245C155.475 87.8567 155.598 87.3888 155.708 86.9147C155.849 86.3331 155.971 85.7391 156.093 85.1513C156.19 84.6836 156.294 84.2222 156.379 83.7483C156.495 83.1165 156.591 82.5289 156.688 81.9161C156.76 81.4549 156.839 81.0063 156.905 80.5451C156.989 79.9135 157.06 79.2441 157.13 78.5936C157.172 78.1642 157.231 77.7347 157.273 77.3305C157.337 76.6043 157.376 75.8658 157.414 75.1335C157.412 74.7738 157.466 74.42 157.482 74.0539C157.525 72.9556 157.548 71.8574 157.54 70.7532C157.449 58.4408 154 46.3866 147.564 35.8889C141.129 25.3912 131.951 16.8477 121.019 11.1786C110.088 5.50957 97.8162 2.92973 85.5266 3.71699C73.237 4.50425 61.3951 8.62877 51.2762 15.6463L50.9121 15.9077C50.1712 16.4369 49.4304 16.9724 48.7086 17.5266C48.445 17.7242 48.1878 17.9406 47.9307 18.1634C47.3471 18.622 46.7636 19.0932 46.1928 19.577C45.8352 19.8762 45.4905 20.2131 45.1455 20.4933C44.6689 20.9133 44.1923 21.3333 43.7284 21.7657L43.4024 22.0584L27.9035 6.78723L26.1806 8.53517C-8.4203 43.6402 -8.00545 100.348 27.1054 134.949C40.7699 148.439 58.4335 157.144 77.4562 159.766L77.5905 178.128L1.28366 178.686L1.31597 183.103L158.36 181.954L158.328 177.537L82.0201 178.001ZM133.927 26.476C145.49 37.8608 152.19 53.2826 152.621 69.5023C153.051 85.7221 147.178 101.478 136.236 113.46L124.202 101.558C128.331 96.9126 131.473 91.4762 133.437 85.5792C135.4 79.6821 136.144 73.4475 135.623 67.2542C135.102 61.0608 133.327 55.0381 130.406 49.5519C127.484 44.0657 123.478 39.2306 118.63 35.3403C118.433 35.184 118.218 35.0531 117.996 34.8969C116.974 34.0967 115.933 33.3281 114.823 32.6232L114.652 32.5235C107.155 27.6786 98.4001 25.1405 89.4734 25.2236C80.5611 25.2884 71.8632 27.9626 64.4545 32.9159C64.4043 32.9542 64.3477 32.9798 64.2912 33.0181C63.2109 33.7454 62.1691 34.5418 61.1526 35.3632C60.9643 35.5098 60.7696 35.6374 60.5877 35.7902C60.0231 36.255 59.5031 36.7825 58.9576 37.2724L46.9234 25.415C58.7623 14.337 74.4251 8.26212 90.6387 8.45985C106.852 8.65757 122.362 15.1126 133.927 26.476V26.476ZM119.071 99.9611C118.088 100.959 117.059 101.869 116.006 102.779C115.855 102.9 115.686 103.009 115.535 103.13C114.606 103.875 113.652 104.595 112.685 105.252L112.566 105.328C105.925 109.726 98.1503 112.102 90.1854 112.168C82.2204 112.234 74.4074 109.987 67.6946 105.701L67.5107 105.595C66.5532 104.971 65.6077 104.277 64.7126 103.571C64.5348 103.427 64.3446 103.308 64.1669 103.165C63.0841 102.299 62.0472 101.378 61.0604 100.404C53.5078 93.0372 49.0849 83.0434 48.7109 72.5002C48.3369 61.9569 52.0405 51.675 59.0521 43.7912C66.0636 35.9073 75.8439 31.0279 86.3603 30.167C96.8768 29.306 107.321 32.5297 115.521 39.1682C116.601 40.0395 117.645 40.97 118.653 41.9597C126.389 49.6026 130.777 60.0008 130.855 70.874C130.934 81.7471 126.696 92.2076 119.071 99.9611V99.9611ZM43.4462 28.9111L55.4867 40.7748C47.703 49.5732 43.5843 61.0175 43.9765 72.7573C44.3688 84.4971 49.2422 95.6411 57.5958 103.9C58.7083 104.997 59.8708 106.023 61.0707 106.992C61.2739 107.155 61.4958 107.292 61.7053 107.455C62.7208 108.242 63.7489 109.011 64.8143 109.704C64.8967 109.76 64.9791 109.797 65.0552 109.847C72.534 114.66 81.2579 117.18 90.1518 117.097C99.0641 117.049 107.767 114.39 115.184 109.449C115.246 109.41 115.322 109.372 115.385 109.327C116.459 108.606 117.494 107.816 118.523 106.995C118.711 106.842 118.919 106.714 119.107 106.555C119.672 106.09 120.192 105.569 120.737 105.073L132.771 116.93C120.93 127.953 105.289 133.977 89.1117 133.746C72.9347 133.515 57.4718 127.047 45.9501 115.691C34.4283 104.335 27.7378 88.9694 27.2748 72.8C26.8118 56.6307 32.612 40.9073 43.4651 28.911L43.4462 28.9111ZM27.96 13.6524L29.721 15.3875L39.9497 25.466C27.9114 38.3464 21.3779 55.4167 21.7403 73.0417C22.1027 90.6668 29.3325 107.454 41.89 119.829C54.4476 132.204 71.3408 139.188 88.9722 139.295C106.604 139.402 123.58 132.622 136.287 120.401L146.535 130.498L148.302 132.239C115.461 163.697 63.1567 163.511 30.5507 131.391C-2.0554 99.2697 -2.97456 46.9575 27.979 13.6523L27.96 13.6524Z" fill="white"/>
</g>
<defs>
<clipPath id="clip0">
<rect width="793" height="180" fill="white" transform="translate(193)"/>
</clipPath>
<clipPath id="clip1">
<rect width="157.055" height="178.868" fill="white" transform="translate(0 4.14893) rotate(-0.419145)"/>
</clipPath>
</defs>
</svg>
